%TF.GenerationSoftware,KiCad,Pcbnew,(5.1.10)-1*%
%TF.CreationDate,2022-08-09T12:22:40-04:00*%
%TF.ProjectId,VIC20 2587KB Memory Expander,56494332-3020-4323-9538-374b42204d65,2*%
%TF.SameCoordinates,Original*%
%TF.FileFunction,Soldermask,Top*%
%TF.FilePolarity,Negative*%
%FSLAX46Y46*%
G04 Gerber Fmt 4.6, Leading zero omitted, Abs format (unit mm)*
G04 Created by KiCad (PCBNEW (5.1.10)-1) date 2022-08-09 12:22:40*
%MOMM*%
%LPD*%
G01*
G04 APERTURE LIST*
%ADD10C,0.100000*%
%ADD11R,2.250000X9.500000*%
%ADD12C,4.200000*%
%ADD13O,1.600000X1.600000*%
%ADD14R,1.600000X1.600000*%
%ADD15C,1.600000*%
%ADD16R,1.870000X0.380000*%
%ADD17R,1.100000X0.250000*%
%ADD18R,1.700000X1.700000*%
%ADD19O,1.700000X1.700000*%
%ADD20C,1.700000*%
%ADD21R,1.000000X0.500000*%
%ADD22R,1.100000X0.400000*%
G04 APERTURE END LIST*
D10*
%TO.C,X1*%
G36*
X95235000Y-121285000D02*
G01*
X185435000Y-121285000D01*
X185435000Y-111335000D01*
X95235000Y-111335000D01*
X95235000Y-121285000D01*
G37*
X95235000Y-121285000D02*
X185435000Y-121285000D01*
X185435000Y-111335000D01*
X95235000Y-111335000D01*
X95235000Y-121285000D01*
%TD*%
D11*
%TO.C,X1*%
X173995000Y-116035000D03*
X110635000Y-116035000D03*
X102715000Y-116035000D03*
X150235000Y-116035000D03*
X122515000Y-116035000D03*
X126475000Y-116035000D03*
X130435000Y-116035000D03*
X106675000Y-116035000D03*
X177955000Y-116035000D03*
X166075000Y-116035000D03*
X146275000Y-116035000D03*
X142315000Y-116035000D03*
X158155000Y-116035000D03*
X170035000Y-116035000D03*
X162115000Y-116035000D03*
X138355000Y-116035000D03*
X134395000Y-116035000D03*
X118555000Y-116035000D03*
X154195000Y-116035000D03*
X114595000Y-116035000D03*
D12*
X140335000Y-81285000D03*
%TD*%
D13*
%TO.C,SW2*%
X177165000Y-55880000D03*
X159385000Y-48260000D03*
X174625000Y-55880000D03*
X161925000Y-48260000D03*
X172085000Y-55880000D03*
X164465000Y-48260000D03*
X169545000Y-55880000D03*
X167005000Y-48260000D03*
X167005000Y-55880000D03*
X169545000Y-48260000D03*
X164465000Y-55880000D03*
X172085000Y-48260000D03*
X161925000Y-55880000D03*
X174625000Y-48260000D03*
X159385000Y-55880000D03*
D14*
X177165000Y-48260000D03*
%TD*%
%TO.C,C1*%
X100965000Y-105410000D03*
D15*
X100965000Y-101910000D03*
%TD*%
%TO.C,C2*%
G36*
G01*
X102710500Y-91202500D02*
X102710500Y-91677500D01*
G75*
G02*
X102473000Y-91915000I-237500J0D01*
G01*
X101898000Y-91915000D01*
G75*
G02*
X101660500Y-91677500I0J237500D01*
G01*
X101660500Y-91202500D01*
G75*
G02*
X101898000Y-90965000I237500J0D01*
G01*
X102473000Y-90965000D01*
G75*
G02*
X102710500Y-91202500I0J-237500D01*
G01*
G37*
G36*
G01*
X104460500Y-91202500D02*
X104460500Y-91677500D01*
G75*
G02*
X104223000Y-91915000I-237500J0D01*
G01*
X103648000Y-91915000D01*
G75*
G02*
X103410500Y-91677500I0J237500D01*
G01*
X103410500Y-91202500D01*
G75*
G02*
X103648000Y-90965000I237500J0D01*
G01*
X104223000Y-90965000D01*
G75*
G02*
X104460500Y-91202500I0J-237500D01*
G01*
G37*
%TD*%
%TO.C,C3*%
G36*
G01*
X128013000Y-98027500D02*
X128013000Y-97552500D01*
G75*
G02*
X128250500Y-97315000I237500J0D01*
G01*
X128825500Y-97315000D01*
G75*
G02*
X129063000Y-97552500I0J-237500D01*
G01*
X129063000Y-98027500D01*
G75*
G02*
X128825500Y-98265000I-237500J0D01*
G01*
X128250500Y-98265000D01*
G75*
G02*
X128013000Y-98027500I0J237500D01*
G01*
G37*
G36*
G01*
X129763000Y-98027500D02*
X129763000Y-97552500D01*
G75*
G02*
X130000500Y-97315000I237500J0D01*
G01*
X130575500Y-97315000D01*
G75*
G02*
X130813000Y-97552500I0J-237500D01*
G01*
X130813000Y-98027500D01*
G75*
G02*
X130575500Y-98265000I-237500J0D01*
G01*
X130000500Y-98265000D01*
G75*
G02*
X129763000Y-98027500I0J237500D01*
G01*
G37*
%TD*%
%TO.C,C4*%
G36*
G01*
X169796000Y-82978000D02*
X169796000Y-82503000D01*
G75*
G02*
X170033500Y-82265500I237500J0D01*
G01*
X170608500Y-82265500D01*
G75*
G02*
X170846000Y-82503000I0J-237500D01*
G01*
X170846000Y-82978000D01*
G75*
G02*
X170608500Y-83215500I-237500J0D01*
G01*
X170033500Y-83215500D01*
G75*
G02*
X169796000Y-82978000I0J237500D01*
G01*
G37*
G36*
G01*
X171546000Y-82978000D02*
X171546000Y-82503000D01*
G75*
G02*
X171783500Y-82265500I237500J0D01*
G01*
X172358500Y-82265500D01*
G75*
G02*
X172596000Y-82503000I0J-237500D01*
G01*
X172596000Y-82978000D01*
G75*
G02*
X172358500Y-83215500I-237500J0D01*
G01*
X171783500Y-83215500D01*
G75*
G02*
X171546000Y-82978000I0J237500D01*
G01*
G37*
%TD*%
%TO.C,C5*%
G36*
G01*
X153766000Y-74469000D02*
X153766000Y-73994000D01*
G75*
G02*
X154003500Y-73756500I237500J0D01*
G01*
X154578500Y-73756500D01*
G75*
G02*
X154816000Y-73994000I0J-237500D01*
G01*
X154816000Y-74469000D01*
G75*
G02*
X154578500Y-74706500I-237500J0D01*
G01*
X154003500Y-74706500D01*
G75*
G02*
X153766000Y-74469000I0J237500D01*
G01*
G37*
G36*
G01*
X152016000Y-74469000D02*
X152016000Y-73994000D01*
G75*
G02*
X152253500Y-73756500I237500J0D01*
G01*
X152828500Y-73756500D01*
G75*
G02*
X153066000Y-73994000I0J-237500D01*
G01*
X153066000Y-74469000D01*
G75*
G02*
X152828500Y-74706500I-237500J0D01*
G01*
X152253500Y-74706500D01*
G75*
G02*
X152016000Y-74469000I0J237500D01*
G01*
G37*
%TD*%
%TO.C,C6*%
G36*
G01*
X171481000Y-68914000D02*
X171481000Y-69389000D01*
G75*
G02*
X171243500Y-69626500I-237500J0D01*
G01*
X170668500Y-69626500D01*
G75*
G02*
X170431000Y-69389000I0J237500D01*
G01*
X170431000Y-68914000D01*
G75*
G02*
X170668500Y-68676500I237500J0D01*
G01*
X171243500Y-68676500D01*
G75*
G02*
X171481000Y-68914000I0J-237500D01*
G01*
G37*
G36*
G01*
X173231000Y-68914000D02*
X173231000Y-69389000D01*
G75*
G02*
X172993500Y-69626500I-237500J0D01*
G01*
X172418500Y-69626500D01*
G75*
G02*
X172181000Y-69389000I0J237500D01*
G01*
X172181000Y-68914000D01*
G75*
G02*
X172418500Y-68676500I237500J0D01*
G01*
X172993500Y-68676500D01*
G75*
G02*
X173231000Y-68914000I0J-237500D01*
G01*
G37*
%TD*%
%TO.C,C7*%
G36*
G01*
X181861000Y-69389000D02*
X181861000Y-68914000D01*
G75*
G02*
X182098500Y-68676500I237500J0D01*
G01*
X182673500Y-68676500D01*
G75*
G02*
X182911000Y-68914000I0J-237500D01*
G01*
X182911000Y-69389000D01*
G75*
G02*
X182673500Y-69626500I-237500J0D01*
G01*
X182098500Y-69626500D01*
G75*
G02*
X181861000Y-69389000I0J237500D01*
G01*
G37*
G36*
G01*
X183611000Y-69389000D02*
X183611000Y-68914000D01*
G75*
G02*
X183848500Y-68676500I237500J0D01*
G01*
X184423500Y-68676500D01*
G75*
G02*
X184661000Y-68914000I0J-237500D01*
G01*
X184661000Y-69389000D01*
G75*
G02*
X184423500Y-69626500I-237500J0D01*
G01*
X183848500Y-69626500D01*
G75*
G02*
X183611000Y-69389000I0J237500D01*
G01*
G37*
%TD*%
%TO.C,C8*%
G36*
G01*
X127701500Y-72787500D02*
X127701500Y-73262500D01*
G75*
G02*
X127464000Y-73500000I-237500J0D01*
G01*
X126889000Y-73500000D01*
G75*
G02*
X126651500Y-73262500I0J237500D01*
G01*
X126651500Y-72787500D01*
G75*
G02*
X126889000Y-72550000I237500J0D01*
G01*
X127464000Y-72550000D01*
G75*
G02*
X127701500Y-72787500I0J-237500D01*
G01*
G37*
G36*
G01*
X125951500Y-72787500D02*
X125951500Y-73262500D01*
G75*
G02*
X125714000Y-73500000I-237500J0D01*
G01*
X125139000Y-73500000D01*
G75*
G02*
X124901500Y-73262500I0J237500D01*
G01*
X124901500Y-72787500D01*
G75*
G02*
X125139000Y-72550000I237500J0D01*
G01*
X125714000Y-72550000D01*
G75*
G02*
X125951500Y-72787500I0J-237500D01*
G01*
G37*
%TD*%
%TO.C,C9*%
G36*
G01*
X149462500Y-70135000D02*
X148987500Y-70135000D01*
G75*
G02*
X148750000Y-69897500I0J237500D01*
G01*
X148750000Y-69322500D01*
G75*
G02*
X148987500Y-69085000I237500J0D01*
G01*
X149462500Y-69085000D01*
G75*
G02*
X149700000Y-69322500I0J-237500D01*
G01*
X149700000Y-69897500D01*
G75*
G02*
X149462500Y-70135000I-237500J0D01*
G01*
G37*
G36*
G01*
X149462500Y-71885000D02*
X148987500Y-71885000D01*
G75*
G02*
X148750000Y-71647500I0J237500D01*
G01*
X148750000Y-71072500D01*
G75*
G02*
X148987500Y-70835000I237500J0D01*
G01*
X149462500Y-70835000D01*
G75*
G02*
X149700000Y-71072500I0J-237500D01*
G01*
X149700000Y-71647500D01*
G75*
G02*
X149462500Y-71885000I-237500J0D01*
G01*
G37*
%TD*%
%TO.C,C10*%
G36*
G01*
X160305000Y-75264000D02*
X160305000Y-75739000D01*
G75*
G02*
X160067500Y-75976500I-237500J0D01*
G01*
X159492500Y-75976500D01*
G75*
G02*
X159255000Y-75739000I0J237500D01*
G01*
X159255000Y-75264000D01*
G75*
G02*
X159492500Y-75026500I237500J0D01*
G01*
X160067500Y-75026500D01*
G75*
G02*
X160305000Y-75264000I0J-237500D01*
G01*
G37*
G36*
G01*
X162055000Y-75264000D02*
X162055000Y-75739000D01*
G75*
G02*
X161817500Y-75976500I-237500J0D01*
G01*
X161242500Y-75976500D01*
G75*
G02*
X161005000Y-75739000I0J237500D01*
G01*
X161005000Y-75264000D01*
G75*
G02*
X161242500Y-75026500I237500J0D01*
G01*
X161817500Y-75026500D01*
G75*
G02*
X162055000Y-75264000I0J-237500D01*
G01*
G37*
%TD*%
%TO.C,C11*%
G36*
G01*
X183956500Y-82597000D02*
X183956500Y-82122000D01*
G75*
G02*
X184194000Y-81884500I237500J0D01*
G01*
X184769000Y-81884500D01*
G75*
G02*
X185006500Y-82122000I0J-237500D01*
G01*
X185006500Y-82597000D01*
G75*
G02*
X184769000Y-82834500I-237500J0D01*
G01*
X184194000Y-82834500D01*
G75*
G02*
X183956500Y-82597000I0J237500D01*
G01*
G37*
G36*
G01*
X185706500Y-82597000D02*
X185706500Y-82122000D01*
G75*
G02*
X185944000Y-81884500I237500J0D01*
G01*
X186519000Y-81884500D01*
G75*
G02*
X186756500Y-82122000I0J-237500D01*
G01*
X186756500Y-82597000D01*
G75*
G02*
X186519000Y-82834500I-237500J0D01*
G01*
X185944000Y-82834500D01*
G75*
G02*
X185706500Y-82597000I0J237500D01*
G01*
G37*
%TD*%
%TO.C,IC1*%
G36*
G01*
X105965000Y-88400000D02*
X105965000Y-88250000D01*
G75*
G02*
X106040000Y-88175000I75000J0D01*
G01*
X107440000Y-88175000D01*
G75*
G02*
X107515000Y-88250000I0J-75000D01*
G01*
X107515000Y-88400000D01*
G75*
G02*
X107440000Y-88475000I-75000J0D01*
G01*
X106040000Y-88475000D01*
G75*
G02*
X105965000Y-88400000I0J75000D01*
G01*
G37*
G36*
G01*
X105965000Y-88900000D02*
X105965000Y-88750000D01*
G75*
G02*
X106040000Y-88675000I75000J0D01*
G01*
X107440000Y-88675000D01*
G75*
G02*
X107515000Y-88750000I0J-75000D01*
G01*
X107515000Y-88900000D01*
G75*
G02*
X107440000Y-88975000I-75000J0D01*
G01*
X106040000Y-88975000D01*
G75*
G02*
X105965000Y-88900000I0J75000D01*
G01*
G37*
G36*
G01*
X105965000Y-89400000D02*
X105965000Y-89250000D01*
G75*
G02*
X106040000Y-89175000I75000J0D01*
G01*
X107440000Y-89175000D01*
G75*
G02*
X107515000Y-89250000I0J-75000D01*
G01*
X107515000Y-89400000D01*
G75*
G02*
X107440000Y-89475000I-75000J0D01*
G01*
X106040000Y-89475000D01*
G75*
G02*
X105965000Y-89400000I0J75000D01*
G01*
G37*
G36*
G01*
X105965000Y-89900000D02*
X105965000Y-89750000D01*
G75*
G02*
X106040000Y-89675000I75000J0D01*
G01*
X107440000Y-89675000D01*
G75*
G02*
X107515000Y-89750000I0J-75000D01*
G01*
X107515000Y-89900000D01*
G75*
G02*
X107440000Y-89975000I-75000J0D01*
G01*
X106040000Y-89975000D01*
G75*
G02*
X105965000Y-89900000I0J75000D01*
G01*
G37*
G36*
G01*
X105965000Y-90400000D02*
X105965000Y-90250000D01*
G75*
G02*
X106040000Y-90175000I75000J0D01*
G01*
X107440000Y-90175000D01*
G75*
G02*
X107515000Y-90250000I0J-75000D01*
G01*
X107515000Y-90400000D01*
G75*
G02*
X107440000Y-90475000I-75000J0D01*
G01*
X106040000Y-90475000D01*
G75*
G02*
X105965000Y-90400000I0J75000D01*
G01*
G37*
G36*
G01*
X105965000Y-90900000D02*
X105965000Y-90750000D01*
G75*
G02*
X106040000Y-90675000I75000J0D01*
G01*
X107440000Y-90675000D01*
G75*
G02*
X107515000Y-90750000I0J-75000D01*
G01*
X107515000Y-90900000D01*
G75*
G02*
X107440000Y-90975000I-75000J0D01*
G01*
X106040000Y-90975000D01*
G75*
G02*
X105965000Y-90900000I0J75000D01*
G01*
G37*
G36*
G01*
X105965000Y-91400000D02*
X105965000Y-91250000D01*
G75*
G02*
X106040000Y-91175000I75000J0D01*
G01*
X107440000Y-91175000D01*
G75*
G02*
X107515000Y-91250000I0J-75000D01*
G01*
X107515000Y-91400000D01*
G75*
G02*
X107440000Y-91475000I-75000J0D01*
G01*
X106040000Y-91475000D01*
G75*
G02*
X105965000Y-91400000I0J75000D01*
G01*
G37*
G36*
G01*
X105965000Y-91900000D02*
X105965000Y-91750000D01*
G75*
G02*
X106040000Y-91675000I75000J0D01*
G01*
X107440000Y-91675000D01*
G75*
G02*
X107515000Y-91750000I0J-75000D01*
G01*
X107515000Y-91900000D01*
G75*
G02*
X107440000Y-91975000I-75000J0D01*
G01*
X106040000Y-91975000D01*
G75*
G02*
X105965000Y-91900000I0J75000D01*
G01*
G37*
G36*
G01*
X105965000Y-92400000D02*
X105965000Y-92250000D01*
G75*
G02*
X106040000Y-92175000I75000J0D01*
G01*
X107440000Y-92175000D01*
G75*
G02*
X107515000Y-92250000I0J-75000D01*
G01*
X107515000Y-92400000D01*
G75*
G02*
X107440000Y-92475000I-75000J0D01*
G01*
X106040000Y-92475000D01*
G75*
G02*
X105965000Y-92400000I0J75000D01*
G01*
G37*
G36*
G01*
X105965000Y-92900000D02*
X105965000Y-92750000D01*
G75*
G02*
X106040000Y-92675000I75000J0D01*
G01*
X107440000Y-92675000D01*
G75*
G02*
X107515000Y-92750000I0J-75000D01*
G01*
X107515000Y-92900000D01*
G75*
G02*
X107440000Y-92975000I-75000J0D01*
G01*
X106040000Y-92975000D01*
G75*
G02*
X105965000Y-92900000I0J75000D01*
G01*
G37*
G36*
G01*
X105965000Y-93400000D02*
X105965000Y-93250000D01*
G75*
G02*
X106040000Y-93175000I75000J0D01*
G01*
X107440000Y-93175000D01*
G75*
G02*
X107515000Y-93250000I0J-75000D01*
G01*
X107515000Y-93400000D01*
G75*
G02*
X107440000Y-93475000I-75000J0D01*
G01*
X106040000Y-93475000D01*
G75*
G02*
X105965000Y-93400000I0J75000D01*
G01*
G37*
G36*
G01*
X105965000Y-93900000D02*
X105965000Y-93750000D01*
G75*
G02*
X106040000Y-93675000I75000J0D01*
G01*
X107440000Y-93675000D01*
G75*
G02*
X107515000Y-93750000I0J-75000D01*
G01*
X107515000Y-93900000D01*
G75*
G02*
X107440000Y-93975000I-75000J0D01*
G01*
X106040000Y-93975000D01*
G75*
G02*
X105965000Y-93900000I0J75000D01*
G01*
G37*
G36*
G01*
X105965000Y-94400000D02*
X105965000Y-94250000D01*
G75*
G02*
X106040000Y-94175000I75000J0D01*
G01*
X107440000Y-94175000D01*
G75*
G02*
X107515000Y-94250000I0J-75000D01*
G01*
X107515000Y-94400000D01*
G75*
G02*
X107440000Y-94475000I-75000J0D01*
G01*
X106040000Y-94475000D01*
G75*
G02*
X105965000Y-94400000I0J75000D01*
G01*
G37*
G36*
G01*
X105965000Y-94900000D02*
X105965000Y-94750000D01*
G75*
G02*
X106040000Y-94675000I75000J0D01*
G01*
X107440000Y-94675000D01*
G75*
G02*
X107515000Y-94750000I0J-75000D01*
G01*
X107515000Y-94900000D01*
G75*
G02*
X107440000Y-94975000I-75000J0D01*
G01*
X106040000Y-94975000D01*
G75*
G02*
X105965000Y-94900000I0J75000D01*
G01*
G37*
G36*
G01*
X105965000Y-95400000D02*
X105965000Y-95250000D01*
G75*
G02*
X106040000Y-95175000I75000J0D01*
G01*
X107440000Y-95175000D01*
G75*
G02*
X107515000Y-95250000I0J-75000D01*
G01*
X107515000Y-95400000D01*
G75*
G02*
X107440000Y-95475000I-75000J0D01*
G01*
X106040000Y-95475000D01*
G75*
G02*
X105965000Y-95400000I0J75000D01*
G01*
G37*
G36*
G01*
X105965000Y-95900000D02*
X105965000Y-95750000D01*
G75*
G02*
X106040000Y-95675000I75000J0D01*
G01*
X107440000Y-95675000D01*
G75*
G02*
X107515000Y-95750000I0J-75000D01*
G01*
X107515000Y-95900000D01*
G75*
G02*
X107440000Y-95975000I-75000J0D01*
G01*
X106040000Y-95975000D01*
G75*
G02*
X105965000Y-95900000I0J75000D01*
G01*
G37*
G36*
G01*
X119815000Y-95900000D02*
X119815000Y-95750000D01*
G75*
G02*
X119890000Y-95675000I75000J0D01*
G01*
X121290000Y-95675000D01*
G75*
G02*
X121365000Y-95750000I0J-75000D01*
G01*
X121365000Y-95900000D01*
G75*
G02*
X121290000Y-95975000I-75000J0D01*
G01*
X119890000Y-95975000D01*
G75*
G02*
X119815000Y-95900000I0J75000D01*
G01*
G37*
G36*
G01*
X119815000Y-95400000D02*
X119815000Y-95250000D01*
G75*
G02*
X119890000Y-95175000I75000J0D01*
G01*
X121290000Y-95175000D01*
G75*
G02*
X121365000Y-95250000I0J-75000D01*
G01*
X121365000Y-95400000D01*
G75*
G02*
X121290000Y-95475000I-75000J0D01*
G01*
X119890000Y-95475000D01*
G75*
G02*
X119815000Y-95400000I0J75000D01*
G01*
G37*
G36*
G01*
X119815000Y-94900000D02*
X119815000Y-94750000D01*
G75*
G02*
X119890000Y-94675000I75000J0D01*
G01*
X121290000Y-94675000D01*
G75*
G02*
X121365000Y-94750000I0J-75000D01*
G01*
X121365000Y-94900000D01*
G75*
G02*
X121290000Y-94975000I-75000J0D01*
G01*
X119890000Y-94975000D01*
G75*
G02*
X119815000Y-94900000I0J75000D01*
G01*
G37*
G36*
G01*
X119815000Y-94400000D02*
X119815000Y-94250000D01*
G75*
G02*
X119890000Y-94175000I75000J0D01*
G01*
X121290000Y-94175000D01*
G75*
G02*
X121365000Y-94250000I0J-75000D01*
G01*
X121365000Y-94400000D01*
G75*
G02*
X121290000Y-94475000I-75000J0D01*
G01*
X119890000Y-94475000D01*
G75*
G02*
X119815000Y-94400000I0J75000D01*
G01*
G37*
G36*
G01*
X119815000Y-93900000D02*
X119815000Y-93750000D01*
G75*
G02*
X119890000Y-93675000I75000J0D01*
G01*
X121290000Y-93675000D01*
G75*
G02*
X121365000Y-93750000I0J-75000D01*
G01*
X121365000Y-93900000D01*
G75*
G02*
X121290000Y-93975000I-75000J0D01*
G01*
X119890000Y-93975000D01*
G75*
G02*
X119815000Y-93900000I0J75000D01*
G01*
G37*
G36*
G01*
X119815000Y-93400000D02*
X119815000Y-93250000D01*
G75*
G02*
X119890000Y-93175000I75000J0D01*
G01*
X121290000Y-93175000D01*
G75*
G02*
X121365000Y-93250000I0J-75000D01*
G01*
X121365000Y-93400000D01*
G75*
G02*
X121290000Y-93475000I-75000J0D01*
G01*
X119890000Y-93475000D01*
G75*
G02*
X119815000Y-93400000I0J75000D01*
G01*
G37*
G36*
G01*
X119815000Y-92900000D02*
X119815000Y-92750000D01*
G75*
G02*
X119890000Y-92675000I75000J0D01*
G01*
X121290000Y-92675000D01*
G75*
G02*
X121365000Y-92750000I0J-75000D01*
G01*
X121365000Y-92900000D01*
G75*
G02*
X121290000Y-92975000I-75000J0D01*
G01*
X119890000Y-92975000D01*
G75*
G02*
X119815000Y-92900000I0J75000D01*
G01*
G37*
G36*
G01*
X119815000Y-92400000D02*
X119815000Y-92250000D01*
G75*
G02*
X119890000Y-92175000I75000J0D01*
G01*
X121290000Y-92175000D01*
G75*
G02*
X121365000Y-92250000I0J-75000D01*
G01*
X121365000Y-92400000D01*
G75*
G02*
X121290000Y-92475000I-75000J0D01*
G01*
X119890000Y-92475000D01*
G75*
G02*
X119815000Y-92400000I0J75000D01*
G01*
G37*
G36*
G01*
X119815000Y-91900000D02*
X119815000Y-91750000D01*
G75*
G02*
X119890000Y-91675000I75000J0D01*
G01*
X121290000Y-91675000D01*
G75*
G02*
X121365000Y-91750000I0J-75000D01*
G01*
X121365000Y-91900000D01*
G75*
G02*
X121290000Y-91975000I-75000J0D01*
G01*
X119890000Y-91975000D01*
G75*
G02*
X119815000Y-91900000I0J75000D01*
G01*
G37*
G36*
G01*
X119815000Y-91400000D02*
X119815000Y-91250000D01*
G75*
G02*
X119890000Y-91175000I75000J0D01*
G01*
X121290000Y-91175000D01*
G75*
G02*
X121365000Y-91250000I0J-75000D01*
G01*
X121365000Y-91400000D01*
G75*
G02*
X121290000Y-91475000I-75000J0D01*
G01*
X119890000Y-91475000D01*
G75*
G02*
X119815000Y-91400000I0J75000D01*
G01*
G37*
G36*
G01*
X119815000Y-90900000D02*
X119815000Y-90750000D01*
G75*
G02*
X119890000Y-90675000I75000J0D01*
G01*
X121290000Y-90675000D01*
G75*
G02*
X121365000Y-90750000I0J-75000D01*
G01*
X121365000Y-90900000D01*
G75*
G02*
X121290000Y-90975000I-75000J0D01*
G01*
X119890000Y-90975000D01*
G75*
G02*
X119815000Y-90900000I0J75000D01*
G01*
G37*
G36*
G01*
X119815000Y-90400000D02*
X119815000Y-90250000D01*
G75*
G02*
X119890000Y-90175000I75000J0D01*
G01*
X121290000Y-90175000D01*
G75*
G02*
X121365000Y-90250000I0J-75000D01*
G01*
X121365000Y-90400000D01*
G75*
G02*
X121290000Y-90475000I-75000J0D01*
G01*
X119890000Y-90475000D01*
G75*
G02*
X119815000Y-90400000I0J75000D01*
G01*
G37*
G36*
G01*
X119815000Y-89900000D02*
X119815000Y-89750000D01*
G75*
G02*
X119890000Y-89675000I75000J0D01*
G01*
X121290000Y-89675000D01*
G75*
G02*
X121365000Y-89750000I0J-75000D01*
G01*
X121365000Y-89900000D01*
G75*
G02*
X121290000Y-89975000I-75000J0D01*
G01*
X119890000Y-89975000D01*
G75*
G02*
X119815000Y-89900000I0J75000D01*
G01*
G37*
G36*
G01*
X119815000Y-89400000D02*
X119815000Y-89250000D01*
G75*
G02*
X119890000Y-89175000I75000J0D01*
G01*
X121290000Y-89175000D01*
G75*
G02*
X121365000Y-89250000I0J-75000D01*
G01*
X121365000Y-89400000D01*
G75*
G02*
X121290000Y-89475000I-75000J0D01*
G01*
X119890000Y-89475000D01*
G75*
G02*
X119815000Y-89400000I0J75000D01*
G01*
G37*
G36*
G01*
X119815000Y-88900000D02*
X119815000Y-88750000D01*
G75*
G02*
X119890000Y-88675000I75000J0D01*
G01*
X121290000Y-88675000D01*
G75*
G02*
X121365000Y-88750000I0J-75000D01*
G01*
X121365000Y-88900000D01*
G75*
G02*
X121290000Y-88975000I-75000J0D01*
G01*
X119890000Y-88975000D01*
G75*
G02*
X119815000Y-88900000I0J75000D01*
G01*
G37*
G36*
G01*
X119815000Y-88400000D02*
X119815000Y-88250000D01*
G75*
G02*
X119890000Y-88175000I75000J0D01*
G01*
X121290000Y-88175000D01*
G75*
G02*
X121365000Y-88250000I0J-75000D01*
G01*
X121365000Y-88400000D01*
G75*
G02*
X121290000Y-88475000I-75000J0D01*
G01*
X119890000Y-88475000D01*
G75*
G02*
X119815000Y-88400000I0J75000D01*
G01*
G37*
%TD*%
D16*
%TO.C,IC2*%
X142795000Y-92350000D03*
X142795000Y-91800000D03*
X142795000Y-91250000D03*
X142795000Y-92900000D03*
X142795000Y-93450000D03*
X142795000Y-90700000D03*
X142795000Y-94000000D03*
X142795000Y-90150000D03*
X142795000Y-94550000D03*
X142795000Y-89600000D03*
X142795000Y-89050000D03*
X142795000Y-95100000D03*
X142795000Y-95650000D03*
X142795000Y-88500000D03*
X130255000Y-88500000D03*
X130255000Y-95650000D03*
X130255000Y-95100000D03*
X130255000Y-89050000D03*
X130255000Y-89600000D03*
X130255000Y-94550000D03*
X130255000Y-90150000D03*
X130255000Y-94000000D03*
X130255000Y-90700000D03*
X130255000Y-93450000D03*
X130255000Y-92900000D03*
X130255000Y-91250000D03*
X130255000Y-91800000D03*
X130255000Y-92350000D03*
%TD*%
D17*
%TO.C,IC3*%
X151540000Y-84420000D03*
X171040000Y-95920000D03*
X151540000Y-84920000D03*
X151540000Y-85420000D03*
X151540000Y-85920000D03*
X151540000Y-86420000D03*
X151540000Y-86920000D03*
X151540000Y-87420000D03*
X151540000Y-87920000D03*
X151540000Y-88420000D03*
X151540000Y-88920000D03*
X151540000Y-89420000D03*
X151540000Y-89920000D03*
X151540000Y-90420000D03*
X151540000Y-90920000D03*
X151540000Y-91420000D03*
X151540000Y-91920000D03*
X151540000Y-92420000D03*
X151540000Y-92920000D03*
X151540000Y-93420000D03*
X151540000Y-93920000D03*
X151540000Y-94420000D03*
X151540000Y-94920000D03*
X151540000Y-95420000D03*
X151540000Y-95920000D03*
X171040000Y-95420000D03*
X171040000Y-94920000D03*
X171040000Y-94420000D03*
X171040000Y-93920000D03*
X171040000Y-93420000D03*
X171040000Y-92920000D03*
X171040000Y-92420000D03*
X171040000Y-91920000D03*
X171040000Y-91420000D03*
X171040000Y-90920000D03*
X171040000Y-90420000D03*
X171040000Y-89920000D03*
X171040000Y-89420000D03*
X171040000Y-88920000D03*
X171040000Y-88420000D03*
X171040000Y-87920000D03*
X171040000Y-87420000D03*
X171040000Y-86920000D03*
X171040000Y-86420000D03*
X171040000Y-85920000D03*
X171040000Y-85420000D03*
X171040000Y-84920000D03*
X171040000Y-84420000D03*
%TD*%
D18*
%TO.C,J1*%
X94615000Y-95250000D03*
D19*
X94615000Y-92710000D03*
X94615000Y-90170000D03*
X94615000Y-87630000D03*
X94615000Y-85090000D03*
X94615000Y-82550000D03*
X94615000Y-80010000D03*
X94615000Y-77470000D03*
%TD*%
D18*
%TO.C,JP1*%
X183388000Y-54419500D03*
D19*
X185928000Y-54419500D03*
X188468000Y-54419500D03*
%TD*%
%TO.C,R1*%
G36*
G01*
X176714999Y-63170000D02*
X177615001Y-63170000D01*
G75*
G02*
X177865000Y-63419999I0J-249999D01*
G01*
X177865000Y-64070001D01*
G75*
G02*
X177615001Y-64320000I-249999J0D01*
G01*
X176714999Y-64320000D01*
G75*
G02*
X176465000Y-64070001I0J249999D01*
G01*
X176465000Y-63419999D01*
G75*
G02*
X176714999Y-63170000I249999J0D01*
G01*
G37*
G36*
G01*
X176714999Y-65220000D02*
X177615001Y-65220000D01*
G75*
G02*
X177865000Y-65469999I0J-249999D01*
G01*
X177865000Y-66120001D01*
G75*
G02*
X177615001Y-66370000I-249999J0D01*
G01*
X176714999Y-66370000D01*
G75*
G02*
X176465000Y-66120001I0J249999D01*
G01*
X176465000Y-65469999D01*
G75*
G02*
X176714999Y-65220000I249999J0D01*
G01*
G37*
%TD*%
%TO.C,R2*%
G36*
G01*
X174174999Y-65220000D02*
X175075001Y-65220000D01*
G75*
G02*
X175325000Y-65469999I0J-249999D01*
G01*
X175325000Y-66120001D01*
G75*
G02*
X175075001Y-66370000I-249999J0D01*
G01*
X174174999Y-66370000D01*
G75*
G02*
X173925000Y-66120001I0J249999D01*
G01*
X173925000Y-65469999D01*
G75*
G02*
X174174999Y-65220000I249999J0D01*
G01*
G37*
G36*
G01*
X174174999Y-63170000D02*
X175075001Y-63170000D01*
G75*
G02*
X175325000Y-63419999I0J-249999D01*
G01*
X175325000Y-64070001D01*
G75*
G02*
X175075001Y-64320000I-249999J0D01*
G01*
X174174999Y-64320000D01*
G75*
G02*
X173925000Y-64070001I0J249999D01*
G01*
X173925000Y-63419999D01*
G75*
G02*
X174174999Y-63170000I249999J0D01*
G01*
G37*
%TD*%
%TO.C,R3*%
G36*
G01*
X171634999Y-63170000D02*
X172535001Y-63170000D01*
G75*
G02*
X172785000Y-63419999I0J-249999D01*
G01*
X172785000Y-64070001D01*
G75*
G02*
X172535001Y-64320000I-249999J0D01*
G01*
X171634999Y-64320000D01*
G75*
G02*
X171385000Y-64070001I0J249999D01*
G01*
X171385000Y-63419999D01*
G75*
G02*
X171634999Y-63170000I249999J0D01*
G01*
G37*
G36*
G01*
X171634999Y-65220000D02*
X172535001Y-65220000D01*
G75*
G02*
X172785000Y-65469999I0J-249999D01*
G01*
X172785000Y-66120001D01*
G75*
G02*
X172535001Y-66370000I-249999J0D01*
G01*
X171634999Y-66370000D01*
G75*
G02*
X171385000Y-66120001I0J249999D01*
G01*
X171385000Y-65469999D01*
G75*
G02*
X171634999Y-65220000I249999J0D01*
G01*
G37*
%TD*%
%TO.C,R4*%
G36*
G01*
X169094999Y-65220000D02*
X169995001Y-65220000D01*
G75*
G02*
X170245000Y-65469999I0J-249999D01*
G01*
X170245000Y-66120001D01*
G75*
G02*
X169995001Y-66370000I-249999J0D01*
G01*
X169094999Y-66370000D01*
G75*
G02*
X168845000Y-66120001I0J249999D01*
G01*
X168845000Y-65469999D01*
G75*
G02*
X169094999Y-65220000I249999J0D01*
G01*
G37*
G36*
G01*
X169094999Y-63170000D02*
X169995001Y-63170000D01*
G75*
G02*
X170245000Y-63419999I0J-249999D01*
G01*
X170245000Y-64070001D01*
G75*
G02*
X169995001Y-64320000I-249999J0D01*
G01*
X169094999Y-64320000D01*
G75*
G02*
X168845000Y-64070001I0J249999D01*
G01*
X168845000Y-63419999D01*
G75*
G02*
X169094999Y-63170000I249999J0D01*
G01*
G37*
%TD*%
%TO.C,R5*%
G36*
G01*
X124644999Y-63170000D02*
X125545001Y-63170000D01*
G75*
G02*
X125795000Y-63419999I0J-249999D01*
G01*
X125795000Y-64070001D01*
G75*
G02*
X125545001Y-64320000I-249999J0D01*
G01*
X124644999Y-64320000D01*
G75*
G02*
X124395000Y-64070001I0J249999D01*
G01*
X124395000Y-63419999D01*
G75*
G02*
X124644999Y-63170000I249999J0D01*
G01*
G37*
G36*
G01*
X124644999Y-65220000D02*
X125545001Y-65220000D01*
G75*
G02*
X125795000Y-65469999I0J-249999D01*
G01*
X125795000Y-66120001D01*
G75*
G02*
X125545001Y-66370000I-249999J0D01*
G01*
X124644999Y-66370000D01*
G75*
G02*
X124395000Y-66120001I0J249999D01*
G01*
X124395000Y-65469999D01*
G75*
G02*
X124644999Y-65220000I249999J0D01*
G01*
G37*
%TD*%
%TO.C,R6*%
G36*
G01*
X122104999Y-65220000D02*
X123005001Y-65220000D01*
G75*
G02*
X123255000Y-65469999I0J-249999D01*
G01*
X123255000Y-66120001D01*
G75*
G02*
X123005001Y-66370000I-249999J0D01*
G01*
X122104999Y-66370000D01*
G75*
G02*
X121855000Y-66120001I0J249999D01*
G01*
X121855000Y-65469999D01*
G75*
G02*
X122104999Y-65220000I249999J0D01*
G01*
G37*
G36*
G01*
X122104999Y-63170000D02*
X123005001Y-63170000D01*
G75*
G02*
X123255000Y-63419999I0J-249999D01*
G01*
X123255000Y-64070001D01*
G75*
G02*
X123005001Y-64320000I-249999J0D01*
G01*
X122104999Y-64320000D01*
G75*
G02*
X121855000Y-64070001I0J249999D01*
G01*
X121855000Y-63419999D01*
G75*
G02*
X122104999Y-63170000I249999J0D01*
G01*
G37*
%TD*%
%TO.C,R7*%
G36*
G01*
X119564999Y-63170000D02*
X120465001Y-63170000D01*
G75*
G02*
X120715000Y-63419999I0J-249999D01*
G01*
X120715000Y-64070001D01*
G75*
G02*
X120465001Y-64320000I-249999J0D01*
G01*
X119564999Y-64320000D01*
G75*
G02*
X119315000Y-64070001I0J249999D01*
G01*
X119315000Y-63419999D01*
G75*
G02*
X119564999Y-63170000I249999J0D01*
G01*
G37*
G36*
G01*
X119564999Y-65220000D02*
X120465001Y-65220000D01*
G75*
G02*
X120715000Y-65469999I0J-249999D01*
G01*
X120715000Y-66120001D01*
G75*
G02*
X120465001Y-66370000I-249999J0D01*
G01*
X119564999Y-66370000D01*
G75*
G02*
X119315000Y-66120001I0J249999D01*
G01*
X119315000Y-65469999D01*
G75*
G02*
X119564999Y-65220000I249999J0D01*
G01*
G37*
%TD*%
%TO.C,R8*%
G36*
G01*
X117024999Y-63170000D02*
X117925001Y-63170000D01*
G75*
G02*
X118175000Y-63419999I0J-249999D01*
G01*
X118175000Y-64070001D01*
G75*
G02*
X117925001Y-64320000I-249999J0D01*
G01*
X117024999Y-64320000D01*
G75*
G02*
X116775000Y-64070001I0J249999D01*
G01*
X116775000Y-63419999D01*
G75*
G02*
X117024999Y-63170000I249999J0D01*
G01*
G37*
G36*
G01*
X117024999Y-65220000D02*
X117925001Y-65220000D01*
G75*
G02*
X118175000Y-65469999I0J-249999D01*
G01*
X118175000Y-66120001D01*
G75*
G02*
X117925001Y-66370000I-249999J0D01*
G01*
X117024999Y-66370000D01*
G75*
G02*
X116775000Y-66120001I0J249999D01*
G01*
X116775000Y-65469999D01*
G75*
G02*
X117024999Y-65220000I249999J0D01*
G01*
G37*
%TD*%
%TO.C,R9*%
G36*
G01*
X114484999Y-65220000D02*
X115385001Y-65220000D01*
G75*
G02*
X115635000Y-65469999I0J-249999D01*
G01*
X115635000Y-66120001D01*
G75*
G02*
X115385001Y-66370000I-249999J0D01*
G01*
X114484999Y-66370000D01*
G75*
G02*
X114235000Y-66120001I0J249999D01*
G01*
X114235000Y-65469999D01*
G75*
G02*
X114484999Y-65220000I249999J0D01*
G01*
G37*
G36*
G01*
X114484999Y-63170000D02*
X115385001Y-63170000D01*
G75*
G02*
X115635000Y-63419999I0J-249999D01*
G01*
X115635000Y-64070001D01*
G75*
G02*
X115385001Y-64320000I-249999J0D01*
G01*
X114484999Y-64320000D01*
G75*
G02*
X114235000Y-64070001I0J249999D01*
G01*
X114235000Y-63419999D01*
G75*
G02*
X114484999Y-63170000I249999J0D01*
G01*
G37*
%TD*%
%TO.C,R10*%
G36*
G01*
X111944999Y-63170000D02*
X112845001Y-63170000D01*
G75*
G02*
X113095000Y-63419999I0J-249999D01*
G01*
X113095000Y-64070001D01*
G75*
G02*
X112845001Y-64320000I-249999J0D01*
G01*
X111944999Y-64320000D01*
G75*
G02*
X111695000Y-64070001I0J249999D01*
G01*
X111695000Y-63419999D01*
G75*
G02*
X111944999Y-63170000I249999J0D01*
G01*
G37*
G36*
G01*
X111944999Y-65220000D02*
X112845001Y-65220000D01*
G75*
G02*
X113095000Y-65469999I0J-249999D01*
G01*
X113095000Y-66120001D01*
G75*
G02*
X112845001Y-66370000I-249999J0D01*
G01*
X111944999Y-66370000D01*
G75*
G02*
X111695000Y-66120001I0J249999D01*
G01*
X111695000Y-65469999D01*
G75*
G02*
X111944999Y-65220000I249999J0D01*
G01*
G37*
%TD*%
%TO.C,R11*%
G36*
G01*
X109404999Y-65220000D02*
X110305001Y-65220000D01*
G75*
G02*
X110555000Y-65469999I0J-249999D01*
G01*
X110555000Y-66120001D01*
G75*
G02*
X110305001Y-66370000I-249999J0D01*
G01*
X109404999Y-66370000D01*
G75*
G02*
X109155000Y-66120001I0J249999D01*
G01*
X109155000Y-65469999D01*
G75*
G02*
X109404999Y-65220000I249999J0D01*
G01*
G37*
G36*
G01*
X109404999Y-63170000D02*
X110305001Y-63170000D01*
G75*
G02*
X110555000Y-63419999I0J-249999D01*
G01*
X110555000Y-64070001D01*
G75*
G02*
X110305001Y-64320000I-249999J0D01*
G01*
X109404999Y-64320000D01*
G75*
G02*
X109155000Y-64070001I0J249999D01*
G01*
X109155000Y-63419999D01*
G75*
G02*
X109404999Y-63170000I249999J0D01*
G01*
G37*
%TD*%
%TO.C,R12*%
G36*
G01*
X145599999Y-65220000D02*
X146500001Y-65220000D01*
G75*
G02*
X146750000Y-65469999I0J-249999D01*
G01*
X146750000Y-66120001D01*
G75*
G02*
X146500001Y-66370000I-249999J0D01*
G01*
X145599999Y-66370000D01*
G75*
G02*
X145350000Y-66120001I0J249999D01*
G01*
X145350000Y-65469999D01*
G75*
G02*
X145599999Y-65220000I249999J0D01*
G01*
G37*
G36*
G01*
X145599999Y-63170000D02*
X146500001Y-63170000D01*
G75*
G02*
X146750000Y-63419999I0J-249999D01*
G01*
X146750000Y-64070001D01*
G75*
G02*
X146500001Y-64320000I-249999J0D01*
G01*
X145599999Y-64320000D01*
G75*
G02*
X145350000Y-64070001I0J249999D01*
G01*
X145350000Y-63419999D01*
G75*
G02*
X145599999Y-63170000I249999J0D01*
G01*
G37*
%TD*%
%TO.C,R13*%
G36*
G01*
X150679999Y-65220000D02*
X151580001Y-65220000D01*
G75*
G02*
X151830000Y-65469999I0J-249999D01*
G01*
X151830000Y-66120001D01*
G75*
G02*
X151580001Y-66370000I-249999J0D01*
G01*
X150679999Y-66370000D01*
G75*
G02*
X150430000Y-66120001I0J249999D01*
G01*
X150430000Y-65469999D01*
G75*
G02*
X150679999Y-65220000I249999J0D01*
G01*
G37*
G36*
G01*
X150679999Y-63170000D02*
X151580001Y-63170000D01*
G75*
G02*
X151830000Y-63419999I0J-249999D01*
G01*
X151830000Y-64070001D01*
G75*
G02*
X151580001Y-64320000I-249999J0D01*
G01*
X150679999Y-64320000D01*
G75*
G02*
X150430000Y-64070001I0J249999D01*
G01*
X150430000Y-63419999D01*
G75*
G02*
X150679999Y-63170000I249999J0D01*
G01*
G37*
%TD*%
%TO.C,R14*%
G36*
G01*
X148139999Y-63170000D02*
X149040001Y-63170000D01*
G75*
G02*
X149290000Y-63419999I0J-249999D01*
G01*
X149290000Y-64070001D01*
G75*
G02*
X149040001Y-64320000I-249999J0D01*
G01*
X148139999Y-64320000D01*
G75*
G02*
X147890000Y-64070001I0J249999D01*
G01*
X147890000Y-63419999D01*
G75*
G02*
X148139999Y-63170000I249999J0D01*
G01*
G37*
G36*
G01*
X148139999Y-65220000D02*
X149040001Y-65220000D01*
G75*
G02*
X149290000Y-65469999I0J-249999D01*
G01*
X149290000Y-66120001D01*
G75*
G02*
X149040001Y-66370000I-249999J0D01*
G01*
X148139999Y-66370000D01*
G75*
G02*
X147890000Y-66120001I0J249999D01*
G01*
X147890000Y-65469999D01*
G75*
G02*
X148139999Y-65220000I249999J0D01*
G01*
G37*
%TD*%
%TO.C,R15*%
G36*
G01*
X143059999Y-63170000D02*
X143960001Y-63170000D01*
G75*
G02*
X144210000Y-63419999I0J-249999D01*
G01*
X144210000Y-64070001D01*
G75*
G02*
X143960001Y-64320000I-249999J0D01*
G01*
X143059999Y-64320000D01*
G75*
G02*
X142810000Y-64070001I0J249999D01*
G01*
X142810000Y-63419999D01*
G75*
G02*
X143059999Y-63170000I249999J0D01*
G01*
G37*
G36*
G01*
X143059999Y-65220000D02*
X143960001Y-65220000D01*
G75*
G02*
X144210000Y-65469999I0J-249999D01*
G01*
X144210000Y-66120001D01*
G75*
G02*
X143960001Y-66370000I-249999J0D01*
G01*
X143059999Y-66370000D01*
G75*
G02*
X142810000Y-66120001I0J249999D01*
G01*
X142810000Y-65469999D01*
G75*
G02*
X143059999Y-65220000I249999J0D01*
G01*
G37*
%TD*%
%TO.C,R16*%
G36*
G01*
X161474999Y-65220000D02*
X162375001Y-65220000D01*
G75*
G02*
X162625000Y-65469999I0J-249999D01*
G01*
X162625000Y-66120001D01*
G75*
G02*
X162375001Y-66370000I-249999J0D01*
G01*
X161474999Y-66370000D01*
G75*
G02*
X161225000Y-66120001I0J249999D01*
G01*
X161225000Y-65469999D01*
G75*
G02*
X161474999Y-65220000I249999J0D01*
G01*
G37*
G36*
G01*
X161474999Y-63170000D02*
X162375001Y-63170000D01*
G75*
G02*
X162625000Y-63419999I0J-249999D01*
G01*
X162625000Y-64070001D01*
G75*
G02*
X162375001Y-64320000I-249999J0D01*
G01*
X161474999Y-64320000D01*
G75*
G02*
X161225000Y-64070001I0J249999D01*
G01*
X161225000Y-63419999D01*
G75*
G02*
X161474999Y-63170000I249999J0D01*
G01*
G37*
%TD*%
%TO.C,R17*%
G36*
G01*
X158934999Y-63170000D02*
X159835001Y-63170000D01*
G75*
G02*
X160085000Y-63419999I0J-249999D01*
G01*
X160085000Y-64070001D01*
G75*
G02*
X159835001Y-64320000I-249999J0D01*
G01*
X158934999Y-64320000D01*
G75*
G02*
X158685000Y-64070001I0J249999D01*
G01*
X158685000Y-63419999D01*
G75*
G02*
X158934999Y-63170000I249999J0D01*
G01*
G37*
G36*
G01*
X158934999Y-65220000D02*
X159835001Y-65220000D01*
G75*
G02*
X160085000Y-65469999I0J-249999D01*
G01*
X160085000Y-66120001D01*
G75*
G02*
X159835001Y-66370000I-249999J0D01*
G01*
X158934999Y-66370000D01*
G75*
G02*
X158685000Y-66120001I0J249999D01*
G01*
X158685000Y-65469999D01*
G75*
G02*
X158934999Y-65220000I249999J0D01*
G01*
G37*
%TD*%
%TO.C,R18*%
G36*
G01*
X166554999Y-65220000D02*
X167455001Y-65220000D01*
G75*
G02*
X167705000Y-65469999I0J-249999D01*
G01*
X167705000Y-66120001D01*
G75*
G02*
X167455001Y-66370000I-249999J0D01*
G01*
X166554999Y-66370000D01*
G75*
G02*
X166305000Y-66120001I0J249999D01*
G01*
X166305000Y-65469999D01*
G75*
G02*
X166554999Y-65220000I249999J0D01*
G01*
G37*
G36*
G01*
X166554999Y-63170000D02*
X167455001Y-63170000D01*
G75*
G02*
X167705000Y-63419999I0J-249999D01*
G01*
X167705000Y-64070001D01*
G75*
G02*
X167455001Y-64320000I-249999J0D01*
G01*
X166554999Y-64320000D01*
G75*
G02*
X166305000Y-64070001I0J249999D01*
G01*
X166305000Y-63419999D01*
G75*
G02*
X166554999Y-63170000I249999J0D01*
G01*
G37*
%TD*%
%TO.C,R19*%
G36*
G01*
X164014999Y-63170000D02*
X164915001Y-63170000D01*
G75*
G02*
X165165000Y-63419999I0J-249999D01*
G01*
X165165000Y-64070001D01*
G75*
G02*
X164915001Y-64320000I-249999J0D01*
G01*
X164014999Y-64320000D01*
G75*
G02*
X163765000Y-64070001I0J249999D01*
G01*
X163765000Y-63419999D01*
G75*
G02*
X164014999Y-63170000I249999J0D01*
G01*
G37*
G36*
G01*
X164014999Y-65220000D02*
X164915001Y-65220000D01*
G75*
G02*
X165165000Y-65469999I0J-249999D01*
G01*
X165165000Y-66120001D01*
G75*
G02*
X164915001Y-66370000I-249999J0D01*
G01*
X164014999Y-66370000D01*
G75*
G02*
X163765000Y-66120001I0J249999D01*
G01*
X163765000Y-65469999D01*
G75*
G02*
X164014999Y-65220000I249999J0D01*
G01*
G37*
%TD*%
D10*
%TO.C,SJ1*%
G36*
X95840000Y-74854500D02*
G01*
X94690000Y-74854500D01*
X95190000Y-74104500D01*
X94690000Y-73354500D01*
X95840000Y-73354500D01*
X95840000Y-74854500D01*
G37*
G36*
X94890000Y-74104500D02*
G01*
X94390000Y-74854500D01*
X93390000Y-74854500D01*
X93390000Y-73354500D01*
X94390000Y-73354500D01*
X94890000Y-74104500D01*
G37*
%TD*%
D20*
%TO.C,SW1*%
X97383600Y-49348000D03*
X103883600Y-49348000D03*
X97383600Y-53848000D03*
X103883600Y-53848000D03*
%TD*%
D14*
%TO.C,SW3*%
X151130000Y-48260000D03*
D13*
X133350000Y-55880000D03*
X148590000Y-48260000D03*
X135890000Y-55880000D03*
X146050000Y-48260000D03*
X138430000Y-55880000D03*
X143510000Y-48260000D03*
X140970000Y-55880000D03*
X140970000Y-48260000D03*
X143510000Y-55880000D03*
X138430000Y-48260000D03*
X146050000Y-55880000D03*
X135890000Y-48260000D03*
X148590000Y-55880000D03*
X133350000Y-48260000D03*
X151130000Y-55880000D03*
%TD*%
D14*
%TO.C,SW4*%
X125095000Y-48260000D03*
D13*
X112395000Y-55880000D03*
X122555000Y-48260000D03*
X114935000Y-55880000D03*
X120015000Y-48260000D03*
X117475000Y-55880000D03*
X117475000Y-48260000D03*
X120015000Y-55880000D03*
X114935000Y-48260000D03*
X122555000Y-55880000D03*
X112395000Y-48260000D03*
X125095000Y-55880000D03*
%TD*%
%TO.C,U1*%
G36*
G01*
X147657000Y-76191500D02*
X147657000Y-75991500D01*
G75*
G02*
X147757000Y-75891500I100000J0D01*
G01*
X149032000Y-75891500D01*
G75*
G02*
X149132000Y-75991500I0J-100000D01*
G01*
X149132000Y-76191500D01*
G75*
G02*
X149032000Y-76291500I-100000J0D01*
G01*
X147757000Y-76291500D01*
G75*
G02*
X147657000Y-76191500I0J100000D01*
G01*
G37*
G36*
G01*
X147657000Y-76841500D02*
X147657000Y-76641500D01*
G75*
G02*
X147757000Y-76541500I100000J0D01*
G01*
X149032000Y-76541500D01*
G75*
G02*
X149132000Y-76641500I0J-100000D01*
G01*
X149132000Y-76841500D01*
G75*
G02*
X149032000Y-76941500I-100000J0D01*
G01*
X147757000Y-76941500D01*
G75*
G02*
X147657000Y-76841500I0J100000D01*
G01*
G37*
G36*
G01*
X147657000Y-77491500D02*
X147657000Y-77291500D01*
G75*
G02*
X147757000Y-77191500I100000J0D01*
G01*
X149032000Y-77191500D01*
G75*
G02*
X149132000Y-77291500I0J-100000D01*
G01*
X149132000Y-77491500D01*
G75*
G02*
X149032000Y-77591500I-100000J0D01*
G01*
X147757000Y-77591500D01*
G75*
G02*
X147657000Y-77491500I0J100000D01*
G01*
G37*
G36*
G01*
X147657000Y-78141500D02*
X147657000Y-77941500D01*
G75*
G02*
X147757000Y-77841500I100000J0D01*
G01*
X149032000Y-77841500D01*
G75*
G02*
X149132000Y-77941500I0J-100000D01*
G01*
X149132000Y-78141500D01*
G75*
G02*
X149032000Y-78241500I-100000J0D01*
G01*
X147757000Y-78241500D01*
G75*
G02*
X147657000Y-78141500I0J100000D01*
G01*
G37*
G36*
G01*
X147657000Y-78791500D02*
X147657000Y-78591500D01*
G75*
G02*
X147757000Y-78491500I100000J0D01*
G01*
X149032000Y-78491500D01*
G75*
G02*
X149132000Y-78591500I0J-100000D01*
G01*
X149132000Y-78791500D01*
G75*
G02*
X149032000Y-78891500I-100000J0D01*
G01*
X147757000Y-78891500D01*
G75*
G02*
X147657000Y-78791500I0J100000D01*
G01*
G37*
G36*
G01*
X147657000Y-79441500D02*
X147657000Y-79241500D01*
G75*
G02*
X147757000Y-79141500I100000J0D01*
G01*
X149032000Y-79141500D01*
G75*
G02*
X149132000Y-79241500I0J-100000D01*
G01*
X149132000Y-79441500D01*
G75*
G02*
X149032000Y-79541500I-100000J0D01*
G01*
X147757000Y-79541500D01*
G75*
G02*
X147657000Y-79441500I0J100000D01*
G01*
G37*
G36*
G01*
X147657000Y-80091500D02*
X147657000Y-79891500D01*
G75*
G02*
X147757000Y-79791500I100000J0D01*
G01*
X149032000Y-79791500D01*
G75*
G02*
X149132000Y-79891500I0J-100000D01*
G01*
X149132000Y-80091500D01*
G75*
G02*
X149032000Y-80191500I-100000J0D01*
G01*
X147757000Y-80191500D01*
G75*
G02*
X147657000Y-80091500I0J100000D01*
G01*
G37*
G36*
G01*
X153382000Y-80091500D02*
X153382000Y-79891500D01*
G75*
G02*
X153482000Y-79791500I100000J0D01*
G01*
X154757000Y-79791500D01*
G75*
G02*
X154857000Y-79891500I0J-100000D01*
G01*
X154857000Y-80091500D01*
G75*
G02*
X154757000Y-80191500I-100000J0D01*
G01*
X153482000Y-80191500D01*
G75*
G02*
X153382000Y-80091500I0J100000D01*
G01*
G37*
G36*
G01*
X153382000Y-79441500D02*
X153382000Y-79241500D01*
G75*
G02*
X153482000Y-79141500I100000J0D01*
G01*
X154757000Y-79141500D01*
G75*
G02*
X154857000Y-79241500I0J-100000D01*
G01*
X154857000Y-79441500D01*
G75*
G02*
X154757000Y-79541500I-100000J0D01*
G01*
X153482000Y-79541500D01*
G75*
G02*
X153382000Y-79441500I0J100000D01*
G01*
G37*
G36*
G01*
X153382000Y-78791500D02*
X153382000Y-78591500D01*
G75*
G02*
X153482000Y-78491500I100000J0D01*
G01*
X154757000Y-78491500D01*
G75*
G02*
X154857000Y-78591500I0J-100000D01*
G01*
X154857000Y-78791500D01*
G75*
G02*
X154757000Y-78891500I-100000J0D01*
G01*
X153482000Y-78891500D01*
G75*
G02*
X153382000Y-78791500I0J100000D01*
G01*
G37*
G36*
G01*
X153382000Y-78141500D02*
X153382000Y-77941500D01*
G75*
G02*
X153482000Y-77841500I100000J0D01*
G01*
X154757000Y-77841500D01*
G75*
G02*
X154857000Y-77941500I0J-100000D01*
G01*
X154857000Y-78141500D01*
G75*
G02*
X154757000Y-78241500I-100000J0D01*
G01*
X153482000Y-78241500D01*
G75*
G02*
X153382000Y-78141500I0J100000D01*
G01*
G37*
G36*
G01*
X153382000Y-77491500D02*
X153382000Y-77291500D01*
G75*
G02*
X153482000Y-77191500I100000J0D01*
G01*
X154757000Y-77191500D01*
G75*
G02*
X154857000Y-77291500I0J-100000D01*
G01*
X154857000Y-77491500D01*
G75*
G02*
X154757000Y-77591500I-100000J0D01*
G01*
X153482000Y-77591500D01*
G75*
G02*
X153382000Y-77491500I0J100000D01*
G01*
G37*
G36*
G01*
X153382000Y-76841500D02*
X153382000Y-76641500D01*
G75*
G02*
X153482000Y-76541500I100000J0D01*
G01*
X154757000Y-76541500D01*
G75*
G02*
X154857000Y-76641500I0J-100000D01*
G01*
X154857000Y-76841500D01*
G75*
G02*
X154757000Y-76941500I-100000J0D01*
G01*
X153482000Y-76941500D01*
G75*
G02*
X153382000Y-76841500I0J100000D01*
G01*
G37*
G36*
G01*
X153382000Y-76191500D02*
X153382000Y-75991500D01*
G75*
G02*
X153482000Y-75891500I100000J0D01*
G01*
X154757000Y-75891500D01*
G75*
G02*
X154857000Y-75991500I0J-100000D01*
G01*
X154857000Y-76191500D01*
G75*
G02*
X154757000Y-76291500I-100000J0D01*
G01*
X153482000Y-76291500D01*
G75*
G02*
X153382000Y-76191500I0J100000D01*
G01*
G37*
%TD*%
%TO.C,U2*%
G36*
G01*
X177271000Y-71206500D02*
X177271000Y-70906500D01*
G75*
G02*
X177421000Y-70756500I150000J0D01*
G01*
X179071000Y-70756500D01*
G75*
G02*
X179221000Y-70906500I0J-150000D01*
G01*
X179221000Y-71206500D01*
G75*
G02*
X179071000Y-71356500I-150000J0D01*
G01*
X177421000Y-71356500D01*
G75*
G02*
X177271000Y-71206500I0J150000D01*
G01*
G37*
G36*
G01*
X177271000Y-72476500D02*
X177271000Y-72176500D01*
G75*
G02*
X177421000Y-72026500I150000J0D01*
G01*
X179071000Y-72026500D01*
G75*
G02*
X179221000Y-72176500I0J-150000D01*
G01*
X179221000Y-72476500D01*
G75*
G02*
X179071000Y-72626500I-150000J0D01*
G01*
X177421000Y-72626500D01*
G75*
G02*
X177271000Y-72476500I0J150000D01*
G01*
G37*
G36*
G01*
X177271000Y-73746500D02*
X177271000Y-73446500D01*
G75*
G02*
X177421000Y-73296500I150000J0D01*
G01*
X179071000Y-73296500D01*
G75*
G02*
X179221000Y-73446500I0J-150000D01*
G01*
X179221000Y-73746500D01*
G75*
G02*
X179071000Y-73896500I-150000J0D01*
G01*
X177421000Y-73896500D01*
G75*
G02*
X177271000Y-73746500I0J150000D01*
G01*
G37*
G36*
G01*
X177271000Y-75016500D02*
X177271000Y-74716500D01*
G75*
G02*
X177421000Y-74566500I150000J0D01*
G01*
X179071000Y-74566500D01*
G75*
G02*
X179221000Y-74716500I0J-150000D01*
G01*
X179221000Y-75016500D01*
G75*
G02*
X179071000Y-75166500I-150000J0D01*
G01*
X177421000Y-75166500D01*
G75*
G02*
X177271000Y-75016500I0J150000D01*
G01*
G37*
G36*
G01*
X177271000Y-76286500D02*
X177271000Y-75986500D01*
G75*
G02*
X177421000Y-75836500I150000J0D01*
G01*
X179071000Y-75836500D01*
G75*
G02*
X179221000Y-75986500I0J-150000D01*
G01*
X179221000Y-76286500D01*
G75*
G02*
X179071000Y-76436500I-150000J0D01*
G01*
X177421000Y-76436500D01*
G75*
G02*
X177271000Y-76286500I0J150000D01*
G01*
G37*
G36*
G01*
X177271000Y-77556500D02*
X177271000Y-77256500D01*
G75*
G02*
X177421000Y-77106500I150000J0D01*
G01*
X179071000Y-77106500D01*
G75*
G02*
X179221000Y-77256500I0J-150000D01*
G01*
X179221000Y-77556500D01*
G75*
G02*
X179071000Y-77706500I-150000J0D01*
G01*
X177421000Y-77706500D01*
G75*
G02*
X177271000Y-77556500I0J150000D01*
G01*
G37*
G36*
G01*
X177271000Y-78826500D02*
X177271000Y-78526500D01*
G75*
G02*
X177421000Y-78376500I150000J0D01*
G01*
X179071000Y-78376500D01*
G75*
G02*
X179221000Y-78526500I0J-150000D01*
G01*
X179221000Y-78826500D01*
G75*
G02*
X179071000Y-78976500I-150000J0D01*
G01*
X177421000Y-78976500D01*
G75*
G02*
X177271000Y-78826500I0J150000D01*
G01*
G37*
G36*
G01*
X182221000Y-78826500D02*
X182221000Y-78526500D01*
G75*
G02*
X182371000Y-78376500I150000J0D01*
G01*
X184021000Y-78376500D01*
G75*
G02*
X184171000Y-78526500I0J-150000D01*
G01*
X184171000Y-78826500D01*
G75*
G02*
X184021000Y-78976500I-150000J0D01*
G01*
X182371000Y-78976500D01*
G75*
G02*
X182221000Y-78826500I0J150000D01*
G01*
G37*
G36*
G01*
X182221000Y-77556500D02*
X182221000Y-77256500D01*
G75*
G02*
X182371000Y-77106500I150000J0D01*
G01*
X184021000Y-77106500D01*
G75*
G02*
X184171000Y-77256500I0J-150000D01*
G01*
X184171000Y-77556500D01*
G75*
G02*
X184021000Y-77706500I-150000J0D01*
G01*
X182371000Y-77706500D01*
G75*
G02*
X182221000Y-77556500I0J150000D01*
G01*
G37*
G36*
G01*
X182221000Y-76286500D02*
X182221000Y-75986500D01*
G75*
G02*
X182371000Y-75836500I150000J0D01*
G01*
X184021000Y-75836500D01*
G75*
G02*
X184171000Y-75986500I0J-150000D01*
G01*
X184171000Y-76286500D01*
G75*
G02*
X184021000Y-76436500I-150000J0D01*
G01*
X182371000Y-76436500D01*
G75*
G02*
X182221000Y-76286500I0J150000D01*
G01*
G37*
G36*
G01*
X182221000Y-75016500D02*
X182221000Y-74716500D01*
G75*
G02*
X182371000Y-74566500I150000J0D01*
G01*
X184021000Y-74566500D01*
G75*
G02*
X184171000Y-74716500I0J-150000D01*
G01*
X184171000Y-75016500D01*
G75*
G02*
X184021000Y-75166500I-150000J0D01*
G01*
X182371000Y-75166500D01*
G75*
G02*
X182221000Y-75016500I0J150000D01*
G01*
G37*
G36*
G01*
X182221000Y-73746500D02*
X182221000Y-73446500D01*
G75*
G02*
X182371000Y-73296500I150000J0D01*
G01*
X184021000Y-73296500D01*
G75*
G02*
X184171000Y-73446500I0J-150000D01*
G01*
X184171000Y-73746500D01*
G75*
G02*
X184021000Y-73896500I-150000J0D01*
G01*
X182371000Y-73896500D01*
G75*
G02*
X182221000Y-73746500I0J150000D01*
G01*
G37*
G36*
G01*
X182221000Y-72476500D02*
X182221000Y-72176500D01*
G75*
G02*
X182371000Y-72026500I150000J0D01*
G01*
X184021000Y-72026500D01*
G75*
G02*
X184171000Y-72176500I0J-150000D01*
G01*
X184171000Y-72476500D01*
G75*
G02*
X184021000Y-72626500I-150000J0D01*
G01*
X182371000Y-72626500D01*
G75*
G02*
X182221000Y-72476500I0J150000D01*
G01*
G37*
G36*
G01*
X182221000Y-71206500D02*
X182221000Y-70906500D01*
G75*
G02*
X182371000Y-70756500I150000J0D01*
G01*
X184021000Y-70756500D01*
G75*
G02*
X184171000Y-70906500I0J-150000D01*
G01*
X184171000Y-71206500D01*
G75*
G02*
X184021000Y-71356500I-150000J0D01*
G01*
X182371000Y-71356500D01*
G75*
G02*
X182221000Y-71206500I0J150000D01*
G01*
G37*
%TD*%
%TO.C,U3*%
G36*
G01*
X170791000Y-71206500D02*
X170791000Y-70906500D01*
G75*
G02*
X170941000Y-70756500I150000J0D01*
G01*
X172591000Y-70756500D01*
G75*
G02*
X172741000Y-70906500I0J-150000D01*
G01*
X172741000Y-71206500D01*
G75*
G02*
X172591000Y-71356500I-150000J0D01*
G01*
X170941000Y-71356500D01*
G75*
G02*
X170791000Y-71206500I0J150000D01*
G01*
G37*
G36*
G01*
X170791000Y-72476500D02*
X170791000Y-72176500D01*
G75*
G02*
X170941000Y-72026500I150000J0D01*
G01*
X172591000Y-72026500D01*
G75*
G02*
X172741000Y-72176500I0J-150000D01*
G01*
X172741000Y-72476500D01*
G75*
G02*
X172591000Y-72626500I-150000J0D01*
G01*
X170941000Y-72626500D01*
G75*
G02*
X170791000Y-72476500I0J150000D01*
G01*
G37*
G36*
G01*
X170791000Y-73746500D02*
X170791000Y-73446500D01*
G75*
G02*
X170941000Y-73296500I150000J0D01*
G01*
X172591000Y-73296500D01*
G75*
G02*
X172741000Y-73446500I0J-150000D01*
G01*
X172741000Y-73746500D01*
G75*
G02*
X172591000Y-73896500I-150000J0D01*
G01*
X170941000Y-73896500D01*
G75*
G02*
X170791000Y-73746500I0J150000D01*
G01*
G37*
G36*
G01*
X170791000Y-75016500D02*
X170791000Y-74716500D01*
G75*
G02*
X170941000Y-74566500I150000J0D01*
G01*
X172591000Y-74566500D01*
G75*
G02*
X172741000Y-74716500I0J-150000D01*
G01*
X172741000Y-75016500D01*
G75*
G02*
X172591000Y-75166500I-150000J0D01*
G01*
X170941000Y-75166500D01*
G75*
G02*
X170791000Y-75016500I0J150000D01*
G01*
G37*
G36*
G01*
X170791000Y-76286500D02*
X170791000Y-75986500D01*
G75*
G02*
X170941000Y-75836500I150000J0D01*
G01*
X172591000Y-75836500D01*
G75*
G02*
X172741000Y-75986500I0J-150000D01*
G01*
X172741000Y-76286500D01*
G75*
G02*
X172591000Y-76436500I-150000J0D01*
G01*
X170941000Y-76436500D01*
G75*
G02*
X170791000Y-76286500I0J150000D01*
G01*
G37*
G36*
G01*
X170791000Y-77556500D02*
X170791000Y-77256500D01*
G75*
G02*
X170941000Y-77106500I150000J0D01*
G01*
X172591000Y-77106500D01*
G75*
G02*
X172741000Y-77256500I0J-150000D01*
G01*
X172741000Y-77556500D01*
G75*
G02*
X172591000Y-77706500I-150000J0D01*
G01*
X170941000Y-77706500D01*
G75*
G02*
X170791000Y-77556500I0J150000D01*
G01*
G37*
G36*
G01*
X170791000Y-78826500D02*
X170791000Y-78526500D01*
G75*
G02*
X170941000Y-78376500I150000J0D01*
G01*
X172591000Y-78376500D01*
G75*
G02*
X172741000Y-78526500I0J-150000D01*
G01*
X172741000Y-78826500D01*
G75*
G02*
X172591000Y-78976500I-150000J0D01*
G01*
X170941000Y-78976500D01*
G75*
G02*
X170791000Y-78826500I0J150000D01*
G01*
G37*
G36*
G01*
X165841000Y-78826500D02*
X165841000Y-78526500D01*
G75*
G02*
X165991000Y-78376500I150000J0D01*
G01*
X167641000Y-78376500D01*
G75*
G02*
X167791000Y-78526500I0J-150000D01*
G01*
X167791000Y-78826500D01*
G75*
G02*
X167641000Y-78976500I-150000J0D01*
G01*
X165991000Y-78976500D01*
G75*
G02*
X165841000Y-78826500I0J150000D01*
G01*
G37*
G36*
G01*
X165841000Y-77556500D02*
X165841000Y-77256500D01*
G75*
G02*
X165991000Y-77106500I150000J0D01*
G01*
X167641000Y-77106500D01*
G75*
G02*
X167791000Y-77256500I0J-150000D01*
G01*
X167791000Y-77556500D01*
G75*
G02*
X167641000Y-77706500I-150000J0D01*
G01*
X165991000Y-77706500D01*
G75*
G02*
X165841000Y-77556500I0J150000D01*
G01*
G37*
G36*
G01*
X165841000Y-76286500D02*
X165841000Y-75986500D01*
G75*
G02*
X165991000Y-75836500I150000J0D01*
G01*
X167641000Y-75836500D01*
G75*
G02*
X167791000Y-75986500I0J-150000D01*
G01*
X167791000Y-76286500D01*
G75*
G02*
X167641000Y-76436500I-150000J0D01*
G01*
X165991000Y-76436500D01*
G75*
G02*
X165841000Y-76286500I0J150000D01*
G01*
G37*
G36*
G01*
X165841000Y-75016500D02*
X165841000Y-74716500D01*
G75*
G02*
X165991000Y-74566500I150000J0D01*
G01*
X167641000Y-74566500D01*
G75*
G02*
X167791000Y-74716500I0J-150000D01*
G01*
X167791000Y-75016500D01*
G75*
G02*
X167641000Y-75166500I-150000J0D01*
G01*
X165991000Y-75166500D01*
G75*
G02*
X165841000Y-75016500I0J150000D01*
G01*
G37*
G36*
G01*
X165841000Y-73746500D02*
X165841000Y-73446500D01*
G75*
G02*
X165991000Y-73296500I150000J0D01*
G01*
X167641000Y-73296500D01*
G75*
G02*
X167791000Y-73446500I0J-150000D01*
G01*
X167791000Y-73746500D01*
G75*
G02*
X167641000Y-73896500I-150000J0D01*
G01*
X165991000Y-73896500D01*
G75*
G02*
X165841000Y-73746500I0J150000D01*
G01*
G37*
G36*
G01*
X165841000Y-72476500D02*
X165841000Y-72176500D01*
G75*
G02*
X165991000Y-72026500I150000J0D01*
G01*
X167641000Y-72026500D01*
G75*
G02*
X167791000Y-72176500I0J-150000D01*
G01*
X167791000Y-72476500D01*
G75*
G02*
X167641000Y-72626500I-150000J0D01*
G01*
X165991000Y-72626500D01*
G75*
G02*
X165841000Y-72476500I0J150000D01*
G01*
G37*
G36*
G01*
X165841000Y-71206500D02*
X165841000Y-70906500D01*
G75*
G02*
X165991000Y-70756500I150000J0D01*
G01*
X167641000Y-70756500D01*
G75*
G02*
X167791000Y-70906500I0J-150000D01*
G01*
X167791000Y-71206500D01*
G75*
G02*
X167641000Y-71356500I-150000J0D01*
G01*
X165991000Y-71356500D01*
G75*
G02*
X165841000Y-71206500I0J150000D01*
G01*
G37*
%TD*%
%TO.C,U4*%
G36*
G01*
X125569000Y-75048500D02*
X125569000Y-74848500D01*
G75*
G02*
X125669000Y-74748500I100000J0D01*
G01*
X126944000Y-74748500D01*
G75*
G02*
X127044000Y-74848500I0J-100000D01*
G01*
X127044000Y-75048500D01*
G75*
G02*
X126944000Y-75148500I-100000J0D01*
G01*
X125669000Y-75148500D01*
G75*
G02*
X125569000Y-75048500I0J100000D01*
G01*
G37*
G36*
G01*
X125569000Y-75698500D02*
X125569000Y-75498500D01*
G75*
G02*
X125669000Y-75398500I100000J0D01*
G01*
X126944000Y-75398500D01*
G75*
G02*
X127044000Y-75498500I0J-100000D01*
G01*
X127044000Y-75698500D01*
G75*
G02*
X126944000Y-75798500I-100000J0D01*
G01*
X125669000Y-75798500D01*
G75*
G02*
X125569000Y-75698500I0J100000D01*
G01*
G37*
G36*
G01*
X125569000Y-76348500D02*
X125569000Y-76148500D01*
G75*
G02*
X125669000Y-76048500I100000J0D01*
G01*
X126944000Y-76048500D01*
G75*
G02*
X127044000Y-76148500I0J-100000D01*
G01*
X127044000Y-76348500D01*
G75*
G02*
X126944000Y-76448500I-100000J0D01*
G01*
X125669000Y-76448500D01*
G75*
G02*
X125569000Y-76348500I0J100000D01*
G01*
G37*
G36*
G01*
X125569000Y-76998500D02*
X125569000Y-76798500D01*
G75*
G02*
X125669000Y-76698500I100000J0D01*
G01*
X126944000Y-76698500D01*
G75*
G02*
X127044000Y-76798500I0J-100000D01*
G01*
X127044000Y-76998500D01*
G75*
G02*
X126944000Y-77098500I-100000J0D01*
G01*
X125669000Y-77098500D01*
G75*
G02*
X125569000Y-76998500I0J100000D01*
G01*
G37*
G36*
G01*
X125569000Y-77648500D02*
X125569000Y-77448500D01*
G75*
G02*
X125669000Y-77348500I100000J0D01*
G01*
X126944000Y-77348500D01*
G75*
G02*
X127044000Y-77448500I0J-100000D01*
G01*
X127044000Y-77648500D01*
G75*
G02*
X126944000Y-77748500I-100000J0D01*
G01*
X125669000Y-77748500D01*
G75*
G02*
X125569000Y-77648500I0J100000D01*
G01*
G37*
G36*
G01*
X125569000Y-78298500D02*
X125569000Y-78098500D01*
G75*
G02*
X125669000Y-77998500I100000J0D01*
G01*
X126944000Y-77998500D01*
G75*
G02*
X127044000Y-78098500I0J-100000D01*
G01*
X127044000Y-78298500D01*
G75*
G02*
X126944000Y-78398500I-100000J0D01*
G01*
X125669000Y-78398500D01*
G75*
G02*
X125569000Y-78298500I0J100000D01*
G01*
G37*
G36*
G01*
X125569000Y-78948500D02*
X125569000Y-78748500D01*
G75*
G02*
X125669000Y-78648500I100000J0D01*
G01*
X126944000Y-78648500D01*
G75*
G02*
X127044000Y-78748500I0J-100000D01*
G01*
X127044000Y-78948500D01*
G75*
G02*
X126944000Y-79048500I-100000J0D01*
G01*
X125669000Y-79048500D01*
G75*
G02*
X125569000Y-78948500I0J100000D01*
G01*
G37*
G36*
G01*
X119844000Y-78948500D02*
X119844000Y-78748500D01*
G75*
G02*
X119944000Y-78648500I100000J0D01*
G01*
X121219000Y-78648500D01*
G75*
G02*
X121319000Y-78748500I0J-100000D01*
G01*
X121319000Y-78948500D01*
G75*
G02*
X121219000Y-79048500I-100000J0D01*
G01*
X119944000Y-79048500D01*
G75*
G02*
X119844000Y-78948500I0J100000D01*
G01*
G37*
G36*
G01*
X119844000Y-78298500D02*
X119844000Y-78098500D01*
G75*
G02*
X119944000Y-77998500I100000J0D01*
G01*
X121219000Y-77998500D01*
G75*
G02*
X121319000Y-78098500I0J-100000D01*
G01*
X121319000Y-78298500D01*
G75*
G02*
X121219000Y-78398500I-100000J0D01*
G01*
X119944000Y-78398500D01*
G75*
G02*
X119844000Y-78298500I0J100000D01*
G01*
G37*
G36*
G01*
X119844000Y-77648500D02*
X119844000Y-77448500D01*
G75*
G02*
X119944000Y-77348500I100000J0D01*
G01*
X121219000Y-77348500D01*
G75*
G02*
X121319000Y-77448500I0J-100000D01*
G01*
X121319000Y-77648500D01*
G75*
G02*
X121219000Y-77748500I-100000J0D01*
G01*
X119944000Y-77748500D01*
G75*
G02*
X119844000Y-77648500I0J100000D01*
G01*
G37*
G36*
G01*
X119844000Y-76998500D02*
X119844000Y-76798500D01*
G75*
G02*
X119944000Y-76698500I100000J0D01*
G01*
X121219000Y-76698500D01*
G75*
G02*
X121319000Y-76798500I0J-100000D01*
G01*
X121319000Y-76998500D01*
G75*
G02*
X121219000Y-77098500I-100000J0D01*
G01*
X119944000Y-77098500D01*
G75*
G02*
X119844000Y-76998500I0J100000D01*
G01*
G37*
G36*
G01*
X119844000Y-76348500D02*
X119844000Y-76148500D01*
G75*
G02*
X119944000Y-76048500I100000J0D01*
G01*
X121219000Y-76048500D01*
G75*
G02*
X121319000Y-76148500I0J-100000D01*
G01*
X121319000Y-76348500D01*
G75*
G02*
X121219000Y-76448500I-100000J0D01*
G01*
X119944000Y-76448500D01*
G75*
G02*
X119844000Y-76348500I0J100000D01*
G01*
G37*
G36*
G01*
X119844000Y-75698500D02*
X119844000Y-75498500D01*
G75*
G02*
X119944000Y-75398500I100000J0D01*
G01*
X121219000Y-75398500D01*
G75*
G02*
X121319000Y-75498500I0J-100000D01*
G01*
X121319000Y-75698500D01*
G75*
G02*
X121219000Y-75798500I-100000J0D01*
G01*
X119944000Y-75798500D01*
G75*
G02*
X119844000Y-75698500I0J100000D01*
G01*
G37*
G36*
G01*
X119844000Y-75048500D02*
X119844000Y-74848500D01*
G75*
G02*
X119944000Y-74748500I100000J0D01*
G01*
X121219000Y-74748500D01*
G75*
G02*
X121319000Y-74848500I0J-100000D01*
G01*
X121319000Y-75048500D01*
G75*
G02*
X121219000Y-75148500I-100000J0D01*
G01*
X119944000Y-75148500D01*
G75*
G02*
X119844000Y-75048500I0J100000D01*
G01*
G37*
%TD*%
D21*
%TO.C,U5*%
X159131000Y-70802500D03*
X159131000Y-72707500D03*
X159131000Y-71755000D03*
X161798000Y-72707500D03*
X161798000Y-70802500D03*
%TD*%
%TO.C,U6*%
X155003500Y-69469000D03*
X155003500Y-71374000D03*
X152336500Y-70421500D03*
X152336500Y-71374000D03*
X152336500Y-69469000D03*
%TD*%
%TO.C,U7*%
G36*
G01*
X175935000Y-84605000D02*
X175935000Y-84305000D01*
G75*
G02*
X176085000Y-84155000I150000J0D01*
G01*
X177835000Y-84155000D01*
G75*
G02*
X177985000Y-84305000I0J-150000D01*
G01*
X177985000Y-84605000D01*
G75*
G02*
X177835000Y-84755000I-150000J0D01*
G01*
X176085000Y-84755000D01*
G75*
G02*
X175935000Y-84605000I0J150000D01*
G01*
G37*
G36*
G01*
X175935000Y-85875000D02*
X175935000Y-85575000D01*
G75*
G02*
X176085000Y-85425000I150000J0D01*
G01*
X177835000Y-85425000D01*
G75*
G02*
X177985000Y-85575000I0J-150000D01*
G01*
X177985000Y-85875000D01*
G75*
G02*
X177835000Y-86025000I-150000J0D01*
G01*
X176085000Y-86025000D01*
G75*
G02*
X175935000Y-85875000I0J150000D01*
G01*
G37*
G36*
G01*
X175935000Y-87145000D02*
X175935000Y-86845000D01*
G75*
G02*
X176085000Y-86695000I150000J0D01*
G01*
X177835000Y-86695000D01*
G75*
G02*
X177985000Y-86845000I0J-150000D01*
G01*
X177985000Y-87145000D01*
G75*
G02*
X177835000Y-87295000I-150000J0D01*
G01*
X176085000Y-87295000D01*
G75*
G02*
X175935000Y-87145000I0J150000D01*
G01*
G37*
G36*
G01*
X175935000Y-88415000D02*
X175935000Y-88115000D01*
G75*
G02*
X176085000Y-87965000I150000J0D01*
G01*
X177835000Y-87965000D01*
G75*
G02*
X177985000Y-88115000I0J-150000D01*
G01*
X177985000Y-88415000D01*
G75*
G02*
X177835000Y-88565000I-150000J0D01*
G01*
X176085000Y-88565000D01*
G75*
G02*
X175935000Y-88415000I0J150000D01*
G01*
G37*
G36*
G01*
X175935000Y-89685000D02*
X175935000Y-89385000D01*
G75*
G02*
X176085000Y-89235000I150000J0D01*
G01*
X177835000Y-89235000D01*
G75*
G02*
X177985000Y-89385000I0J-150000D01*
G01*
X177985000Y-89685000D01*
G75*
G02*
X177835000Y-89835000I-150000J0D01*
G01*
X176085000Y-89835000D01*
G75*
G02*
X175935000Y-89685000I0J150000D01*
G01*
G37*
G36*
G01*
X175935000Y-90955000D02*
X175935000Y-90655000D01*
G75*
G02*
X176085000Y-90505000I150000J0D01*
G01*
X177835000Y-90505000D01*
G75*
G02*
X177985000Y-90655000I0J-150000D01*
G01*
X177985000Y-90955000D01*
G75*
G02*
X177835000Y-91105000I-150000J0D01*
G01*
X176085000Y-91105000D01*
G75*
G02*
X175935000Y-90955000I0J150000D01*
G01*
G37*
G36*
G01*
X175935000Y-92225000D02*
X175935000Y-91925000D01*
G75*
G02*
X176085000Y-91775000I150000J0D01*
G01*
X177835000Y-91775000D01*
G75*
G02*
X177985000Y-91925000I0J-150000D01*
G01*
X177985000Y-92225000D01*
G75*
G02*
X177835000Y-92375000I-150000J0D01*
G01*
X176085000Y-92375000D01*
G75*
G02*
X175935000Y-92225000I0J150000D01*
G01*
G37*
G36*
G01*
X175935000Y-93495000D02*
X175935000Y-93195000D01*
G75*
G02*
X176085000Y-93045000I150000J0D01*
G01*
X177835000Y-93045000D01*
G75*
G02*
X177985000Y-93195000I0J-150000D01*
G01*
X177985000Y-93495000D01*
G75*
G02*
X177835000Y-93645000I-150000J0D01*
G01*
X176085000Y-93645000D01*
G75*
G02*
X175935000Y-93495000I0J150000D01*
G01*
G37*
G36*
G01*
X175935000Y-94765000D02*
X175935000Y-94465000D01*
G75*
G02*
X176085000Y-94315000I150000J0D01*
G01*
X177835000Y-94315000D01*
G75*
G02*
X177985000Y-94465000I0J-150000D01*
G01*
X177985000Y-94765000D01*
G75*
G02*
X177835000Y-94915000I-150000J0D01*
G01*
X176085000Y-94915000D01*
G75*
G02*
X175935000Y-94765000I0J150000D01*
G01*
G37*
G36*
G01*
X175935000Y-96035000D02*
X175935000Y-95735000D01*
G75*
G02*
X176085000Y-95585000I150000J0D01*
G01*
X177835000Y-95585000D01*
G75*
G02*
X177985000Y-95735000I0J-150000D01*
G01*
X177985000Y-96035000D01*
G75*
G02*
X177835000Y-96185000I-150000J0D01*
G01*
X176085000Y-96185000D01*
G75*
G02*
X175935000Y-96035000I0J150000D01*
G01*
G37*
G36*
G01*
X185235000Y-96035000D02*
X185235000Y-95735000D01*
G75*
G02*
X185385000Y-95585000I150000J0D01*
G01*
X187135000Y-95585000D01*
G75*
G02*
X187285000Y-95735000I0J-150000D01*
G01*
X187285000Y-96035000D01*
G75*
G02*
X187135000Y-96185000I-150000J0D01*
G01*
X185385000Y-96185000D01*
G75*
G02*
X185235000Y-96035000I0J150000D01*
G01*
G37*
G36*
G01*
X185235000Y-94765000D02*
X185235000Y-94465000D01*
G75*
G02*
X185385000Y-94315000I150000J0D01*
G01*
X187135000Y-94315000D01*
G75*
G02*
X187285000Y-94465000I0J-150000D01*
G01*
X187285000Y-94765000D01*
G75*
G02*
X187135000Y-94915000I-150000J0D01*
G01*
X185385000Y-94915000D01*
G75*
G02*
X185235000Y-94765000I0J150000D01*
G01*
G37*
G36*
G01*
X185235000Y-93495000D02*
X185235000Y-93195000D01*
G75*
G02*
X185385000Y-93045000I150000J0D01*
G01*
X187135000Y-93045000D01*
G75*
G02*
X187285000Y-93195000I0J-150000D01*
G01*
X187285000Y-93495000D01*
G75*
G02*
X187135000Y-93645000I-150000J0D01*
G01*
X185385000Y-93645000D01*
G75*
G02*
X185235000Y-93495000I0J150000D01*
G01*
G37*
G36*
G01*
X185235000Y-92225000D02*
X185235000Y-91925000D01*
G75*
G02*
X185385000Y-91775000I150000J0D01*
G01*
X187135000Y-91775000D01*
G75*
G02*
X187285000Y-91925000I0J-150000D01*
G01*
X187285000Y-92225000D01*
G75*
G02*
X187135000Y-92375000I-150000J0D01*
G01*
X185385000Y-92375000D01*
G75*
G02*
X185235000Y-92225000I0J150000D01*
G01*
G37*
G36*
G01*
X185235000Y-90955000D02*
X185235000Y-90655000D01*
G75*
G02*
X185385000Y-90505000I150000J0D01*
G01*
X187135000Y-90505000D01*
G75*
G02*
X187285000Y-90655000I0J-150000D01*
G01*
X187285000Y-90955000D01*
G75*
G02*
X187135000Y-91105000I-150000J0D01*
G01*
X185385000Y-91105000D01*
G75*
G02*
X185235000Y-90955000I0J150000D01*
G01*
G37*
G36*
G01*
X185235000Y-89685000D02*
X185235000Y-89385000D01*
G75*
G02*
X185385000Y-89235000I150000J0D01*
G01*
X187135000Y-89235000D01*
G75*
G02*
X187285000Y-89385000I0J-150000D01*
G01*
X187285000Y-89685000D01*
G75*
G02*
X187135000Y-89835000I-150000J0D01*
G01*
X185385000Y-89835000D01*
G75*
G02*
X185235000Y-89685000I0J150000D01*
G01*
G37*
G36*
G01*
X185235000Y-88415000D02*
X185235000Y-88115000D01*
G75*
G02*
X185385000Y-87965000I150000J0D01*
G01*
X187135000Y-87965000D01*
G75*
G02*
X187285000Y-88115000I0J-150000D01*
G01*
X187285000Y-88415000D01*
G75*
G02*
X187135000Y-88565000I-150000J0D01*
G01*
X185385000Y-88565000D01*
G75*
G02*
X185235000Y-88415000I0J150000D01*
G01*
G37*
G36*
G01*
X185235000Y-87145000D02*
X185235000Y-86845000D01*
G75*
G02*
X185385000Y-86695000I150000J0D01*
G01*
X187135000Y-86695000D01*
G75*
G02*
X187285000Y-86845000I0J-150000D01*
G01*
X187285000Y-87145000D01*
G75*
G02*
X187135000Y-87295000I-150000J0D01*
G01*
X185385000Y-87295000D01*
G75*
G02*
X185235000Y-87145000I0J150000D01*
G01*
G37*
G36*
G01*
X185235000Y-85875000D02*
X185235000Y-85575000D01*
G75*
G02*
X185385000Y-85425000I150000J0D01*
G01*
X187135000Y-85425000D01*
G75*
G02*
X187285000Y-85575000I0J-150000D01*
G01*
X187285000Y-85875000D01*
G75*
G02*
X187135000Y-86025000I-150000J0D01*
G01*
X185385000Y-86025000D01*
G75*
G02*
X185235000Y-85875000I0J150000D01*
G01*
G37*
G36*
G01*
X185235000Y-84605000D02*
X185235000Y-84305000D01*
G75*
G02*
X185385000Y-84155000I150000J0D01*
G01*
X187135000Y-84155000D01*
G75*
G02*
X187285000Y-84305000I0J-150000D01*
G01*
X187285000Y-84605000D01*
G75*
G02*
X187135000Y-84755000I-150000J0D01*
G01*
X185385000Y-84755000D01*
G75*
G02*
X185235000Y-84605000I0J150000D01*
G01*
G37*
%TD*%
D22*
%TO.C,U8*%
X157235000Y-77066500D03*
X157235000Y-77716500D03*
X157235000Y-78366500D03*
X157235000Y-79016500D03*
X161535000Y-79016500D03*
X161535000Y-78366500D03*
X161535000Y-77716500D03*
X161535000Y-77066500D03*
%TD*%
D10*
%TO.C,SJ2*%
G36*
X187331999Y-75163001D02*
G01*
X187331999Y-74013001D01*
X188081999Y-74513001D01*
X188831999Y-74013001D01*
X188831999Y-75163001D01*
X187331999Y-75163001D01*
G37*
G36*
X188081999Y-74213001D02*
G01*
X187331999Y-73713001D01*
X187331999Y-72713001D01*
X188831999Y-72713001D01*
X188831999Y-73713001D01*
X188081999Y-74213001D01*
G37*
%TD*%
%TO.C,SJ3*%
G36*
X188081999Y-78563001D02*
G01*
X187331999Y-78063001D01*
X187331999Y-77063001D01*
X188831999Y-77063001D01*
X188831999Y-78063001D01*
X188081999Y-78563001D01*
G37*
G36*
X187331999Y-79513001D02*
G01*
X187331999Y-78363001D01*
X188081999Y-78863001D01*
X188831999Y-78363001D01*
X188831999Y-79513001D01*
X187331999Y-79513001D01*
G37*
%TD*%
M02*
