%FSLAX45Y45*%
G04 Gerber Fmt 4.5, Leading zero omitted, Abs format (unit mm)*
G04 Created by KiCad (PCBNEW (5.1.10)-1) date 2022-08-27 22:49:57*
%MOMM*%
%LPD*%
G01*
G04 APERTURE LIST*
%ADD10C,0.200000*%
%ADD11C,0.300000*%
G04 APERTURE END LIST*
D10*
X9615450Y-8942350D02*
X9650450Y-8977350D01*
X9650450Y-8942350D02*
X9615450Y-8977350D01*
X9647200Y-7462800D02*
X9682200Y-7497800D01*
X9682200Y-7462800D02*
X9647200Y-7497800D01*
X9691650Y-8491500D02*
X9726650Y-8526500D01*
X9726650Y-8491500D02*
X9691650Y-8526500D01*
X9710700Y-7526300D02*
X9745700Y-7561300D01*
X9745700Y-7526300D02*
X9710700Y-7561300D01*
X9774200Y-7589800D02*
X9809200Y-7624800D01*
X9809200Y-7589800D02*
X9774200Y-7624800D01*
X9837700Y-7653300D02*
X9872700Y-7688300D01*
X9872700Y-7653300D02*
X9837700Y-7688300D01*
X9901200Y-7716800D02*
X9936200Y-7751800D01*
X9936200Y-7716800D02*
X9901200Y-7751800D01*
X9926600Y-8834400D02*
X9961600Y-8869400D01*
X9961600Y-8834400D02*
X9926600Y-8869400D01*
X9964700Y-7780300D02*
X9999700Y-7815300D01*
X9999700Y-7780300D02*
X9964700Y-7815300D01*
X10015500Y-8834400D02*
X10050500Y-8869400D01*
X10050500Y-8834400D02*
X10015500Y-8869400D01*
X10282200Y-6554750D02*
X10317200Y-6589750D01*
X10317200Y-6554750D02*
X10282200Y-6589750D01*
X10650000Y-10619250D02*
X10685000Y-10654250D01*
X10685000Y-10619250D02*
X10650000Y-10654250D01*
X10777500Y-8783600D02*
X10812500Y-8818600D01*
X10812500Y-8783600D02*
X10777500Y-8818600D01*
X10777500Y-9825000D02*
X10812500Y-9860000D01*
X10812500Y-9825000D02*
X10777500Y-9860000D01*
X10793375Y-9275725D02*
X10828375Y-9310725D01*
X10828375Y-9275725D02*
X10793375Y-9310725D01*
X10841000Y-8821700D02*
X10876000Y-8856700D01*
X10876000Y-8821700D02*
X10841000Y-8856700D01*
X10847350Y-9221750D02*
X10882350Y-9256750D01*
X10882350Y-9221750D02*
X10847350Y-9256750D01*
X10866400Y-7386600D02*
X10901400Y-7421600D01*
X10901400Y-7386600D02*
X10866400Y-7421600D01*
X10891800Y-9012200D02*
X10926800Y-9047200D01*
X10926800Y-9012200D02*
X10891800Y-9047200D01*
X10891800Y-9412250D02*
X10926800Y-9447250D01*
X10926800Y-9412250D02*
X10891800Y-9447250D01*
X10891800Y-9526550D02*
X10926800Y-9561550D01*
X10926800Y-9526550D02*
X10891800Y-9561550D01*
X10898150Y-9170950D02*
X10933150Y-9205950D01*
X10933150Y-9170950D02*
X10898150Y-9205950D01*
X10917200Y-8859800D02*
X10952200Y-8894800D01*
X10952200Y-8859800D02*
X10917200Y-8894800D01*
X10942600Y-9355100D02*
X10977600Y-9390100D01*
X10977600Y-9355100D02*
X10942600Y-9390100D01*
X10942600Y-9469400D02*
X10977600Y-9504400D01*
X10977600Y-9469400D02*
X10942600Y-9504400D01*
X10942600Y-9583700D02*
X10977600Y-9618700D01*
X10977600Y-9583700D02*
X10942600Y-9618700D01*
X10968000Y-6681750D02*
X11003000Y-6716750D01*
X11003000Y-6681750D02*
X10968000Y-6716750D01*
X10974350Y-9012200D02*
X11009350Y-9047200D01*
X11009350Y-9012200D02*
X10974350Y-9047200D01*
X11018800Y-8847100D02*
X11053800Y-8882100D01*
X11053800Y-8847100D02*
X11018800Y-8882100D01*
X11082300Y-8783600D02*
X11117300Y-8818600D01*
X11117300Y-8783600D02*
X11082300Y-8818600D01*
X11323600Y-6808750D02*
X11358600Y-6843750D01*
X11358600Y-6808750D02*
X11323600Y-6843750D01*
X11418850Y-8548650D02*
X11453850Y-8583650D01*
X11453850Y-8548650D02*
X11418850Y-8583650D01*
X11482350Y-8491500D02*
X11517350Y-8526500D01*
X11517350Y-8491500D02*
X11482350Y-8526500D01*
X11590300Y-6770650D02*
X11625300Y-6805650D01*
X11625300Y-6770650D02*
X11590300Y-6805650D01*
X11609350Y-9297950D02*
X11644350Y-9332950D01*
X11644350Y-9297950D02*
X11609350Y-9332950D01*
X11679200Y-9240800D02*
X11714200Y-9275800D01*
X11714200Y-9240800D02*
X11679200Y-9275800D01*
X11717300Y-8872500D02*
X11752300Y-8907500D01*
X11752300Y-8872500D02*
X11717300Y-8907500D01*
X11736350Y-9183650D02*
X11771350Y-9218650D01*
X11771350Y-9183650D02*
X11736350Y-9218650D01*
X11768100Y-8809000D02*
X11803100Y-8844000D01*
X11803100Y-8809000D02*
X11768100Y-8844000D01*
X11793500Y-9126500D02*
X11828500Y-9161500D01*
X11828500Y-9126500D02*
X11793500Y-9161500D01*
X11857000Y-9012200D02*
X11892000Y-9047200D01*
X11892000Y-9012200D02*
X11857000Y-9047200D01*
X11869700Y-6745250D02*
X11904700Y-6780250D01*
X11904700Y-6745250D02*
X11869700Y-6780250D01*
X12034800Y-11012450D02*
X12069800Y-11047450D01*
X12069800Y-11012450D02*
X12034800Y-11047450D01*
X12104650Y-6688100D02*
X12139650Y-6723100D01*
X12139650Y-6688100D02*
X12104650Y-6723100D01*
X12403100Y-7450100D02*
X12438100Y-7485100D01*
X12438100Y-7450100D02*
X12403100Y-7485100D01*
X12403100Y-8605800D02*
X12438100Y-8640800D01*
X12438100Y-8605800D02*
X12403100Y-8640800D01*
X12409450Y-7608850D02*
X12444450Y-7643850D01*
X12444450Y-7608850D02*
X12409450Y-7643850D01*
X12434850Y-8662950D02*
X12469850Y-8697950D01*
X12469850Y-8662950D02*
X12434850Y-8697950D01*
X12434850Y-11012450D02*
X12469850Y-11047450D01*
X12469850Y-11012450D02*
X12434850Y-11047450D01*
X12460250Y-8720100D02*
X12495250Y-8755100D01*
X12495250Y-8720100D02*
X12460250Y-8755100D01*
X12485650Y-8777250D02*
X12520650Y-8812250D01*
X12520650Y-8777250D02*
X12485650Y-8812250D01*
X12511050Y-8834400D02*
X12546050Y-8869400D01*
X12546050Y-8834400D02*
X12511050Y-8869400D01*
X12536450Y-8891550D02*
X12571450Y-8926550D01*
X12571450Y-8891550D02*
X12536450Y-8926550D01*
X12561850Y-8948700D02*
X12596850Y-8983700D01*
X12596850Y-8948700D02*
X12561850Y-8983700D01*
X12580900Y-10504450D02*
X12615900Y-10539450D01*
X12615900Y-10504450D02*
X12580900Y-10539450D01*
X12587250Y-9005850D02*
X12622250Y-9040850D01*
X12622250Y-9005850D02*
X12587250Y-9040850D01*
X12608205Y-9066175D02*
X12643205Y-9101175D01*
X12643205Y-9066175D02*
X12608205Y-9101175D01*
X12750500Y-7867350D02*
X12785500Y-7902350D01*
X12785500Y-7867350D02*
X12750500Y-7902350D01*
X12765050Y-7697750D02*
X12800050Y-7732750D01*
X12800050Y-7697750D02*
X12765050Y-7732750D01*
X12784100Y-7773950D02*
X12819100Y-7808950D01*
X12819100Y-7773950D02*
X12784100Y-7808950D01*
X12809500Y-5380000D02*
X12844500Y-5415000D01*
X12844500Y-5380000D02*
X12809500Y-5415000D01*
X12822200Y-11012450D02*
X12857200Y-11047450D01*
X12857200Y-11012450D02*
X12822200Y-11047450D01*
X12855220Y-9299220D02*
X12890220Y-9334220D01*
X12890220Y-9299220D02*
X12855220Y-9334220D01*
X12993650Y-5964200D02*
X13028650Y-5999200D01*
X13028650Y-5964200D02*
X12993650Y-5999200D01*
X13107950Y-6103900D02*
X13142950Y-6138900D01*
X13142950Y-6103900D02*
X13107950Y-6138900D01*
X13127000Y-10587000D02*
X13162000Y-10622000D01*
X13162000Y-10587000D02*
X13127000Y-10622000D01*
X13152400Y-10333000D02*
X13187400Y-10368000D01*
X13187400Y-10333000D02*
X13152400Y-10368000D01*
X13172720Y-9355100D02*
X13207720Y-9390100D01*
X13207720Y-9355100D02*
X13172720Y-9390100D01*
X13185420Y-8435620D02*
X13220420Y-8470620D01*
X13220420Y-8435620D02*
X13185420Y-8470620D01*
X13222250Y-11012450D02*
X13257250Y-11047450D01*
X13257250Y-11012450D02*
X13222250Y-11047450D01*
X13228600Y-9410980D02*
X13263600Y-9445980D01*
X13263600Y-9410980D02*
X13228600Y-9445980D01*
X13228600Y-10371100D02*
X13263600Y-10406100D01*
X13263600Y-10371100D02*
X13228600Y-10406100D01*
X13246380Y-8491500D02*
X13281380Y-8526500D01*
X13281380Y-8491500D02*
X13246380Y-8526500D01*
X13254000Y-6491250D02*
X13289000Y-6526250D01*
X13289000Y-6491250D02*
X13254000Y-6526250D01*
X13274320Y-9873260D02*
X13309320Y-9908260D01*
X13309320Y-9873260D02*
X13274320Y-9908260D01*
X13287020Y-9469400D02*
X13322020Y-9504400D01*
X13322020Y-9469400D02*
X13287020Y-9504400D01*
X13292100Y-10409200D02*
X13327100Y-10444200D01*
X13327100Y-10409200D02*
X13292100Y-10444200D01*
X13307340Y-8549920D02*
X13342340Y-8584920D01*
X13342340Y-8549920D02*
X13307340Y-8584920D01*
X13309880Y-8250200D02*
X13344880Y-8285200D01*
X13344880Y-8250200D02*
X13309880Y-8285200D01*
X13342900Y-9525280D02*
X13377900Y-9560280D01*
X13377900Y-9525280D02*
X13342900Y-9560280D01*
X13373380Y-8377200D02*
X13408380Y-8412200D01*
X13408380Y-8377200D02*
X13373380Y-8412200D01*
X13393700Y-10663200D02*
X13428700Y-10698200D01*
X13428700Y-10663200D02*
X13393700Y-10698200D01*
X13398780Y-9583700D02*
X13433780Y-9618700D01*
X13433780Y-9583700D02*
X13398780Y-9618700D01*
X13406400Y-10561600D02*
X13441400Y-10596600D01*
X13441400Y-10561600D02*
X13406400Y-10596600D01*
X13422519Y-7846340D02*
X13457519Y-7881340D01*
X13457519Y-7846340D02*
X13422519Y-7881340D01*
X13438150Y-6065800D02*
X13473150Y-6100800D01*
X13473150Y-6065800D02*
X13438150Y-6100800D01*
X13461400Y-10120520D02*
X13496400Y-10155520D01*
X13496400Y-10120520D02*
X13461400Y-10155520D01*
X13537210Y-8434350D02*
X13572210Y-8469350D01*
X13572210Y-8434350D02*
X13537210Y-8469350D01*
X13546100Y-7815860D02*
X13581100Y-7850860D01*
X13581100Y-7815860D02*
X13546100Y-7850860D01*
X13548640Y-8605800D02*
X13583640Y-8640800D01*
X13583640Y-8605800D02*
X13548640Y-8640800D01*
X13553720Y-8212100D02*
X13588720Y-8247100D01*
X13588720Y-8212100D02*
X13553720Y-8247100D01*
X13571500Y-4999000D02*
X13606500Y-5034000D01*
X13606500Y-4999000D02*
X13571500Y-5034000D01*
X13571500Y-10625100D02*
X13606500Y-10660100D01*
X13606500Y-10625100D02*
X13571500Y-10660100D01*
X13584200Y-8491500D02*
X13619200Y-8526500D01*
X13619200Y-8491500D02*
X13584200Y-8526500D01*
X13599440Y-10056140D02*
X13634440Y-10091140D01*
X13634440Y-10056140D02*
X13599440Y-10091140D01*
X13622300Y-11012450D02*
X13657300Y-11047450D01*
X13657300Y-11012450D02*
X13622300Y-11047450D01*
X13637540Y-9990100D02*
X13672540Y-10025100D01*
X13672540Y-9990100D02*
X13637540Y-10025100D01*
X13645160Y-6769380D02*
X13680160Y-6804380D01*
X13680160Y-6769380D02*
X13645160Y-6804380D01*
X13645160Y-7348500D02*
X13680160Y-7383500D01*
X13680160Y-7348500D02*
X13645160Y-7383500D01*
X13662940Y-9918980D02*
X13697940Y-9953980D01*
X13697940Y-9918980D02*
X13662940Y-9953980D01*
X13701040Y-8547380D02*
X13736040Y-8582380D01*
X13736040Y-8547380D02*
X13701040Y-8582380D01*
X13706120Y-7429780D02*
X13741120Y-7464780D01*
X13741120Y-7429780D02*
X13706120Y-7464780D01*
X13711200Y-10866400D02*
X13746200Y-10901400D01*
X13746200Y-10866400D02*
X13711200Y-10901400D01*
X13726440Y-9736100D02*
X13761440Y-9771100D01*
X13761440Y-9736100D02*
X13726440Y-9771100D01*
X13825500Y-5056150D02*
X13860500Y-5091150D01*
X13860500Y-5056150D02*
X13825500Y-5091150D01*
X14018880Y-9182380D02*
X14053880Y-9217380D01*
X14053880Y-9182380D02*
X14018880Y-9217380D01*
X14021080Y-9065540D02*
X14056080Y-9100540D01*
X14056080Y-9065540D02*
X14021080Y-9100540D01*
X14054100Y-8777250D02*
X14089100Y-8812250D01*
X14089100Y-8777250D02*
X14054100Y-8812250D01*
X14060450Y-8891550D02*
X14095450Y-8926550D01*
X14095450Y-8891550D02*
X14060450Y-8926550D01*
X14079500Y-5113300D02*
X14114500Y-5148300D01*
X14114500Y-5113300D02*
X14079500Y-5148300D01*
X14079500Y-7488200D02*
X14114500Y-7523200D01*
X14114500Y-7488200D02*
X14079500Y-7523200D01*
X14111250Y-8662950D02*
X14146250Y-8697950D01*
X14146250Y-8662950D02*
X14111250Y-8697950D01*
X14206500Y-5227600D02*
X14241500Y-5262600D01*
X14241500Y-5227600D02*
X14206500Y-5262600D01*
X14252220Y-6929400D02*
X14287220Y-6964400D01*
X14287220Y-6929400D02*
X14252220Y-6964400D01*
X14270000Y-10860050D02*
X14305000Y-10895050D01*
X14305000Y-10860050D02*
X14270000Y-10895050D01*
X14282700Y-8605800D02*
X14317700Y-8640800D01*
X14317700Y-8605800D02*
X14282700Y-8640800D01*
X14441450Y-7545350D02*
X14476450Y-7580350D01*
X14476450Y-7545350D02*
X14441450Y-7580350D01*
X14466850Y-8948700D02*
X14501850Y-8983700D01*
X14501850Y-8948700D02*
X14466850Y-8983700D01*
X14485900Y-8720100D02*
X14520900Y-8755100D01*
X14520900Y-8720100D02*
X14485900Y-8755100D01*
X14492250Y-8834400D02*
X14527250Y-8869400D01*
X14527250Y-8834400D02*
X14492250Y-8869400D01*
X14501140Y-9007120D02*
X14536140Y-9042120D01*
X14536140Y-9007120D02*
X14501140Y-9042120D01*
X14503680Y-9240800D02*
X14538680Y-9275800D01*
X14538680Y-9240800D02*
X14503680Y-9275800D01*
X14516380Y-9126500D02*
X14551380Y-9161500D01*
X14551380Y-9126500D02*
X14516380Y-9161500D01*
X14517650Y-6491250D02*
X14552650Y-6526250D01*
X14552650Y-6491250D02*
X14517650Y-6526250D01*
X14633220Y-6769380D02*
X14668220Y-6804380D01*
X14668220Y-6769380D02*
X14633220Y-6804380D01*
X14643380Y-8664220D02*
X14678380Y-8699220D01*
X14678380Y-8664220D02*
X14643380Y-8699220D01*
X14657350Y-7843800D02*
X14692350Y-7878800D01*
X14692350Y-7843800D02*
X14657350Y-7878800D01*
X14695450Y-6872250D02*
X14730450Y-6907250D01*
X14730450Y-6872250D02*
X14695450Y-6907250D01*
X14695450Y-10206000D02*
X14730450Y-10241000D01*
X14730450Y-10206000D02*
X14695450Y-10241000D01*
X14704340Y-8720100D02*
X14739340Y-8755100D01*
X14739340Y-8720100D02*
X14704340Y-8755100D01*
X14706880Y-9736100D02*
X14741880Y-9771100D01*
X14741880Y-9736100D02*
X14706880Y-9771100D01*
X14714500Y-7348500D02*
X14749500Y-7383500D01*
X14749500Y-7348500D02*
X14714500Y-7383500D01*
X14750896Y-7430616D02*
X14785896Y-7465616D01*
X14785896Y-7430616D02*
X14750896Y-7465616D01*
X14752600Y-10180600D02*
X14787600Y-10215600D01*
X14787600Y-10180600D02*
X14752600Y-10215600D01*
X14767840Y-8775980D02*
X14802840Y-8810980D01*
X14802840Y-8775980D02*
X14767840Y-8810980D01*
X14809750Y-10206000D02*
X14844750Y-10241000D01*
X14844750Y-10206000D02*
X14809750Y-10241000D01*
X14816100Y-8605800D02*
X14851100Y-8640800D01*
X14851100Y-8605800D02*
X14816100Y-8640800D01*
X14826260Y-8834400D02*
X14861260Y-8869400D01*
X14861260Y-8834400D02*
X14826260Y-8869400D01*
X14841500Y-9469400D02*
X14876500Y-9504400D01*
X14876500Y-9469400D02*
X14841500Y-9504400D01*
X14866900Y-8548650D02*
X14901900Y-8583650D01*
X14901900Y-8548650D02*
X14866900Y-8583650D01*
X14866900Y-10180600D02*
X14901900Y-10215600D01*
X14901900Y-10180600D02*
X14866900Y-10215600D01*
X14873250Y-7488200D02*
X14908250Y-7523200D01*
X14908250Y-7488200D02*
X14873250Y-7523200D01*
X14879600Y-9412250D02*
X14914600Y-9447250D01*
X14914600Y-9412250D02*
X14879600Y-9447250D01*
X14905000Y-8370850D02*
X14940000Y-8405850D01*
X14940000Y-8370850D02*
X14905000Y-8405850D01*
X14907540Y-9736100D02*
X14942540Y-9771100D01*
X14942540Y-9736100D02*
X14907540Y-9771100D01*
X14914700Y-7916650D02*
X14949700Y-7951650D01*
X14949700Y-7916650D02*
X14914700Y-7951650D01*
X14916200Y-7851650D02*
X14951200Y-7886650D01*
X14951200Y-7851650D02*
X14916200Y-7886650D01*
X14924050Y-8491500D02*
X14959050Y-8526500D01*
X14959050Y-8491500D02*
X14924050Y-8526500D01*
X14930400Y-9355100D02*
X14965400Y-9390100D01*
X14965400Y-9355100D02*
X14930400Y-9390100D01*
X14971040Y-8057160D02*
X15006040Y-8092160D01*
X15006040Y-8057160D02*
X14971040Y-8092160D01*
X14974850Y-9297950D02*
X15009850Y-9332950D01*
X15009850Y-9297950D02*
X14974850Y-9332950D01*
X14981200Y-8434350D02*
X15016200Y-8469350D01*
X15016200Y-8434350D02*
X14981200Y-8469350D01*
X15012950Y-7354850D02*
X15047950Y-7389850D01*
X15047950Y-7354850D02*
X15012950Y-7389850D01*
X15012950Y-9526550D02*
X15047950Y-9561550D01*
X15047950Y-9526550D02*
X15012950Y-9561550D01*
X15019300Y-9240800D02*
X15054300Y-9275800D01*
X15054300Y-9240800D02*
X15019300Y-9275800D01*
X15038350Y-9583700D02*
X15073350Y-9618700D01*
X15073350Y-9583700D02*
X15038350Y-9618700D01*
X15041525Y-6970675D02*
X15076525Y-7005675D01*
X15076525Y-6970675D02*
X15041525Y-7005675D01*
X15044700Y-6548400D02*
X15079700Y-6583400D01*
X15079700Y-6548400D02*
X15044700Y-6583400D01*
X15089150Y-10669550D02*
X15124150Y-10704550D01*
X15124150Y-10669550D02*
X15089150Y-10704550D01*
X15127250Y-7043700D02*
X15162250Y-7078700D01*
X15162250Y-7043700D02*
X15127250Y-7078700D01*
X15190750Y-10993400D02*
X15225750Y-11028400D01*
X15225750Y-10993400D02*
X15190750Y-11028400D01*
X15222500Y-8339100D02*
X15257500Y-8374100D01*
X15257500Y-8339100D02*
X15222500Y-8374100D01*
X15260600Y-7900950D02*
X15295600Y-7935950D01*
X15295600Y-7900950D02*
X15260600Y-7935950D01*
X15318950Y-8372050D02*
X15353950Y-8407050D01*
X15353950Y-8372050D02*
X15318950Y-8407050D01*
X15321560Y-8598180D02*
X15356560Y-8633180D01*
X15356560Y-8598180D02*
X15321560Y-8633180D01*
X15387600Y-8370850D02*
X15422600Y-8405850D01*
X15422600Y-8370850D02*
X15387600Y-8405850D01*
X15400300Y-9818650D02*
X15435300Y-9853650D01*
X15435300Y-9818650D02*
X15400300Y-9853650D01*
X15413000Y-7119900D02*
X15448000Y-7154900D01*
X15448000Y-7119900D02*
X15413000Y-7154900D01*
X15413000Y-7227850D02*
X15448000Y-7262850D01*
X15448000Y-7227850D02*
X15413000Y-7262850D01*
X15489200Y-8370850D02*
X15524200Y-8405850D01*
X15524200Y-8370850D02*
X15489200Y-8405850D01*
X15571750Y-5989600D02*
X15606750Y-6024600D01*
X15606750Y-5989600D02*
X15571750Y-6024600D01*
X15571750Y-7037350D02*
X15606750Y-7072350D01*
X15606750Y-7037350D02*
X15571750Y-7072350D01*
X15603500Y-6808750D02*
X15638500Y-6843750D01*
X15638500Y-6808750D02*
X15603500Y-6843750D01*
X15622550Y-8516900D02*
X15657550Y-8551900D01*
X15657550Y-8516900D02*
X15622550Y-8551900D01*
X15628900Y-7456450D02*
X15663900Y-7491450D01*
X15663900Y-7456450D02*
X15628900Y-7491450D01*
X15705100Y-6681750D02*
X15740100Y-6716750D01*
X15740100Y-6681750D02*
X15705100Y-6716750D01*
X15717800Y-4852950D02*
X15752800Y-4887950D01*
X15752800Y-4852950D02*
X15717800Y-4887950D01*
X15774950Y-6796050D02*
X15809950Y-6831050D01*
X15809950Y-6796050D02*
X15774950Y-6831050D01*
X15781300Y-10777500D02*
X15816300Y-10812500D01*
X15816300Y-10777500D02*
X15781300Y-10812500D01*
X15813050Y-9297950D02*
X15848050Y-9332950D01*
X15848050Y-9297950D02*
X15813050Y-9332950D01*
X15813050Y-10110750D02*
X15848050Y-10145750D01*
X15848050Y-10110750D02*
X15813050Y-10145750D01*
X15838450Y-8339100D02*
X15873450Y-8374100D01*
X15873450Y-8339100D02*
X15838450Y-8374100D01*
X15860040Y-8598180D02*
X15895040Y-8633180D01*
X15895040Y-8598180D02*
X15860040Y-8633180D01*
X15870200Y-9240800D02*
X15905200Y-9275800D01*
X15905200Y-9240800D02*
X15870200Y-9275800D01*
X15870200Y-10079000D02*
X15905200Y-10114000D01*
X15905200Y-10079000D02*
X15870200Y-10114000D01*
X15882900Y-6923050D02*
X15917900Y-6958050D01*
X15917900Y-6923050D02*
X15882900Y-6958050D01*
X15901950Y-8377200D02*
X15936950Y-8412200D01*
X15936950Y-8377200D02*
X15901950Y-8412200D01*
X15927350Y-9183650D02*
X15962350Y-9218650D01*
X15962350Y-9183650D02*
X15927350Y-9218650D01*
X15927350Y-10110750D02*
X15962350Y-10145750D01*
X15962350Y-10110750D02*
X15927350Y-10145750D01*
X15984500Y-9126500D02*
X16019500Y-9161500D01*
X16019500Y-9126500D02*
X15984500Y-9161500D01*
X15984500Y-10079000D02*
X16019500Y-10114000D01*
X16019500Y-10079000D02*
X15984500Y-10114000D01*
X15984500Y-11025150D02*
X16019500Y-11060150D01*
X16019500Y-11025150D02*
X15984500Y-11060150D01*
X16014980Y-7189750D02*
X16049980Y-7224750D01*
X16049980Y-7189750D02*
X16014980Y-7224750D01*
X16028950Y-7786650D02*
X16063950Y-7821650D01*
X16063950Y-7786650D02*
X16028950Y-7821650D01*
X16041650Y-8891550D02*
X16076650Y-8926550D01*
X16076650Y-8891550D02*
X16041650Y-8926550D01*
X16064800Y-7884150D02*
X16099800Y-7919150D01*
X16099800Y-7884150D02*
X16064800Y-7919150D01*
X16098800Y-8948700D02*
X16133800Y-8983700D01*
X16133800Y-8948700D02*
X16098800Y-8983700D01*
X16155950Y-9005850D02*
X16190950Y-9040850D01*
X16190950Y-9005850D02*
X16155950Y-9040850D01*
X16187700Y-6929400D02*
X16222700Y-6964400D01*
X16222700Y-6929400D02*
X16187700Y-6964400D01*
X16213100Y-9066175D02*
X16248100Y-9101175D01*
X16248100Y-9066175D02*
X16213100Y-9101175D01*
X16257550Y-8034300D02*
X16292550Y-8069300D01*
X16292550Y-8034300D02*
X16257550Y-8069300D01*
X16295650Y-6738900D02*
X16330650Y-6773900D01*
X16330650Y-6738900D02*
X16295650Y-6773900D01*
X16321050Y-8034300D02*
X16356050Y-8069300D01*
X16356050Y-8034300D02*
X16321050Y-8069300D01*
X16416300Y-9583700D02*
X16451300Y-9618700D01*
X16451300Y-9583700D02*
X16416300Y-9618700D01*
X16473450Y-9526550D02*
X16508450Y-9561550D01*
X16508450Y-9526550D02*
X16473450Y-9561550D01*
X16530600Y-9469400D02*
X16565600Y-9504400D01*
X16565600Y-9469400D02*
X16530600Y-9504400D01*
X16587750Y-9412250D02*
X16622750Y-9447250D01*
X16622750Y-9412250D02*
X16587750Y-9447250D01*
X16644900Y-9297950D02*
X16679900Y-9332950D01*
X16679900Y-9297950D02*
X16644900Y-9332950D01*
X16683000Y-9825000D02*
X16718000Y-9860000D01*
X16718000Y-9825000D02*
X16683000Y-9860000D01*
X16702050Y-9240800D02*
X16737050Y-9275800D01*
X16737050Y-9240800D02*
X16702050Y-9275800D01*
X16759200Y-9183650D02*
X16794200Y-9218650D01*
X16794200Y-9183650D02*
X16759200Y-9218650D01*
X16765550Y-7824750D02*
X16800550Y-7859750D01*
X16800550Y-7824750D02*
X16765550Y-7859750D01*
X16784600Y-7723150D02*
X16819600Y-7758150D01*
X16819600Y-7723150D02*
X16784600Y-7758150D01*
X16816350Y-9126500D02*
X16851350Y-9161500D01*
X16851350Y-9126500D02*
X16816350Y-9161500D01*
X16860350Y-6485350D02*
X16895350Y-6520350D01*
X16895350Y-6485350D02*
X16860350Y-6520350D01*
X16987800Y-8034300D02*
X17022800Y-8069300D01*
X17022800Y-8034300D02*
X16987800Y-8069300D01*
X17000500Y-6719850D02*
X17035500Y-6754850D01*
X17035500Y-6719850D02*
X17000500Y-6754850D01*
X17086500Y-10081900D02*
X17121500Y-10116900D01*
X17121500Y-10081900D02*
X17086500Y-10116900D01*
X17095750Y-7951750D02*
X17130750Y-7986750D01*
X17130750Y-7951750D02*
X17095750Y-7986750D01*
X17111175Y-6482175D02*
X17146175Y-6517175D01*
X17146175Y-6482175D02*
X17111175Y-6517175D01*
X17216400Y-8377200D02*
X17251400Y-8412200D01*
X17251400Y-8377200D02*
X17216400Y-8412200D01*
X17286250Y-7850150D02*
X17321250Y-7885150D01*
X17321250Y-7850150D02*
X17286250Y-7885150D01*
X17324350Y-7405650D02*
X17359350Y-7440650D01*
X17359350Y-7405650D02*
X17324350Y-7440650D01*
X17365175Y-6482175D02*
X17400175Y-6517175D01*
X17400175Y-6482175D02*
X17365175Y-6517175D01*
X17387850Y-9475750D02*
X17422850Y-9510750D01*
X17422850Y-9475750D02*
X17387850Y-9510750D01*
X17427220Y-9248420D02*
X17462220Y-9283420D01*
X17462220Y-9248420D02*
X17427220Y-9283420D01*
X17622350Y-6485350D02*
X17657350Y-6520350D01*
X17657350Y-6485350D02*
X17622350Y-6520350D01*
X17660900Y-7723150D02*
X17695900Y-7758150D01*
X17695900Y-7723150D02*
X17660900Y-7758150D01*
X17848860Y-9377960D02*
X17883860Y-9412960D01*
X17883860Y-9377960D02*
X17848860Y-9412960D01*
X17857750Y-8777250D02*
X17892750Y-8812250D01*
X17892750Y-8777250D02*
X17857750Y-8812250D01*
X17895850Y-8320050D02*
X17930850Y-8355050D01*
X17930850Y-8320050D02*
X17895850Y-8355050D01*
X17897120Y-9253500D02*
X17932120Y-9288500D01*
X17932120Y-9253500D02*
X17897120Y-9288500D01*
X17914900Y-8097800D02*
X17949900Y-8132800D01*
X17949900Y-8097800D02*
X17914900Y-8132800D01*
X17914900Y-8720100D02*
X17949900Y-8755100D01*
X17949900Y-8720100D02*
X17914900Y-8755100D01*
X17914900Y-8834400D02*
X17949900Y-8869400D01*
X17949900Y-8834400D02*
X17914900Y-8869400D01*
X17959350Y-7926350D02*
X17994350Y-7961350D01*
X17994350Y-7926350D02*
X17959350Y-7961350D01*
X17972050Y-8662950D02*
X18007050Y-8697950D01*
X18007050Y-8662950D02*
X17972050Y-8697950D01*
X17972050Y-8891550D02*
X18007050Y-8926550D01*
X18007050Y-8891550D02*
X17972050Y-8926550D01*
X17996300Y-8097800D02*
X18031300Y-8132800D01*
X18031300Y-8097800D02*
X17996300Y-8132800D01*
X18029200Y-8948700D02*
X18064200Y-8983700D01*
X18064200Y-8948700D02*
X18029200Y-8983700D01*
X18077700Y-8097800D02*
X18112700Y-8132800D01*
X18112700Y-8097800D02*
X18077700Y-8132800D01*
X18086350Y-9005850D02*
X18121350Y-9040850D01*
X18121350Y-9005850D02*
X18086350Y-9040850D01*
X18143500Y-9066175D02*
X18178500Y-9101175D01*
X18178500Y-9066175D02*
X18143500Y-9101175D01*
X18181600Y-8377200D02*
X18216600Y-8412200D01*
X18216600Y-8377200D02*
X18181600Y-8412200D01*
X18187950Y-8262900D02*
X18222950Y-8297900D01*
X18222950Y-8262900D02*
X18187950Y-8297900D01*
X18251450Y-8224800D02*
X18286450Y-8259800D01*
X18286450Y-8224800D02*
X18251450Y-8259800D01*
X18314950Y-8186700D02*
X18349950Y-8221700D01*
X18349950Y-8186700D02*
X18314950Y-8221700D01*
X18435600Y-8377200D02*
X18470600Y-8412200D01*
X18470600Y-8377200D02*
X18435600Y-8412200D01*
X18448300Y-7278650D02*
X18483300Y-7313650D01*
X18483300Y-7278650D02*
X18448300Y-7313650D01*
X18448300Y-7888250D02*
X18483300Y-7923250D01*
X18483300Y-7888250D02*
X18448300Y-7923250D01*
X18695950Y-6091200D02*
X18730950Y-6126200D01*
X18730950Y-6091200D02*
X18695950Y-6126200D01*
X18797550Y-7596150D02*
X18832550Y-7631150D01*
X18832550Y-7596150D02*
X18797550Y-7631150D01*
X9646600Y-10922000D02*
G75*
G03*
X9646600Y-10922000I-20000J0D01*
G01*
X9760900Y-10477500D02*
G75*
G03*
X9760900Y-10477500I-20000J0D01*
G01*
X10205400Y-8636000D02*
G75*
G03*
X10205400Y-8636000I-20000J0D01*
G01*
X10205400Y-9144000D02*
G75*
G03*
X10205400Y-9144000I-20000J0D01*
G01*
X10446700Y-9144000D02*
G75*
G03*
X10446700Y-9144000I-20000J0D01*
G01*
X10688000Y-8636000D02*
G75*
G03*
X10688000Y-8636000I-20000J0D01*
G01*
X10713400Y-9956800D02*
G75*
G03*
X10713400Y-9956800I-20000J0D01*
G01*
X11005500Y-6337300D02*
G75*
G03*
X11005500Y-6337300I-20000J0D01*
G01*
X11259500Y-6337300D02*
G75*
G03*
X11259500Y-6337300I-20000J0D01*
G01*
X11513500Y-6337300D02*
G75*
G03*
X11513500Y-6337300I-20000J0D01*
G01*
X11513500Y-8674100D02*
G75*
G03*
X11513500Y-8674100I-20000J0D01*
G01*
X11767500Y-6337300D02*
G75*
G03*
X11767500Y-6337300I-20000J0D01*
G01*
X11996100Y-10655300D02*
G75*
G03*
X11996100Y-10655300I-20000J0D01*
G01*
X12021500Y-6337300D02*
G75*
G03*
X12021500Y-6337300I-20000J0D01*
G01*
X12078650Y-8108950D02*
G75*
G03*
X12078650Y-8108950I-20000J0D01*
G01*
X12275500Y-6337300D02*
G75*
G03*
X12275500Y-6337300I-20000J0D01*
G01*
X12466000Y-7309000D02*
G75*
G03*
X12466000Y-7309000I-20000J0D01*
G01*
X12529500Y-6337300D02*
G75*
G03*
X12529500Y-6337300I-20000J0D01*
G01*
X12671740Y-10210800D02*
G75*
G03*
X12671740Y-10210800I-20000J0D01*
G01*
X12745400Y-6337300D02*
G75*
G03*
X12745400Y-6337300I-20000J0D01*
G01*
X12821600Y-9753600D02*
G75*
G03*
X12821600Y-9753600I-20000J0D01*
G01*
X13780450Y-6870700D02*
G75*
G03*
X13780450Y-6870700I-20000J0D01*
G01*
X14058580Y-9753600D02*
G75*
G03*
X14058580Y-9753600I-20000J0D01*
G01*
X14358300Y-7988300D02*
G75*
G03*
X14358300Y-7988300I-20000J0D01*
G01*
X14371000Y-6337300D02*
G75*
G03*
X14371000Y-6337300I-20000J0D01*
G01*
X14402750Y-7283450D02*
G75*
G03*
X14402750Y-7283450I-20000J0D01*
G01*
X14625000Y-6337300D02*
G75*
G03*
X14625000Y-6337300I-20000J0D01*
G01*
X14694850Y-7283450D02*
G75*
G03*
X14694850Y-7283450I-20000J0D01*
G01*
X14847250Y-8154670D02*
G75*
G03*
X14847250Y-8154670I-20000J0D01*
G01*
X14879000Y-6337300D02*
G75*
G03*
X14879000Y-6337300I-20000J0D01*
G01*
X15006000Y-6286500D02*
G75*
G03*
X15006000Y-6286500I-20000J0D01*
G01*
X15006000Y-6883400D02*
G75*
G03*
X15006000Y-6883400I-20000J0D01*
G01*
X15133000Y-6337300D02*
G75*
G03*
X15133000Y-6337300I-20000J0D01*
G01*
X15221900Y-7473950D02*
G75*
G03*
X15221900Y-7473950I-20000J0D01*
G01*
X15521620Y-6337300D02*
G75*
G03*
X15521620Y-6337300I-20000J0D01*
G01*
X15533050Y-6896100D02*
G75*
G03*
X15533050Y-6896100I-20000J0D01*
G01*
X15602900Y-7937500D02*
G75*
G03*
X15602900Y-7937500I-20000J0D01*
G01*
X15625125Y-7350125D02*
G75*
G03*
X15625125Y-7350125I-20000J0D01*
G01*
X15914050Y-7969250D02*
G75*
G03*
X15914050Y-7969250I-20000J0D01*
G01*
X15958500Y-6337300D02*
G75*
G03*
X15958500Y-6337300I-20000J0D01*
G01*
X15996600Y-7473950D02*
G75*
G03*
X15996600Y-7473950I-20000J0D01*
G01*
X16212500Y-6337300D02*
G75*
G03*
X16212500Y-6337300I-20000J0D01*
G01*
X16233350Y-7393200D02*
G75*
G03*
X16233350Y-7393200I-20000J0D01*
G01*
X16466500Y-6337300D02*
G75*
G03*
X16466500Y-6337300I-20000J0D01*
G01*
X16720500Y-6337300D02*
G75*
G03*
X16720500Y-6337300I-20000J0D01*
G01*
X16974500Y-6337300D02*
G75*
G03*
X16974500Y-6337300I-20000J0D01*
G01*
X17228500Y-6337300D02*
G75*
G03*
X17228500Y-6337300I-20000J0D01*
G01*
X17256645Y-9935005D02*
G75*
G03*
X17256645Y-9935005I-20000J0D01*
G01*
X17438050Y-6915150D02*
G75*
G03*
X17438050Y-6915150I-20000J0D01*
G01*
X17463450Y-6819900D02*
G75*
G03*
X17463450Y-6819900I-20000J0D01*
G01*
X17482500Y-6337300D02*
G75*
G03*
X17482500Y-6337300I-20000J0D01*
G01*
X17571400Y-7994650D02*
G75*
G03*
X17571400Y-7994650I-20000J0D01*
G01*
X17736500Y-6337300D02*
G75*
G03*
X17736500Y-6337300I-20000J0D01*
G01*
X18257200Y-6819900D02*
G75*
G03*
X18257200Y-6819900I-20000J0D01*
G01*
X18460400Y-10922000D02*
G75*
G03*
X18460400Y-10922000I-20000J0D01*
G01*
X18530250Y-6915150D02*
G75*
G03*
X18530250Y-6915150I-20000J0D01*
G01*
X18617951Y-10858500D02*
G75*
G03*
X18617951Y-10858500I-20000J0D01*
G01*
X18739800Y-8178800D02*
G75*
G03*
X18739800Y-8178800I-20000J0D01*
G01*
X10096500Y-10151000D02*
X10096500Y-10231000D01*
X10056500Y-10191000D02*
X10136500Y-10191000D01*
X10096500Y-10501000D02*
X10096500Y-10581000D01*
X10056500Y-10541000D02*
X10136500Y-10541000D01*
X11239500Y-4786000D02*
X11239500Y-4866000D01*
X11199500Y-4826000D02*
X11279500Y-4826000D01*
X11239500Y-5548000D02*
X11239500Y-5628000D01*
X11199500Y-5588000D02*
X11279500Y-5588000D01*
X11493500Y-4786000D02*
X11493500Y-4866000D01*
X11453500Y-4826000D02*
X11533500Y-4826000D01*
X11493500Y-5548000D02*
X11493500Y-5628000D01*
X11453500Y-5588000D02*
X11533500Y-5588000D01*
X11747500Y-4786000D02*
X11747500Y-4866000D01*
X11707500Y-4826000D02*
X11787500Y-4826000D01*
X11747500Y-5548000D02*
X11747500Y-5628000D01*
X11707500Y-5588000D02*
X11787500Y-5588000D01*
X12001500Y-4786000D02*
X12001500Y-4866000D01*
X11961500Y-4826000D02*
X12041500Y-4826000D01*
X12001500Y-5548000D02*
X12001500Y-5628000D01*
X11961500Y-5588000D02*
X12041500Y-5588000D01*
X12255500Y-4786000D02*
X12255500Y-4866000D01*
X12215500Y-4826000D02*
X12295500Y-4826000D01*
X12255500Y-5548000D02*
X12255500Y-5628000D01*
X12215500Y-5588000D02*
X12295500Y-5588000D01*
X12509500Y-4786000D02*
X12509500Y-4866000D01*
X12469500Y-4826000D02*
X12549500Y-4826000D01*
X12509500Y-5548000D02*
X12509500Y-5628000D01*
X12469500Y-5588000D02*
X12549500Y-5588000D01*
X13335000Y-4786000D02*
X13335000Y-4866000D01*
X13295000Y-4826000D02*
X13375000Y-4826000D01*
X13335000Y-5548000D02*
X13335000Y-5628000D01*
X13295000Y-5588000D02*
X13375000Y-5588000D01*
X13589000Y-4786000D02*
X13589000Y-4866000D01*
X13549000Y-4826000D02*
X13629000Y-4826000D01*
X13589000Y-5548000D02*
X13589000Y-5628000D01*
X13549000Y-5588000D02*
X13629000Y-5588000D01*
X13843000Y-4786000D02*
X13843000Y-4866000D01*
X13803000Y-4826000D02*
X13883000Y-4826000D01*
X13843000Y-5548000D02*
X13843000Y-5628000D01*
X13803000Y-5588000D02*
X13883000Y-5588000D01*
X14097000Y-4786000D02*
X14097000Y-4866000D01*
X14057000Y-4826000D02*
X14137000Y-4826000D01*
X14097000Y-5548000D02*
X14097000Y-5628000D01*
X14057000Y-5588000D02*
X14137000Y-5588000D01*
X14351000Y-4786000D02*
X14351000Y-4866000D01*
X14311000Y-4826000D02*
X14391000Y-4826000D01*
X14351000Y-5548000D02*
X14351000Y-5628000D01*
X14311000Y-5588000D02*
X14391000Y-5588000D01*
X14605000Y-4786000D02*
X14605000Y-4866000D01*
X14565000Y-4826000D02*
X14645000Y-4826000D01*
X14605000Y-5548000D02*
X14605000Y-5628000D01*
X14565000Y-5588000D02*
X14645000Y-5588000D01*
X14859000Y-4786000D02*
X14859000Y-4866000D01*
X14819000Y-4826000D02*
X14899000Y-4826000D01*
X14859000Y-5548000D02*
X14859000Y-5628000D01*
X14819000Y-5588000D02*
X14899000Y-5588000D01*
X15113000Y-4786000D02*
X15113000Y-4866000D01*
X15073000Y-4826000D02*
X15153000Y-4826000D01*
X15113000Y-5548000D02*
X15113000Y-5628000D01*
X15073000Y-5588000D02*
X15153000Y-5588000D01*
X15938500Y-4786000D02*
X15938500Y-4866000D01*
X15898500Y-4826000D02*
X15978500Y-4826000D01*
X15938500Y-5548000D02*
X15938500Y-5628000D01*
X15898500Y-5588000D02*
X15978500Y-5588000D01*
X16192500Y-4786000D02*
X16192500Y-4866000D01*
X16152500Y-4826000D02*
X16232500Y-4826000D01*
X16192500Y-5548000D02*
X16192500Y-5628000D01*
X16152500Y-5588000D02*
X16232500Y-5588000D01*
X16446500Y-4786000D02*
X16446500Y-4866000D01*
X16406500Y-4826000D02*
X16486500Y-4826000D01*
X16446500Y-5548000D02*
X16446500Y-5628000D01*
X16406500Y-5588000D02*
X16486500Y-5588000D01*
X16700500Y-4786000D02*
X16700500Y-4866000D01*
X16660500Y-4826000D02*
X16740500Y-4826000D01*
X16700500Y-5548000D02*
X16700500Y-5628000D01*
X16660500Y-5588000D02*
X16740500Y-5588000D01*
X16954500Y-4786000D02*
X16954500Y-4866000D01*
X16914500Y-4826000D02*
X16994500Y-4826000D01*
X16954500Y-5548000D02*
X16954500Y-5628000D01*
X16914500Y-5588000D02*
X16994500Y-5588000D01*
X17208500Y-4786000D02*
X17208500Y-4866000D01*
X17168500Y-4826000D02*
X17248500Y-4826000D01*
X17208500Y-5548000D02*
X17208500Y-5628000D01*
X17168500Y-5588000D02*
X17248500Y-5588000D01*
X17462500Y-4786000D02*
X17462500Y-4866000D01*
X17422500Y-4826000D02*
X17502500Y-4826000D01*
X17462500Y-5548000D02*
X17462500Y-5628000D01*
X17422500Y-5588000D02*
X17502500Y-5588000D01*
X17716500Y-4786000D02*
X17716500Y-4866000D01*
X17676500Y-4826000D02*
X17756500Y-4826000D01*
X17716500Y-5548000D02*
X17716500Y-5628000D01*
X17676500Y-5588000D02*
X17756500Y-5588000D01*
X9496856Y-7782356D02*
X9496856Y-7711644D01*
X9426144Y-7711644D01*
X9426144Y-7782356D01*
X9496856Y-7782356D01*
X9496856Y-8036356D02*
X9496856Y-7965644D01*
X9426144Y-7965644D01*
X9426144Y-8036356D01*
X9496856Y-8036356D01*
X9496856Y-8290356D02*
X9496856Y-8219644D01*
X9426144Y-8219644D01*
X9426144Y-8290356D01*
X9496856Y-8290356D01*
X9496856Y-8544356D02*
X9496856Y-8473644D01*
X9426144Y-8473644D01*
X9426144Y-8544356D01*
X9496856Y-8544356D01*
X9496856Y-8798356D02*
X9496856Y-8727644D01*
X9426144Y-8727644D01*
X9426144Y-8798356D01*
X9496856Y-8798356D01*
X9496856Y-9052356D02*
X9496856Y-8981644D01*
X9426144Y-8981644D01*
X9426144Y-9052356D01*
X9496856Y-9052356D01*
X9496856Y-9306356D02*
X9496856Y-9235644D01*
X9426144Y-9235644D01*
X9426144Y-9306356D01*
X9496856Y-9306356D01*
X9496856Y-9560356D02*
X9496856Y-9489644D01*
X9426144Y-9489644D01*
X9426144Y-9560356D01*
X9496856Y-9560356D01*
X18374156Y-5477306D02*
X18374156Y-5406594D01*
X18303444Y-5406594D01*
X18303444Y-5477306D01*
X18374156Y-5477306D01*
X18628156Y-5477306D02*
X18628156Y-5406594D01*
X18557444Y-5406594D01*
X18557444Y-5477306D01*
X18628156Y-5477306D01*
X18882156Y-5477306D02*
X18882156Y-5406594D01*
X18811444Y-5406594D01*
X18811444Y-5477306D01*
X18882156Y-5477306D01*
X9738360Y-4989800D02*
X9793360Y-4934800D01*
X9738360Y-4879800D01*
X9683360Y-4934800D01*
X9738360Y-4989800D01*
X9738360Y-5439800D02*
X9793360Y-5384800D01*
X9738360Y-5329800D01*
X9683360Y-5384800D01*
X9738360Y-5439800D01*
X10388360Y-4989800D02*
X10443360Y-4934800D01*
X10388360Y-4879800D01*
X10333360Y-4934800D01*
X10388360Y-4989800D01*
X10388360Y-5439800D02*
X10443360Y-5384800D01*
X10388360Y-5329800D01*
X10333360Y-5384800D01*
X10388360Y-5439800D01*
D11*
X286429Y-465714D02*
X286429Y-165714D01*
X357857Y-165714D01*
X400714Y-180000D01*
X429286Y-208571D01*
X443571Y-237143D01*
X457857Y-294286D01*
X457857Y-337143D01*
X443571Y-394286D01*
X429286Y-422857D01*
X400714Y-451428D01*
X357857Y-465714D01*
X286429Y-465714D01*
X586429Y-465714D02*
X586429Y-265714D01*
X586429Y-322857D02*
X600714Y-294286D01*
X615000Y-280000D01*
X643571Y-265714D01*
X672143Y-265714D01*
X772143Y-465714D02*
X772143Y-265714D01*
X772143Y-165714D02*
X757857Y-180000D01*
X772143Y-194286D01*
X786428Y-180000D01*
X772143Y-165714D01*
X772143Y-194286D01*
X957857Y-465714D02*
X929286Y-451428D01*
X915000Y-422857D01*
X915000Y-165714D01*
X1115000Y-465714D02*
X1086429Y-451428D01*
X1072143Y-422857D01*
X1072143Y-165714D01*
X1457857Y-465714D02*
X1457857Y-165714D01*
X1557857Y-380000D01*
X1657857Y-165714D01*
X1657857Y-465714D01*
X1929286Y-465714D02*
X1929286Y-308571D01*
X1915000Y-280000D01*
X1886428Y-265714D01*
X1829286Y-265714D01*
X1800714Y-280000D01*
X1929286Y-451428D02*
X1900714Y-465714D01*
X1829286Y-465714D01*
X1800714Y-451428D01*
X1786428Y-422857D01*
X1786428Y-394286D01*
X1800714Y-365714D01*
X1829286Y-351428D01*
X1900714Y-351428D01*
X1929286Y-337143D01*
X2072143Y-265714D02*
X2072143Y-565714D01*
X2072143Y-280000D02*
X2100714Y-265714D01*
X2157857Y-265714D01*
X2186429Y-280000D01*
X2200714Y-294286D01*
X2215000Y-322857D01*
X2215000Y-408571D01*
X2200714Y-437143D01*
X2186429Y-451428D01*
X2157857Y-465714D01*
X2100714Y-465714D01*
X2072143Y-451428D01*
X2343571Y-437143D02*
X2357857Y-451428D01*
X2343571Y-465714D01*
X2329286Y-451428D01*
X2343571Y-437143D01*
X2343571Y-465714D01*
X2343571Y-280000D02*
X2357857Y-294286D01*
X2343571Y-308571D01*
X2329286Y-294286D01*
X2343571Y-280000D01*
X2343571Y-308571D01*
X-35000Y-942500D02*
X0Y-977500D01*
X0Y-942500D02*
X-35000Y-977500D01*
X343571Y-795714D02*
X372143Y-795714D01*
X400714Y-810000D01*
X415000Y-824286D01*
X429286Y-852857D01*
X443571Y-910000D01*
X443571Y-981428D01*
X429286Y-1038571D01*
X415000Y-1067143D01*
X400714Y-1081429D01*
X372143Y-1095714D01*
X343571Y-1095714D01*
X315000Y-1081429D01*
X300714Y-1067143D01*
X286429Y-1038571D01*
X272143Y-981428D01*
X272143Y-910000D01*
X286429Y-852857D01*
X300714Y-824286D01*
X315000Y-810000D01*
X343571Y-795714D01*
X572143Y-1067143D02*
X586429Y-1081429D01*
X572143Y-1095714D01*
X557857Y-1081429D01*
X572143Y-1067143D01*
X572143Y-1095714D01*
X686429Y-795714D02*
X872143Y-795714D01*
X772143Y-910000D01*
X815000Y-910000D01*
X843571Y-924286D01*
X857857Y-938571D01*
X872143Y-967143D01*
X872143Y-1038571D01*
X857857Y-1067143D01*
X843571Y-1081429D01*
X815000Y-1095714D01*
X729286Y-1095714D01*
X700714Y-1081429D01*
X686429Y-1067143D01*
X1143571Y-795714D02*
X1000714Y-795714D01*
X986428Y-938571D01*
X1000714Y-924286D01*
X1029286Y-910000D01*
X1100714Y-910000D01*
X1129286Y-924286D01*
X1143571Y-938571D01*
X1157857Y-967143D01*
X1157857Y-1038571D01*
X1143571Y-1067143D01*
X1129286Y-1081429D01*
X1100714Y-1095714D01*
X1029286Y-1095714D01*
X1000714Y-1081429D01*
X986428Y-1067143D01*
X1343571Y-795714D02*
X1372143Y-795714D01*
X1400714Y-810000D01*
X1415000Y-824286D01*
X1429286Y-852857D01*
X1443571Y-910000D01*
X1443571Y-981428D01*
X1429286Y-1038571D01*
X1415000Y-1067143D01*
X1400714Y-1081429D01*
X1372143Y-1095714D01*
X1343571Y-1095714D01*
X1315000Y-1081429D01*
X1300714Y-1067143D01*
X1286429Y-1038571D01*
X1272143Y-981428D01*
X1272143Y-910000D01*
X1286429Y-852857D01*
X1300714Y-824286D01*
X1315000Y-810000D01*
X1343571Y-795714D01*
X1572143Y-1095714D02*
X1572143Y-895714D01*
X1572143Y-924286D02*
X1586428Y-910000D01*
X1615000Y-895714D01*
X1657857Y-895714D01*
X1686428Y-910000D01*
X1700714Y-938571D01*
X1700714Y-1095714D01*
X1700714Y-938571D02*
X1715000Y-910000D01*
X1743571Y-895714D01*
X1786428Y-895714D01*
X1815000Y-910000D01*
X1829286Y-938571D01*
X1829286Y-1095714D01*
X1972143Y-1095714D02*
X1972143Y-895714D01*
X1972143Y-924286D02*
X1986428Y-910000D01*
X2015000Y-895714D01*
X2057857Y-895714D01*
X2086428Y-910000D01*
X2100714Y-938571D01*
X2100714Y-1095714D01*
X2100714Y-938571D02*
X2115000Y-910000D01*
X2143571Y-895714D01*
X2186429Y-895714D01*
X2215000Y-910000D01*
X2229286Y-938571D01*
X2229286Y-1095714D01*
X2815000Y-781428D02*
X2557857Y-1167143D01*
X3200714Y-795714D02*
X3229286Y-795714D01*
X3257857Y-810000D01*
X3272143Y-824286D01*
X3286428Y-852857D01*
X3300714Y-910000D01*
X3300714Y-981428D01*
X3286428Y-1038571D01*
X3272143Y-1067143D01*
X3257857Y-1081429D01*
X3229286Y-1095714D01*
X3200714Y-1095714D01*
X3172143Y-1081429D01*
X3157857Y-1067143D01*
X3143571Y-1038571D01*
X3129286Y-981428D01*
X3129286Y-910000D01*
X3143571Y-852857D01*
X3157857Y-824286D01*
X3172143Y-810000D01*
X3200714Y-795714D01*
X3429286Y-1067143D02*
X3443571Y-1081429D01*
X3429286Y-1095714D01*
X3415000Y-1081429D01*
X3429286Y-1067143D01*
X3429286Y-1095714D01*
X3629286Y-795714D02*
X3657857Y-795714D01*
X3686428Y-810000D01*
X3700714Y-824286D01*
X3715000Y-852857D01*
X3729286Y-910000D01*
X3729286Y-981428D01*
X3715000Y-1038571D01*
X3700714Y-1067143D01*
X3686428Y-1081429D01*
X3657857Y-1095714D01*
X3629286Y-1095714D01*
X3600714Y-1081429D01*
X3586428Y-1067143D01*
X3572143Y-1038571D01*
X3557857Y-981428D01*
X3557857Y-910000D01*
X3572143Y-852857D01*
X3586428Y-824286D01*
X3600714Y-810000D01*
X3629286Y-795714D01*
X4015000Y-1095714D02*
X3843571Y-1095714D01*
X3929286Y-1095714D02*
X3929286Y-795714D01*
X3900714Y-838571D01*
X3872143Y-867143D01*
X3843571Y-881428D01*
X4115000Y-795714D02*
X4300714Y-795714D01*
X4200714Y-910000D01*
X4243571Y-910000D01*
X4272143Y-924286D01*
X4286429Y-938571D01*
X4300714Y-967143D01*
X4300714Y-1038571D01*
X4286429Y-1067143D01*
X4272143Y-1081429D01*
X4243571Y-1095714D01*
X4157857Y-1095714D01*
X4129286Y-1081429D01*
X4115000Y-1067143D01*
X4472143Y-924286D02*
X4443571Y-910000D01*
X4429286Y-895714D01*
X4415000Y-867143D01*
X4415000Y-852857D01*
X4429286Y-824286D01*
X4443571Y-810000D01*
X4472143Y-795714D01*
X4529286Y-795714D01*
X4557857Y-810000D01*
X4572143Y-824286D01*
X4586429Y-852857D01*
X4586429Y-867143D01*
X4572143Y-895714D01*
X4557857Y-910000D01*
X4529286Y-924286D01*
X4472143Y-924286D01*
X4443571Y-938571D01*
X4429286Y-952857D01*
X4415000Y-981428D01*
X4415000Y-1038571D01*
X4429286Y-1067143D01*
X4443571Y-1081429D01*
X4472143Y-1095714D01*
X4529286Y-1095714D01*
X4557857Y-1081429D01*
X4572143Y-1067143D01*
X4586429Y-1038571D01*
X4586429Y-981428D01*
X4572143Y-952857D01*
X4557857Y-938571D01*
X4529286Y-924286D01*
X4700714Y-795714D02*
X4700714Y-852857D01*
X4815000Y-795714D02*
X4815000Y-852857D01*
X5257857Y-1210000D02*
X5243571Y-1195714D01*
X5215000Y-1152857D01*
X5200714Y-1124286D01*
X5186429Y-1081429D01*
X5172143Y-1010000D01*
X5172143Y-952857D01*
X5186429Y-881428D01*
X5200714Y-838571D01*
X5215000Y-810000D01*
X5243571Y-767143D01*
X5257857Y-752857D01*
X5357857Y-824286D02*
X5372143Y-810000D01*
X5400714Y-795714D01*
X5472143Y-795714D01*
X5500714Y-810000D01*
X5515000Y-824286D01*
X5529286Y-852857D01*
X5529286Y-881428D01*
X5515000Y-924286D01*
X5343571Y-1095714D01*
X5529286Y-1095714D01*
X5800714Y-795714D02*
X5657857Y-795714D01*
X5643571Y-938571D01*
X5657857Y-924286D01*
X5686428Y-910000D01*
X5757857Y-910000D01*
X5786428Y-924286D01*
X5800714Y-938571D01*
X5815000Y-967143D01*
X5815000Y-1038571D01*
X5800714Y-1067143D01*
X5786428Y-1081429D01*
X5757857Y-1095714D01*
X5686428Y-1095714D01*
X5657857Y-1081429D01*
X5643571Y-1067143D01*
X5929286Y-824286D02*
X5943571Y-810000D01*
X5972143Y-795714D01*
X6043571Y-795714D01*
X6072143Y-810000D01*
X6086428Y-824286D01*
X6100714Y-852857D01*
X6100714Y-881428D01*
X6086428Y-924286D01*
X5915000Y-1095714D01*
X6100714Y-1095714D01*
X6457857Y-1095714D02*
X6457857Y-795714D01*
X6586428Y-1095714D02*
X6586428Y-938571D01*
X6572143Y-910000D01*
X6543571Y-895714D01*
X6500714Y-895714D01*
X6472143Y-910000D01*
X6457857Y-924286D01*
X6772143Y-1095714D02*
X6743571Y-1081429D01*
X6729286Y-1067143D01*
X6715000Y-1038571D01*
X6715000Y-952857D01*
X6729286Y-924286D01*
X6743571Y-910000D01*
X6772143Y-895714D01*
X6815000Y-895714D01*
X6843571Y-910000D01*
X6857857Y-924286D01*
X6872143Y-952857D01*
X6872143Y-1038571D01*
X6857857Y-1067143D01*
X6843571Y-1081429D01*
X6815000Y-1095714D01*
X6772143Y-1095714D01*
X7043571Y-1095714D02*
X7015000Y-1081429D01*
X7000714Y-1052857D01*
X7000714Y-795714D01*
X7272143Y-1081429D02*
X7243571Y-1095714D01*
X7186428Y-1095714D01*
X7157857Y-1081429D01*
X7143571Y-1052857D01*
X7143571Y-938571D01*
X7157857Y-910000D01*
X7186428Y-895714D01*
X7243571Y-895714D01*
X7272143Y-910000D01*
X7286428Y-938571D01*
X7286428Y-967143D01*
X7143571Y-995714D01*
X7400714Y-1081429D02*
X7429286Y-1095714D01*
X7486428Y-1095714D01*
X7515000Y-1081429D01*
X7529286Y-1052857D01*
X7529286Y-1038571D01*
X7515000Y-1010000D01*
X7486428Y-995714D01*
X7443571Y-995714D01*
X7415000Y-981428D01*
X7400714Y-952857D01*
X7400714Y-938571D01*
X7415000Y-910000D01*
X7443571Y-895714D01*
X7486428Y-895714D01*
X7515000Y-910000D01*
X7629286Y-1210000D02*
X7643571Y-1195714D01*
X7672143Y-1152857D01*
X7686428Y-1124286D01*
X7700714Y-1081429D01*
X7715000Y-1010000D01*
X7715000Y-952857D01*
X7700714Y-881428D01*
X7686428Y-838571D01*
X7672143Y-810000D01*
X7643571Y-767143D01*
X7629286Y-752857D01*
X0Y-1356000D02*
G75*
G03*
X0Y-1356000I-20000J0D01*
G01*
X343571Y-1191714D02*
X372143Y-1191714D01*
X400714Y-1206000D01*
X415000Y-1220286D01*
X429286Y-1248857D01*
X443571Y-1306000D01*
X443571Y-1377429D01*
X429286Y-1434571D01*
X415000Y-1463143D01*
X400714Y-1477428D01*
X372143Y-1491714D01*
X343571Y-1491714D01*
X315000Y-1477428D01*
X300714Y-1463143D01*
X286429Y-1434571D01*
X272143Y-1377429D01*
X272143Y-1306000D01*
X286429Y-1248857D01*
X300714Y-1220286D01*
X315000Y-1206000D01*
X343571Y-1191714D01*
X572143Y-1463143D02*
X586429Y-1477428D01*
X572143Y-1491714D01*
X557857Y-1477428D01*
X572143Y-1463143D01*
X572143Y-1491714D01*
X843571Y-1291714D02*
X843571Y-1491714D01*
X772143Y-1177429D02*
X700714Y-1391714D01*
X886428Y-1391714D01*
X1057857Y-1191714D02*
X1086429Y-1191714D01*
X1115000Y-1206000D01*
X1129286Y-1220286D01*
X1143571Y-1248857D01*
X1157857Y-1306000D01*
X1157857Y-1377429D01*
X1143571Y-1434571D01*
X1129286Y-1463143D01*
X1115000Y-1477428D01*
X1086429Y-1491714D01*
X1057857Y-1491714D01*
X1029286Y-1477428D01*
X1015000Y-1463143D01*
X1000714Y-1434571D01*
X986428Y-1377429D01*
X986428Y-1306000D01*
X1000714Y-1248857D01*
X1015000Y-1220286D01*
X1029286Y-1206000D01*
X1057857Y-1191714D01*
X1343571Y-1191714D02*
X1372143Y-1191714D01*
X1400714Y-1206000D01*
X1415000Y-1220286D01*
X1429286Y-1248857D01*
X1443571Y-1306000D01*
X1443571Y-1377429D01*
X1429286Y-1434571D01*
X1415000Y-1463143D01*
X1400714Y-1477428D01*
X1372143Y-1491714D01*
X1343571Y-1491714D01*
X1315000Y-1477428D01*
X1300714Y-1463143D01*
X1286429Y-1434571D01*
X1272143Y-1377429D01*
X1272143Y-1306000D01*
X1286429Y-1248857D01*
X1300714Y-1220286D01*
X1315000Y-1206000D01*
X1343571Y-1191714D01*
X1572143Y-1491714D02*
X1572143Y-1291714D01*
X1572143Y-1320286D02*
X1586428Y-1306000D01*
X1615000Y-1291714D01*
X1657857Y-1291714D01*
X1686428Y-1306000D01*
X1700714Y-1334571D01*
X1700714Y-1491714D01*
X1700714Y-1334571D02*
X1715000Y-1306000D01*
X1743571Y-1291714D01*
X1786428Y-1291714D01*
X1815000Y-1306000D01*
X1829286Y-1334571D01*
X1829286Y-1491714D01*
X1972143Y-1491714D02*
X1972143Y-1291714D01*
X1972143Y-1320286D02*
X1986428Y-1306000D01*
X2015000Y-1291714D01*
X2057857Y-1291714D01*
X2086428Y-1306000D01*
X2100714Y-1334571D01*
X2100714Y-1491714D01*
X2100714Y-1334571D02*
X2115000Y-1306000D01*
X2143571Y-1291714D01*
X2186429Y-1291714D01*
X2215000Y-1306000D01*
X2229286Y-1334571D01*
X2229286Y-1491714D01*
X2815000Y-1177429D02*
X2557857Y-1563143D01*
X3200714Y-1191714D02*
X3229286Y-1191714D01*
X3257857Y-1206000D01*
X3272143Y-1220286D01*
X3286428Y-1248857D01*
X3300714Y-1306000D01*
X3300714Y-1377429D01*
X3286428Y-1434571D01*
X3272143Y-1463143D01*
X3257857Y-1477428D01*
X3229286Y-1491714D01*
X3200714Y-1491714D01*
X3172143Y-1477428D01*
X3157857Y-1463143D01*
X3143571Y-1434571D01*
X3129286Y-1377429D01*
X3129286Y-1306000D01*
X3143571Y-1248857D01*
X3157857Y-1220286D01*
X3172143Y-1206000D01*
X3200714Y-1191714D01*
X3429286Y-1463143D02*
X3443571Y-1477428D01*
X3429286Y-1491714D01*
X3415000Y-1477428D01*
X3429286Y-1463143D01*
X3429286Y-1491714D01*
X3629286Y-1191714D02*
X3657857Y-1191714D01*
X3686428Y-1206000D01*
X3700714Y-1220286D01*
X3715000Y-1248857D01*
X3729286Y-1306000D01*
X3729286Y-1377429D01*
X3715000Y-1434571D01*
X3700714Y-1463143D01*
X3686428Y-1477428D01*
X3657857Y-1491714D01*
X3629286Y-1491714D01*
X3600714Y-1477428D01*
X3586428Y-1463143D01*
X3572143Y-1434571D01*
X3557857Y-1377429D01*
X3557857Y-1306000D01*
X3572143Y-1248857D01*
X3586428Y-1220286D01*
X3600714Y-1206000D01*
X3629286Y-1191714D01*
X4015000Y-1491714D02*
X3843571Y-1491714D01*
X3929286Y-1491714D02*
X3929286Y-1191714D01*
X3900714Y-1234571D01*
X3872143Y-1263143D01*
X3843571Y-1277429D01*
X4286429Y-1191714D02*
X4143571Y-1191714D01*
X4129286Y-1334571D01*
X4143571Y-1320286D01*
X4172143Y-1306000D01*
X4243571Y-1306000D01*
X4272143Y-1320286D01*
X4286429Y-1334571D01*
X4300714Y-1363143D01*
X4300714Y-1434571D01*
X4286429Y-1463143D01*
X4272143Y-1477428D01*
X4243571Y-1491714D01*
X4172143Y-1491714D01*
X4143571Y-1477428D01*
X4129286Y-1463143D01*
X4400714Y-1191714D02*
X4600714Y-1191714D01*
X4472143Y-1491714D01*
X4700714Y-1191714D02*
X4700714Y-1248857D01*
X4815000Y-1191714D02*
X4815000Y-1248857D01*
X5257857Y-1606000D02*
X5243571Y-1591714D01*
X5215000Y-1548857D01*
X5200714Y-1520286D01*
X5186429Y-1477428D01*
X5172143Y-1406000D01*
X5172143Y-1348857D01*
X5186429Y-1277429D01*
X5200714Y-1234571D01*
X5215000Y-1206000D01*
X5243571Y-1163143D01*
X5257857Y-1148857D01*
X5515000Y-1191714D02*
X5372143Y-1191714D01*
X5357857Y-1334571D01*
X5372143Y-1320286D01*
X5400714Y-1306000D01*
X5472143Y-1306000D01*
X5500714Y-1320286D01*
X5515000Y-1334571D01*
X5529286Y-1363143D01*
X5529286Y-1434571D01*
X5515000Y-1463143D01*
X5500714Y-1477428D01*
X5472143Y-1491714D01*
X5400714Y-1491714D01*
X5372143Y-1477428D01*
X5357857Y-1463143D01*
X5700714Y-1320286D02*
X5672143Y-1306000D01*
X5657857Y-1291714D01*
X5643571Y-1263143D01*
X5643571Y-1248857D01*
X5657857Y-1220286D01*
X5672143Y-1206000D01*
X5700714Y-1191714D01*
X5757857Y-1191714D01*
X5786428Y-1206000D01*
X5800714Y-1220286D01*
X5815000Y-1248857D01*
X5815000Y-1263143D01*
X5800714Y-1291714D01*
X5786428Y-1306000D01*
X5757857Y-1320286D01*
X5700714Y-1320286D01*
X5672143Y-1334571D01*
X5657857Y-1348857D01*
X5643571Y-1377429D01*
X5643571Y-1434571D01*
X5657857Y-1463143D01*
X5672143Y-1477428D01*
X5700714Y-1491714D01*
X5757857Y-1491714D01*
X5786428Y-1477428D01*
X5800714Y-1463143D01*
X5815000Y-1434571D01*
X5815000Y-1377429D01*
X5800714Y-1348857D01*
X5786428Y-1334571D01*
X5757857Y-1320286D01*
X6172143Y-1491714D02*
X6172143Y-1191714D01*
X6300714Y-1491714D02*
X6300714Y-1334571D01*
X6286428Y-1306000D01*
X6257857Y-1291714D01*
X6215000Y-1291714D01*
X6186428Y-1306000D01*
X6172143Y-1320286D01*
X6486428Y-1491714D02*
X6457857Y-1477428D01*
X6443571Y-1463143D01*
X6429286Y-1434571D01*
X6429286Y-1348857D01*
X6443571Y-1320286D01*
X6457857Y-1306000D01*
X6486428Y-1291714D01*
X6529286Y-1291714D01*
X6557857Y-1306000D01*
X6572143Y-1320286D01*
X6586428Y-1348857D01*
X6586428Y-1434571D01*
X6572143Y-1463143D01*
X6557857Y-1477428D01*
X6529286Y-1491714D01*
X6486428Y-1491714D01*
X6757857Y-1491714D02*
X6729286Y-1477428D01*
X6715000Y-1448857D01*
X6715000Y-1191714D01*
X6986428Y-1477428D02*
X6957857Y-1491714D01*
X6900714Y-1491714D01*
X6872143Y-1477428D01*
X6857857Y-1448857D01*
X6857857Y-1334571D01*
X6872143Y-1306000D01*
X6900714Y-1291714D01*
X6957857Y-1291714D01*
X6986428Y-1306000D01*
X7000714Y-1334571D01*
X7000714Y-1363143D01*
X6857857Y-1391714D01*
X7115000Y-1477428D02*
X7143571Y-1491714D01*
X7200714Y-1491714D01*
X7229286Y-1477428D01*
X7243571Y-1448857D01*
X7243571Y-1434571D01*
X7229286Y-1406000D01*
X7200714Y-1391714D01*
X7157857Y-1391714D01*
X7129286Y-1377429D01*
X7115000Y-1348857D01*
X7115000Y-1334571D01*
X7129286Y-1306000D01*
X7157857Y-1291714D01*
X7200714Y-1291714D01*
X7229286Y-1306000D01*
X7343571Y-1606000D02*
X7357857Y-1591714D01*
X7386428Y-1548857D01*
X7400714Y-1520286D01*
X7415000Y-1477428D01*
X7429286Y-1406000D01*
X7429286Y-1348857D01*
X7415000Y-1277429D01*
X7400714Y-1234571D01*
X7386428Y-1206000D01*
X7357857Y-1163143D01*
X7343571Y-1148857D01*
X-40000Y-1712000D02*
X-40000Y-1792000D01*
X-80000Y-1752000D02*
X0Y-1752000D01*
X343571Y-1587714D02*
X372143Y-1587714D01*
X400714Y-1602000D01*
X415000Y-1616286D01*
X429286Y-1644857D01*
X443571Y-1702000D01*
X443571Y-1773428D01*
X429286Y-1830571D01*
X415000Y-1859143D01*
X400714Y-1873428D01*
X372143Y-1887714D01*
X343571Y-1887714D01*
X315000Y-1873428D01*
X300714Y-1859143D01*
X286429Y-1830571D01*
X272143Y-1773428D01*
X272143Y-1702000D01*
X286429Y-1644857D01*
X300714Y-1616286D01*
X315000Y-1602000D01*
X343571Y-1587714D01*
X572143Y-1859143D02*
X586429Y-1873428D01*
X572143Y-1887714D01*
X557857Y-1873428D01*
X572143Y-1859143D01*
X572143Y-1887714D01*
X757857Y-1716286D02*
X729286Y-1702000D01*
X715000Y-1687714D01*
X700714Y-1659143D01*
X700714Y-1644857D01*
X715000Y-1616286D01*
X729286Y-1602000D01*
X757857Y-1587714D01*
X815000Y-1587714D01*
X843571Y-1602000D01*
X857857Y-1616286D01*
X872143Y-1644857D01*
X872143Y-1659143D01*
X857857Y-1687714D01*
X843571Y-1702000D01*
X815000Y-1716286D01*
X757857Y-1716286D01*
X729286Y-1730571D01*
X715000Y-1744857D01*
X700714Y-1773428D01*
X700714Y-1830571D01*
X715000Y-1859143D01*
X729286Y-1873428D01*
X757857Y-1887714D01*
X815000Y-1887714D01*
X843571Y-1873428D01*
X857857Y-1859143D01*
X872143Y-1830571D01*
X872143Y-1773428D01*
X857857Y-1744857D01*
X843571Y-1730571D01*
X815000Y-1716286D01*
X1057857Y-1587714D02*
X1086429Y-1587714D01*
X1115000Y-1602000D01*
X1129286Y-1616286D01*
X1143571Y-1644857D01*
X1157857Y-1702000D01*
X1157857Y-1773428D01*
X1143571Y-1830571D01*
X1129286Y-1859143D01*
X1115000Y-1873428D01*
X1086429Y-1887714D01*
X1057857Y-1887714D01*
X1029286Y-1873428D01*
X1015000Y-1859143D01*
X1000714Y-1830571D01*
X986428Y-1773428D01*
X986428Y-1702000D01*
X1000714Y-1644857D01*
X1015000Y-1616286D01*
X1029286Y-1602000D01*
X1057857Y-1587714D01*
X1343571Y-1587714D02*
X1372143Y-1587714D01*
X1400714Y-1602000D01*
X1415000Y-1616286D01*
X1429286Y-1644857D01*
X1443571Y-1702000D01*
X1443571Y-1773428D01*
X1429286Y-1830571D01*
X1415000Y-1859143D01*
X1400714Y-1873428D01*
X1372143Y-1887714D01*
X1343571Y-1887714D01*
X1315000Y-1873428D01*
X1300714Y-1859143D01*
X1286429Y-1830571D01*
X1272143Y-1773428D01*
X1272143Y-1702000D01*
X1286429Y-1644857D01*
X1300714Y-1616286D01*
X1315000Y-1602000D01*
X1343571Y-1587714D01*
X1572143Y-1887714D02*
X1572143Y-1687714D01*
X1572143Y-1716286D02*
X1586428Y-1702000D01*
X1615000Y-1687714D01*
X1657857Y-1687714D01*
X1686428Y-1702000D01*
X1700714Y-1730571D01*
X1700714Y-1887714D01*
X1700714Y-1730571D02*
X1715000Y-1702000D01*
X1743571Y-1687714D01*
X1786428Y-1687714D01*
X1815000Y-1702000D01*
X1829286Y-1730571D01*
X1829286Y-1887714D01*
X1972143Y-1887714D02*
X1972143Y-1687714D01*
X1972143Y-1716286D02*
X1986428Y-1702000D01*
X2015000Y-1687714D01*
X2057857Y-1687714D01*
X2086428Y-1702000D01*
X2100714Y-1730571D01*
X2100714Y-1887714D01*
X2100714Y-1730571D02*
X2115000Y-1702000D01*
X2143571Y-1687714D01*
X2186429Y-1687714D01*
X2215000Y-1702000D01*
X2229286Y-1730571D01*
X2229286Y-1887714D01*
X2815000Y-1573428D02*
X2557857Y-1959143D01*
X3200714Y-1587714D02*
X3229286Y-1587714D01*
X3257857Y-1602000D01*
X3272143Y-1616286D01*
X3286428Y-1644857D01*
X3300714Y-1702000D01*
X3300714Y-1773428D01*
X3286428Y-1830571D01*
X3272143Y-1859143D01*
X3257857Y-1873428D01*
X3229286Y-1887714D01*
X3200714Y-1887714D01*
X3172143Y-1873428D01*
X3157857Y-1859143D01*
X3143571Y-1830571D01*
X3129286Y-1773428D01*
X3129286Y-1702000D01*
X3143571Y-1644857D01*
X3157857Y-1616286D01*
X3172143Y-1602000D01*
X3200714Y-1587714D01*
X3429286Y-1859143D02*
X3443571Y-1873428D01*
X3429286Y-1887714D01*
X3415000Y-1873428D01*
X3429286Y-1859143D01*
X3429286Y-1887714D01*
X3629286Y-1587714D02*
X3657857Y-1587714D01*
X3686428Y-1602000D01*
X3700714Y-1616286D01*
X3715000Y-1644857D01*
X3729286Y-1702000D01*
X3729286Y-1773428D01*
X3715000Y-1830571D01*
X3700714Y-1859143D01*
X3686428Y-1873428D01*
X3657857Y-1887714D01*
X3629286Y-1887714D01*
X3600714Y-1873428D01*
X3586428Y-1859143D01*
X3572143Y-1830571D01*
X3557857Y-1773428D01*
X3557857Y-1702000D01*
X3572143Y-1644857D01*
X3586428Y-1616286D01*
X3600714Y-1602000D01*
X3629286Y-1587714D01*
X3829286Y-1587714D02*
X4015000Y-1587714D01*
X3915000Y-1702000D01*
X3957857Y-1702000D01*
X3986428Y-1716286D01*
X4000714Y-1730571D01*
X4015000Y-1759143D01*
X4015000Y-1830571D01*
X4000714Y-1859143D01*
X3986428Y-1873428D01*
X3957857Y-1887714D01*
X3872143Y-1887714D01*
X3843571Y-1873428D01*
X3829286Y-1859143D01*
X4300714Y-1887714D02*
X4129286Y-1887714D01*
X4215000Y-1887714D02*
X4215000Y-1587714D01*
X4186428Y-1630571D01*
X4157857Y-1659143D01*
X4129286Y-1673428D01*
X4572143Y-1587714D02*
X4429286Y-1587714D01*
X4415000Y-1730571D01*
X4429286Y-1716286D01*
X4457857Y-1702000D01*
X4529286Y-1702000D01*
X4557857Y-1716286D01*
X4572143Y-1730571D01*
X4586429Y-1759143D01*
X4586429Y-1830571D01*
X4572143Y-1859143D01*
X4557857Y-1873428D01*
X4529286Y-1887714D01*
X4457857Y-1887714D01*
X4429286Y-1873428D01*
X4415000Y-1859143D01*
X4700714Y-1587714D02*
X4700714Y-1644857D01*
X4815000Y-1587714D02*
X4815000Y-1644857D01*
X5257857Y-2002000D02*
X5243571Y-1987714D01*
X5215000Y-1944857D01*
X5200714Y-1916286D01*
X5186429Y-1873428D01*
X5172143Y-1802000D01*
X5172143Y-1744857D01*
X5186429Y-1673428D01*
X5200714Y-1630571D01*
X5215000Y-1602000D01*
X5243571Y-1559143D01*
X5257857Y-1544857D01*
X5500714Y-1687714D02*
X5500714Y-1887714D01*
X5429286Y-1573428D02*
X5357857Y-1787714D01*
X5543571Y-1787714D01*
X5786428Y-1587714D02*
X5729286Y-1587714D01*
X5700714Y-1602000D01*
X5686428Y-1616286D01*
X5657857Y-1659143D01*
X5643571Y-1716286D01*
X5643571Y-1830571D01*
X5657857Y-1859143D01*
X5672143Y-1873428D01*
X5700714Y-1887714D01*
X5757857Y-1887714D01*
X5786428Y-1873428D01*
X5800714Y-1859143D01*
X5815000Y-1830571D01*
X5815000Y-1759143D01*
X5800714Y-1730571D01*
X5786428Y-1716286D01*
X5757857Y-1702000D01*
X5700714Y-1702000D01*
X5672143Y-1716286D01*
X5657857Y-1730571D01*
X5643571Y-1759143D01*
X6172143Y-1887714D02*
X6172143Y-1587714D01*
X6300714Y-1887714D02*
X6300714Y-1730571D01*
X6286428Y-1702000D01*
X6257857Y-1687714D01*
X6215000Y-1687714D01*
X6186428Y-1702000D01*
X6172143Y-1716286D01*
X6486428Y-1887714D02*
X6457857Y-1873428D01*
X6443571Y-1859143D01*
X6429286Y-1830571D01*
X6429286Y-1744857D01*
X6443571Y-1716286D01*
X6457857Y-1702000D01*
X6486428Y-1687714D01*
X6529286Y-1687714D01*
X6557857Y-1702000D01*
X6572143Y-1716286D01*
X6586428Y-1744857D01*
X6586428Y-1830571D01*
X6572143Y-1859143D01*
X6557857Y-1873428D01*
X6529286Y-1887714D01*
X6486428Y-1887714D01*
X6757857Y-1887714D02*
X6729286Y-1873428D01*
X6715000Y-1844857D01*
X6715000Y-1587714D01*
X6986428Y-1873428D02*
X6957857Y-1887714D01*
X6900714Y-1887714D01*
X6872143Y-1873428D01*
X6857857Y-1844857D01*
X6857857Y-1730571D01*
X6872143Y-1702000D01*
X6900714Y-1687714D01*
X6957857Y-1687714D01*
X6986428Y-1702000D01*
X7000714Y-1730571D01*
X7000714Y-1759143D01*
X6857857Y-1787714D01*
X7115000Y-1873428D02*
X7143571Y-1887714D01*
X7200714Y-1887714D01*
X7229286Y-1873428D01*
X7243571Y-1844857D01*
X7243571Y-1830571D01*
X7229286Y-1802000D01*
X7200714Y-1787714D01*
X7157857Y-1787714D01*
X7129286Y-1773428D01*
X7115000Y-1744857D01*
X7115000Y-1730571D01*
X7129286Y-1702000D01*
X7157857Y-1687714D01*
X7200714Y-1687714D01*
X7229286Y-1702000D01*
X7343571Y-2002000D02*
X7357857Y-1987714D01*
X7386428Y-1944857D01*
X7400714Y-1916286D01*
X7415000Y-1873428D01*
X7429286Y-1802000D01*
X7429286Y-1744857D01*
X7415000Y-1673428D01*
X7400714Y-1630571D01*
X7386428Y-1602000D01*
X7357857Y-1559143D01*
X7343571Y-1544857D01*
X-14644Y-2183356D02*
X-14644Y-2112644D01*
X-85356Y-2112644D01*
X-85356Y-2183356D01*
X-14644Y-2183356D01*
X443571Y-2283714D02*
X272143Y-2283714D01*
X357857Y-2283714D02*
X357857Y-1983714D01*
X329286Y-2026571D01*
X300714Y-2055143D01*
X272143Y-2069428D01*
X572143Y-2255143D02*
X586429Y-2269429D01*
X572143Y-2283714D01*
X557857Y-2269429D01*
X572143Y-2255143D01*
X572143Y-2283714D01*
X772143Y-1983714D02*
X800714Y-1983714D01*
X829286Y-1998000D01*
X843571Y-2012286D01*
X857857Y-2040857D01*
X872143Y-2098000D01*
X872143Y-2169429D01*
X857857Y-2226571D01*
X843571Y-2255143D01*
X829286Y-2269429D01*
X800714Y-2283714D01*
X772143Y-2283714D01*
X743571Y-2269429D01*
X729286Y-2255143D01*
X715000Y-2226571D01*
X700714Y-2169429D01*
X700714Y-2098000D01*
X715000Y-2040857D01*
X729286Y-2012286D01*
X743571Y-1998000D01*
X772143Y-1983714D01*
X1057857Y-1983714D02*
X1086429Y-1983714D01*
X1115000Y-1998000D01*
X1129286Y-2012286D01*
X1143571Y-2040857D01*
X1157857Y-2098000D01*
X1157857Y-2169429D01*
X1143571Y-2226571D01*
X1129286Y-2255143D01*
X1115000Y-2269429D01*
X1086429Y-2283714D01*
X1057857Y-2283714D01*
X1029286Y-2269429D01*
X1015000Y-2255143D01*
X1000714Y-2226571D01*
X986428Y-2169429D01*
X986428Y-2098000D01*
X1000714Y-2040857D01*
X1015000Y-2012286D01*
X1029286Y-1998000D01*
X1057857Y-1983714D01*
X1343571Y-1983714D02*
X1372143Y-1983714D01*
X1400714Y-1998000D01*
X1415000Y-2012286D01*
X1429286Y-2040857D01*
X1443571Y-2098000D01*
X1443571Y-2169429D01*
X1429286Y-2226571D01*
X1415000Y-2255143D01*
X1400714Y-2269429D01*
X1372143Y-2283714D01*
X1343571Y-2283714D01*
X1315000Y-2269429D01*
X1300714Y-2255143D01*
X1286429Y-2226571D01*
X1272143Y-2169429D01*
X1272143Y-2098000D01*
X1286429Y-2040857D01*
X1300714Y-2012286D01*
X1315000Y-1998000D01*
X1343571Y-1983714D01*
X1572143Y-2283714D02*
X1572143Y-2083714D01*
X1572143Y-2112286D02*
X1586428Y-2098000D01*
X1615000Y-2083714D01*
X1657857Y-2083714D01*
X1686428Y-2098000D01*
X1700714Y-2126571D01*
X1700714Y-2283714D01*
X1700714Y-2126571D02*
X1715000Y-2098000D01*
X1743571Y-2083714D01*
X1786428Y-2083714D01*
X1815000Y-2098000D01*
X1829286Y-2126571D01*
X1829286Y-2283714D01*
X1972143Y-2283714D02*
X1972143Y-2083714D01*
X1972143Y-2112286D02*
X1986428Y-2098000D01*
X2015000Y-2083714D01*
X2057857Y-2083714D01*
X2086428Y-2098000D01*
X2100714Y-2126571D01*
X2100714Y-2283714D01*
X2100714Y-2126571D02*
X2115000Y-2098000D01*
X2143571Y-2083714D01*
X2186429Y-2083714D01*
X2215000Y-2098000D01*
X2229286Y-2126571D01*
X2229286Y-2283714D01*
X2815000Y-1969428D02*
X2557857Y-2355143D01*
X3200714Y-1983714D02*
X3229286Y-1983714D01*
X3257857Y-1998000D01*
X3272143Y-2012286D01*
X3286428Y-2040857D01*
X3300714Y-2098000D01*
X3300714Y-2169429D01*
X3286428Y-2226571D01*
X3272143Y-2255143D01*
X3257857Y-2269429D01*
X3229286Y-2283714D01*
X3200714Y-2283714D01*
X3172143Y-2269429D01*
X3157857Y-2255143D01*
X3143571Y-2226571D01*
X3129286Y-2169429D01*
X3129286Y-2098000D01*
X3143571Y-2040857D01*
X3157857Y-2012286D01*
X3172143Y-1998000D01*
X3200714Y-1983714D01*
X3429286Y-2255143D02*
X3443571Y-2269429D01*
X3429286Y-2283714D01*
X3415000Y-2269429D01*
X3429286Y-2255143D01*
X3429286Y-2283714D01*
X3629286Y-1983714D02*
X3657857Y-1983714D01*
X3686428Y-1998000D01*
X3700714Y-2012286D01*
X3715000Y-2040857D01*
X3729286Y-2098000D01*
X3729286Y-2169429D01*
X3715000Y-2226571D01*
X3700714Y-2255143D01*
X3686428Y-2269429D01*
X3657857Y-2283714D01*
X3629286Y-2283714D01*
X3600714Y-2269429D01*
X3586428Y-2255143D01*
X3572143Y-2226571D01*
X3557857Y-2169429D01*
X3557857Y-2098000D01*
X3572143Y-2040857D01*
X3586428Y-2012286D01*
X3600714Y-1998000D01*
X3629286Y-1983714D01*
X3829286Y-1983714D02*
X4015000Y-1983714D01*
X3915000Y-2098000D01*
X3957857Y-2098000D01*
X3986428Y-2112286D01*
X4000714Y-2126571D01*
X4015000Y-2155143D01*
X4015000Y-2226571D01*
X4000714Y-2255143D01*
X3986428Y-2269429D01*
X3957857Y-2283714D01*
X3872143Y-2283714D01*
X3843571Y-2269429D01*
X3829286Y-2255143D01*
X4157857Y-2283714D02*
X4215000Y-2283714D01*
X4243571Y-2269429D01*
X4257857Y-2255143D01*
X4286429Y-2212286D01*
X4300714Y-2155143D01*
X4300714Y-2040857D01*
X4286429Y-2012286D01*
X4272143Y-1998000D01*
X4243571Y-1983714D01*
X4186428Y-1983714D01*
X4157857Y-1998000D01*
X4143571Y-2012286D01*
X4129286Y-2040857D01*
X4129286Y-2112286D01*
X4143571Y-2140857D01*
X4157857Y-2155143D01*
X4186428Y-2169429D01*
X4243571Y-2169429D01*
X4272143Y-2155143D01*
X4286429Y-2140857D01*
X4300714Y-2112286D01*
X4557857Y-2083714D02*
X4557857Y-2283714D01*
X4486429Y-1969428D02*
X4415000Y-2183714D01*
X4600714Y-2183714D01*
X4700714Y-1983714D02*
X4700714Y-2040857D01*
X4815000Y-1983714D02*
X4815000Y-2040857D01*
X5257857Y-2398000D02*
X5243571Y-2383714D01*
X5215000Y-2340857D01*
X5200714Y-2312286D01*
X5186429Y-2269429D01*
X5172143Y-2198000D01*
X5172143Y-2140857D01*
X5186429Y-2069428D01*
X5200714Y-2026571D01*
X5215000Y-1998000D01*
X5243571Y-1955143D01*
X5257857Y-1940857D01*
X5529286Y-2283714D02*
X5357857Y-2283714D01*
X5443571Y-2283714D02*
X5443571Y-1983714D01*
X5415000Y-2026571D01*
X5386429Y-2055143D01*
X5357857Y-2069428D01*
X5815000Y-2283714D02*
X5643571Y-2283714D01*
X5729286Y-2283714D02*
X5729286Y-1983714D01*
X5700714Y-2026571D01*
X5672143Y-2055143D01*
X5643571Y-2069428D01*
X6172143Y-2283714D02*
X6172143Y-1983714D01*
X6300714Y-2283714D02*
X6300714Y-2126571D01*
X6286428Y-2098000D01*
X6257857Y-2083714D01*
X6215000Y-2083714D01*
X6186428Y-2098000D01*
X6172143Y-2112286D01*
X6486428Y-2283714D02*
X6457857Y-2269429D01*
X6443571Y-2255143D01*
X6429286Y-2226571D01*
X6429286Y-2140857D01*
X6443571Y-2112286D01*
X6457857Y-2098000D01*
X6486428Y-2083714D01*
X6529286Y-2083714D01*
X6557857Y-2098000D01*
X6572143Y-2112286D01*
X6586428Y-2140857D01*
X6586428Y-2226571D01*
X6572143Y-2255143D01*
X6557857Y-2269429D01*
X6529286Y-2283714D01*
X6486428Y-2283714D01*
X6757857Y-2283714D02*
X6729286Y-2269429D01*
X6715000Y-2240857D01*
X6715000Y-1983714D01*
X6986428Y-2269429D02*
X6957857Y-2283714D01*
X6900714Y-2283714D01*
X6872143Y-2269429D01*
X6857857Y-2240857D01*
X6857857Y-2126571D01*
X6872143Y-2098000D01*
X6900714Y-2083714D01*
X6957857Y-2083714D01*
X6986428Y-2098000D01*
X7000714Y-2126571D01*
X7000714Y-2155143D01*
X6857857Y-2183714D01*
X7115000Y-2269429D02*
X7143571Y-2283714D01*
X7200714Y-2283714D01*
X7229286Y-2269429D01*
X7243571Y-2240857D01*
X7243571Y-2226571D01*
X7229286Y-2198000D01*
X7200714Y-2183714D01*
X7157857Y-2183714D01*
X7129286Y-2169429D01*
X7115000Y-2140857D01*
X7115000Y-2126571D01*
X7129286Y-2098000D01*
X7157857Y-2083714D01*
X7200714Y-2083714D01*
X7229286Y-2098000D01*
X7343571Y-2398000D02*
X7357857Y-2383714D01*
X7386428Y-2340857D01*
X7400714Y-2312286D01*
X7415000Y-2269429D01*
X7429286Y-2198000D01*
X7429286Y-2140857D01*
X7415000Y-2069428D01*
X7400714Y-2026571D01*
X7386428Y-1998000D01*
X7357857Y-1955143D01*
X7343571Y-1940857D01*
X-55000Y-2599000D02*
X0Y-2544000D01*
X-55000Y-2489000D01*
X-110000Y-2544000D01*
X-55000Y-2599000D01*
X443571Y-2679714D02*
X272143Y-2679714D01*
X357857Y-2679714D02*
X357857Y-2379714D01*
X329286Y-2422571D01*
X300714Y-2451143D01*
X272143Y-2465429D01*
X572143Y-2651143D02*
X586429Y-2665429D01*
X572143Y-2679714D01*
X557857Y-2665429D01*
X572143Y-2651143D01*
X572143Y-2679714D01*
X872143Y-2679714D02*
X700714Y-2679714D01*
X786428Y-2679714D02*
X786428Y-2379714D01*
X757857Y-2422571D01*
X729286Y-2451143D01*
X700714Y-2465429D01*
X1057857Y-2379714D02*
X1086429Y-2379714D01*
X1115000Y-2394000D01*
X1129286Y-2408286D01*
X1143571Y-2436857D01*
X1157857Y-2494000D01*
X1157857Y-2565429D01*
X1143571Y-2622571D01*
X1129286Y-2651143D01*
X1115000Y-2665429D01*
X1086429Y-2679714D01*
X1057857Y-2679714D01*
X1029286Y-2665429D01*
X1015000Y-2651143D01*
X1000714Y-2622571D01*
X986428Y-2565429D01*
X986428Y-2494000D01*
X1000714Y-2436857D01*
X1015000Y-2408286D01*
X1029286Y-2394000D01*
X1057857Y-2379714D01*
X1343571Y-2379714D02*
X1372143Y-2379714D01*
X1400714Y-2394000D01*
X1415000Y-2408286D01*
X1429286Y-2436857D01*
X1443571Y-2494000D01*
X1443571Y-2565429D01*
X1429286Y-2622571D01*
X1415000Y-2651143D01*
X1400714Y-2665429D01*
X1372143Y-2679714D01*
X1343571Y-2679714D01*
X1315000Y-2665429D01*
X1300714Y-2651143D01*
X1286429Y-2622571D01*
X1272143Y-2565429D01*
X1272143Y-2494000D01*
X1286429Y-2436857D01*
X1300714Y-2408286D01*
X1315000Y-2394000D01*
X1343571Y-2379714D01*
X1572143Y-2679714D02*
X1572143Y-2479714D01*
X1572143Y-2508286D02*
X1586428Y-2494000D01*
X1615000Y-2479714D01*
X1657857Y-2479714D01*
X1686428Y-2494000D01*
X1700714Y-2522571D01*
X1700714Y-2679714D01*
X1700714Y-2522571D02*
X1715000Y-2494000D01*
X1743571Y-2479714D01*
X1786428Y-2479714D01*
X1815000Y-2494000D01*
X1829286Y-2522571D01*
X1829286Y-2679714D01*
X1972143Y-2679714D02*
X1972143Y-2479714D01*
X1972143Y-2508286D02*
X1986428Y-2494000D01*
X2015000Y-2479714D01*
X2057857Y-2479714D01*
X2086428Y-2494000D01*
X2100714Y-2522571D01*
X2100714Y-2679714D01*
X2100714Y-2522571D02*
X2115000Y-2494000D01*
X2143571Y-2479714D01*
X2186429Y-2479714D01*
X2215000Y-2494000D01*
X2229286Y-2522571D01*
X2229286Y-2679714D01*
X2815000Y-2365429D02*
X2557857Y-2751143D01*
X3200714Y-2379714D02*
X3229286Y-2379714D01*
X3257857Y-2394000D01*
X3272143Y-2408286D01*
X3286428Y-2436857D01*
X3300714Y-2494000D01*
X3300714Y-2565429D01*
X3286428Y-2622571D01*
X3272143Y-2651143D01*
X3257857Y-2665429D01*
X3229286Y-2679714D01*
X3200714Y-2679714D01*
X3172143Y-2665429D01*
X3157857Y-2651143D01*
X3143571Y-2622571D01*
X3129286Y-2565429D01*
X3129286Y-2494000D01*
X3143571Y-2436857D01*
X3157857Y-2408286D01*
X3172143Y-2394000D01*
X3200714Y-2379714D01*
X3429286Y-2651143D02*
X3443571Y-2665429D01*
X3429286Y-2679714D01*
X3415000Y-2665429D01*
X3429286Y-2651143D01*
X3429286Y-2679714D01*
X3629286Y-2379714D02*
X3657857Y-2379714D01*
X3686428Y-2394000D01*
X3700714Y-2408286D01*
X3715000Y-2436857D01*
X3729286Y-2494000D01*
X3729286Y-2565429D01*
X3715000Y-2622571D01*
X3700714Y-2651143D01*
X3686428Y-2665429D01*
X3657857Y-2679714D01*
X3629286Y-2679714D01*
X3600714Y-2665429D01*
X3586428Y-2651143D01*
X3572143Y-2622571D01*
X3557857Y-2565429D01*
X3557857Y-2494000D01*
X3572143Y-2436857D01*
X3586428Y-2408286D01*
X3600714Y-2394000D01*
X3629286Y-2379714D01*
X3986428Y-2479714D02*
X3986428Y-2679714D01*
X3915000Y-2365429D02*
X3843571Y-2579714D01*
X4029286Y-2579714D01*
X4115000Y-2379714D02*
X4300714Y-2379714D01*
X4200714Y-2494000D01*
X4243571Y-2494000D01*
X4272143Y-2508286D01*
X4286429Y-2522571D01*
X4300714Y-2551143D01*
X4300714Y-2622571D01*
X4286429Y-2651143D01*
X4272143Y-2665429D01*
X4243571Y-2679714D01*
X4157857Y-2679714D01*
X4129286Y-2665429D01*
X4115000Y-2651143D01*
X4400714Y-2379714D02*
X4586429Y-2379714D01*
X4486429Y-2494000D01*
X4529286Y-2494000D01*
X4557857Y-2508286D01*
X4572143Y-2522571D01*
X4586429Y-2551143D01*
X4586429Y-2622571D01*
X4572143Y-2651143D01*
X4557857Y-2665429D01*
X4529286Y-2679714D01*
X4443571Y-2679714D01*
X4415000Y-2665429D01*
X4400714Y-2651143D01*
X4700714Y-2379714D02*
X4700714Y-2436857D01*
X4815000Y-2379714D02*
X4815000Y-2436857D01*
X5257857Y-2794000D02*
X5243571Y-2779714D01*
X5215000Y-2736857D01*
X5200714Y-2708286D01*
X5186429Y-2665429D01*
X5172143Y-2594000D01*
X5172143Y-2536857D01*
X5186429Y-2465429D01*
X5200714Y-2422571D01*
X5215000Y-2394000D01*
X5243571Y-2351143D01*
X5257857Y-2336857D01*
X5500714Y-2479714D02*
X5500714Y-2679714D01*
X5429286Y-2365429D02*
X5357857Y-2579714D01*
X5543571Y-2579714D01*
X5886428Y-2679714D02*
X5886428Y-2379714D01*
X6015000Y-2679714D02*
X6015000Y-2522571D01*
X6000714Y-2494000D01*
X5972143Y-2479714D01*
X5929286Y-2479714D01*
X5900714Y-2494000D01*
X5886428Y-2508286D01*
X6200714Y-2679714D02*
X6172143Y-2665429D01*
X6157857Y-2651143D01*
X6143571Y-2622571D01*
X6143571Y-2536857D01*
X6157857Y-2508286D01*
X6172143Y-2494000D01*
X6200714Y-2479714D01*
X6243571Y-2479714D01*
X6272143Y-2494000D01*
X6286428Y-2508286D01*
X6300714Y-2536857D01*
X6300714Y-2622571D01*
X6286428Y-2651143D01*
X6272143Y-2665429D01*
X6243571Y-2679714D01*
X6200714Y-2679714D01*
X6472143Y-2679714D02*
X6443571Y-2665429D01*
X6429286Y-2636857D01*
X6429286Y-2379714D01*
X6700714Y-2665429D02*
X6672143Y-2679714D01*
X6615000Y-2679714D01*
X6586428Y-2665429D01*
X6572143Y-2636857D01*
X6572143Y-2522571D01*
X6586428Y-2494000D01*
X6615000Y-2479714D01*
X6672143Y-2479714D01*
X6700714Y-2494000D01*
X6715000Y-2522571D01*
X6715000Y-2551143D01*
X6572143Y-2579714D01*
X6829286Y-2665429D02*
X6857857Y-2679714D01*
X6915000Y-2679714D01*
X6943571Y-2665429D01*
X6957857Y-2636857D01*
X6957857Y-2622571D01*
X6943571Y-2594000D01*
X6915000Y-2579714D01*
X6872143Y-2579714D01*
X6843571Y-2565429D01*
X6829286Y-2536857D01*
X6829286Y-2522571D01*
X6843571Y-2494000D01*
X6872143Y-2479714D01*
X6915000Y-2479714D01*
X6943571Y-2494000D01*
X7057857Y-2794000D02*
X7072143Y-2779714D01*
X7100714Y-2736857D01*
X7115000Y-2708286D01*
X7129286Y-2665429D01*
X7143571Y-2594000D01*
X7143571Y-2536857D01*
X7129286Y-2465429D01*
X7115000Y-2422571D01*
X7100714Y-2394000D01*
X7072143Y-2351143D01*
X7057857Y-2336857D01*
M02*
