%TF.GenerationSoftware,KiCad,Pcbnew,(5.1.10)-1*%
%TF.CreationDate,2022-08-27T22:49:55-04:00*%
%TF.ProjectId,VIC20 2587KB Memory Expander,56494332-3020-4323-9538-374b42204d65,1*%
%TF.SameCoordinates,Original*%
%TF.FileFunction,Soldermask,Bot*%
%TF.FilePolarity,Negative*%
%FSLAX46Y46*%
G04 Gerber Fmt 4.6, Leading zero omitted, Abs format (unit mm)*
G04 Created by KiCad (PCBNEW (5.1.10)-1) date 2022-08-27 22:49:55*
%MOMM*%
%LPD*%
G01*
G04 APERTURE LIST*
%ADD10C,0.100000*%
%ADD11R,2.250000X9.500000*%
%ADD12C,4.200000*%
%ADD13O,1.600000X1.600000*%
%ADD14R,1.600000X1.600000*%
%ADD15C,1.600000*%
%ADD16R,1.700000X1.700000*%
%ADD17O,1.700000X1.700000*%
%ADD18C,2.000000*%
G04 APERTURE END LIST*
D10*
%TO.C,X1*%
G36*
X95235000Y-121285000D02*
G01*
X185435000Y-121285000D01*
X185435000Y-111335000D01*
X95235000Y-111335000D01*
X95235000Y-121285000D01*
G37*
X95235000Y-121285000D02*
X185435000Y-121285000D01*
X185435000Y-111335000D01*
X95235000Y-111335000D01*
X95235000Y-121285000D01*
%TD*%
D11*
%TO.C,X1*%
X114595000Y-116035000D03*
X138355000Y-116035000D03*
X142315000Y-116035000D03*
X106675000Y-116035000D03*
X110635000Y-116035000D03*
X154195000Y-116035000D03*
X102715000Y-116035000D03*
X118555000Y-116035000D03*
X134395000Y-116035000D03*
X122515000Y-116035000D03*
X146275000Y-116035000D03*
X166075000Y-116035000D03*
X150235000Y-116035000D03*
X173995000Y-116035000D03*
X170035000Y-116035000D03*
X158155000Y-116035000D03*
X126475000Y-116035000D03*
X162115000Y-116035000D03*
X177955000Y-116035000D03*
X130435000Y-116035000D03*
D12*
X140335000Y-81285000D03*
%TD*%
D13*
%TO.C,SW2*%
X177165000Y-55880000D03*
X159385000Y-48260000D03*
X174625000Y-55880000D03*
X161925000Y-48260000D03*
X172085000Y-55880000D03*
X164465000Y-48260000D03*
X169545000Y-55880000D03*
X167005000Y-48260000D03*
X167005000Y-55880000D03*
X169545000Y-48260000D03*
X164465000Y-55880000D03*
X172085000Y-48260000D03*
X161925000Y-55880000D03*
X174625000Y-48260000D03*
X159385000Y-55880000D03*
D14*
X177165000Y-48260000D03*
%TD*%
%TO.C,C1*%
X100965000Y-105410000D03*
D15*
X100965000Y-101910000D03*
%TD*%
D16*
%TO.C,J1*%
X94615000Y-95250000D03*
D17*
X94615000Y-92710000D03*
X94615000Y-90170000D03*
X94615000Y-87630000D03*
X94615000Y-85090000D03*
X94615000Y-82550000D03*
X94615000Y-80010000D03*
X94615000Y-77470000D03*
%TD*%
D16*
%TO.C,JP1*%
X183388000Y-54419500D03*
D17*
X185928000Y-54419500D03*
X188468000Y-54419500D03*
%TD*%
D14*
%TO.C,SW3*%
X151130000Y-48260000D03*
D13*
X133350000Y-55880000D03*
X148590000Y-48260000D03*
X135890000Y-55880000D03*
X146050000Y-48260000D03*
X138430000Y-55880000D03*
X143510000Y-48260000D03*
X140970000Y-55880000D03*
X140970000Y-48260000D03*
X143510000Y-55880000D03*
X138430000Y-48260000D03*
X146050000Y-55880000D03*
X135890000Y-48260000D03*
X148590000Y-55880000D03*
X133350000Y-48260000D03*
X151130000Y-55880000D03*
%TD*%
D14*
%TO.C,SW4*%
X125095000Y-48260000D03*
D13*
X112395000Y-55880000D03*
X122555000Y-48260000D03*
X114935000Y-55880000D03*
X120015000Y-48260000D03*
X117475000Y-55880000D03*
X117475000Y-48260000D03*
X120015000Y-55880000D03*
X114935000Y-48260000D03*
X122555000Y-55880000D03*
X112395000Y-48260000D03*
X125095000Y-55880000D03*
%TD*%
D18*
%TO.C,SW1*%
X103883600Y-49348000D03*
X103883600Y-53848000D03*
X97383600Y-49348000D03*
X97383600Y-53848000D03*
%TD*%
M02*
