%TF.GenerationSoftware,KiCad,Pcbnew,(5.1.10)-1*%
%TF.CreationDate,2022-08-27T22:49:55-04:00*%
%TF.ProjectId,VIC20 2587KB Memory Expander,56494332-3020-4323-9538-374b42204d65,1*%
%TF.SameCoordinates,Original*%
%TF.FileFunction,Profile,NP*%
%FSLAX46Y46*%
G04 Gerber Fmt 4.6, Leading zero omitted, Abs format (unit mm)*
G04 Created by KiCad (PCBNEW (5.1.10)-1) date 2022-08-27 22:49:55*
%MOMM*%
%LPD*%
G01*
G04 APERTURE LIST*
%TA.AperFunction,Profile*%
%ADD10C,0.025400*%
%TD*%
G04 APERTURE END LIST*
D10*
%TO.C,X1*%
X89335000Y-110361010D02*
X89335000Y-51285000D01*
X191335000Y-110361380D02*
X191335000Y-51285000D01*
X89335000Y-51285000D02*
X95085000Y-51285000D01*
X191335000Y-51285000D02*
X185585000Y-51285000D01*
X95085000Y-51285000D02*
X95085000Y-46285000D01*
X95085000Y-46285000D02*
X185585000Y-46285000D01*
X185585000Y-46285000D02*
X185585000Y-51285000D01*
X185401250Y-111295130D02*
X185401250Y-120269000D01*
X176657000Y-111292870D02*
X175260000Y-111292750D01*
X176657000Y-111293120D02*
X176657000Y-120269370D01*
X174244000Y-121285490D02*
X110363000Y-121285370D01*
X94335000Y-110361010D02*
X89335000Y-110361010D01*
X186335000Y-110361380D02*
X191335000Y-110361380D01*
X95266620Y-111292630D02*
X95266620Y-120268880D01*
X175260000Y-111292750D02*
X175260000Y-120269000D01*
X109347000Y-111293120D02*
X109347000Y-120269370D01*
X109347000Y-111292870D02*
X107950000Y-111292750D01*
X106934000Y-121285000D02*
X96282620Y-121284880D01*
X107950000Y-111292750D02*
X107950000Y-120269000D01*
X184385000Y-121285490D02*
X177673000Y-121285370D01*
X106934000Y-121285000D02*
G75*
G03*
X107950000Y-120269000I0J1016000D01*
G01*
X96282620Y-121284880D02*
G75*
G02*
X95266620Y-120268880I0J1016000D01*
G01*
X94335000Y-110361010D02*
G75*
G02*
X95266620Y-111292630I0J-931620D01*
G01*
X177673000Y-121285370D02*
G75*
G02*
X176657000Y-120269370I0J1016000D01*
G01*
X110363000Y-121285370D02*
G75*
G02*
X109347000Y-120269370I0J1016000D01*
G01*
X184385000Y-121285490D02*
G75*
G03*
X185401000Y-120269490I0J1016000D01*
G01*
X186335000Y-110361380D02*
G75*
G03*
X185401250Y-111295130I0J-933750D01*
G01*
X174244000Y-121285000D02*
G75*
G03*
X175260000Y-120269000I0J1016000D01*
G01*
%TD*%
M02*
