%TF.GenerationSoftware,KiCad,Pcbnew,(5.1.10)-1*%
%TF.CreationDate,2022-08-09T12:22:40-04:00*%
%TF.ProjectId,VIC20 2587KB Memory Expander,56494332-3020-4323-9538-374b42204d65,2*%
%TF.SameCoordinates,Original*%
%TF.FileFunction,Legend,Bot*%
%TF.FilePolarity,Positive*%
%FSLAX46Y46*%
G04 Gerber Fmt 4.6, Leading zero omitted, Abs format (unit mm)*
G04 Created by KiCad (PCBNEW (5.1.10)-1) date 2022-08-09 12:22:40*
%MOMM*%
%LPD*%
G01*
G04 APERTURE LIST*
%ADD10C,0.200000*%
%ADD11C,0.350000*%
%ADD12C,0.250000*%
%ADD13C,0.150000*%
%ADD14C,0.300000*%
%ADD15C,0.120000*%
G04 APERTURE END LIST*
D10*
X178008000Y-102871666D02*
X177941333Y-102805000D01*
X177808000Y-102738333D01*
X177474666Y-102738333D01*
X177341333Y-102805000D01*
X177274666Y-102871666D01*
X177208000Y-103005000D01*
X177208000Y-103138333D01*
X177274666Y-103338333D01*
X178074666Y-104138333D01*
X177208000Y-104138333D01*
X176608000Y-104138333D02*
X176608000Y-102738333D01*
X176141333Y-103738333D01*
X175674666Y-102738333D01*
X175674666Y-104138333D01*
X174541333Y-103405000D02*
X174341333Y-103471666D01*
X174274666Y-103538333D01*
X174208000Y-103671666D01*
X174208000Y-103871666D01*
X174274666Y-104005000D01*
X174341333Y-104071666D01*
X174474666Y-104138333D01*
X175008000Y-104138333D01*
X175008000Y-102738333D01*
X174541333Y-102738333D01*
X174408000Y-102805000D01*
X174341333Y-102871666D01*
X174274666Y-103005000D01*
X174274666Y-103138333D01*
X174341333Y-103271666D01*
X174408000Y-103338333D01*
X174541333Y-103405000D01*
X175008000Y-103405000D01*
X172541333Y-103405000D02*
X171474666Y-103405000D01*
X171474666Y-103805000D02*
X172541333Y-103805000D01*
X169808000Y-102871666D02*
X169741333Y-102805000D01*
X169608000Y-102738333D01*
X169274666Y-102738333D01*
X169141333Y-102805000D01*
X169074666Y-102871666D01*
X169008000Y-103005000D01*
X169008000Y-103138333D01*
X169074666Y-103338333D01*
X169874666Y-104138333D01*
X169008000Y-104138333D01*
X167741333Y-102738333D02*
X168408000Y-102738333D01*
X168474666Y-103405000D01*
X168408000Y-103338333D01*
X168274666Y-103271666D01*
X167941333Y-103271666D01*
X167808000Y-103338333D01*
X167741333Y-103405000D01*
X167674666Y-103538333D01*
X167674666Y-103871666D01*
X167741333Y-104005000D01*
X167808000Y-104071666D01*
X167941333Y-104138333D01*
X168274666Y-104138333D01*
X168408000Y-104071666D01*
X168474666Y-104005000D01*
X166474666Y-102738333D02*
X166741333Y-102738333D01*
X166874666Y-102805000D01*
X166941333Y-102871666D01*
X167074666Y-103071666D01*
X167141333Y-103338333D01*
X167141333Y-103871666D01*
X167074666Y-104005000D01*
X167008000Y-104071666D01*
X166874666Y-104138333D01*
X166608000Y-104138333D01*
X166474666Y-104071666D01*
X166408000Y-104005000D01*
X166341333Y-103871666D01*
X166341333Y-103538333D01*
X166408000Y-103405000D01*
X166474666Y-103338333D01*
X166608000Y-103271666D01*
X166874666Y-103271666D01*
X167008000Y-103338333D01*
X167074666Y-103405000D01*
X167141333Y-103538333D01*
X164474666Y-103338333D02*
X164608000Y-103271666D01*
X164674666Y-103205000D01*
X164741333Y-103071666D01*
X164741333Y-103005000D01*
X164674666Y-102871666D01*
X164608000Y-102805000D01*
X164474666Y-102738333D01*
X164208000Y-102738333D01*
X164074666Y-102805000D01*
X164008000Y-102871666D01*
X163941333Y-103005000D01*
X163941333Y-103071666D01*
X164008000Y-103205000D01*
X164074666Y-103271666D01*
X164208000Y-103338333D01*
X164474666Y-103338333D01*
X164608000Y-103405000D01*
X164674666Y-103471666D01*
X164741333Y-103605000D01*
X164741333Y-103871666D01*
X164674666Y-104005000D01*
X164608000Y-104071666D01*
X164474666Y-104138333D01*
X164208000Y-104138333D01*
X164074666Y-104071666D01*
X164008000Y-104005000D01*
X163941333Y-103871666D01*
X163941333Y-103605000D01*
X164008000Y-103471666D01*
X164074666Y-103405000D01*
X164208000Y-103338333D01*
X163341333Y-104138333D02*
X163341333Y-102738333D01*
X162541333Y-104138333D02*
X163141333Y-103338333D01*
X162541333Y-102738333D02*
X163341333Y-103538333D01*
X161474666Y-103405000D02*
X161274666Y-103471666D01*
X161208000Y-103538333D01*
X161141333Y-103671666D01*
X161141333Y-103871666D01*
X161208000Y-104005000D01*
X161274666Y-104071666D01*
X161408000Y-104138333D01*
X161941333Y-104138333D01*
X161941333Y-102738333D01*
X161474666Y-102738333D01*
X161341333Y-102805000D01*
X161274666Y-102871666D01*
X161208000Y-103005000D01*
X161208000Y-103138333D01*
X161274666Y-103271666D01*
X161341333Y-103338333D01*
X161474666Y-103405000D01*
X161941333Y-103405000D01*
X159008000Y-103405000D02*
X158808000Y-103471666D01*
X158741333Y-103538333D01*
X158674666Y-103671666D01*
X158674666Y-103871666D01*
X158741333Y-104005000D01*
X158808000Y-104071666D01*
X158941333Y-104138333D01*
X159474666Y-104138333D01*
X159474666Y-102738333D01*
X159008000Y-102738333D01*
X158874666Y-102805000D01*
X158808000Y-102871666D01*
X158741333Y-103005000D01*
X158741333Y-103138333D01*
X158808000Y-103271666D01*
X158874666Y-103338333D01*
X159008000Y-103405000D01*
X159474666Y-103405000D01*
X157874666Y-104138333D02*
X158008000Y-104071666D01*
X158074666Y-103938333D01*
X158074666Y-102738333D01*
X157141333Y-104138333D02*
X157274666Y-104071666D01*
X157341333Y-104005000D01*
X157408000Y-103871666D01*
X157408000Y-103471666D01*
X157341333Y-103338333D01*
X157274666Y-103271666D01*
X157141333Y-103205000D01*
X156941333Y-103205000D01*
X156808000Y-103271666D01*
X156741333Y-103338333D01*
X156674666Y-103471666D01*
X156674666Y-103871666D01*
X156741333Y-104005000D01*
X156808000Y-104071666D01*
X156941333Y-104138333D01*
X157141333Y-104138333D01*
X155474666Y-104071666D02*
X155608000Y-104138333D01*
X155874666Y-104138333D01*
X156008000Y-104071666D01*
X156074666Y-104005000D01*
X156141333Y-103871666D01*
X156141333Y-103471666D01*
X156074666Y-103338333D01*
X156008000Y-103271666D01*
X155874666Y-103205000D01*
X155608000Y-103205000D01*
X155474666Y-103271666D01*
X154874666Y-104138333D02*
X154874666Y-102738333D01*
X154741333Y-103605000D02*
X154341333Y-104138333D01*
X154341333Y-103205000D02*
X154874666Y-103738333D01*
X153808000Y-104071666D02*
X153674666Y-104138333D01*
X153408000Y-104138333D01*
X153274666Y-104071666D01*
X153208000Y-103938333D01*
X153208000Y-103871666D01*
X153274666Y-103738333D01*
X153408000Y-103671666D01*
X153608000Y-103671666D01*
X153741333Y-103605000D01*
X153808000Y-103471666D01*
X153808000Y-103405000D01*
X153741333Y-103271666D01*
X153608000Y-103205000D01*
X153408000Y-103205000D01*
X153274666Y-103271666D01*
D11*
X131014761Y-84724761D02*
X131681428Y-83772380D01*
X132157619Y-84724761D02*
X132157619Y-82724761D01*
X131395714Y-82724761D01*
X131205238Y-82820000D01*
X131110000Y-82915238D01*
X131014761Y-83105714D01*
X131014761Y-83391428D01*
X131110000Y-83581904D01*
X131205238Y-83677142D01*
X131395714Y-83772380D01*
X132157619Y-83772380D01*
X129776666Y-82724761D02*
X129395714Y-82724761D01*
X129205238Y-82820000D01*
X129014761Y-83010476D01*
X128919523Y-83391428D01*
X128919523Y-84058095D01*
X129014761Y-84439047D01*
X129205238Y-84629523D01*
X129395714Y-84724761D01*
X129776666Y-84724761D01*
X129967142Y-84629523D01*
X130157619Y-84439047D01*
X130252857Y-84058095D01*
X130252857Y-83391428D01*
X130157619Y-83010476D01*
X129967142Y-82820000D01*
X129776666Y-82724761D01*
X128062380Y-84724761D02*
X128062380Y-82724761D01*
X127395714Y-84153333D01*
X126729047Y-82724761D01*
X126729047Y-84724761D01*
X123110000Y-84534285D02*
X123205238Y-84629523D01*
X123490952Y-84724761D01*
X123681428Y-84724761D01*
X123967142Y-84629523D01*
X124157619Y-84439047D01*
X124252857Y-84248571D01*
X124348095Y-83867619D01*
X124348095Y-83581904D01*
X124252857Y-83200952D01*
X124157619Y-83010476D01*
X123967142Y-82820000D01*
X123681428Y-82724761D01*
X123490952Y-82724761D01*
X123205238Y-82820000D01*
X123110000Y-82915238D01*
X121871904Y-82724761D02*
X121490952Y-82724761D01*
X121300476Y-82820000D01*
X121110000Y-83010476D01*
X121014761Y-83391428D01*
X121014761Y-84058095D01*
X121110000Y-84439047D01*
X121300476Y-84629523D01*
X121490952Y-84724761D01*
X121871904Y-84724761D01*
X122062380Y-84629523D01*
X122252857Y-84439047D01*
X122348095Y-84058095D01*
X122348095Y-83391428D01*
X122252857Y-83010476D01*
X122062380Y-82820000D01*
X121871904Y-82724761D01*
X120157619Y-84724761D02*
X120157619Y-82724761D01*
X119014761Y-84724761D01*
X119014761Y-82724761D01*
X117395714Y-83677142D02*
X118062380Y-83677142D01*
X118062380Y-84724761D02*
X118062380Y-82724761D01*
X117110000Y-82724761D01*
X116348095Y-84724761D02*
X116348095Y-82724761D01*
X114348095Y-82820000D02*
X114538571Y-82724761D01*
X114824285Y-82724761D01*
X115110000Y-82820000D01*
X115300476Y-83010476D01*
X115395714Y-83200952D01*
X115490952Y-83581904D01*
X115490952Y-83867619D01*
X115395714Y-84248571D01*
X115300476Y-84439047D01*
X115110000Y-84629523D01*
X114824285Y-84724761D01*
X114633809Y-84724761D01*
X114348095Y-84629523D01*
X114252857Y-84534285D01*
X114252857Y-83867619D01*
X114633809Y-83867619D01*
X111300476Y-85486666D02*
X111395714Y-85391428D01*
X111586190Y-85105714D01*
X111681428Y-84915238D01*
X111776666Y-84629523D01*
X111871904Y-84153333D01*
X111871904Y-83772380D01*
X111776666Y-83296190D01*
X111681428Y-83010476D01*
X111586190Y-82820000D01*
X111395714Y-82534285D01*
X111300476Y-82439047D01*
X110633809Y-84629523D02*
X110348095Y-84724761D01*
X109871904Y-84724761D01*
X109681428Y-84629523D01*
X109586190Y-84534285D01*
X109490952Y-84343809D01*
X109490952Y-84153333D01*
X109586190Y-83962857D01*
X109681428Y-83867619D01*
X109871904Y-83772380D01*
X110252857Y-83677142D01*
X110443333Y-83581904D01*
X110538571Y-83486666D01*
X110633809Y-83296190D01*
X110633809Y-83105714D01*
X110538571Y-82915238D01*
X110443333Y-82820000D01*
X110252857Y-82724761D01*
X109776666Y-82724761D01*
X109490952Y-82820000D01*
X108824285Y-82724761D02*
X108348095Y-84724761D01*
X107967142Y-83296190D01*
X107586190Y-84724761D01*
X107110000Y-82724761D01*
X106538571Y-82724761D02*
X105300476Y-82724761D01*
X105967142Y-83486666D01*
X105681428Y-83486666D01*
X105490952Y-83581904D01*
X105395714Y-83677142D01*
X105300476Y-83867619D01*
X105300476Y-84343809D01*
X105395714Y-84534285D01*
X105490952Y-84629523D01*
X105681428Y-84724761D01*
X106252857Y-84724761D01*
X106443333Y-84629523D01*
X106538571Y-84534285D01*
X104633809Y-85486666D02*
X104538571Y-85391428D01*
X104348095Y-85105714D01*
X104252857Y-84915238D01*
X104157619Y-84629523D01*
X104062380Y-84153333D01*
X104062380Y-83772380D01*
X104157619Y-83296190D01*
X104252857Y-83010476D01*
X104348095Y-82820000D01*
X104538571Y-82534285D01*
X104633809Y-82439047D01*
X179719285Y-84724761D02*
X180385952Y-83772380D01*
X180862142Y-84724761D02*
X180862142Y-82724761D01*
X180100238Y-82724761D01*
X179909761Y-82820000D01*
X179814523Y-82915238D01*
X179719285Y-83105714D01*
X179719285Y-83391428D01*
X179814523Y-83581904D01*
X179909761Y-83677142D01*
X180100238Y-83772380D01*
X180862142Y-83772380D01*
X178957380Y-84153333D02*
X178005000Y-84153333D01*
X179147857Y-84724761D02*
X178481190Y-82724761D01*
X177814523Y-84724761D01*
X177147857Y-84724761D02*
X177147857Y-82724761D01*
X176481190Y-84153333D01*
X175814523Y-82724761D01*
X175814523Y-84724761D01*
X172195476Y-84534285D02*
X172290714Y-84629523D01*
X172576428Y-84724761D01*
X172766904Y-84724761D01*
X173052619Y-84629523D01*
X173243095Y-84439047D01*
X173338333Y-84248571D01*
X173433571Y-83867619D01*
X173433571Y-83581904D01*
X173338333Y-83200952D01*
X173243095Y-83010476D01*
X173052619Y-82820000D01*
X172766904Y-82724761D01*
X172576428Y-82724761D01*
X172290714Y-82820000D01*
X172195476Y-82915238D01*
X170957380Y-82724761D02*
X170576428Y-82724761D01*
X170385952Y-82820000D01*
X170195476Y-83010476D01*
X170100238Y-83391428D01*
X170100238Y-84058095D01*
X170195476Y-84439047D01*
X170385952Y-84629523D01*
X170576428Y-84724761D01*
X170957380Y-84724761D01*
X171147857Y-84629523D01*
X171338333Y-84439047D01*
X171433571Y-84058095D01*
X171433571Y-83391428D01*
X171338333Y-83010476D01*
X171147857Y-82820000D01*
X170957380Y-82724761D01*
X169243095Y-84724761D02*
X169243095Y-82724761D01*
X168100238Y-84724761D01*
X168100238Y-82724761D01*
X166481190Y-83677142D02*
X167147857Y-83677142D01*
X167147857Y-84724761D02*
X167147857Y-82724761D01*
X166195476Y-82724761D01*
X165433571Y-84724761D02*
X165433571Y-82724761D01*
X163433571Y-82820000D02*
X163624047Y-82724761D01*
X163909761Y-82724761D01*
X164195476Y-82820000D01*
X164385952Y-83010476D01*
X164481190Y-83200952D01*
X164576428Y-83581904D01*
X164576428Y-83867619D01*
X164481190Y-84248571D01*
X164385952Y-84439047D01*
X164195476Y-84629523D01*
X163909761Y-84724761D01*
X163719285Y-84724761D01*
X163433571Y-84629523D01*
X163338333Y-84534285D01*
X163338333Y-83867619D01*
X163719285Y-83867619D01*
X160385952Y-85486666D02*
X160481190Y-85391428D01*
X160671666Y-85105714D01*
X160766904Y-84915238D01*
X160862142Y-84629523D01*
X160957380Y-84153333D01*
X160957380Y-83772380D01*
X160862142Y-83296190D01*
X160766904Y-83010476D01*
X160671666Y-82820000D01*
X160481190Y-82534285D01*
X160385952Y-82439047D01*
X159719285Y-84629523D02*
X159433571Y-84724761D01*
X158957380Y-84724761D01*
X158766904Y-84629523D01*
X158671666Y-84534285D01*
X158576428Y-84343809D01*
X158576428Y-84153333D01*
X158671666Y-83962857D01*
X158766904Y-83867619D01*
X158957380Y-83772380D01*
X159338333Y-83677142D01*
X159528809Y-83581904D01*
X159624047Y-83486666D01*
X159719285Y-83296190D01*
X159719285Y-83105714D01*
X159624047Y-82915238D01*
X159528809Y-82820000D01*
X159338333Y-82724761D01*
X158862142Y-82724761D01*
X158576428Y-82820000D01*
X157909761Y-82724761D02*
X157433571Y-84724761D01*
X157052619Y-83296190D01*
X156671666Y-84724761D01*
X156195476Y-82724761D01*
X155528809Y-82915238D02*
X155433571Y-82820000D01*
X155243095Y-82724761D01*
X154766904Y-82724761D01*
X154576428Y-82820000D01*
X154481190Y-82915238D01*
X154385952Y-83105714D01*
X154385952Y-83296190D01*
X154481190Y-83581904D01*
X155624047Y-84724761D01*
X154385952Y-84724761D01*
X153719285Y-85486666D02*
X153624047Y-85391428D01*
X153433571Y-85105714D01*
X153338333Y-84915238D01*
X153243095Y-84629523D01*
X153147857Y-84153333D01*
X153147857Y-83772380D01*
X153243095Y-83296190D01*
X153338333Y-83010476D01*
X153433571Y-82820000D01*
X153624047Y-82534285D01*
X153719285Y-82439047D01*
D12*
X134862357Y-87753571D02*
X134862357Y-86253571D01*
X134290928Y-86253571D01*
X134148071Y-86325000D01*
X134076642Y-86396428D01*
X134005214Y-86539285D01*
X134005214Y-86753571D01*
X134076642Y-86896428D01*
X134148071Y-86967857D01*
X134290928Y-87039285D01*
X134862357Y-87039285D01*
X132505214Y-87753571D02*
X133005214Y-87039285D01*
X133362357Y-87753571D02*
X133362357Y-86253571D01*
X132790928Y-86253571D01*
X132648071Y-86325000D01*
X132576642Y-86396428D01*
X132505214Y-86539285D01*
X132505214Y-86753571D01*
X132576642Y-86896428D01*
X132648071Y-86967857D01*
X132790928Y-87039285D01*
X133362357Y-87039285D01*
X131576642Y-86253571D02*
X131290928Y-86253571D01*
X131148071Y-86325000D01*
X131005214Y-86467857D01*
X130933785Y-86753571D01*
X130933785Y-87253571D01*
X131005214Y-87539285D01*
X131148071Y-87682142D01*
X131290928Y-87753571D01*
X131576642Y-87753571D01*
X131719500Y-87682142D01*
X131862357Y-87539285D01*
X131933785Y-87253571D01*
X131933785Y-86753571D01*
X131862357Y-86467857D01*
X131719500Y-86325000D01*
X131576642Y-86253571D01*
X129505214Y-86325000D02*
X129648071Y-86253571D01*
X129862357Y-86253571D01*
X130076642Y-86325000D01*
X130219500Y-86467857D01*
X130290928Y-86610714D01*
X130362357Y-86896428D01*
X130362357Y-87110714D01*
X130290928Y-87396428D01*
X130219500Y-87539285D01*
X130076642Y-87682142D01*
X129862357Y-87753571D01*
X129719500Y-87753571D01*
X129505214Y-87682142D01*
X129433785Y-87610714D01*
X129433785Y-87110714D01*
X129719500Y-87110714D01*
X128790928Y-87610714D02*
X128719500Y-87682142D01*
X128790928Y-87753571D01*
X128862357Y-87682142D01*
X128790928Y-87610714D01*
X128790928Y-87753571D01*
X128790928Y-86825000D02*
X128719500Y-86896428D01*
X128790928Y-86967857D01*
X128862357Y-86896428D01*
X128790928Y-86825000D01*
X128790928Y-86967857D01*
X126933785Y-86967857D02*
X126433785Y-86967857D01*
X126219500Y-87753571D02*
X126933785Y-87753571D01*
X126933785Y-86253571D01*
X126219500Y-86253571D01*
X125576642Y-86753571D02*
X125576642Y-87753571D01*
X125576642Y-86896428D02*
X125505214Y-86825000D01*
X125362357Y-86753571D01*
X125148071Y-86753571D01*
X125005214Y-86825000D01*
X124933785Y-86967857D01*
X124933785Y-87753571D01*
X123576642Y-87753571D02*
X123576642Y-86967857D01*
X123648071Y-86825000D01*
X123790928Y-86753571D01*
X124076642Y-86753571D01*
X124219500Y-86825000D01*
X123576642Y-87682142D02*
X123719500Y-87753571D01*
X124076642Y-87753571D01*
X124219500Y-87682142D01*
X124290928Y-87539285D01*
X124290928Y-87396428D01*
X124219500Y-87253571D01*
X124076642Y-87182142D01*
X123719500Y-87182142D01*
X123576642Y-87110714D01*
X122862357Y-87753571D02*
X122862357Y-86253571D01*
X122862357Y-86825000D02*
X122719500Y-86753571D01*
X122433785Y-86753571D01*
X122290928Y-86825000D01*
X122219500Y-86896428D01*
X122148071Y-87039285D01*
X122148071Y-87467857D01*
X122219500Y-87610714D01*
X122290928Y-87682142D01*
X122433785Y-87753571D01*
X122719500Y-87753571D01*
X122862357Y-87682142D01*
X121290928Y-87753571D02*
X121433785Y-87682142D01*
X121505214Y-87539285D01*
X121505214Y-86253571D01*
X120148071Y-87682142D02*
X120290928Y-87753571D01*
X120576642Y-87753571D01*
X120719500Y-87682142D01*
X120790928Y-87539285D01*
X120790928Y-86967857D01*
X120719500Y-86825000D01*
X120576642Y-86753571D01*
X120290928Y-86753571D01*
X120148071Y-86825000D01*
X120076642Y-86967857D01*
X120076642Y-87110714D01*
X120790928Y-87253571D01*
X118505214Y-86753571D02*
X117933785Y-86753571D01*
X118290928Y-86253571D02*
X118290928Y-87539285D01*
X118219500Y-87682142D01*
X118076642Y-87753571D01*
X117933785Y-87753571D01*
X117219500Y-87753571D02*
X117362357Y-87682142D01*
X117433785Y-87610714D01*
X117505214Y-87467857D01*
X117505214Y-87039285D01*
X117433785Y-86896428D01*
X117362357Y-86825000D01*
X117219500Y-86753571D01*
X117005214Y-86753571D01*
X116862357Y-86825000D01*
X116790928Y-86896428D01*
X116719500Y-87039285D01*
X116719500Y-87467857D01*
X116790928Y-87610714D01*
X116862357Y-87682142D01*
X117005214Y-87753571D01*
X117219500Y-87753571D01*
X115076642Y-86753571D02*
X114790928Y-87753571D01*
X114505214Y-87039285D01*
X114219500Y-87753571D01*
X113933785Y-86753571D01*
X113362357Y-87753571D02*
X113362357Y-86753571D01*
X113362357Y-87039285D02*
X113290928Y-86896428D01*
X113219500Y-86825000D01*
X113076642Y-86753571D01*
X112933785Y-86753571D01*
X112433785Y-87753571D02*
X112433785Y-86753571D01*
X112433785Y-86253571D02*
X112505214Y-86325000D01*
X112433785Y-86396428D01*
X112362357Y-86325000D01*
X112433785Y-86253571D01*
X112433785Y-86396428D01*
X111933785Y-86753571D02*
X111362357Y-86753571D01*
X111719500Y-86253571D02*
X111719500Y-87539285D01*
X111648071Y-87682142D01*
X111505214Y-87753571D01*
X111362357Y-87753571D01*
X110290928Y-87682142D02*
X110433785Y-87753571D01*
X110719500Y-87753571D01*
X110862357Y-87682142D01*
X110933785Y-87539285D01*
X110933785Y-86967857D01*
X110862357Y-86825000D01*
X110719500Y-86753571D01*
X110433785Y-86753571D01*
X110290928Y-86825000D01*
X110219500Y-86967857D01*
X110219500Y-87110714D01*
X110933785Y-87253571D01*
X108648071Y-86753571D02*
X108076642Y-86753571D01*
X108433785Y-87753571D02*
X108433785Y-86467857D01*
X108362357Y-86325000D01*
X108219500Y-86253571D01*
X108076642Y-86253571D01*
X107362357Y-87753571D02*
X107505214Y-87682142D01*
X107576642Y-87539285D01*
X107576642Y-86253571D01*
X106148071Y-87753571D02*
X106148071Y-86967857D01*
X106219500Y-86825000D01*
X106362357Y-86753571D01*
X106648071Y-86753571D01*
X106790928Y-86825000D01*
X106148071Y-87682142D02*
X106290928Y-87753571D01*
X106648071Y-87753571D01*
X106790928Y-87682142D01*
X106862357Y-87539285D01*
X106862357Y-87396428D01*
X106790928Y-87253571D01*
X106648071Y-87182142D01*
X106290928Y-87182142D01*
X106148071Y-87110714D01*
X105505214Y-87682142D02*
X105362357Y-87753571D01*
X105076642Y-87753571D01*
X104933785Y-87682142D01*
X104862357Y-87539285D01*
X104862357Y-87467857D01*
X104933785Y-87325000D01*
X105076642Y-87253571D01*
X105290928Y-87253571D01*
X105433785Y-87182142D01*
X105505214Y-87039285D01*
X105505214Y-86967857D01*
X105433785Y-86825000D01*
X105290928Y-86753571D01*
X105076642Y-86753571D01*
X104933785Y-86825000D01*
X104219500Y-87753571D02*
X104219500Y-86253571D01*
X103576642Y-87753571D02*
X103576642Y-86967857D01*
X103648071Y-86825000D01*
X103790928Y-86753571D01*
X104005214Y-86753571D01*
X104148071Y-86825000D01*
X104219500Y-86896428D01*
X100862357Y-87753571D02*
X101362357Y-87039285D01*
X101719500Y-87753571D02*
X101719500Y-86253571D01*
X101148071Y-86253571D01*
X101005214Y-86325000D01*
X100933785Y-86396428D01*
X100862357Y-86539285D01*
X100862357Y-86753571D01*
X100933785Y-86896428D01*
X101005214Y-86967857D01*
X101148071Y-87039285D01*
X101719500Y-87039285D01*
X99933785Y-86253571D02*
X99648071Y-86253571D01*
X99505214Y-86325000D01*
X99362357Y-86467857D01*
X99290928Y-86753571D01*
X99290928Y-87253571D01*
X99362357Y-87539285D01*
X99505214Y-87682142D01*
X99648071Y-87753571D01*
X99933785Y-87753571D01*
X100076642Y-87682142D01*
X100219500Y-87539285D01*
X100290928Y-87253571D01*
X100290928Y-86753571D01*
X100219500Y-86467857D01*
X100076642Y-86325000D01*
X99933785Y-86253571D01*
X98648071Y-87753571D02*
X98648071Y-86253571D01*
X98148071Y-87325000D01*
X97648071Y-86253571D01*
X97648071Y-87753571D01*
X134005214Y-90253571D02*
X134505214Y-89539285D01*
X134862357Y-90253571D02*
X134862357Y-88753571D01*
X134290928Y-88753571D01*
X134148071Y-88825000D01*
X134076642Y-88896428D01*
X134005214Y-89039285D01*
X134005214Y-89253571D01*
X134076642Y-89396428D01*
X134148071Y-89467857D01*
X134290928Y-89539285D01*
X134862357Y-89539285D01*
X133433785Y-89825000D02*
X132719500Y-89825000D01*
X133576642Y-90253571D02*
X133076642Y-88753571D01*
X132576642Y-90253571D01*
X132076642Y-90253571D02*
X132076642Y-88753571D01*
X131576642Y-89825000D01*
X131076642Y-88753571D01*
X131076642Y-90253571D01*
X130362357Y-90110714D02*
X130290928Y-90182142D01*
X130362357Y-90253571D01*
X130433785Y-90182142D01*
X130362357Y-90110714D01*
X130362357Y-90253571D01*
X130362357Y-89325000D02*
X130290928Y-89396428D01*
X130362357Y-89467857D01*
X130433785Y-89396428D01*
X130362357Y-89325000D01*
X130362357Y-89467857D01*
X128505214Y-89467857D02*
X128005214Y-89467857D01*
X127790928Y-90253571D02*
X128505214Y-90253571D01*
X128505214Y-88753571D01*
X127790928Y-88753571D01*
X127148071Y-89253571D02*
X127148071Y-90253571D01*
X127148071Y-89396428D02*
X127076642Y-89325000D01*
X126933785Y-89253571D01*
X126719500Y-89253571D01*
X126576642Y-89325000D01*
X126505214Y-89467857D01*
X126505214Y-90253571D01*
X125148071Y-90253571D02*
X125148071Y-89467857D01*
X125219500Y-89325000D01*
X125362357Y-89253571D01*
X125648071Y-89253571D01*
X125790928Y-89325000D01*
X125148071Y-90182142D02*
X125290928Y-90253571D01*
X125648071Y-90253571D01*
X125790928Y-90182142D01*
X125862357Y-90039285D01*
X125862357Y-89896428D01*
X125790928Y-89753571D01*
X125648071Y-89682142D01*
X125290928Y-89682142D01*
X125148071Y-89610714D01*
X124433785Y-90253571D02*
X124433785Y-88753571D01*
X124433785Y-89325000D02*
X124290928Y-89253571D01*
X124005214Y-89253571D01*
X123862357Y-89325000D01*
X123790928Y-89396428D01*
X123719500Y-89539285D01*
X123719500Y-89967857D01*
X123790928Y-90110714D01*
X123862357Y-90182142D01*
X124005214Y-90253571D01*
X124290928Y-90253571D01*
X124433785Y-90182142D01*
X122862357Y-90253571D02*
X123005214Y-90182142D01*
X123076642Y-90039285D01*
X123076642Y-88753571D01*
X121719500Y-90182142D02*
X121862357Y-90253571D01*
X122148071Y-90253571D01*
X122290928Y-90182142D01*
X122362357Y-90039285D01*
X122362357Y-89467857D01*
X122290928Y-89325000D01*
X122148071Y-89253571D01*
X121862357Y-89253571D01*
X121719500Y-89325000D01*
X121648071Y-89467857D01*
X121648071Y-89610714D01*
X122362357Y-89753571D01*
X121076642Y-90182142D02*
X120933785Y-90253571D01*
X120648071Y-90253571D01*
X120505214Y-90182142D01*
X120433785Y-90039285D01*
X120433785Y-89967857D01*
X120505214Y-89825000D01*
X120648071Y-89753571D01*
X120862357Y-89753571D01*
X121005214Y-89682142D01*
X121076642Y-89539285D01*
X121076642Y-89467857D01*
X121005214Y-89325000D01*
X120862357Y-89253571D01*
X120648071Y-89253571D01*
X120505214Y-89325000D01*
X118719500Y-90182142D02*
X118505214Y-90253571D01*
X118148071Y-90253571D01*
X118005214Y-90182142D01*
X117933785Y-90110714D01*
X117862357Y-89967857D01*
X117862357Y-89825000D01*
X117933785Y-89682142D01*
X118005214Y-89610714D01*
X118148071Y-89539285D01*
X118433785Y-89467857D01*
X118576642Y-89396428D01*
X118648071Y-89325000D01*
X118719500Y-89182142D01*
X118719500Y-89039285D01*
X118648071Y-88896428D01*
X118576642Y-88825000D01*
X118433785Y-88753571D01*
X118076642Y-88753571D01*
X117862357Y-88825000D01*
X116362357Y-90253571D02*
X116862357Y-89539285D01*
X117219500Y-90253571D02*
X117219500Y-88753571D01*
X116648071Y-88753571D01*
X116505214Y-88825000D01*
X116433785Y-88896428D01*
X116362357Y-89039285D01*
X116362357Y-89253571D01*
X116433785Y-89396428D01*
X116505214Y-89467857D01*
X116648071Y-89539285D01*
X117219500Y-89539285D01*
X115790928Y-89825000D02*
X115076642Y-89825000D01*
X115933785Y-90253571D02*
X115433785Y-88753571D01*
X114933785Y-90253571D01*
X114433785Y-90253571D02*
X114433785Y-88753571D01*
X113933785Y-89825000D01*
X113433785Y-88753571D01*
X113433785Y-90253571D01*
X110933785Y-90182142D02*
X111076642Y-90253571D01*
X111362357Y-90253571D01*
X111505214Y-90182142D01*
X111576642Y-90110714D01*
X111648071Y-89967857D01*
X111648071Y-89539285D01*
X111576642Y-89396428D01*
X111505214Y-89325000D01*
X111362357Y-89253571D01*
X111076642Y-89253571D01*
X110933785Y-89325000D01*
X110290928Y-90253571D02*
X110290928Y-88753571D01*
X109648071Y-90253571D02*
X109648071Y-89467857D01*
X109719500Y-89325000D01*
X109862357Y-89253571D01*
X110076642Y-89253571D01*
X110219500Y-89325000D01*
X110290928Y-89396428D01*
X108933785Y-90253571D02*
X108933785Y-89253571D01*
X108933785Y-88753571D02*
X109005214Y-88825000D01*
X108933785Y-88896428D01*
X108862357Y-88825000D01*
X108933785Y-88753571D01*
X108933785Y-88896428D01*
X108219500Y-89253571D02*
X108219500Y-90753571D01*
X108219500Y-89325000D02*
X108076642Y-89253571D01*
X107790928Y-89253571D01*
X107648071Y-89325000D01*
X107576642Y-89396428D01*
X107505214Y-89539285D01*
X107505214Y-89967857D01*
X107576642Y-90110714D01*
X107648071Y-90182142D01*
X107790928Y-90253571D01*
X108076642Y-90253571D01*
X108219500Y-90182142D01*
X134362357Y-91967857D02*
X134862357Y-91967857D01*
X134862357Y-92753571D02*
X134862357Y-91253571D01*
X134148071Y-91253571D01*
X132862357Y-92753571D02*
X133576642Y-92753571D01*
X133576642Y-91253571D01*
X132433785Y-92325000D02*
X131719500Y-92325000D01*
X132576642Y-92753571D02*
X132076642Y-91253571D01*
X131576642Y-92753571D01*
X131148071Y-92682142D02*
X130933785Y-92753571D01*
X130576642Y-92753571D01*
X130433785Y-92682142D01*
X130362357Y-92610714D01*
X130290928Y-92467857D01*
X130290928Y-92325000D01*
X130362357Y-92182142D01*
X130433785Y-92110714D01*
X130576642Y-92039285D01*
X130862357Y-91967857D01*
X131005214Y-91896428D01*
X131076642Y-91825000D01*
X131148071Y-91682142D01*
X131148071Y-91539285D01*
X131076642Y-91396428D01*
X131005214Y-91325000D01*
X130862357Y-91253571D01*
X130505214Y-91253571D01*
X130290928Y-91325000D01*
X129648071Y-92753571D02*
X129648071Y-91253571D01*
X129648071Y-91967857D02*
X128790928Y-91967857D01*
X128790928Y-92753571D02*
X128790928Y-91253571D01*
X128076642Y-92610714D02*
X128005214Y-92682142D01*
X128076642Y-92753571D01*
X128148071Y-92682142D01*
X128076642Y-92610714D01*
X128076642Y-92753571D01*
X128076642Y-91825000D02*
X128005214Y-91896428D01*
X128076642Y-91967857D01*
X128148071Y-91896428D01*
X128076642Y-91825000D01*
X128076642Y-91967857D01*
X126219500Y-91967857D02*
X125719500Y-91967857D01*
X125505214Y-92753571D02*
X126219500Y-92753571D01*
X126219500Y-91253571D01*
X125505214Y-91253571D01*
X124862357Y-91753571D02*
X124862357Y-92753571D01*
X124862357Y-91896428D02*
X124790928Y-91825000D01*
X124648071Y-91753571D01*
X124433785Y-91753571D01*
X124290928Y-91825000D01*
X124219500Y-91967857D01*
X124219500Y-92753571D01*
X122862357Y-92753571D02*
X122862357Y-91967857D01*
X122933785Y-91825000D01*
X123076642Y-91753571D01*
X123362357Y-91753571D01*
X123505214Y-91825000D01*
X122862357Y-92682142D02*
X123005214Y-92753571D01*
X123362357Y-92753571D01*
X123505214Y-92682142D01*
X123576642Y-92539285D01*
X123576642Y-92396428D01*
X123505214Y-92253571D01*
X123362357Y-92182142D01*
X123005214Y-92182142D01*
X122862357Y-92110714D01*
X122148071Y-92753571D02*
X122148071Y-91253571D01*
X122148071Y-91825000D02*
X122005214Y-91753571D01*
X121719499Y-91753571D01*
X121576642Y-91825000D01*
X121505214Y-91896428D01*
X121433785Y-92039285D01*
X121433785Y-92467857D01*
X121505214Y-92610714D01*
X121576642Y-92682142D01*
X121719499Y-92753571D01*
X122005214Y-92753571D01*
X122148071Y-92682142D01*
X120576642Y-92753571D02*
X120719499Y-92682142D01*
X120790928Y-92539285D01*
X120790928Y-91253571D01*
X119433785Y-92682142D02*
X119576642Y-92753571D01*
X119862357Y-92753571D01*
X120005214Y-92682142D01*
X120076642Y-92539285D01*
X120076642Y-91967857D01*
X120005214Y-91825000D01*
X119862357Y-91753571D01*
X119576642Y-91753571D01*
X119433785Y-91825000D01*
X119362357Y-91967857D01*
X119362357Y-92110714D01*
X120076642Y-92253571D01*
X118790928Y-92682142D02*
X118648071Y-92753571D01*
X118362357Y-92753571D01*
X118219499Y-92682142D01*
X118148071Y-92539285D01*
X118148071Y-92467857D01*
X118219499Y-92325000D01*
X118362357Y-92253571D01*
X118576642Y-92253571D01*
X118719499Y-92182142D01*
X118790928Y-92039285D01*
X118790928Y-91967857D01*
X118719499Y-91825000D01*
X118576642Y-91753571D01*
X118362357Y-91753571D01*
X118219499Y-91825000D01*
X115862357Y-91967857D02*
X116362357Y-91967857D01*
X116362357Y-92753571D02*
X116362357Y-91253571D01*
X115648071Y-91253571D01*
X114862357Y-92753571D02*
X115005214Y-92682142D01*
X115076642Y-92539285D01*
X115076642Y-91253571D01*
X113648071Y-92753571D02*
X113648071Y-91967857D01*
X113719499Y-91825000D01*
X113862357Y-91753571D01*
X114148071Y-91753571D01*
X114290928Y-91825000D01*
X113648071Y-92682142D02*
X113790928Y-92753571D01*
X114148071Y-92753571D01*
X114290928Y-92682142D01*
X114362357Y-92539285D01*
X114362357Y-92396428D01*
X114290928Y-92253571D01*
X114148071Y-92182142D01*
X113790928Y-92182142D01*
X113648071Y-92110714D01*
X113005214Y-92682142D02*
X112862357Y-92753571D01*
X112576642Y-92753571D01*
X112433785Y-92682142D01*
X112362357Y-92539285D01*
X112362357Y-92467857D01*
X112433785Y-92325000D01*
X112576642Y-92253571D01*
X112790928Y-92253571D01*
X112933785Y-92182142D01*
X113005214Y-92039285D01*
X113005214Y-91967857D01*
X112933785Y-91825000D01*
X112790928Y-91753571D01*
X112576642Y-91753571D01*
X112433785Y-91825000D01*
X111719499Y-92753571D02*
X111719499Y-91253571D01*
X111076642Y-92753571D02*
X111076642Y-91967857D01*
X111148071Y-91825000D01*
X111290928Y-91753571D01*
X111505214Y-91753571D01*
X111648071Y-91825000D01*
X111719499Y-91896428D01*
X108362357Y-92753571D02*
X108862357Y-92039285D01*
X109219499Y-92753571D02*
X109219499Y-91253571D01*
X108648071Y-91253571D01*
X108505214Y-91325000D01*
X108433785Y-91396428D01*
X108362357Y-91539285D01*
X108362357Y-91753571D01*
X108433785Y-91896428D01*
X108505214Y-91967857D01*
X108648071Y-92039285D01*
X109219499Y-92039285D01*
X107433785Y-91253571D02*
X107148071Y-91253571D01*
X107005214Y-91325000D01*
X106862357Y-91467857D01*
X106790928Y-91753571D01*
X106790928Y-92253571D01*
X106862357Y-92539285D01*
X107005214Y-92682142D01*
X107148071Y-92753571D01*
X107433785Y-92753571D01*
X107576642Y-92682142D01*
X107719499Y-92539285D01*
X107790928Y-92253571D01*
X107790928Y-91753571D01*
X107719499Y-91467857D01*
X107576642Y-91325000D01*
X107433785Y-91253571D01*
X106148071Y-92753571D02*
X106148071Y-91253571D01*
X105648071Y-92325000D01*
X105148071Y-91253571D01*
X105148071Y-92753571D01*
X102648071Y-92682142D02*
X102790928Y-92753571D01*
X103076642Y-92753571D01*
X103219499Y-92682142D01*
X103290928Y-92610714D01*
X103362357Y-92467857D01*
X103362357Y-92039285D01*
X103290928Y-91896428D01*
X103219499Y-91825000D01*
X103076642Y-91753571D01*
X102790928Y-91753571D01*
X102648071Y-91825000D01*
X102005214Y-92753571D02*
X102005214Y-91253571D01*
X101362357Y-92753571D02*
X101362357Y-91967857D01*
X101433785Y-91825000D01*
X101576642Y-91753571D01*
X101790928Y-91753571D01*
X101933785Y-91825000D01*
X102005214Y-91896428D01*
X100648071Y-92753571D02*
X100648071Y-91753571D01*
X100648071Y-91253571D02*
X100719499Y-91325000D01*
X100648071Y-91396428D01*
X100576642Y-91325000D01*
X100648071Y-91253571D01*
X100648071Y-91396428D01*
X99933785Y-91753571D02*
X99933785Y-93253571D01*
X99933785Y-91825000D02*
X99790928Y-91753571D01*
X99505214Y-91753571D01*
X99362357Y-91825000D01*
X99290928Y-91896428D01*
X99219499Y-92039285D01*
X99219499Y-92467857D01*
X99290928Y-92610714D01*
X99362357Y-92682142D01*
X99505214Y-92753571D01*
X99790928Y-92753571D01*
X99933785Y-92682142D01*
X135005214Y-93753571D02*
X134005214Y-95253571D01*
X134005214Y-93753571D02*
X135005214Y-95253571D01*
X132576642Y-95253571D02*
X133076642Y-94539285D01*
X133433785Y-95253571D02*
X133433785Y-93753571D01*
X132862357Y-93753571D01*
X132719500Y-93825000D01*
X132648071Y-93896428D01*
X132576642Y-94039285D01*
X132576642Y-94253571D01*
X132648071Y-94396428D01*
X132719500Y-94467857D01*
X132862357Y-94539285D01*
X133433785Y-94539285D01*
X132005214Y-94825000D02*
X131290928Y-94825000D01*
X132148071Y-95253571D02*
X131648071Y-93753571D01*
X131148071Y-95253571D01*
X130648071Y-95253571D02*
X130648071Y-93753571D01*
X130148071Y-94825000D01*
X129648071Y-93753571D01*
X129648071Y-95253571D01*
X128933785Y-95110714D02*
X128862357Y-95182142D01*
X128933785Y-95253571D01*
X129005214Y-95182142D01*
X128933785Y-95110714D01*
X128933785Y-95253571D01*
X128933785Y-94325000D02*
X128862357Y-94396428D01*
X128933785Y-94467857D01*
X129005214Y-94396428D01*
X128933785Y-94325000D01*
X128933785Y-94467857D01*
X127076642Y-94467857D02*
X126576642Y-94467857D01*
X126362357Y-95253571D02*
X127076642Y-95253571D01*
X127076642Y-93753571D01*
X126362357Y-93753571D01*
X125719500Y-94253571D02*
X125719500Y-95253571D01*
X125719500Y-94396428D02*
X125648071Y-94325000D01*
X125505214Y-94253571D01*
X125290928Y-94253571D01*
X125148071Y-94325000D01*
X125076642Y-94467857D01*
X125076642Y-95253571D01*
X123719500Y-95253571D02*
X123719500Y-94467857D01*
X123790928Y-94325000D01*
X123933785Y-94253571D01*
X124219500Y-94253571D01*
X124362357Y-94325000D01*
X123719500Y-95182142D02*
X123862357Y-95253571D01*
X124219500Y-95253571D01*
X124362357Y-95182142D01*
X124433785Y-95039285D01*
X124433785Y-94896428D01*
X124362357Y-94753571D01*
X124219500Y-94682142D01*
X123862357Y-94682142D01*
X123719500Y-94610714D01*
X123005214Y-95253571D02*
X123005214Y-93753571D01*
X123005214Y-94325000D02*
X122862357Y-94253571D01*
X122576642Y-94253571D01*
X122433785Y-94325000D01*
X122362357Y-94396428D01*
X122290928Y-94539285D01*
X122290928Y-94967857D01*
X122362357Y-95110714D01*
X122433785Y-95182142D01*
X122576642Y-95253571D01*
X122862357Y-95253571D01*
X123005214Y-95182142D01*
X121433785Y-95253571D02*
X121576642Y-95182142D01*
X121648071Y-95039285D01*
X121648071Y-93753571D01*
X120290928Y-95182142D02*
X120433785Y-95253571D01*
X120719500Y-95253571D01*
X120862357Y-95182142D01*
X120933785Y-95039285D01*
X120933785Y-94467857D01*
X120862357Y-94325000D01*
X120719500Y-94253571D01*
X120433785Y-94253571D01*
X120290928Y-94325000D01*
X120219500Y-94467857D01*
X120219500Y-94610714D01*
X120933785Y-94753571D01*
X119648071Y-95182142D02*
X119505214Y-95253571D01*
X119219500Y-95253571D01*
X119076642Y-95182142D01*
X119005214Y-95039285D01*
X119005214Y-94967857D01*
X119076642Y-94825000D01*
X119219500Y-94753571D01*
X119433785Y-94753571D01*
X119576642Y-94682142D01*
X119648071Y-94539285D01*
X119648071Y-94467857D01*
X119576642Y-94325000D01*
X119433785Y-94253571D01*
X119219500Y-94253571D01*
X119076642Y-94325000D01*
X117362357Y-93753571D02*
X116362357Y-95253571D01*
X116362357Y-93753571D02*
X117362357Y-95253571D01*
X114933785Y-95253571D02*
X115433785Y-94539285D01*
X115790928Y-95253571D02*
X115790928Y-93753571D01*
X115219500Y-93753571D01*
X115076642Y-93825000D01*
X115005214Y-93896428D01*
X114933785Y-94039285D01*
X114933785Y-94253571D01*
X115005214Y-94396428D01*
X115076642Y-94467857D01*
X115219500Y-94539285D01*
X115790928Y-94539285D01*
X114362357Y-94825000D02*
X113648071Y-94825000D01*
X114505214Y-95253571D02*
X114005214Y-93753571D01*
X113505214Y-95253571D01*
X113005214Y-95253571D02*
X113005214Y-93753571D01*
X112505214Y-94825000D01*
X112005214Y-93753571D01*
X112005214Y-95253571D01*
X109505214Y-95182142D02*
X109648071Y-95253571D01*
X109933785Y-95253571D01*
X110076642Y-95182142D01*
X110148071Y-95110714D01*
X110219500Y-94967857D01*
X110219500Y-94539285D01*
X110148071Y-94396428D01*
X110076642Y-94325000D01*
X109933785Y-94253571D01*
X109648071Y-94253571D01*
X109505214Y-94325000D01*
X108862357Y-95253571D02*
X108862357Y-93753571D01*
X108219500Y-95253571D02*
X108219500Y-94467857D01*
X108290928Y-94325000D01*
X108433785Y-94253571D01*
X108648071Y-94253571D01*
X108790928Y-94325000D01*
X108862357Y-94396428D01*
X107505214Y-95253571D02*
X107505214Y-94253571D01*
X107505214Y-93753571D02*
X107576642Y-93825000D01*
X107505214Y-93896428D01*
X107433785Y-93825000D01*
X107505214Y-93753571D01*
X107505214Y-93896428D01*
X106790928Y-94253571D02*
X106790928Y-95753571D01*
X106790928Y-94325000D02*
X106648071Y-94253571D01*
X106362357Y-94253571D01*
X106219500Y-94325000D01*
X106148071Y-94396428D01*
X106076642Y-94539285D01*
X106076642Y-94967857D01*
X106148071Y-95110714D01*
X106219500Y-95182142D01*
X106362357Y-95253571D01*
X106648071Y-95253571D01*
X106790928Y-95182142D01*
X134362357Y-96967857D02*
X134148071Y-97039285D01*
X134076642Y-97110714D01*
X134005214Y-97253571D01*
X134005214Y-97467857D01*
X134076642Y-97610714D01*
X134148071Y-97682142D01*
X134290928Y-97753571D01*
X134862357Y-97753571D01*
X134862357Y-96253571D01*
X134362357Y-96253571D01*
X134219500Y-96325000D01*
X134148071Y-96396428D01*
X134076642Y-96539285D01*
X134076642Y-96682142D01*
X134148071Y-96825000D01*
X134219500Y-96896428D01*
X134362357Y-96967857D01*
X134862357Y-96967857D01*
X132648071Y-97753571D02*
X133362357Y-97753571D01*
X133362357Y-96253571D01*
X132148071Y-97753571D02*
X132148071Y-96253571D01*
X131290928Y-97753571D02*
X131933785Y-96896428D01*
X131290928Y-96253571D02*
X132148071Y-97110714D01*
X129862357Y-97753571D02*
X130719500Y-97753571D01*
X130290928Y-97753571D02*
X130290928Y-96253571D01*
X130433785Y-96467857D01*
X130576642Y-96610714D01*
X130719500Y-96682142D01*
X128148071Y-96182142D02*
X129433785Y-98110714D01*
X127719500Y-96396428D02*
X127648071Y-96325000D01*
X127505214Y-96253571D01*
X127148071Y-96253571D01*
X127005214Y-96325000D01*
X126933785Y-96396428D01*
X126862357Y-96539285D01*
X126862357Y-96682142D01*
X126933785Y-96896428D01*
X127790928Y-97753571D01*
X126862357Y-97753571D01*
X125148071Y-96182142D02*
X126433785Y-98110714D01*
X124790928Y-96253571D02*
X123862357Y-96253571D01*
X124362357Y-96825000D01*
X124148071Y-96825000D01*
X124005214Y-96896428D01*
X123933785Y-96967857D01*
X123862357Y-97110714D01*
X123862357Y-97467857D01*
X123933785Y-97610714D01*
X124005214Y-97682142D01*
X124148071Y-97753571D01*
X124576642Y-97753571D01*
X124719500Y-97682142D01*
X124790928Y-97610714D01*
X122148071Y-96182142D02*
X123433785Y-98110714D01*
X120933785Y-96253571D02*
X121648071Y-96253571D01*
X121719500Y-96967857D01*
X121648071Y-96896428D01*
X121505214Y-96825000D01*
X121148071Y-96825000D01*
X121005214Y-96896428D01*
X120933785Y-96967857D01*
X120862357Y-97110714D01*
X120862357Y-97467857D01*
X120933785Y-97610714D01*
X121005214Y-97682142D01*
X121148071Y-97753571D01*
X121505214Y-97753571D01*
X121648071Y-97682142D01*
X121719500Y-97610714D01*
X120219500Y-97610714D02*
X120148071Y-97682142D01*
X120219500Y-97753571D01*
X120290928Y-97682142D01*
X120219500Y-97610714D01*
X120219500Y-97753571D01*
X120219500Y-96825000D02*
X120148071Y-96896428D01*
X120219500Y-96967857D01*
X120290928Y-96896428D01*
X120219500Y-96825000D01*
X120219500Y-96967857D01*
X118433785Y-97325000D02*
X117719500Y-97325000D01*
X118576642Y-97753571D02*
X118076642Y-96253571D01*
X117576642Y-97753571D01*
X117148071Y-97682142D02*
X117005214Y-97753571D01*
X116719500Y-97753571D01*
X116576642Y-97682142D01*
X116505214Y-97539285D01*
X116505214Y-97467857D01*
X116576642Y-97325000D01*
X116719500Y-97253571D01*
X116933785Y-97253571D01*
X117076642Y-97182142D01*
X117148071Y-97039285D01*
X117148071Y-96967857D01*
X117076642Y-96825000D01*
X116933785Y-96753571D01*
X116719500Y-96753571D01*
X116576642Y-96825000D01*
X115933785Y-97682142D02*
X115790928Y-97753571D01*
X115505214Y-97753571D01*
X115362357Y-97682142D01*
X115290928Y-97539285D01*
X115290928Y-97467857D01*
X115362357Y-97325000D01*
X115505214Y-97253571D01*
X115719500Y-97253571D01*
X115862357Y-97182142D01*
X115933785Y-97039285D01*
X115933785Y-96967857D01*
X115862357Y-96825000D01*
X115719500Y-96753571D01*
X115505214Y-96753571D01*
X115362357Y-96825000D01*
X114648071Y-97753571D02*
X114648071Y-96753571D01*
X114648071Y-96253571D02*
X114719500Y-96325000D01*
X114648071Y-96396428D01*
X114576642Y-96325000D01*
X114648071Y-96253571D01*
X114648071Y-96396428D01*
X113290928Y-96753571D02*
X113290928Y-97967857D01*
X113362357Y-98110714D01*
X113433785Y-98182142D01*
X113576642Y-98253571D01*
X113790928Y-98253571D01*
X113933785Y-98182142D01*
X113290928Y-97682142D02*
X113433785Y-97753571D01*
X113719500Y-97753571D01*
X113862357Y-97682142D01*
X113933785Y-97610714D01*
X114005214Y-97467857D01*
X114005214Y-97039285D01*
X113933785Y-96896428D01*
X113862357Y-96825000D01*
X113719500Y-96753571D01*
X113433785Y-96753571D01*
X113290928Y-96825000D01*
X112576642Y-96753571D02*
X112576642Y-97753571D01*
X112576642Y-96896428D02*
X112505214Y-96825000D01*
X112362357Y-96753571D01*
X112148071Y-96753571D01*
X112005214Y-96825000D01*
X111933785Y-96967857D01*
X111933785Y-97753571D01*
X109576642Y-96967857D02*
X110076642Y-96967857D01*
X110076642Y-97753571D02*
X110076642Y-96253571D01*
X109362357Y-96253571D01*
X108576642Y-97753571D02*
X108719500Y-97682142D01*
X108790928Y-97539285D01*
X108790928Y-96253571D01*
X107362357Y-97753571D02*
X107362357Y-96967857D01*
X107433785Y-96825000D01*
X107576642Y-96753571D01*
X107862357Y-96753571D01*
X108005214Y-96825000D01*
X107362357Y-97682142D02*
X107505214Y-97753571D01*
X107862357Y-97753571D01*
X108005214Y-97682142D01*
X108076642Y-97539285D01*
X108076642Y-97396428D01*
X108005214Y-97253571D01*
X107862357Y-97182142D01*
X107505214Y-97182142D01*
X107362357Y-97110714D01*
X106719500Y-97682142D02*
X106576642Y-97753571D01*
X106290928Y-97753571D01*
X106148071Y-97682142D01*
X106076642Y-97539285D01*
X106076642Y-97467857D01*
X106148071Y-97325000D01*
X106290928Y-97253571D01*
X106505214Y-97253571D01*
X106648071Y-97182142D01*
X106719500Y-97039285D01*
X106719500Y-96967857D01*
X106648071Y-96825000D01*
X106505214Y-96753571D01*
X106290928Y-96753571D01*
X106148071Y-96825000D01*
X105433785Y-97753571D02*
X105433785Y-96253571D01*
X104790928Y-97753571D02*
X104790928Y-96967857D01*
X104862357Y-96825000D01*
X105005214Y-96753571D01*
X105219500Y-96753571D01*
X105362357Y-96825000D01*
X105433785Y-96896428D01*
X102076642Y-97753571D02*
X102576642Y-97039285D01*
X102933785Y-97753571D02*
X102933785Y-96253571D01*
X102362357Y-96253571D01*
X102219500Y-96325000D01*
X102148071Y-96396428D01*
X102076642Y-96539285D01*
X102076642Y-96753571D01*
X102148071Y-96896428D01*
X102219500Y-96967857D01*
X102362357Y-97039285D01*
X102933785Y-97039285D01*
X101148071Y-96253571D02*
X100862357Y-96253571D01*
X100719500Y-96325000D01*
X100576642Y-96467857D01*
X100505214Y-96753571D01*
X100505214Y-97253571D01*
X100576642Y-97539285D01*
X100719500Y-97682142D01*
X100862357Y-97753571D01*
X101148071Y-97753571D01*
X101290928Y-97682142D01*
X101433785Y-97539285D01*
X101505214Y-97253571D01*
X101505214Y-96753571D01*
X101433785Y-96467857D01*
X101290928Y-96325000D01*
X101148071Y-96253571D01*
X99862357Y-97753571D02*
X99862357Y-96253571D01*
X99362357Y-97325000D01*
X98862357Y-96253571D01*
X98862357Y-97753571D01*
D10*
X128008428Y-76005833D02*
X127413190Y-76005833D01*
X128127476Y-76362976D02*
X127710809Y-75112976D01*
X127294142Y-76362976D01*
X126222714Y-76362976D02*
X126937000Y-76362976D01*
X126579857Y-76362976D02*
X126579857Y-75112976D01*
X126698904Y-75291547D01*
X126817952Y-75410595D01*
X126937000Y-75470119D01*
X125806047Y-75112976D02*
X125032238Y-75112976D01*
X125448904Y-75589166D01*
X125270333Y-75589166D01*
X125151285Y-75648690D01*
X125091761Y-75708214D01*
X125032238Y-75827261D01*
X125032238Y-76124880D01*
X125091761Y-76243928D01*
X125151285Y-76303452D01*
X125270333Y-76362976D01*
X125627476Y-76362976D01*
X125746523Y-76303452D01*
X125806047Y-76243928D01*
X124496523Y-75886785D02*
X123544142Y-75886785D01*
X123008428Y-76005833D02*
X122413190Y-76005833D01*
X123127476Y-76362976D02*
X122710809Y-75112976D01*
X122294142Y-76362976D01*
X121222714Y-76362976D02*
X121937000Y-76362976D01*
X121579857Y-76362976D02*
X121579857Y-75112976D01*
X121698904Y-75291547D01*
X121817952Y-75410595D01*
X121937000Y-75470119D01*
X120508428Y-75648690D02*
X120627476Y-75589166D01*
X120687000Y-75529642D01*
X120746523Y-75410595D01*
X120746523Y-75351071D01*
X120687000Y-75232023D01*
X120627476Y-75172500D01*
X120508428Y-75112976D01*
X120270333Y-75112976D01*
X120151285Y-75172500D01*
X120091761Y-75232023D01*
X120032238Y-75351071D01*
X120032238Y-75410595D01*
X120091761Y-75529642D01*
X120151285Y-75589166D01*
X120270333Y-75648690D01*
X120508428Y-75648690D01*
X120627476Y-75708214D01*
X120687000Y-75767738D01*
X120746523Y-75886785D01*
X120746523Y-76124880D01*
X120687000Y-76243928D01*
X120627476Y-76303452D01*
X120508428Y-76362976D01*
X120270333Y-76362976D01*
X120151285Y-76303452D01*
X120091761Y-76243928D01*
X120032238Y-76124880D01*
X120032238Y-75886785D01*
X120091761Y-75767738D01*
X120151285Y-75708214D01*
X120270333Y-75648690D01*
X119496523Y-76243928D02*
X119437000Y-76303452D01*
X119496523Y-76362976D01*
X119556047Y-76303452D01*
X119496523Y-76243928D01*
X119496523Y-76362976D01*
X119496523Y-75589166D02*
X119437000Y-75648690D01*
X119496523Y-75708214D01*
X119556047Y-75648690D01*
X119496523Y-75589166D01*
X119496523Y-75708214D01*
X118008428Y-76303452D02*
X117829857Y-76362976D01*
X117532238Y-76362976D01*
X117413190Y-76303452D01*
X117353666Y-76243928D01*
X117294142Y-76124880D01*
X117294142Y-76005833D01*
X117353666Y-75886785D01*
X117413190Y-75827261D01*
X117532238Y-75767738D01*
X117770333Y-75708214D01*
X117889380Y-75648690D01*
X117948904Y-75589166D01*
X118008428Y-75470119D01*
X118008428Y-75351071D01*
X117948904Y-75232023D01*
X117889380Y-75172500D01*
X117770333Y-75112976D01*
X117472714Y-75112976D01*
X117294142Y-75172500D01*
X116282238Y-76303452D02*
X116401285Y-76362976D01*
X116639380Y-76362976D01*
X116758428Y-76303452D01*
X116817952Y-76184404D01*
X116817952Y-75708214D01*
X116758428Y-75589166D01*
X116639380Y-75529642D01*
X116401285Y-75529642D01*
X116282238Y-75589166D01*
X116222714Y-75708214D01*
X116222714Y-75827261D01*
X116817952Y-75946309D01*
X115508428Y-76362976D02*
X115627476Y-76303452D01*
X115687000Y-76184404D01*
X115687000Y-75112976D01*
X114556047Y-76303452D02*
X114675095Y-76362976D01*
X114913190Y-76362976D01*
X115032238Y-76303452D01*
X115091761Y-76184404D01*
X115091761Y-75708214D01*
X115032238Y-75589166D01*
X114913190Y-75529642D01*
X114675095Y-75529642D01*
X114556047Y-75589166D01*
X114496523Y-75708214D01*
X114496523Y-75827261D01*
X115091761Y-75946309D01*
X113425095Y-76303452D02*
X113544142Y-76362976D01*
X113782238Y-76362976D01*
X113901285Y-76303452D01*
X113960809Y-76243928D01*
X114020333Y-76124880D01*
X114020333Y-75767738D01*
X113960809Y-75648690D01*
X113901285Y-75589166D01*
X113782238Y-75529642D01*
X113544142Y-75529642D01*
X113425095Y-75589166D01*
X113067952Y-75529642D02*
X112591761Y-75529642D01*
X112889380Y-75112976D02*
X112889380Y-76184404D01*
X112829857Y-76303452D01*
X112710809Y-76362976D01*
X112591761Y-76362976D01*
X111044142Y-75648690D02*
X111163190Y-75589166D01*
X111222714Y-75529642D01*
X111282238Y-75410595D01*
X111282238Y-75351071D01*
X111222714Y-75232023D01*
X111163190Y-75172500D01*
X111044142Y-75112976D01*
X110806047Y-75112976D01*
X110687000Y-75172500D01*
X110627476Y-75232023D01*
X110567952Y-75351071D01*
X110567952Y-75410595D01*
X110627476Y-75529642D01*
X110687000Y-75589166D01*
X110806047Y-75648690D01*
X111044142Y-75648690D01*
X111163190Y-75708214D01*
X111222714Y-75767738D01*
X111282238Y-75886785D01*
X111282238Y-76124880D01*
X111222714Y-76243928D01*
X111163190Y-76303452D01*
X111044142Y-76362976D01*
X110806047Y-76362976D01*
X110687000Y-76303452D01*
X110627476Y-76243928D01*
X110567952Y-76124880D01*
X110567952Y-75886785D01*
X110627476Y-75767738D01*
X110687000Y-75708214D01*
X110806047Y-75648690D01*
X110032238Y-76362976D02*
X110032238Y-75112976D01*
X109317952Y-76362976D02*
X109853666Y-75648690D01*
X109317952Y-75112976D02*
X110032238Y-75827261D01*
X108365571Y-75708214D02*
X108187000Y-75767738D01*
X108127476Y-75827261D01*
X108067952Y-75946309D01*
X108067952Y-76124880D01*
X108127476Y-76243928D01*
X108187000Y-76303452D01*
X108306047Y-76362976D01*
X108782238Y-76362976D01*
X108782238Y-75112976D01*
X108365571Y-75112976D01*
X108246523Y-75172500D01*
X108187000Y-75232023D01*
X108127476Y-75351071D01*
X108127476Y-75470119D01*
X108187000Y-75589166D01*
X108246523Y-75648690D01*
X108365571Y-75708214D01*
X108782238Y-75708214D01*
X106579857Y-76362976D02*
X106579857Y-75112976D01*
X106579857Y-75589166D02*
X106460809Y-75529642D01*
X106222714Y-75529642D01*
X106103666Y-75589166D01*
X106044142Y-75648690D01*
X105984619Y-75767738D01*
X105984619Y-76124880D01*
X106044142Y-76243928D01*
X106103666Y-76303452D01*
X106222714Y-76362976D01*
X106460809Y-76362976D01*
X106579857Y-76303452D01*
X105270333Y-76362976D02*
X105389380Y-76303452D01*
X105448904Y-76184404D01*
X105448904Y-75112976D01*
X104615571Y-76362976D02*
X104734619Y-76303452D01*
X104794142Y-76243928D01*
X104853666Y-76124880D01*
X104853666Y-75767738D01*
X104794142Y-75648690D01*
X104734619Y-75589166D01*
X104615571Y-75529642D01*
X104437000Y-75529642D01*
X104317952Y-75589166D01*
X104258428Y-75648690D01*
X104198904Y-75767738D01*
X104198904Y-76124880D01*
X104258428Y-76243928D01*
X104317952Y-76303452D01*
X104437000Y-76362976D01*
X104615571Y-76362976D01*
X103127476Y-76303452D02*
X103246523Y-76362976D01*
X103484619Y-76362976D01*
X103603666Y-76303452D01*
X103663190Y-76243928D01*
X103722714Y-76124880D01*
X103722714Y-75767738D01*
X103663190Y-75648690D01*
X103603666Y-75589166D01*
X103484619Y-75529642D01*
X103246523Y-75529642D01*
X103127476Y-75589166D01*
X102591761Y-76362976D02*
X102591761Y-75112976D01*
X102472714Y-75886785D02*
X102115571Y-76362976D01*
X102115571Y-75529642D02*
X102591761Y-76005833D01*
X125210809Y-77604642D02*
X124734619Y-77604642D01*
X125032238Y-78437976D02*
X125032238Y-77366547D01*
X124972714Y-77247500D01*
X124853666Y-77187976D01*
X124734619Y-77187976D01*
X124139380Y-78437976D02*
X124258428Y-78378452D01*
X124317952Y-78318928D01*
X124377476Y-78199880D01*
X124377476Y-77842738D01*
X124317952Y-77723690D01*
X124258428Y-77664166D01*
X124139380Y-77604642D01*
X123960809Y-77604642D01*
X123841761Y-77664166D01*
X123782238Y-77723690D01*
X123722714Y-77842738D01*
X123722714Y-78199880D01*
X123782238Y-78318928D01*
X123841761Y-78378452D01*
X123960809Y-78437976D01*
X124139380Y-78437976D01*
X123187000Y-78437976D02*
X123187000Y-77604642D01*
X123187000Y-77842738D02*
X123127476Y-77723690D01*
X123067952Y-77664166D01*
X122948904Y-77604642D01*
X122829857Y-77604642D01*
X121044142Y-77783214D02*
X121460809Y-77783214D01*
X121460809Y-78437976D02*
X121460809Y-77187976D01*
X120865571Y-77187976D01*
X120210809Y-78437976D02*
X120329857Y-78378452D01*
X120389380Y-78259404D01*
X120389380Y-77187976D01*
X119198904Y-78437976D02*
X119198904Y-77783214D01*
X119258428Y-77664166D01*
X119377476Y-77604642D01*
X119615571Y-77604642D01*
X119734619Y-77664166D01*
X119198904Y-78378452D02*
X119317952Y-78437976D01*
X119615571Y-78437976D01*
X119734619Y-78378452D01*
X119794142Y-78259404D01*
X119794142Y-78140357D01*
X119734619Y-78021309D01*
X119615571Y-77961785D01*
X119317952Y-77961785D01*
X119198904Y-77902261D01*
X118663190Y-78378452D02*
X118544142Y-78437976D01*
X118306047Y-78437976D01*
X118187000Y-78378452D01*
X118127476Y-78259404D01*
X118127476Y-78199880D01*
X118187000Y-78080833D01*
X118306047Y-78021309D01*
X118484619Y-78021309D01*
X118603666Y-77961785D01*
X118663190Y-77842738D01*
X118663190Y-77783214D01*
X118603666Y-77664166D01*
X118484619Y-77604642D01*
X118306047Y-77604642D01*
X118187000Y-77664166D01*
X117591761Y-78437976D02*
X117591761Y-77187976D01*
X117056047Y-78437976D02*
X117056047Y-77783214D01*
X117115571Y-77664166D01*
X117234619Y-77604642D01*
X117413190Y-77604642D01*
X117532238Y-77664166D01*
X117591761Y-77723690D01*
X114794142Y-78437976D02*
X115210809Y-77842738D01*
X115508428Y-78437976D02*
X115508428Y-77187976D01*
X115032238Y-77187976D01*
X114913190Y-77247500D01*
X114853666Y-77307023D01*
X114794142Y-77426071D01*
X114794142Y-77604642D01*
X114853666Y-77723690D01*
X114913190Y-77783214D01*
X115032238Y-77842738D01*
X115508428Y-77842738D01*
X114020333Y-77187976D02*
X113782238Y-77187976D01*
X113663190Y-77247500D01*
X113544142Y-77366547D01*
X113484619Y-77604642D01*
X113484619Y-78021309D01*
X113544142Y-78259404D01*
X113663190Y-78378452D01*
X113782238Y-78437976D01*
X114020333Y-78437976D01*
X114139380Y-78378452D01*
X114258428Y-78259404D01*
X114317952Y-78021309D01*
X114317952Y-77604642D01*
X114258428Y-77366547D01*
X114139380Y-77247500D01*
X114020333Y-77187976D01*
X112948904Y-78437976D02*
X112948904Y-77187976D01*
X112532238Y-78080833D01*
X112115571Y-77187976D01*
X112115571Y-78437976D01*
X109972714Y-77187976D02*
X110567952Y-77187976D01*
X110627476Y-77783214D01*
X110567952Y-77723690D01*
X110448904Y-77664166D01*
X110151285Y-77664166D01*
X110032238Y-77723690D01*
X109972714Y-77783214D01*
X109913190Y-77902261D01*
X109913190Y-78199880D01*
X109972714Y-78318928D01*
X110032238Y-78378452D01*
X110151285Y-78437976D01*
X110448904Y-78437976D01*
X110567952Y-78378452D01*
X110627476Y-78318928D01*
X108722714Y-78437976D02*
X109437000Y-78437976D01*
X109079857Y-78437976D02*
X109079857Y-77187976D01*
X109198904Y-77366547D01*
X109317952Y-77485595D01*
X109437000Y-77545119D01*
X108246523Y-77307023D02*
X108187000Y-77247500D01*
X108067952Y-77187976D01*
X107770333Y-77187976D01*
X107651285Y-77247500D01*
X107591761Y-77307023D01*
X107532238Y-77426071D01*
X107532238Y-77545119D01*
X107591761Y-77723690D01*
X108306047Y-78437976D01*
X107532238Y-78437976D01*
X106996523Y-78437976D02*
X106996523Y-77187976D01*
X106282238Y-78437976D02*
X106817952Y-77723690D01*
X106282238Y-77187976D02*
X106996523Y-77902261D01*
X105329857Y-77783214D02*
X105151285Y-77842738D01*
X105091761Y-77902261D01*
X105032238Y-78021309D01*
X105032238Y-78199880D01*
X105091761Y-78318928D01*
X105151285Y-78378452D01*
X105270333Y-78437976D01*
X105746523Y-78437976D01*
X105746523Y-77187976D01*
X105329857Y-77187976D01*
X105210809Y-77247500D01*
X105151285Y-77307023D01*
X105091761Y-77426071D01*
X105091761Y-77545119D01*
X105151285Y-77664166D01*
X105210809Y-77723690D01*
X105329857Y-77783214D01*
X105746523Y-77783214D01*
D12*
X186567214Y-86273571D02*
X185638642Y-86273571D01*
X186138642Y-86845000D01*
X185924357Y-86845000D01*
X185781500Y-86916428D01*
X185710071Y-86987857D01*
X185638642Y-87130714D01*
X185638642Y-87487857D01*
X185710071Y-87630714D01*
X185781500Y-87702142D01*
X185924357Y-87773571D01*
X186352928Y-87773571D01*
X186495785Y-87702142D01*
X186567214Y-87630714D01*
X184995785Y-87773571D02*
X184995785Y-86273571D01*
X184138642Y-87773571D02*
X184781500Y-86916428D01*
X184138642Y-86273571D02*
X184995785Y-87130714D01*
X182995785Y-86987857D02*
X182781500Y-87059285D01*
X182710071Y-87130714D01*
X182638642Y-87273571D01*
X182638642Y-87487857D01*
X182710071Y-87630714D01*
X182781500Y-87702142D01*
X182924357Y-87773571D01*
X183495785Y-87773571D01*
X183495785Y-86273571D01*
X182995785Y-86273571D01*
X182852928Y-86345000D01*
X182781500Y-86416428D01*
X182710071Y-86559285D01*
X182710071Y-86702142D01*
X182781500Y-86845000D01*
X182852928Y-86916428D01*
X182995785Y-86987857D01*
X183495785Y-86987857D01*
X181995785Y-87630714D02*
X181924357Y-87702142D01*
X181995785Y-87773571D01*
X182067214Y-87702142D01*
X181995785Y-87630714D01*
X181995785Y-87773571D01*
X181995785Y-86845000D02*
X181924357Y-86916428D01*
X181995785Y-86987857D01*
X182067214Y-86916428D01*
X181995785Y-86845000D01*
X181995785Y-86987857D01*
X180138642Y-86987857D02*
X179638642Y-86987857D01*
X179424357Y-87773571D02*
X180138642Y-87773571D01*
X180138642Y-86273571D01*
X179424357Y-86273571D01*
X178781500Y-86773571D02*
X178781500Y-87773571D01*
X178781500Y-86916428D02*
X178710071Y-86845000D01*
X178567214Y-86773571D01*
X178352928Y-86773571D01*
X178210071Y-86845000D01*
X178138642Y-86987857D01*
X178138642Y-87773571D01*
X176781500Y-87773571D02*
X176781500Y-86987857D01*
X176852928Y-86845000D01*
X176995785Y-86773571D01*
X177281500Y-86773571D01*
X177424357Y-86845000D01*
X176781500Y-87702142D02*
X176924357Y-87773571D01*
X177281500Y-87773571D01*
X177424357Y-87702142D01*
X177495785Y-87559285D01*
X177495785Y-87416428D01*
X177424357Y-87273571D01*
X177281500Y-87202142D01*
X176924357Y-87202142D01*
X176781500Y-87130714D01*
X176067214Y-87773571D02*
X176067214Y-86273571D01*
X176067214Y-86845000D02*
X175924357Y-86773571D01*
X175638642Y-86773571D01*
X175495785Y-86845000D01*
X175424357Y-86916428D01*
X175352928Y-87059285D01*
X175352928Y-87487857D01*
X175424357Y-87630714D01*
X175495785Y-87702142D01*
X175638642Y-87773571D01*
X175924357Y-87773571D01*
X176067214Y-87702142D01*
X174495785Y-87773571D02*
X174638642Y-87702142D01*
X174710071Y-87559285D01*
X174710071Y-86273571D01*
X173352928Y-87702142D02*
X173495785Y-87773571D01*
X173781500Y-87773571D01*
X173924357Y-87702142D01*
X173995785Y-87559285D01*
X173995785Y-86987857D01*
X173924357Y-86845000D01*
X173781500Y-86773571D01*
X173495785Y-86773571D01*
X173352928Y-86845000D01*
X173281500Y-86987857D01*
X173281500Y-87130714D01*
X173995785Y-87273571D01*
X171567214Y-87702142D02*
X171352928Y-87773571D01*
X170995785Y-87773571D01*
X170852928Y-87702142D01*
X170781500Y-87630714D01*
X170710071Y-87487857D01*
X170710071Y-87345000D01*
X170781500Y-87202142D01*
X170852928Y-87130714D01*
X170995785Y-87059285D01*
X171281500Y-86987857D01*
X171424357Y-86916428D01*
X171495785Y-86845000D01*
X171567214Y-86702142D01*
X171567214Y-86559285D01*
X171495785Y-86416428D01*
X171424357Y-86345000D01*
X171281500Y-86273571D01*
X170924357Y-86273571D01*
X170710071Y-86345000D01*
X171138642Y-86059285D02*
X171138642Y-87987857D01*
X169781499Y-86273571D02*
X169638642Y-86273571D01*
X169495785Y-86345000D01*
X169424357Y-86416428D01*
X169352928Y-86559285D01*
X169281500Y-86845000D01*
X169281500Y-87202142D01*
X169352928Y-87487857D01*
X169424357Y-87630714D01*
X169495785Y-87702142D01*
X169638642Y-87773571D01*
X169781499Y-87773571D01*
X169924357Y-87702142D01*
X169995785Y-87630714D01*
X170067214Y-87487857D01*
X170138642Y-87202142D01*
X170138642Y-86845000D01*
X170067214Y-86559285D01*
X169995785Y-86416428D01*
X169924357Y-86345000D01*
X169781499Y-86273571D01*
X167995785Y-86773571D02*
X167995785Y-87773571D01*
X168352928Y-86202142D02*
X168710071Y-87273571D01*
X167781499Y-87273571D01*
X166924357Y-86273571D02*
X166781499Y-86273571D01*
X166638642Y-86345000D01*
X166567214Y-86416428D01*
X166495785Y-86559285D01*
X166424357Y-86845000D01*
X166424357Y-87202142D01*
X166495785Y-87487857D01*
X166567214Y-87630714D01*
X166638642Y-87702142D01*
X166781499Y-87773571D01*
X166924357Y-87773571D01*
X167067214Y-87702142D01*
X167138642Y-87630714D01*
X167210071Y-87487857D01*
X167281499Y-87202142D01*
X167281499Y-86845000D01*
X167210071Y-86559285D01*
X167138642Y-86416428D01*
X167067214Y-86345000D01*
X166924357Y-86273571D01*
X165495785Y-86273571D02*
X165352928Y-86273571D01*
X165210071Y-86345000D01*
X165138642Y-86416428D01*
X165067214Y-86559285D01*
X164995785Y-86845000D01*
X164995785Y-87202142D01*
X165067214Y-87487857D01*
X165138642Y-87630714D01*
X165210071Y-87702142D01*
X165352928Y-87773571D01*
X165495785Y-87773571D01*
X165638642Y-87702142D01*
X165710071Y-87630714D01*
X165781499Y-87487857D01*
X165852928Y-87202142D01*
X165852928Y-86845000D01*
X165781499Y-86559285D01*
X165710071Y-86416428D01*
X165638642Y-86345000D01*
X165495785Y-86273571D01*
X162352928Y-87773571D02*
X162852928Y-87059285D01*
X163210071Y-87773571D02*
X163210071Y-86273571D01*
X162638642Y-86273571D01*
X162495785Y-86345000D01*
X162424357Y-86416428D01*
X162352928Y-86559285D01*
X162352928Y-86773571D01*
X162424357Y-86916428D01*
X162495785Y-86987857D01*
X162638642Y-87059285D01*
X163210071Y-87059285D01*
X161781499Y-87345000D02*
X161067214Y-87345000D01*
X161924357Y-87773571D02*
X161424357Y-86273571D01*
X160924357Y-87773571D01*
X160424357Y-87773571D02*
X160424357Y-86273571D01*
X159924357Y-87345000D01*
X159424357Y-86273571D01*
X159424357Y-87773571D01*
X185924357Y-89487857D02*
X185710071Y-89559285D01*
X185638642Y-89630714D01*
X185567214Y-89773571D01*
X185567214Y-89987857D01*
X185638642Y-90130714D01*
X185710071Y-90202142D01*
X185852928Y-90273571D01*
X186424357Y-90273571D01*
X186424357Y-88773571D01*
X185924357Y-88773571D01*
X185781500Y-88845000D01*
X185710071Y-88916428D01*
X185638642Y-89059285D01*
X185638642Y-89202142D01*
X185710071Y-89345000D01*
X185781500Y-89416428D01*
X185924357Y-89487857D01*
X186424357Y-89487857D01*
X184210071Y-90273571D02*
X184924357Y-90273571D01*
X184924357Y-88773571D01*
X183710071Y-90273571D02*
X183710071Y-88773571D01*
X182852928Y-90273571D02*
X183495785Y-89416428D01*
X182852928Y-88773571D02*
X183710071Y-89630714D01*
X181424357Y-90273571D02*
X182281500Y-90273571D01*
X181852928Y-90273571D02*
X181852928Y-88773571D01*
X181995785Y-88987857D01*
X182138642Y-89130714D01*
X182281500Y-89202142D01*
X179710071Y-88702142D02*
X180995785Y-90630714D01*
X178710071Y-89487857D02*
X178495785Y-89559285D01*
X178424357Y-89630714D01*
X178352928Y-89773571D01*
X178352928Y-89987857D01*
X178424357Y-90130714D01*
X178495785Y-90202142D01*
X178638642Y-90273571D01*
X179210071Y-90273571D01*
X179210071Y-88773571D01*
X178710071Y-88773571D01*
X178567214Y-88845000D01*
X178495785Y-88916428D01*
X178424357Y-89059285D01*
X178424357Y-89202142D01*
X178495785Y-89345000D01*
X178567214Y-89416428D01*
X178710071Y-89487857D01*
X179210071Y-89487857D01*
X176995785Y-90273571D02*
X177710071Y-90273571D01*
X177710071Y-88773571D01*
X176495785Y-90273571D02*
X176495785Y-88773571D01*
X175638642Y-90273571D02*
X176281499Y-89416428D01*
X175638642Y-88773571D02*
X176495785Y-89630714D01*
X175067214Y-88916428D02*
X174995785Y-88845000D01*
X174852928Y-88773571D01*
X174495785Y-88773571D01*
X174352928Y-88845000D01*
X174281499Y-88916428D01*
X174210071Y-89059285D01*
X174210071Y-89202142D01*
X174281499Y-89416428D01*
X175138642Y-90273571D01*
X174210071Y-90273571D01*
X172495785Y-88702142D02*
X173781500Y-90630714D01*
X171495785Y-89487857D02*
X171281500Y-89559285D01*
X171210071Y-89630714D01*
X171138642Y-89773571D01*
X171138642Y-89987857D01*
X171210071Y-90130714D01*
X171281500Y-90202142D01*
X171424357Y-90273571D01*
X171995785Y-90273571D01*
X171995785Y-88773571D01*
X171495785Y-88773571D01*
X171352928Y-88845000D01*
X171281500Y-88916428D01*
X171210071Y-89059285D01*
X171210071Y-89202142D01*
X171281500Y-89345000D01*
X171352928Y-89416428D01*
X171495785Y-89487857D01*
X171995785Y-89487857D01*
X169781500Y-90273571D02*
X170495785Y-90273571D01*
X170495785Y-88773571D01*
X169281500Y-90273571D02*
X169281500Y-88773571D01*
X168424357Y-90273571D02*
X169067214Y-89416428D01*
X168424357Y-88773571D02*
X169281500Y-89630714D01*
X167924357Y-88773571D02*
X166995785Y-88773571D01*
X167495785Y-89345000D01*
X167281500Y-89345000D01*
X167138642Y-89416428D01*
X167067214Y-89487857D01*
X166995785Y-89630714D01*
X166995785Y-89987857D01*
X167067214Y-90130714D01*
X167138642Y-90202142D01*
X167281500Y-90273571D01*
X167710071Y-90273571D01*
X167852928Y-90202142D01*
X167924357Y-90130714D01*
X166352928Y-90130714D02*
X166281500Y-90202142D01*
X166352928Y-90273571D01*
X166424357Y-90202142D01*
X166352928Y-90130714D01*
X166352928Y-90273571D01*
X166352928Y-89345000D02*
X166281500Y-89416428D01*
X166352928Y-89487857D01*
X166424357Y-89416428D01*
X166352928Y-89345000D01*
X166352928Y-89487857D01*
X164495785Y-89487857D02*
X163995785Y-89487857D01*
X163781500Y-90273571D02*
X164495785Y-90273571D01*
X164495785Y-88773571D01*
X163781500Y-88773571D01*
X163138642Y-89273571D02*
X163138642Y-90273571D01*
X163138642Y-89416428D02*
X163067214Y-89345000D01*
X162924357Y-89273571D01*
X162710071Y-89273571D01*
X162567214Y-89345000D01*
X162495785Y-89487857D01*
X162495785Y-90273571D01*
X161138642Y-90273571D02*
X161138642Y-89487857D01*
X161210071Y-89345000D01*
X161352928Y-89273571D01*
X161638642Y-89273571D01*
X161781500Y-89345000D01*
X161138642Y-90202142D02*
X161281500Y-90273571D01*
X161638642Y-90273571D01*
X161781500Y-90202142D01*
X161852928Y-90059285D01*
X161852928Y-89916428D01*
X161781500Y-89773571D01*
X161638642Y-89702142D01*
X161281500Y-89702142D01*
X161138642Y-89630714D01*
X160424357Y-90273571D02*
X160424357Y-88773571D01*
X160424357Y-89345000D02*
X160281500Y-89273571D01*
X159995785Y-89273571D01*
X159852928Y-89345000D01*
X159781500Y-89416428D01*
X159710071Y-89559285D01*
X159710071Y-89987857D01*
X159781500Y-90130714D01*
X159852928Y-90202142D01*
X159995785Y-90273571D01*
X160281500Y-90273571D01*
X160424357Y-90202142D01*
X158852928Y-90273571D02*
X158995785Y-90202142D01*
X159067214Y-90059285D01*
X159067214Y-88773571D01*
X157710071Y-90202142D02*
X157852928Y-90273571D01*
X158138642Y-90273571D01*
X158281499Y-90202142D01*
X158352928Y-90059285D01*
X158352928Y-89487857D01*
X158281499Y-89345000D01*
X158138642Y-89273571D01*
X157852928Y-89273571D01*
X157710071Y-89345000D01*
X157638642Y-89487857D01*
X157638642Y-89630714D01*
X158352928Y-89773571D01*
X155638642Y-89416428D02*
X155781499Y-89345000D01*
X155852928Y-89273571D01*
X155924357Y-89130714D01*
X155924357Y-89059285D01*
X155852928Y-88916428D01*
X155781499Y-88845000D01*
X155638642Y-88773571D01*
X155352928Y-88773571D01*
X155210071Y-88845000D01*
X155138642Y-88916428D01*
X155067214Y-89059285D01*
X155067214Y-89130714D01*
X155138642Y-89273571D01*
X155210071Y-89345000D01*
X155352928Y-89416428D01*
X155638642Y-89416428D01*
X155781499Y-89487857D01*
X155852928Y-89559285D01*
X155924357Y-89702142D01*
X155924357Y-89987857D01*
X155852928Y-90130714D01*
X155781499Y-90202142D01*
X155638642Y-90273571D01*
X155352928Y-90273571D01*
X155210071Y-90202142D01*
X155138642Y-90130714D01*
X155067214Y-89987857D01*
X155067214Y-89702142D01*
X155138642Y-89559285D01*
X155210071Y-89487857D01*
X155352928Y-89416428D01*
X154424357Y-90273571D02*
X154424357Y-88773571D01*
X153567214Y-90273571D02*
X154210071Y-89416428D01*
X153567214Y-88773571D02*
X154424357Y-89630714D01*
X152424357Y-89487857D02*
X152210071Y-89559285D01*
X152138642Y-89630714D01*
X152067214Y-89773571D01*
X152067214Y-89987857D01*
X152138642Y-90130714D01*
X152210071Y-90202142D01*
X152352928Y-90273571D01*
X152924357Y-90273571D01*
X152924357Y-88773571D01*
X152424357Y-88773571D01*
X152281499Y-88845000D01*
X152210071Y-88916428D01*
X152138642Y-89059285D01*
X152138642Y-89202142D01*
X152210071Y-89345000D01*
X152281499Y-89416428D01*
X152424357Y-89487857D01*
X152924357Y-89487857D01*
X149424357Y-90273571D02*
X149924357Y-89559285D01*
X150281499Y-90273571D02*
X150281499Y-88773571D01*
X149710071Y-88773571D01*
X149567214Y-88845000D01*
X149495785Y-88916428D01*
X149424357Y-89059285D01*
X149424357Y-89273571D01*
X149495785Y-89416428D01*
X149567214Y-89487857D01*
X149710071Y-89559285D01*
X150281499Y-89559285D01*
X148852928Y-89845000D02*
X148138642Y-89845000D01*
X148995785Y-90273571D02*
X148495785Y-88773571D01*
X147995785Y-90273571D01*
X147495785Y-90273571D02*
X147495785Y-88773571D01*
X146995785Y-89845000D01*
X146495785Y-88773571D01*
X146495785Y-90273571D01*
X144067214Y-90202142D02*
X144210071Y-90273571D01*
X144495785Y-90273571D01*
X144638642Y-90202142D01*
X144710071Y-90059285D01*
X144710071Y-89487857D01*
X144638642Y-89345000D01*
X144495785Y-89273571D01*
X144210071Y-89273571D01*
X144067214Y-89345000D01*
X143995785Y-89487857D01*
X143995785Y-89630714D01*
X144710071Y-89773571D01*
X142710071Y-90273571D02*
X142710071Y-89487857D01*
X142781499Y-89345000D01*
X142924357Y-89273571D01*
X143210071Y-89273571D01*
X143352928Y-89345000D01*
X142710071Y-90202142D02*
X142852928Y-90273571D01*
X143210071Y-90273571D01*
X143352928Y-90202142D01*
X143424357Y-90059285D01*
X143424357Y-89916428D01*
X143352928Y-89773571D01*
X143210071Y-89702142D01*
X142852928Y-89702142D01*
X142710071Y-89630714D01*
X141352928Y-90202142D02*
X141495785Y-90273571D01*
X141781499Y-90273571D01*
X141924357Y-90202142D01*
X141995785Y-90130714D01*
X142067214Y-89987857D01*
X142067214Y-89559285D01*
X141995785Y-89416428D01*
X141924357Y-89345000D01*
X141781499Y-89273571D01*
X141495785Y-89273571D01*
X141352928Y-89345000D01*
X140710071Y-90273571D02*
X140710071Y-88773571D01*
X140067214Y-90273571D02*
X140067214Y-89487857D01*
X140138642Y-89345000D01*
X140281499Y-89273571D01*
X140495785Y-89273571D01*
X140638642Y-89345000D01*
X140710071Y-89416428D01*
X185924357Y-91987857D02*
X185710071Y-92059285D01*
X185638642Y-92130714D01*
X185567214Y-92273571D01*
X185567214Y-92487857D01*
X185638642Y-92630714D01*
X185710071Y-92702142D01*
X185852928Y-92773571D01*
X186424357Y-92773571D01*
X186424357Y-91273571D01*
X185924357Y-91273571D01*
X185781500Y-91345000D01*
X185710071Y-91416428D01*
X185638642Y-91559285D01*
X185638642Y-91702142D01*
X185710071Y-91845000D01*
X185781500Y-91916428D01*
X185924357Y-91987857D01*
X186424357Y-91987857D01*
X184210071Y-92773571D02*
X184924357Y-92773571D01*
X184924357Y-91273571D01*
X183710071Y-92773571D02*
X183710071Y-91273571D01*
X182852928Y-92773571D02*
X183495785Y-91916428D01*
X182852928Y-91273571D02*
X183710071Y-92130714D01*
X181495785Y-91273571D02*
X182210071Y-91273571D01*
X182281500Y-91987857D01*
X182210071Y-91916428D01*
X182067214Y-91845000D01*
X181710071Y-91845000D01*
X181567214Y-91916428D01*
X181495785Y-91987857D01*
X181424357Y-92130714D01*
X181424357Y-92487857D01*
X181495785Y-92630714D01*
X181567214Y-92702142D01*
X181710071Y-92773571D01*
X182067214Y-92773571D01*
X182210071Y-92702142D01*
X182281500Y-92630714D01*
X180781500Y-92630714D02*
X180710071Y-92702142D01*
X180781500Y-92773571D01*
X180852928Y-92702142D01*
X180781500Y-92630714D01*
X180781500Y-92773571D01*
X180781500Y-91845000D02*
X180710071Y-91916428D01*
X180781500Y-91987857D01*
X180852928Y-91916428D01*
X180781500Y-91845000D01*
X180781500Y-91987857D01*
X178924357Y-91987857D02*
X178424357Y-91987857D01*
X178210071Y-92773571D02*
X178924357Y-92773571D01*
X178924357Y-91273571D01*
X178210071Y-91273571D01*
X177567214Y-91773571D02*
X177567214Y-92773571D01*
X177567214Y-91916428D02*
X177495785Y-91845000D01*
X177352928Y-91773571D01*
X177138642Y-91773571D01*
X176995785Y-91845000D01*
X176924357Y-91987857D01*
X176924357Y-92773571D01*
X175567214Y-92773571D02*
X175567214Y-91987857D01*
X175638642Y-91845000D01*
X175781500Y-91773571D01*
X176067214Y-91773571D01*
X176210071Y-91845000D01*
X175567214Y-92702142D02*
X175710071Y-92773571D01*
X176067214Y-92773571D01*
X176210071Y-92702142D01*
X176281500Y-92559285D01*
X176281500Y-92416428D01*
X176210071Y-92273571D01*
X176067214Y-92202142D01*
X175710071Y-92202142D01*
X175567214Y-92130714D01*
X174852928Y-92773571D02*
X174852928Y-91273571D01*
X174852928Y-91845000D02*
X174710071Y-91773571D01*
X174424357Y-91773571D01*
X174281500Y-91845000D01*
X174210071Y-91916428D01*
X174138642Y-92059285D01*
X174138642Y-92487857D01*
X174210071Y-92630714D01*
X174281500Y-92702142D01*
X174424357Y-92773571D01*
X174710071Y-92773571D01*
X174852928Y-92702142D01*
X173281500Y-92773571D02*
X173424357Y-92702142D01*
X173495785Y-92559285D01*
X173495785Y-91273571D01*
X172138642Y-92702142D02*
X172281500Y-92773571D01*
X172567214Y-92773571D01*
X172710071Y-92702142D01*
X172781500Y-92559285D01*
X172781500Y-91987857D01*
X172710071Y-91845000D01*
X172567214Y-91773571D01*
X172281500Y-91773571D01*
X172138642Y-91845000D01*
X172067214Y-91987857D01*
X172067214Y-92130714D01*
X172781500Y-92273571D01*
X170424357Y-91273571D02*
X169424357Y-92773571D01*
X169424357Y-91273571D02*
X170424357Y-92773571D01*
X167995785Y-92773571D02*
X168495785Y-92059285D01*
X168852928Y-92773571D02*
X168852928Y-91273571D01*
X168281500Y-91273571D01*
X168138642Y-91345000D01*
X168067214Y-91416428D01*
X167995785Y-91559285D01*
X167995785Y-91773571D01*
X168067214Y-91916428D01*
X168138642Y-91987857D01*
X168281500Y-92059285D01*
X168852928Y-92059285D01*
X167424357Y-92345000D02*
X166710071Y-92345000D01*
X167567214Y-92773571D02*
X167067214Y-91273571D01*
X166567214Y-92773571D01*
X166067214Y-92773571D02*
X166067214Y-91273571D01*
X165567214Y-92345000D01*
X165067214Y-91273571D01*
X165067214Y-92773571D01*
X163281500Y-92702142D02*
X163067214Y-92773571D01*
X162710071Y-92773571D01*
X162567214Y-92702142D01*
X162495785Y-92630714D01*
X162424357Y-92487857D01*
X162424357Y-92345000D01*
X162495785Y-92202142D01*
X162567214Y-92130714D01*
X162710071Y-92059285D01*
X162995785Y-91987857D01*
X163138642Y-91916428D01*
X163210071Y-91845000D01*
X163281500Y-91702142D01*
X163281500Y-91559285D01*
X163210071Y-91416428D01*
X163138642Y-91345000D01*
X162995785Y-91273571D01*
X162638642Y-91273571D01*
X162424357Y-91345000D01*
X162852928Y-91059285D02*
X162852928Y-92987857D01*
X161852928Y-92345000D02*
X161138642Y-92345000D01*
X161995785Y-92773571D02*
X161495785Y-91273571D01*
X160995785Y-92773571D01*
X160210071Y-91273571D02*
X160067214Y-91273571D01*
X159924357Y-91345000D01*
X159852928Y-91416428D01*
X159781500Y-91559285D01*
X159710071Y-91845000D01*
X159710071Y-92202142D01*
X159781500Y-92487857D01*
X159852928Y-92630714D01*
X159924357Y-92702142D01*
X160067214Y-92773571D01*
X160210071Y-92773571D01*
X160352928Y-92702142D01*
X160424357Y-92630714D01*
X160495785Y-92487857D01*
X160567214Y-92202142D01*
X160567214Y-91845000D01*
X160495785Y-91559285D01*
X160424357Y-91416428D01*
X160352928Y-91345000D01*
X160210071Y-91273571D01*
X158781500Y-91273571D02*
X158638642Y-91273571D01*
X158495785Y-91345000D01*
X158424357Y-91416428D01*
X158352928Y-91559285D01*
X158281500Y-91845000D01*
X158281500Y-92202142D01*
X158352928Y-92487857D01*
X158424357Y-92630714D01*
X158495785Y-92702142D01*
X158638642Y-92773571D01*
X158781500Y-92773571D01*
X158924357Y-92702142D01*
X158995785Y-92630714D01*
X159067214Y-92487857D01*
X159138642Y-92202142D01*
X159138642Y-91845000D01*
X159067214Y-91559285D01*
X158995785Y-91416428D01*
X158924357Y-91345000D01*
X158781500Y-91273571D01*
X157352928Y-91273571D02*
X157210071Y-91273571D01*
X157067214Y-91345000D01*
X156995785Y-91416428D01*
X156924357Y-91559285D01*
X156852928Y-91845000D01*
X156852928Y-92202142D01*
X156924357Y-92487857D01*
X156995785Y-92630714D01*
X157067214Y-92702142D01*
X157210071Y-92773571D01*
X157352928Y-92773571D01*
X157495785Y-92702142D01*
X157567214Y-92630714D01*
X157638642Y-92487857D01*
X157710071Y-92202142D01*
X157710071Y-91845000D01*
X157638642Y-91559285D01*
X157567214Y-91416428D01*
X157495785Y-91345000D01*
X157352928Y-91273571D01*
X156210071Y-92202142D02*
X155067214Y-92202142D01*
X154424357Y-92702142D02*
X154210071Y-92773571D01*
X153852928Y-92773571D01*
X153710071Y-92702142D01*
X153638642Y-92630714D01*
X153567214Y-92487857D01*
X153567214Y-92345000D01*
X153638642Y-92202142D01*
X153710071Y-92130714D01*
X153852928Y-92059285D01*
X154138642Y-91987857D01*
X154281500Y-91916428D01*
X154352928Y-91845000D01*
X154424357Y-91702142D01*
X154424357Y-91559285D01*
X154352928Y-91416428D01*
X154281500Y-91345000D01*
X154138642Y-91273571D01*
X153781500Y-91273571D01*
X153567214Y-91345000D01*
X153995785Y-91059285D02*
X153995785Y-92987857D01*
X152424357Y-91987857D02*
X152210071Y-92059285D01*
X152138642Y-92130714D01*
X152067214Y-92273571D01*
X152067214Y-92487857D01*
X152138642Y-92630714D01*
X152210071Y-92702142D01*
X152352928Y-92773571D01*
X152924357Y-92773571D01*
X152924357Y-91273571D01*
X152424357Y-91273571D01*
X152281500Y-91345000D01*
X152210071Y-91416428D01*
X152138642Y-91559285D01*
X152138642Y-91702142D01*
X152210071Y-91845000D01*
X152281500Y-91916428D01*
X152424357Y-91987857D01*
X152924357Y-91987857D01*
X150924357Y-91987857D02*
X151424357Y-91987857D01*
X151424357Y-92773571D02*
X151424357Y-91273571D01*
X150710071Y-91273571D01*
X149638642Y-91987857D02*
X150138642Y-91987857D01*
X150138642Y-92773571D02*
X150138642Y-91273571D01*
X149424357Y-91273571D01*
X148352928Y-91987857D02*
X148852928Y-91987857D01*
X148852928Y-92773571D02*
X148852928Y-91273571D01*
X148138642Y-91273571D01*
X145995785Y-93345000D02*
X146067214Y-93273571D01*
X146210071Y-93059285D01*
X146281500Y-92916428D01*
X146352928Y-92702142D01*
X146424357Y-92345000D01*
X146424357Y-92059285D01*
X146352928Y-91702142D01*
X146281500Y-91487857D01*
X146210071Y-91345000D01*
X146067214Y-91130714D01*
X145995785Y-91059285D01*
X145210071Y-91916428D02*
X145352928Y-91845000D01*
X145424357Y-91773571D01*
X145495785Y-91630714D01*
X145495785Y-91559285D01*
X145424357Y-91416428D01*
X145352928Y-91345000D01*
X145210071Y-91273571D01*
X144924357Y-91273571D01*
X144781500Y-91345000D01*
X144710071Y-91416428D01*
X144638642Y-91559285D01*
X144638642Y-91630714D01*
X144710071Y-91773571D01*
X144781500Y-91845000D01*
X144924357Y-91916428D01*
X145210071Y-91916428D01*
X145352928Y-91987857D01*
X145424357Y-92059285D01*
X145495785Y-92202142D01*
X145495785Y-92487857D01*
X145424357Y-92630714D01*
X145352928Y-92702142D01*
X145210071Y-92773571D01*
X144924357Y-92773571D01*
X144781500Y-92702142D01*
X144710071Y-92630714D01*
X144638642Y-92487857D01*
X144638642Y-92202142D01*
X144710071Y-92059285D01*
X144781500Y-91987857D01*
X144924357Y-91916428D01*
X143995785Y-92773571D02*
X143995785Y-91273571D01*
X143138642Y-92773571D02*
X143781500Y-91916428D01*
X143138642Y-91273571D02*
X143995785Y-92130714D01*
X141995785Y-91987857D02*
X141781500Y-92059285D01*
X141710071Y-92130714D01*
X141638642Y-92273571D01*
X141638642Y-92487857D01*
X141710071Y-92630714D01*
X141781500Y-92702142D01*
X141924357Y-92773571D01*
X142495785Y-92773571D01*
X142495785Y-91273571D01*
X141995785Y-91273571D01*
X141852928Y-91345000D01*
X141781500Y-91416428D01*
X141710071Y-91559285D01*
X141710071Y-91702142D01*
X141781500Y-91845000D01*
X141852928Y-91916428D01*
X141995785Y-91987857D01*
X142495785Y-91987857D01*
X141138642Y-93345000D02*
X141067214Y-93273571D01*
X140924357Y-93059285D01*
X140852928Y-92916428D01*
X140781500Y-92702142D01*
X140710071Y-92345000D01*
X140710071Y-92059285D01*
X140781500Y-91702142D01*
X140852928Y-91487857D01*
X140924357Y-91345000D01*
X141067214Y-91130714D01*
X141138642Y-91059285D01*
X186567214Y-93773571D02*
X186210071Y-95273571D01*
X185924357Y-94202142D01*
X185638642Y-95273571D01*
X185281500Y-93773571D01*
X184710071Y-95273571D02*
X184710071Y-93773571D01*
X184138642Y-93773571D01*
X183995785Y-93845000D01*
X183924357Y-93916428D01*
X183852928Y-94059285D01*
X183852928Y-94273571D01*
X183924357Y-94416428D01*
X183995785Y-94487857D01*
X184138642Y-94559285D01*
X184710071Y-94559285D01*
X183210071Y-95130714D02*
X183138642Y-95202142D01*
X183210071Y-95273571D01*
X183281500Y-95202142D01*
X183210071Y-95130714D01*
X183210071Y-95273571D01*
X183210071Y-94345000D02*
X183138642Y-94416428D01*
X183210071Y-94487857D01*
X183281500Y-94416428D01*
X183210071Y-94345000D01*
X183210071Y-94487857D01*
X181495785Y-93773571D02*
X181138642Y-95273571D01*
X180852928Y-94202142D01*
X180567214Y-95273571D01*
X180210071Y-93773571D01*
X179638642Y-95273571D02*
X179638642Y-94273571D01*
X179638642Y-94559285D02*
X179567214Y-94416428D01*
X179495785Y-94345000D01*
X179352928Y-94273571D01*
X179210071Y-94273571D01*
X178710071Y-95273571D02*
X178710071Y-94273571D01*
X178710071Y-93773571D02*
X178781500Y-93845000D01*
X178710071Y-93916428D01*
X178638642Y-93845000D01*
X178710071Y-93773571D01*
X178710071Y-93916428D01*
X178210071Y-94273571D02*
X177638642Y-94273571D01*
X177995785Y-93773571D02*
X177995785Y-95059285D01*
X177924357Y-95202142D01*
X177781500Y-95273571D01*
X177638642Y-95273571D01*
X176567214Y-95202142D02*
X176710071Y-95273571D01*
X176995785Y-95273571D01*
X177138642Y-95202142D01*
X177210071Y-95059285D01*
X177210071Y-94487857D01*
X177138642Y-94345000D01*
X176995785Y-94273571D01*
X176710071Y-94273571D01*
X176567214Y-94345000D01*
X176495785Y-94487857D01*
X176495785Y-94630714D01*
X177210071Y-94773571D01*
X174710071Y-95273571D02*
X174710071Y-93773571D01*
X174138642Y-93773571D01*
X173995785Y-93845000D01*
X173924357Y-93916428D01*
X173852928Y-94059285D01*
X173852928Y-94273571D01*
X173924357Y-94416428D01*
X173995785Y-94487857D01*
X174138642Y-94559285D01*
X174710071Y-94559285D01*
X173210071Y-95273571D02*
X173210071Y-94273571D01*
X173210071Y-94559285D02*
X173138642Y-94416428D01*
X173067214Y-94345000D01*
X172924357Y-94273571D01*
X172781500Y-94273571D01*
X172067214Y-95273571D02*
X172210071Y-95202142D01*
X172281500Y-95130714D01*
X172352928Y-94987857D01*
X172352928Y-94559285D01*
X172281500Y-94416428D01*
X172210071Y-94345000D01*
X172067214Y-94273571D01*
X171852928Y-94273571D01*
X171710071Y-94345000D01*
X171638642Y-94416428D01*
X171567214Y-94559285D01*
X171567214Y-94987857D01*
X171638642Y-95130714D01*
X171710071Y-95202142D01*
X171852928Y-95273571D01*
X172067214Y-95273571D01*
X171138642Y-94273571D02*
X170567214Y-94273571D01*
X170924357Y-93773571D02*
X170924357Y-95059285D01*
X170852928Y-95202142D01*
X170710071Y-95273571D01*
X170567214Y-95273571D01*
X169495785Y-95202142D02*
X169638642Y-95273571D01*
X169924357Y-95273571D01*
X170067214Y-95202142D01*
X170138642Y-95059285D01*
X170138642Y-94487857D01*
X170067214Y-94345000D01*
X169924357Y-94273571D01*
X169638642Y-94273571D01*
X169495785Y-94345000D01*
X169424357Y-94487857D01*
X169424357Y-94630714D01*
X170138642Y-94773571D01*
X168138642Y-95202142D02*
X168281499Y-95273571D01*
X168567214Y-95273571D01*
X168710071Y-95202142D01*
X168781499Y-95130714D01*
X168852928Y-94987857D01*
X168852928Y-94559285D01*
X168781499Y-94416428D01*
X168710071Y-94345000D01*
X168567214Y-94273571D01*
X168281499Y-94273571D01*
X168138642Y-94345000D01*
X167710071Y-94273571D02*
X167138642Y-94273571D01*
X167495785Y-93773571D02*
X167495785Y-95059285D01*
X167424357Y-95202142D01*
X167281499Y-95273571D01*
X167138642Y-95273571D01*
X166638642Y-95273571D02*
X166638642Y-94273571D01*
X166638642Y-93773571D02*
X166710071Y-93845000D01*
X166638642Y-93916428D01*
X166567214Y-93845000D01*
X166638642Y-93773571D01*
X166638642Y-93916428D01*
X165710071Y-95273571D02*
X165852928Y-95202142D01*
X165924357Y-95130714D01*
X165995785Y-94987857D01*
X165995785Y-94559285D01*
X165924357Y-94416428D01*
X165852928Y-94345000D01*
X165710071Y-94273571D01*
X165495785Y-94273571D01*
X165352928Y-94345000D01*
X165281499Y-94416428D01*
X165210071Y-94559285D01*
X165210071Y-94987857D01*
X165281499Y-95130714D01*
X165352928Y-95202142D01*
X165495785Y-95273571D01*
X165710071Y-95273571D01*
X164567214Y-94273571D02*
X164567214Y-95273571D01*
X164567214Y-94416428D02*
X164495785Y-94345000D01*
X164352928Y-94273571D01*
X164138642Y-94273571D01*
X163995785Y-94345000D01*
X163924357Y-94487857D01*
X163924357Y-95273571D01*
X161638642Y-95845000D02*
X161710071Y-95773571D01*
X161852928Y-95559285D01*
X161924357Y-95416428D01*
X161995785Y-95202142D01*
X162067214Y-94845000D01*
X162067214Y-94559285D01*
X161995785Y-94202142D01*
X161924357Y-93987857D01*
X161852928Y-93845000D01*
X161710071Y-93630714D01*
X161638642Y-93559285D01*
X161138642Y-95202142D02*
X160924357Y-95273571D01*
X160567214Y-95273571D01*
X160424357Y-95202142D01*
X160352928Y-95130714D01*
X160281499Y-94987857D01*
X160281499Y-94845000D01*
X160352928Y-94702142D01*
X160424357Y-94630714D01*
X160567214Y-94559285D01*
X160852928Y-94487857D01*
X160995785Y-94416428D01*
X161067214Y-94345000D01*
X161138642Y-94202142D01*
X161138642Y-94059285D01*
X161067214Y-93916428D01*
X160995785Y-93845000D01*
X160852928Y-93773571D01*
X160495785Y-93773571D01*
X160281499Y-93845000D01*
X158781499Y-95273571D02*
X159281499Y-94559285D01*
X159638642Y-95273571D02*
X159638642Y-93773571D01*
X159067214Y-93773571D01*
X158924357Y-93845000D01*
X158852928Y-93916428D01*
X158781499Y-94059285D01*
X158781499Y-94273571D01*
X158852928Y-94416428D01*
X158924357Y-94487857D01*
X159067214Y-94559285D01*
X159638642Y-94559285D01*
X158210071Y-94845000D02*
X157495785Y-94845000D01*
X158352928Y-95273571D02*
X157852928Y-93773571D01*
X157352928Y-95273571D01*
X156852928Y-95273571D02*
X156852928Y-93773571D01*
X156352928Y-94845000D01*
X155852928Y-93773571D01*
X155852928Y-95273571D01*
X152781499Y-95273571D02*
X152852928Y-95273571D01*
X152995785Y-95202142D01*
X153210071Y-94987857D01*
X153567214Y-94559285D01*
X153710071Y-94345000D01*
X153781499Y-94130714D01*
X153781499Y-93987857D01*
X153710071Y-93845000D01*
X153567214Y-93773571D01*
X153495785Y-93773571D01*
X153352928Y-93845000D01*
X153281499Y-93987857D01*
X153281499Y-94059285D01*
X153352928Y-94202142D01*
X153424357Y-94273571D01*
X153852928Y-94559285D01*
X153924357Y-94630714D01*
X153995785Y-94773571D01*
X153995785Y-94987857D01*
X153924357Y-95130714D01*
X153852928Y-95202142D01*
X153710071Y-95273571D01*
X153495785Y-95273571D01*
X153352928Y-95202142D01*
X153281499Y-95130714D01*
X153067214Y-94845000D01*
X152995785Y-94630714D01*
X152995785Y-94487857D01*
X151138642Y-93773571D02*
X150138642Y-95273571D01*
X150138642Y-93773571D02*
X151138642Y-95273571D01*
X148710071Y-95273571D02*
X149210071Y-94559285D01*
X149567214Y-95273571D02*
X149567214Y-93773571D01*
X148995785Y-93773571D01*
X148852928Y-93845000D01*
X148781499Y-93916428D01*
X148710071Y-94059285D01*
X148710071Y-94273571D01*
X148781499Y-94416428D01*
X148852928Y-94487857D01*
X148995785Y-94559285D01*
X149567214Y-94559285D01*
X148138642Y-94845000D02*
X147424357Y-94845000D01*
X148281499Y-95273571D02*
X147781499Y-93773571D01*
X147281499Y-95273571D01*
X146781499Y-95273571D02*
X146781499Y-93773571D01*
X146281499Y-94845000D01*
X145781499Y-93773571D01*
X145781499Y-95273571D01*
X145210071Y-95845000D02*
X145138642Y-95773571D01*
X144995785Y-95559285D01*
X144924357Y-95416428D01*
X144852928Y-95202142D01*
X144781499Y-94845000D01*
X144781499Y-94559285D01*
X144852928Y-94202142D01*
X144924357Y-93987857D01*
X144995785Y-93845000D01*
X145138642Y-93630714D01*
X145210071Y-93559285D01*
X186424357Y-97773571D02*
X186424357Y-96273571D01*
X185424357Y-96273571D02*
X185138642Y-96273571D01*
X184995785Y-96345000D01*
X184852928Y-96487857D01*
X184781500Y-96773571D01*
X184781500Y-97273571D01*
X184852928Y-97559285D01*
X184995785Y-97702142D01*
X185138642Y-97773571D01*
X185424357Y-97773571D01*
X185567214Y-97702142D01*
X185710071Y-97559285D01*
X185781500Y-97273571D01*
X185781500Y-96773571D01*
X185710071Y-96487857D01*
X185567214Y-96345000D01*
X185424357Y-96273571D01*
X184210071Y-96416428D02*
X184138642Y-96345000D01*
X183995785Y-96273571D01*
X183638642Y-96273571D01*
X183495785Y-96345000D01*
X183424357Y-96416428D01*
X183352928Y-96559285D01*
X183352928Y-96702142D01*
X183424357Y-96916428D01*
X184281499Y-97773571D01*
X183352928Y-97773571D01*
X182710071Y-97630714D02*
X182638642Y-97702142D01*
X182710071Y-97773571D01*
X182781500Y-97702142D01*
X182710071Y-97630714D01*
X182710071Y-97773571D01*
X182710071Y-96845000D02*
X182638642Y-96916428D01*
X182710071Y-96987857D01*
X182781500Y-96916428D01*
X182710071Y-96845000D01*
X182710071Y-96987857D01*
X180995785Y-96273571D02*
X179995785Y-97773571D01*
X179995785Y-96273571D02*
X180995785Y-97773571D01*
X178567214Y-97773571D02*
X179067214Y-97059285D01*
X179424357Y-97773571D02*
X179424357Y-96273571D01*
X178852928Y-96273571D01*
X178710071Y-96345000D01*
X178638642Y-96416428D01*
X178567214Y-96559285D01*
X178567214Y-96773571D01*
X178638642Y-96916428D01*
X178710071Y-96987857D01*
X178852928Y-97059285D01*
X179424357Y-97059285D01*
X177995785Y-97345000D02*
X177281500Y-97345000D01*
X178138642Y-97773571D02*
X177638642Y-96273571D01*
X177138642Y-97773571D01*
X176638642Y-97773571D02*
X176638642Y-96273571D01*
X176138642Y-97345000D01*
X175638642Y-96273571D01*
X175638642Y-97773571D01*
X173281500Y-96987857D02*
X173067214Y-97059285D01*
X172995785Y-97130714D01*
X172924357Y-97273571D01*
X172924357Y-97487857D01*
X172995785Y-97630714D01*
X173067214Y-97702142D01*
X173210071Y-97773571D01*
X173781500Y-97773571D01*
X173781500Y-96273571D01*
X173281500Y-96273571D01*
X173138642Y-96345000D01*
X173067214Y-96416428D01*
X172995785Y-96559285D01*
X172995785Y-96702142D01*
X173067214Y-96845000D01*
X173138642Y-96916428D01*
X173281500Y-96987857D01*
X173781500Y-96987857D01*
X172067214Y-97773571D02*
X172210071Y-97702142D01*
X172281500Y-97559285D01*
X172281500Y-96273571D01*
X171281500Y-97773571D02*
X171424357Y-97702142D01*
X171495785Y-97630714D01*
X171567214Y-97487857D01*
X171567214Y-97059285D01*
X171495785Y-96916428D01*
X171424357Y-96845000D01*
X171281500Y-96773571D01*
X171067214Y-96773571D01*
X170924357Y-96845000D01*
X170852928Y-96916428D01*
X170781500Y-97059285D01*
X170781500Y-97487857D01*
X170852928Y-97630714D01*
X170924357Y-97702142D01*
X171067214Y-97773571D01*
X171281500Y-97773571D01*
X169495785Y-97702142D02*
X169638642Y-97773571D01*
X169924357Y-97773571D01*
X170067214Y-97702142D01*
X170138642Y-97630714D01*
X170210071Y-97487857D01*
X170210071Y-97059285D01*
X170138642Y-96916428D01*
X170067214Y-96845000D01*
X169924357Y-96773571D01*
X169638642Y-96773571D01*
X169495785Y-96845000D01*
X168852928Y-97773571D02*
X168852928Y-96273571D01*
X168710071Y-97202142D02*
X168281499Y-97773571D01*
X168281499Y-96773571D02*
X168852928Y-97345000D01*
X166567214Y-97702142D02*
X166352928Y-97773571D01*
X165995785Y-97773571D01*
X165852928Y-97702142D01*
X165781500Y-97630714D01*
X165710071Y-97487857D01*
X165710071Y-97345000D01*
X165781500Y-97202142D01*
X165852928Y-97130714D01*
X165995785Y-97059285D01*
X166281500Y-96987857D01*
X166424357Y-96916428D01*
X166495785Y-96845000D01*
X166567214Y-96702142D01*
X166567214Y-96559285D01*
X166495785Y-96416428D01*
X166424357Y-96345000D01*
X166281500Y-96273571D01*
X165924357Y-96273571D01*
X165710071Y-96345000D01*
X164495785Y-97702142D02*
X164638642Y-97773571D01*
X164924357Y-97773571D01*
X165067214Y-97702142D01*
X165138642Y-97559285D01*
X165138642Y-96987857D01*
X165067214Y-96845000D01*
X164924357Y-96773571D01*
X164638642Y-96773571D01*
X164495785Y-96845000D01*
X164424357Y-96987857D01*
X164424357Y-97130714D01*
X165138642Y-97273571D01*
X163567214Y-97773571D02*
X163710071Y-97702142D01*
X163781499Y-97559285D01*
X163781499Y-96273571D01*
X162424357Y-97702142D02*
X162567214Y-97773571D01*
X162852928Y-97773571D01*
X162995785Y-97702142D01*
X163067214Y-97559285D01*
X163067214Y-96987857D01*
X162995785Y-96845000D01*
X162852928Y-96773571D01*
X162567214Y-96773571D01*
X162424357Y-96845000D01*
X162352928Y-96987857D01*
X162352928Y-97130714D01*
X163067214Y-97273571D01*
X161067214Y-97702142D02*
X161210071Y-97773571D01*
X161495785Y-97773571D01*
X161638642Y-97702142D01*
X161710071Y-97630714D01*
X161781499Y-97487857D01*
X161781499Y-97059285D01*
X161710071Y-96916428D01*
X161638642Y-96845000D01*
X161495785Y-96773571D01*
X161210071Y-96773571D01*
X161067214Y-96845000D01*
X160638642Y-96773571D02*
X160067214Y-96773571D01*
X160424357Y-96273571D02*
X160424357Y-97559285D01*
X160352928Y-97702142D01*
X160210071Y-97773571D01*
X160067214Y-97773571D01*
X158424357Y-97202142D02*
X157281499Y-97202142D01*
X155424357Y-97773571D02*
X155424357Y-96273571D01*
X154852928Y-96273571D01*
X154710071Y-96345000D01*
X154638642Y-96416428D01*
X154567214Y-96559285D01*
X154567214Y-96773571D01*
X154638642Y-96916428D01*
X154710071Y-96987857D01*
X154852928Y-97059285D01*
X155424357Y-97059285D01*
X153638642Y-96273571D02*
X153352928Y-96273571D01*
X153210071Y-96345000D01*
X153067214Y-96487857D01*
X152995785Y-96773571D01*
X152995785Y-97273571D01*
X153067214Y-97559285D01*
X153210071Y-97702142D01*
X153352928Y-97773571D01*
X153638642Y-97773571D01*
X153781499Y-97702142D01*
X153924357Y-97559285D01*
X153995785Y-97273571D01*
X153995785Y-96773571D01*
X153924357Y-96487857D01*
X153781499Y-96345000D01*
X153638642Y-96273571D01*
X152352928Y-97773571D02*
X152352928Y-96273571D01*
X151495785Y-97773571D02*
X152138642Y-96916428D01*
X151495785Y-96273571D02*
X152352928Y-97130714D01*
X150852928Y-96987857D02*
X150352928Y-96987857D01*
X150138642Y-97773571D02*
X150852928Y-97773571D01*
X150852928Y-96273571D01*
X150138642Y-96273571D01*
X148495785Y-96273571D02*
X147567214Y-96273571D01*
X148067214Y-96845000D01*
X147852928Y-96845000D01*
X147710071Y-96916428D01*
X147638642Y-96987857D01*
X147567214Y-97130714D01*
X147567214Y-97487857D01*
X147638642Y-97630714D01*
X147710071Y-97702142D01*
X147852928Y-97773571D01*
X148281499Y-97773571D01*
X148424357Y-97702142D01*
X148495785Y-97630714D01*
X146852928Y-97773571D02*
X146567214Y-97773571D01*
X146424357Y-97702142D01*
X146352928Y-97630714D01*
X146210071Y-97416428D01*
X146138642Y-97130714D01*
X146138642Y-96559285D01*
X146210071Y-96416428D01*
X146281499Y-96345000D01*
X146424357Y-96273571D01*
X146710071Y-96273571D01*
X146852928Y-96345000D01*
X146924357Y-96416428D01*
X146995785Y-96559285D01*
X146995785Y-96916428D01*
X146924357Y-97059285D01*
X146852928Y-97130714D01*
X146710071Y-97202142D01*
X146424357Y-97202142D01*
X146281499Y-97130714D01*
X146210071Y-97059285D01*
X146138642Y-96916428D01*
X145424357Y-97773571D02*
X145138642Y-97773571D01*
X144995785Y-97702142D01*
X144924357Y-97630714D01*
X144781499Y-97416428D01*
X144710071Y-97130714D01*
X144710071Y-96559285D01*
X144781499Y-96416428D01*
X144852928Y-96345000D01*
X144995785Y-96273571D01*
X145281499Y-96273571D01*
X145424357Y-96345000D01*
X145495785Y-96416428D01*
X145567214Y-96559285D01*
X145567214Y-96916428D01*
X145495785Y-97059285D01*
X145424357Y-97130714D01*
X145281499Y-97202142D01*
X144995785Y-97202142D01*
X144852928Y-97130714D01*
X144781499Y-97059285D01*
X144710071Y-96916428D01*
X144210071Y-96273571D02*
X143281499Y-96273571D01*
X143781499Y-96845000D01*
X143567214Y-96845000D01*
X143424357Y-96916428D01*
X143352928Y-96987857D01*
X143281499Y-97130714D01*
X143281499Y-97487857D01*
X143352928Y-97630714D01*
X143424357Y-97702142D01*
X143567214Y-97773571D01*
X143995785Y-97773571D01*
X144138642Y-97702142D01*
X144210071Y-97630714D01*
X141924357Y-96273571D02*
X142638642Y-96273571D01*
X142710071Y-96987857D01*
X142638642Y-96916428D01*
X142495785Y-96845000D01*
X142138642Y-96845000D01*
X141995785Y-96916428D01*
X141924357Y-96987857D01*
X141852928Y-97130714D01*
X141852928Y-97487857D01*
X141924357Y-97630714D01*
X141995785Y-97702142D01*
X142138642Y-97773571D01*
X142495785Y-97773571D01*
X142638642Y-97702142D01*
X142710071Y-97630714D01*
X186424357Y-100273571D02*
X186424357Y-98773571D01*
X185424357Y-98773571D02*
X185138642Y-98773571D01*
X184995785Y-98845000D01*
X184852928Y-98987857D01*
X184781500Y-99273571D01*
X184781500Y-99773571D01*
X184852928Y-100059285D01*
X184995785Y-100202142D01*
X185138642Y-100273571D01*
X185424357Y-100273571D01*
X185567214Y-100202142D01*
X185710071Y-100059285D01*
X185781500Y-99773571D01*
X185781500Y-99273571D01*
X185710071Y-98987857D01*
X185567214Y-98845000D01*
X185424357Y-98773571D01*
X184281499Y-98773571D02*
X183352928Y-98773571D01*
X183852928Y-99345000D01*
X183638642Y-99345000D01*
X183495785Y-99416428D01*
X183424357Y-99487857D01*
X183352928Y-99630714D01*
X183352928Y-99987857D01*
X183424357Y-100130714D01*
X183495785Y-100202142D01*
X183638642Y-100273571D01*
X184067214Y-100273571D01*
X184210071Y-100202142D01*
X184281499Y-100130714D01*
X182710071Y-100130714D02*
X182638642Y-100202142D01*
X182710071Y-100273571D01*
X182781500Y-100202142D01*
X182710071Y-100130714D01*
X182710071Y-100273571D01*
X182710071Y-99345000D02*
X182638642Y-99416428D01*
X182710071Y-99487857D01*
X182781500Y-99416428D01*
X182710071Y-99345000D01*
X182710071Y-99487857D01*
X180995785Y-98773571D02*
X179995785Y-100273571D01*
X179995785Y-98773571D02*
X180995785Y-100273571D01*
X178567214Y-100273571D02*
X179067214Y-99559285D01*
X179424357Y-100273571D02*
X179424357Y-98773571D01*
X178852928Y-98773571D01*
X178710071Y-98845000D01*
X178638642Y-98916428D01*
X178567214Y-99059285D01*
X178567214Y-99273571D01*
X178638642Y-99416428D01*
X178710071Y-99487857D01*
X178852928Y-99559285D01*
X179424357Y-99559285D01*
X177995785Y-99845000D02*
X177281500Y-99845000D01*
X178138642Y-100273571D02*
X177638642Y-98773571D01*
X177138642Y-100273571D01*
X176638642Y-100273571D02*
X176638642Y-98773571D01*
X176138642Y-99845000D01*
X175638642Y-98773571D01*
X175638642Y-100273571D01*
X173281500Y-99487857D02*
X173067214Y-99559285D01*
X172995785Y-99630714D01*
X172924357Y-99773571D01*
X172924357Y-99987857D01*
X172995785Y-100130714D01*
X173067214Y-100202142D01*
X173210071Y-100273571D01*
X173781500Y-100273571D01*
X173781500Y-98773571D01*
X173281500Y-98773571D01*
X173138642Y-98845000D01*
X173067214Y-98916428D01*
X172995785Y-99059285D01*
X172995785Y-99202142D01*
X173067214Y-99345000D01*
X173138642Y-99416428D01*
X173281500Y-99487857D01*
X173781500Y-99487857D01*
X172067214Y-100273571D02*
X172210071Y-100202142D01*
X172281500Y-100059285D01*
X172281500Y-98773571D01*
X171281500Y-100273571D02*
X171424357Y-100202142D01*
X171495785Y-100130714D01*
X171567214Y-99987857D01*
X171567214Y-99559285D01*
X171495785Y-99416428D01*
X171424357Y-99345000D01*
X171281500Y-99273571D01*
X171067214Y-99273571D01*
X170924357Y-99345000D01*
X170852928Y-99416428D01*
X170781500Y-99559285D01*
X170781500Y-99987857D01*
X170852928Y-100130714D01*
X170924357Y-100202142D01*
X171067214Y-100273571D01*
X171281500Y-100273571D01*
X169495785Y-100202142D02*
X169638642Y-100273571D01*
X169924357Y-100273571D01*
X170067214Y-100202142D01*
X170138642Y-100130714D01*
X170210071Y-99987857D01*
X170210071Y-99559285D01*
X170138642Y-99416428D01*
X170067214Y-99345000D01*
X169924357Y-99273571D01*
X169638642Y-99273571D01*
X169495785Y-99345000D01*
X168852928Y-100273571D02*
X168852928Y-98773571D01*
X168710071Y-99702142D02*
X168281499Y-100273571D01*
X168281499Y-99273571D02*
X168852928Y-99845000D01*
X166567214Y-100202142D02*
X166352928Y-100273571D01*
X165995785Y-100273571D01*
X165852928Y-100202142D01*
X165781500Y-100130714D01*
X165710071Y-99987857D01*
X165710071Y-99845000D01*
X165781500Y-99702142D01*
X165852928Y-99630714D01*
X165995785Y-99559285D01*
X166281500Y-99487857D01*
X166424357Y-99416428D01*
X166495785Y-99345000D01*
X166567214Y-99202142D01*
X166567214Y-99059285D01*
X166495785Y-98916428D01*
X166424357Y-98845000D01*
X166281500Y-98773571D01*
X165924357Y-98773571D01*
X165710071Y-98845000D01*
X164495785Y-100202142D02*
X164638642Y-100273571D01*
X164924357Y-100273571D01*
X165067214Y-100202142D01*
X165138642Y-100059285D01*
X165138642Y-99487857D01*
X165067214Y-99345000D01*
X164924357Y-99273571D01*
X164638642Y-99273571D01*
X164495785Y-99345000D01*
X164424357Y-99487857D01*
X164424357Y-99630714D01*
X165138642Y-99773571D01*
X163567214Y-100273571D02*
X163710071Y-100202142D01*
X163781499Y-100059285D01*
X163781499Y-98773571D01*
X162424357Y-100202142D02*
X162567214Y-100273571D01*
X162852928Y-100273571D01*
X162995785Y-100202142D01*
X163067214Y-100059285D01*
X163067214Y-99487857D01*
X162995785Y-99345000D01*
X162852928Y-99273571D01*
X162567214Y-99273571D01*
X162424357Y-99345000D01*
X162352928Y-99487857D01*
X162352928Y-99630714D01*
X163067214Y-99773571D01*
X161067214Y-100202142D02*
X161210071Y-100273571D01*
X161495785Y-100273571D01*
X161638642Y-100202142D01*
X161710071Y-100130714D01*
X161781499Y-99987857D01*
X161781499Y-99559285D01*
X161710071Y-99416428D01*
X161638642Y-99345000D01*
X161495785Y-99273571D01*
X161210071Y-99273571D01*
X161067214Y-99345000D01*
X160638642Y-99273571D02*
X160067214Y-99273571D01*
X160424357Y-98773571D02*
X160424357Y-100059285D01*
X160352928Y-100202142D01*
X160210071Y-100273571D01*
X160067214Y-100273571D01*
X158424357Y-99702142D02*
X157281499Y-99702142D01*
X155424357Y-100273571D02*
X155424357Y-98773571D01*
X154852928Y-98773571D01*
X154710071Y-98845000D01*
X154638642Y-98916428D01*
X154567214Y-99059285D01*
X154567214Y-99273571D01*
X154638642Y-99416428D01*
X154710071Y-99487857D01*
X154852928Y-99559285D01*
X155424357Y-99559285D01*
X153638642Y-98773571D02*
X153352928Y-98773571D01*
X153210071Y-98845000D01*
X153067214Y-98987857D01*
X152995785Y-99273571D01*
X152995785Y-99773571D01*
X153067214Y-100059285D01*
X153210071Y-100202142D01*
X153352928Y-100273571D01*
X153638642Y-100273571D01*
X153781499Y-100202142D01*
X153924357Y-100059285D01*
X153995785Y-99773571D01*
X153995785Y-99273571D01*
X153924357Y-98987857D01*
X153781499Y-98845000D01*
X153638642Y-98773571D01*
X152352928Y-100273571D02*
X152352928Y-98773571D01*
X151495785Y-100273571D02*
X152138642Y-99416428D01*
X151495785Y-98773571D02*
X152352928Y-99630714D01*
X150852928Y-99487857D02*
X150352928Y-99487857D01*
X150138642Y-100273571D02*
X150852928Y-100273571D01*
X150852928Y-98773571D01*
X150138642Y-98773571D01*
X147710071Y-99273571D02*
X147710071Y-100273571D01*
X148067214Y-98702142D02*
X148424357Y-99773571D01*
X147495785Y-99773571D01*
X146638642Y-98773571D02*
X146495785Y-98773571D01*
X146352928Y-98845000D01*
X146281499Y-98916428D01*
X146210071Y-99059285D01*
X146138642Y-99345000D01*
X146138642Y-99702142D01*
X146210071Y-99987857D01*
X146281499Y-100130714D01*
X146352928Y-100202142D01*
X146495785Y-100273571D01*
X146638642Y-100273571D01*
X146781499Y-100202142D01*
X146852928Y-100130714D01*
X146924357Y-99987857D01*
X146995785Y-99702142D01*
X146995785Y-99345000D01*
X146924357Y-99059285D01*
X146852928Y-98916428D01*
X146781499Y-98845000D01*
X146638642Y-98773571D01*
X145424357Y-100273571D02*
X145138642Y-100273571D01*
X144995785Y-100202142D01*
X144924357Y-100130714D01*
X144781499Y-99916428D01*
X144710071Y-99630714D01*
X144710071Y-99059285D01*
X144781499Y-98916428D01*
X144852928Y-98845000D01*
X144995785Y-98773571D01*
X145281499Y-98773571D01*
X145424357Y-98845000D01*
X145495785Y-98916428D01*
X145567214Y-99059285D01*
X145567214Y-99416428D01*
X145495785Y-99559285D01*
X145424357Y-99630714D01*
X145281499Y-99702142D01*
X144995785Y-99702142D01*
X144852928Y-99630714D01*
X144781499Y-99559285D01*
X144710071Y-99416428D01*
X143352928Y-98773571D02*
X144067214Y-98773571D01*
X144138642Y-99487857D01*
X144067214Y-99416428D01*
X143924357Y-99345000D01*
X143567214Y-99345000D01*
X143424357Y-99416428D01*
X143352928Y-99487857D01*
X143281499Y-99630714D01*
X143281499Y-99987857D01*
X143352928Y-100130714D01*
X143424357Y-100202142D01*
X143567214Y-100273571D01*
X143924357Y-100273571D01*
X144067214Y-100202142D01*
X144138642Y-100130714D01*
X142567214Y-100273571D02*
X142281499Y-100273571D01*
X142138642Y-100202142D01*
X142067214Y-100130714D01*
X141924357Y-99916428D01*
X141852928Y-99630714D01*
X141852928Y-99059285D01*
X141924357Y-98916428D01*
X141995785Y-98845000D01*
X142138642Y-98773571D01*
X142424357Y-98773571D01*
X142567214Y-98845000D01*
X142638642Y-98916428D01*
X142710071Y-99059285D01*
X142710071Y-99416428D01*
X142638642Y-99559285D01*
X142567214Y-99630714D01*
X142424357Y-99702142D01*
X142138642Y-99702142D01*
X141995785Y-99630714D01*
X141924357Y-99559285D01*
X141852928Y-99416428D01*
X125789785Y-67957142D02*
X125575500Y-68028571D01*
X125218357Y-68028571D01*
X125075500Y-67957142D01*
X125004071Y-67885714D01*
X124932642Y-67742857D01*
X124932642Y-67600000D01*
X125004071Y-67457142D01*
X125075500Y-67385714D01*
X125218357Y-67314285D01*
X125504071Y-67242857D01*
X125646928Y-67171428D01*
X125718357Y-67100000D01*
X125789785Y-66957142D01*
X125789785Y-66814285D01*
X125718357Y-66671428D01*
X125646928Y-66600000D01*
X125504071Y-66528571D01*
X125146928Y-66528571D01*
X124932642Y-66600000D01*
X124432642Y-66528571D02*
X124075500Y-68028571D01*
X123789785Y-66957142D01*
X123504071Y-68028571D01*
X123146928Y-66528571D01*
X122646928Y-66671428D02*
X122575500Y-66600000D01*
X122432642Y-66528571D01*
X122075500Y-66528571D01*
X121932642Y-66600000D01*
X121861214Y-66671428D01*
X121789785Y-66814285D01*
X121789785Y-66957142D01*
X121861214Y-67171428D01*
X122718357Y-68028571D01*
X121789785Y-68028571D01*
X121146928Y-67885714D02*
X121075500Y-67957142D01*
X121146928Y-68028571D01*
X121218357Y-67957142D01*
X121146928Y-67885714D01*
X121146928Y-68028571D01*
X121146928Y-67100000D02*
X121075500Y-67171428D01*
X121146928Y-67242857D01*
X121218357Y-67171428D01*
X121146928Y-67100000D01*
X121146928Y-67242857D01*
X118432642Y-68028571D02*
X118932642Y-67314285D01*
X119289785Y-68028571D02*
X119289785Y-66528571D01*
X118718357Y-66528571D01*
X118575500Y-66600000D01*
X118504071Y-66671428D01*
X118432642Y-66814285D01*
X118432642Y-67028571D01*
X118504071Y-67171428D01*
X118575500Y-67242857D01*
X118718357Y-67314285D01*
X119289785Y-67314285D01*
X117861214Y-67600000D02*
X117146928Y-67600000D01*
X118004071Y-68028571D02*
X117504071Y-66528571D01*
X117004071Y-68028571D01*
X116504071Y-68028571D02*
X116504071Y-66528571D01*
X116004071Y-67600000D01*
X115504071Y-66528571D01*
X115504071Y-68028571D01*
X113004071Y-67957142D02*
X113146928Y-68028571D01*
X113432642Y-68028571D01*
X113575500Y-67957142D01*
X113646928Y-67885714D01*
X113718357Y-67742857D01*
X113718357Y-67314285D01*
X113646928Y-67171428D01*
X113575500Y-67100000D01*
X113432642Y-67028571D01*
X113146928Y-67028571D01*
X113004071Y-67100000D01*
X112146928Y-68028571D02*
X112289785Y-67957142D01*
X112361214Y-67885714D01*
X112432642Y-67742857D01*
X112432642Y-67314285D01*
X112361214Y-67171428D01*
X112289785Y-67100000D01*
X112146928Y-67028571D01*
X111932642Y-67028571D01*
X111789785Y-67100000D01*
X111718357Y-67171428D01*
X111646928Y-67314285D01*
X111646928Y-67742857D01*
X111718357Y-67885714D01*
X111789785Y-67957142D01*
X111932642Y-68028571D01*
X112146928Y-68028571D01*
X111004071Y-67028571D02*
X111004071Y-68028571D01*
X111004071Y-67171428D02*
X110932642Y-67100000D01*
X110789785Y-67028571D01*
X110575500Y-67028571D01*
X110432642Y-67100000D01*
X110361214Y-67242857D01*
X110361214Y-68028571D01*
X109861214Y-67028571D02*
X109289785Y-67028571D01*
X109646928Y-68028571D02*
X109646928Y-66742857D01*
X109575500Y-66600000D01*
X109432642Y-66528571D01*
X109289785Y-66528571D01*
X108789785Y-68028571D02*
X108789785Y-67028571D01*
X108789785Y-66528571D02*
X108861214Y-66600000D01*
X108789785Y-66671428D01*
X108718357Y-66600000D01*
X108789785Y-66528571D01*
X108789785Y-66671428D01*
X107432642Y-67028571D02*
X107432642Y-68242857D01*
X107504071Y-68385714D01*
X107575500Y-68457142D01*
X107718357Y-68528571D01*
X107932642Y-68528571D01*
X108075500Y-68457142D01*
X107432642Y-67957142D02*
X107575500Y-68028571D01*
X107861214Y-68028571D01*
X108004071Y-67957142D01*
X108075500Y-67885714D01*
X108146928Y-67742857D01*
X108146928Y-67314285D01*
X108075500Y-67171428D01*
X108004071Y-67100000D01*
X107861214Y-67028571D01*
X107575500Y-67028571D01*
X107432642Y-67100000D01*
X125789785Y-70457142D02*
X125575500Y-70528571D01*
X125218357Y-70528571D01*
X125075500Y-70457142D01*
X125004071Y-70385714D01*
X124932642Y-70242857D01*
X124932642Y-70100000D01*
X125004071Y-69957142D01*
X125075500Y-69885714D01*
X125218357Y-69814285D01*
X125504071Y-69742857D01*
X125646928Y-69671428D01*
X125718357Y-69600000D01*
X125789785Y-69457142D01*
X125789785Y-69314285D01*
X125718357Y-69171428D01*
X125646928Y-69100000D01*
X125504071Y-69028571D01*
X125146928Y-69028571D01*
X124932642Y-69100000D01*
X124432642Y-69028571D02*
X124075500Y-70528571D01*
X123789785Y-69457142D01*
X123504071Y-70528571D01*
X123146928Y-69028571D01*
X122718357Y-69028571D02*
X121789785Y-69028571D01*
X122289785Y-69600000D01*
X122075500Y-69600000D01*
X121932642Y-69671428D01*
X121861214Y-69742857D01*
X121789785Y-69885714D01*
X121789785Y-70242857D01*
X121861214Y-70385714D01*
X121932642Y-70457142D01*
X122075500Y-70528571D01*
X122504071Y-70528571D01*
X122646928Y-70457142D01*
X122718357Y-70385714D01*
X121146928Y-70385714D02*
X121075500Y-70457142D01*
X121146928Y-70528571D01*
X121218357Y-70457142D01*
X121146928Y-70385714D01*
X121146928Y-70528571D01*
X121146928Y-69600000D02*
X121075500Y-69671428D01*
X121146928Y-69742857D01*
X121218357Y-69671428D01*
X121146928Y-69600000D01*
X121146928Y-69742857D01*
X118432642Y-70528571D02*
X118932642Y-69814285D01*
X119289785Y-70528571D02*
X119289785Y-69028571D01*
X118718357Y-69028571D01*
X118575500Y-69100000D01*
X118504071Y-69171428D01*
X118432642Y-69314285D01*
X118432642Y-69528571D01*
X118504071Y-69671428D01*
X118575500Y-69742857D01*
X118718357Y-69814285D01*
X119289785Y-69814285D01*
X117504071Y-69028571D02*
X117218357Y-69028571D01*
X117075500Y-69100000D01*
X116932642Y-69242857D01*
X116861214Y-69528571D01*
X116861214Y-70028571D01*
X116932642Y-70314285D01*
X117075500Y-70457142D01*
X117218357Y-70528571D01*
X117504071Y-70528571D01*
X117646928Y-70457142D01*
X117789785Y-70314285D01*
X117861214Y-70028571D01*
X117861214Y-69528571D01*
X117789785Y-69242857D01*
X117646928Y-69100000D01*
X117504071Y-69028571D01*
X116218357Y-70528571D02*
X116218357Y-69028571D01*
X115718357Y-70100000D01*
X115218357Y-69028571D01*
X115218357Y-70528571D01*
X112718357Y-70457142D02*
X112861214Y-70528571D01*
X113146928Y-70528571D01*
X113289785Y-70457142D01*
X113361214Y-70385714D01*
X113432642Y-70242857D01*
X113432642Y-69814285D01*
X113361214Y-69671428D01*
X113289785Y-69600000D01*
X113146928Y-69528571D01*
X112861214Y-69528571D01*
X112718357Y-69600000D01*
X111861214Y-70528571D02*
X112004071Y-70457142D01*
X112075500Y-70385714D01*
X112146928Y-70242857D01*
X112146928Y-69814285D01*
X112075500Y-69671428D01*
X112004071Y-69600000D01*
X111861214Y-69528571D01*
X111646928Y-69528571D01*
X111504071Y-69600000D01*
X111432642Y-69671428D01*
X111361214Y-69814285D01*
X111361214Y-70242857D01*
X111432642Y-70385714D01*
X111504071Y-70457142D01*
X111646928Y-70528571D01*
X111861214Y-70528571D01*
X110718357Y-69528571D02*
X110718357Y-70528571D01*
X110718357Y-69671428D02*
X110646928Y-69600000D01*
X110504071Y-69528571D01*
X110289785Y-69528571D01*
X110146928Y-69600000D01*
X110075500Y-69742857D01*
X110075500Y-70528571D01*
X109575500Y-69528571D02*
X109004071Y-69528571D01*
X109361214Y-70528571D02*
X109361214Y-69242857D01*
X109289785Y-69100000D01*
X109146928Y-69028571D01*
X109004071Y-69028571D01*
X108504071Y-70528571D02*
X108504071Y-69528571D01*
X108504071Y-69028571D02*
X108575500Y-69100000D01*
X108504071Y-69171428D01*
X108432642Y-69100000D01*
X108504071Y-69028571D01*
X108504071Y-69171428D01*
X107146928Y-69528571D02*
X107146928Y-70742857D01*
X107218357Y-70885714D01*
X107289785Y-70957142D01*
X107432642Y-71028571D01*
X107646928Y-71028571D01*
X107789785Y-70957142D01*
X107146928Y-70457142D02*
X107289785Y-70528571D01*
X107575500Y-70528571D01*
X107718357Y-70457142D01*
X107789785Y-70385714D01*
X107861214Y-70242857D01*
X107861214Y-69814285D01*
X107789785Y-69671428D01*
X107718357Y-69600000D01*
X107575500Y-69528571D01*
X107289785Y-69528571D01*
X107146928Y-69600000D01*
X125789785Y-72957142D02*
X125575500Y-73028571D01*
X125218357Y-73028571D01*
X125075500Y-72957142D01*
X125004071Y-72885714D01*
X124932642Y-72742857D01*
X124932642Y-72600000D01*
X125004071Y-72457142D01*
X125075500Y-72385714D01*
X125218357Y-72314285D01*
X125504071Y-72242857D01*
X125646928Y-72171428D01*
X125718357Y-72100000D01*
X125789785Y-71957142D01*
X125789785Y-71814285D01*
X125718357Y-71671428D01*
X125646928Y-71600000D01*
X125504071Y-71528571D01*
X125146928Y-71528571D01*
X124932642Y-71600000D01*
X124432642Y-71528571D02*
X124075500Y-73028571D01*
X123789785Y-71957142D01*
X123504071Y-73028571D01*
X123146928Y-71528571D01*
X121932642Y-72028571D02*
X121932642Y-73028571D01*
X122289785Y-71457142D02*
X122646928Y-72528571D01*
X121718357Y-72528571D01*
X121146928Y-72885714D02*
X121075500Y-72957142D01*
X121146928Y-73028571D01*
X121218357Y-72957142D01*
X121146928Y-72885714D01*
X121146928Y-73028571D01*
X121146928Y-72100000D02*
X121075500Y-72171428D01*
X121146928Y-72242857D01*
X121218357Y-72171428D01*
X121146928Y-72100000D01*
X121146928Y-72242857D01*
X118432642Y-73028571D02*
X118932642Y-72314285D01*
X119289785Y-73028571D02*
X119289785Y-71528571D01*
X118718357Y-71528571D01*
X118575500Y-71600000D01*
X118504071Y-71671428D01*
X118432642Y-71814285D01*
X118432642Y-72028571D01*
X118504071Y-72171428D01*
X118575500Y-72242857D01*
X118718357Y-72314285D01*
X119289785Y-72314285D01*
X117504071Y-71528571D02*
X117218357Y-71528571D01*
X117075500Y-71600000D01*
X116932642Y-71742857D01*
X116861214Y-72028571D01*
X116861214Y-72528571D01*
X116932642Y-72814285D01*
X117075500Y-72957142D01*
X117218357Y-73028571D01*
X117504071Y-73028571D01*
X117646928Y-72957142D01*
X117789785Y-72814285D01*
X117861214Y-72528571D01*
X117861214Y-72028571D01*
X117789785Y-71742857D01*
X117646928Y-71600000D01*
X117504071Y-71528571D01*
X116218357Y-73028571D02*
X116218357Y-71528571D01*
X115718357Y-72600000D01*
X115218357Y-71528571D01*
X115218357Y-73028571D01*
X112718357Y-73028571D02*
X112718357Y-72242857D01*
X112789785Y-72100000D01*
X112932642Y-72028571D01*
X113218357Y-72028571D01*
X113361214Y-72100000D01*
X112718357Y-72957142D02*
X112861214Y-73028571D01*
X113218357Y-73028571D01*
X113361214Y-72957142D01*
X113432642Y-72814285D01*
X113432642Y-72671428D01*
X113361214Y-72528571D01*
X113218357Y-72457142D01*
X112861214Y-72457142D01*
X112718357Y-72385714D01*
X111361214Y-73028571D02*
X111361214Y-71528571D01*
X111361214Y-72957142D02*
X111504071Y-73028571D01*
X111789785Y-73028571D01*
X111932642Y-72957142D01*
X112004071Y-72885714D01*
X112075500Y-72742857D01*
X112075500Y-72314285D01*
X112004071Y-72171428D01*
X111932642Y-72100000D01*
X111789785Y-72028571D01*
X111504071Y-72028571D01*
X111361214Y-72100000D01*
X110004071Y-73028571D02*
X110004071Y-71528571D01*
X110004071Y-72957142D02*
X110146928Y-73028571D01*
X110432642Y-73028571D01*
X110575500Y-72957142D01*
X110646928Y-72885714D01*
X110718357Y-72742857D01*
X110718357Y-72314285D01*
X110646928Y-72171428D01*
X110575500Y-72100000D01*
X110432642Y-72028571D01*
X110146928Y-72028571D01*
X110004071Y-72100000D01*
X109289785Y-73028571D02*
X109289785Y-72028571D01*
X109289785Y-72314285D02*
X109218357Y-72171428D01*
X109146928Y-72100000D01*
X109004071Y-72028571D01*
X108861214Y-72028571D01*
X107789785Y-72957142D02*
X107932642Y-73028571D01*
X108218357Y-73028571D01*
X108361214Y-72957142D01*
X108432642Y-72814285D01*
X108432642Y-72242857D01*
X108361214Y-72100000D01*
X108218357Y-72028571D01*
X107932642Y-72028571D01*
X107789785Y-72100000D01*
X107718357Y-72242857D01*
X107718357Y-72385714D01*
X108432642Y-72528571D01*
X107146928Y-72957142D02*
X107004071Y-73028571D01*
X106718357Y-73028571D01*
X106575500Y-72957142D01*
X106504071Y-72814285D01*
X106504071Y-72742857D01*
X106575500Y-72600000D01*
X106718357Y-72528571D01*
X106932642Y-72528571D01*
X107075500Y-72457142D01*
X107146928Y-72314285D01*
X107146928Y-72242857D01*
X107075500Y-72100000D01*
X106932642Y-72028571D01*
X106718357Y-72028571D01*
X106575500Y-72100000D01*
X105932642Y-72957142D02*
X105789785Y-73028571D01*
X105504071Y-73028571D01*
X105361214Y-72957142D01*
X105289785Y-72814285D01*
X105289785Y-72742857D01*
X105361214Y-72600000D01*
X105504071Y-72528571D01*
X105718357Y-72528571D01*
X105861214Y-72457142D01*
X105932642Y-72314285D01*
X105932642Y-72242857D01*
X105861214Y-72100000D01*
X105718357Y-72028571D01*
X105504071Y-72028571D01*
X105361214Y-72100000D01*
X104646928Y-73028571D02*
X104646928Y-72028571D01*
X104646928Y-71528571D02*
X104718357Y-71600000D01*
X104646928Y-71671428D01*
X104575500Y-71600000D01*
X104646928Y-71528571D01*
X104646928Y-71671428D01*
X103932642Y-72028571D02*
X103932642Y-73028571D01*
X103932642Y-72171428D02*
X103861214Y-72100000D01*
X103718357Y-72028571D01*
X103504071Y-72028571D01*
X103361214Y-72100000D01*
X103289785Y-72242857D01*
X103289785Y-73028571D01*
X101932642Y-72028571D02*
X101932642Y-73242857D01*
X102004071Y-73385714D01*
X102075500Y-73457142D01*
X102218357Y-73528571D01*
X102432642Y-73528571D01*
X102575500Y-73457142D01*
X101932642Y-72957142D02*
X102075500Y-73028571D01*
X102361214Y-73028571D01*
X102504071Y-72957142D01*
X102575500Y-72885714D01*
X102646928Y-72742857D01*
X102646928Y-72314285D01*
X102575500Y-72171428D01*
X102504071Y-72100000D01*
X102361214Y-72028571D01*
X102075500Y-72028571D01*
X101932642Y-72100000D01*
D13*
X181356000Y-53594000D02*
X180975000Y-53086000D01*
X181356000Y-53594000D02*
X180721000Y-53594000D01*
X178689000Y-52197000D02*
X181356000Y-53594000D01*
D14*
X178303571Y-51473571D02*
X178803571Y-50759285D01*
X179160714Y-51473571D02*
X179160714Y-49973571D01*
X178589285Y-49973571D01*
X178446428Y-50045000D01*
X178375000Y-50116428D01*
X178303571Y-50259285D01*
X178303571Y-50473571D01*
X178375000Y-50616428D01*
X178446428Y-50687857D01*
X178589285Y-50759285D01*
X179160714Y-50759285D01*
X177089285Y-51402142D02*
X177232142Y-51473571D01*
X177517857Y-51473571D01*
X177660714Y-51402142D01*
X177732142Y-51259285D01*
X177732142Y-50687857D01*
X177660714Y-50545000D01*
X177517857Y-50473571D01*
X177232142Y-50473571D01*
X177089285Y-50545000D01*
X177017857Y-50687857D01*
X177017857Y-50830714D01*
X177732142Y-50973571D01*
X175732142Y-50473571D02*
X175732142Y-51973571D01*
X175732142Y-51402142D02*
X175875000Y-51473571D01*
X176160714Y-51473571D01*
X176303571Y-51402142D01*
X176375000Y-51330714D01*
X176446428Y-51187857D01*
X176446428Y-50759285D01*
X176375000Y-50616428D01*
X176303571Y-50545000D01*
X176160714Y-50473571D01*
X175875000Y-50473571D01*
X175732142Y-50545000D01*
X174375000Y-50473571D02*
X174375000Y-51473571D01*
X175017857Y-50473571D02*
X175017857Y-51259285D01*
X174946428Y-51402142D01*
X174803571Y-51473571D01*
X174589285Y-51473571D01*
X174446428Y-51402142D01*
X174375000Y-51330714D01*
X173660714Y-51473571D02*
X173660714Y-50473571D01*
X173660714Y-49973571D02*
X173732142Y-50045000D01*
X173660714Y-50116428D01*
X173589285Y-50045000D01*
X173660714Y-49973571D01*
X173660714Y-50116428D01*
X172946428Y-51473571D02*
X172946428Y-50473571D01*
X172946428Y-50759285D02*
X172875000Y-50616428D01*
X172803571Y-50545000D01*
X172660714Y-50473571D01*
X172517857Y-50473571D01*
X171446428Y-51402142D02*
X171589285Y-51473571D01*
X171875000Y-51473571D01*
X172017857Y-51402142D01*
X172089285Y-51259285D01*
X172089285Y-50687857D01*
X172017857Y-50545000D01*
X171875000Y-50473571D01*
X171589285Y-50473571D01*
X171446428Y-50545000D01*
X171375000Y-50687857D01*
X171375000Y-50830714D01*
X172089285Y-50973571D01*
X170089285Y-51473571D02*
X170089285Y-49973571D01*
X170089285Y-51402142D02*
X170232142Y-51473571D01*
X170517857Y-51473571D01*
X170660714Y-51402142D01*
X170732142Y-51330714D01*
X170803571Y-51187857D01*
X170803571Y-50759285D01*
X170732142Y-50616428D01*
X170660714Y-50545000D01*
X170517857Y-50473571D01*
X170232142Y-50473571D01*
X170089285Y-50545000D01*
X177875000Y-52523571D02*
X177875000Y-53595000D01*
X177946428Y-53809285D01*
X178089285Y-53952142D01*
X178303571Y-54023571D01*
X178446428Y-54023571D01*
X176517857Y-53023571D02*
X176517857Y-54023571D01*
X177160714Y-53023571D02*
X177160714Y-53809285D01*
X177089285Y-53952142D01*
X176946428Y-54023571D01*
X176732142Y-54023571D01*
X176589285Y-53952142D01*
X176517857Y-53880714D01*
X175803571Y-54023571D02*
X175803571Y-53023571D01*
X175803571Y-53166428D02*
X175732142Y-53095000D01*
X175589285Y-53023571D01*
X175375000Y-53023571D01*
X175232142Y-53095000D01*
X175160714Y-53237857D01*
X175160714Y-54023571D01*
X175160714Y-53237857D02*
X175089285Y-53095000D01*
X174946428Y-53023571D01*
X174732142Y-53023571D01*
X174589285Y-53095000D01*
X174517857Y-53237857D01*
X174517857Y-54023571D01*
X173803571Y-53023571D02*
X173803571Y-54523571D01*
X173803571Y-53095000D02*
X173660714Y-53023571D01*
X173375000Y-53023571D01*
X173232142Y-53095000D01*
X173160714Y-53166428D01*
X173089285Y-53309285D01*
X173089285Y-53737857D01*
X173160714Y-53880714D01*
X173232142Y-53952142D01*
X173375000Y-54023571D01*
X173660714Y-54023571D01*
X173803571Y-53952142D01*
X171875000Y-53952142D02*
X172017857Y-54023571D01*
X172303571Y-54023571D01*
X172446428Y-53952142D01*
X172517857Y-53809285D01*
X172517857Y-53237857D01*
X172446428Y-53095000D01*
X172303571Y-53023571D01*
X172017857Y-53023571D01*
X171875000Y-53095000D01*
X171803571Y-53237857D01*
X171803571Y-53380714D01*
X172517857Y-53523571D01*
X171160714Y-54023571D02*
X171160714Y-53023571D01*
X171160714Y-53309285D02*
X171089285Y-53166428D01*
X171017857Y-53095000D01*
X170875000Y-53023571D01*
X170732142Y-53023571D01*
X186272857Y-67187857D02*
X186058571Y-67259285D01*
X185987142Y-67330714D01*
X185915714Y-67473571D01*
X185915714Y-67687857D01*
X185987142Y-67830714D01*
X186058571Y-67902142D01*
X186201428Y-67973571D01*
X186772857Y-67973571D01*
X186772857Y-66473571D01*
X186272857Y-66473571D01*
X186130000Y-66545000D01*
X186058571Y-66616428D01*
X185987142Y-66759285D01*
X185987142Y-66902142D01*
X186058571Y-67045000D01*
X186130000Y-67116428D01*
X186272857Y-67187857D01*
X186772857Y-67187857D01*
X184558571Y-67973571D02*
X185272857Y-67973571D01*
X185272857Y-66473571D01*
X184058571Y-67973571D02*
X184058571Y-66473571D01*
X183201428Y-67973571D02*
X183844285Y-67116428D01*
X183201428Y-66473571D02*
X184058571Y-67330714D01*
X181772857Y-67973571D02*
X182630000Y-67973571D01*
X182201428Y-67973571D02*
X182201428Y-66473571D01*
X182344285Y-66687857D01*
X182487142Y-66830714D01*
X182630000Y-66902142D01*
X181130000Y-67830714D02*
X181058571Y-67902142D01*
X181130000Y-67973571D01*
X181201428Y-67902142D01*
X181130000Y-67830714D01*
X181130000Y-67973571D01*
X181130000Y-67045000D02*
X181058571Y-67116428D01*
X181130000Y-67187857D01*
X181201428Y-67116428D01*
X181130000Y-67045000D01*
X181130000Y-67187857D01*
X179344285Y-67902142D02*
X179130000Y-67973571D01*
X178772857Y-67973571D01*
X178630000Y-67902142D01*
X178558571Y-67830714D01*
X178487142Y-67687857D01*
X178487142Y-67545000D01*
X178558571Y-67402142D01*
X178630000Y-67330714D01*
X178772857Y-67259285D01*
X179058571Y-67187857D01*
X179201428Y-67116428D01*
X179272857Y-67045000D01*
X179344285Y-66902142D01*
X179344285Y-66759285D01*
X179272857Y-66616428D01*
X179201428Y-66545000D01*
X179058571Y-66473571D01*
X178701428Y-66473571D01*
X178487142Y-66545000D01*
X178915714Y-66259285D02*
X178915714Y-68187857D01*
X177915714Y-66616428D02*
X177844285Y-66545000D01*
X177701428Y-66473571D01*
X177344285Y-66473571D01*
X177201428Y-66545000D01*
X177130000Y-66616428D01*
X177058571Y-66759285D01*
X177058571Y-66902142D01*
X177130000Y-67116428D01*
X177987142Y-67973571D01*
X177058571Y-67973571D01*
X176130000Y-66473571D02*
X175987142Y-66473571D01*
X175844285Y-66545000D01*
X175772857Y-66616428D01*
X175701428Y-66759285D01*
X175630000Y-67045000D01*
X175630000Y-67402142D01*
X175701428Y-67687857D01*
X175772857Y-67830714D01*
X175844285Y-67902142D01*
X175987142Y-67973571D01*
X176130000Y-67973571D01*
X176272857Y-67902142D01*
X176344285Y-67830714D01*
X176415714Y-67687857D01*
X176487142Y-67402142D01*
X176487142Y-67045000D01*
X176415714Y-66759285D01*
X176344285Y-66616428D01*
X176272857Y-66545000D01*
X176130000Y-66473571D01*
X174701428Y-66473571D02*
X174558571Y-66473571D01*
X174415714Y-66545000D01*
X174344285Y-66616428D01*
X174272857Y-66759285D01*
X174201428Y-67045000D01*
X174201428Y-67402142D01*
X174272857Y-67687857D01*
X174344285Y-67830714D01*
X174415714Y-67902142D01*
X174558571Y-67973571D01*
X174701428Y-67973571D01*
X174844285Y-67902142D01*
X174915714Y-67830714D01*
X174987142Y-67687857D01*
X175058571Y-67402142D01*
X175058571Y-67045000D01*
X174987142Y-66759285D01*
X174915714Y-66616428D01*
X174844285Y-66545000D01*
X174701428Y-66473571D01*
X173272857Y-66473571D02*
X173130000Y-66473571D01*
X172987142Y-66545000D01*
X172915714Y-66616428D01*
X172844285Y-66759285D01*
X172772857Y-67045000D01*
X172772857Y-67402142D01*
X172844285Y-67687857D01*
X172915714Y-67830714D01*
X172987142Y-67902142D01*
X173130000Y-67973571D01*
X173272857Y-67973571D01*
X173415714Y-67902142D01*
X173487142Y-67830714D01*
X173558571Y-67687857D01*
X173630000Y-67402142D01*
X173630000Y-67045000D01*
X173558571Y-66759285D01*
X173487142Y-66616428D01*
X173415714Y-66545000D01*
X173272857Y-66473571D01*
X172130000Y-67402142D02*
X170987142Y-67402142D01*
X170415714Y-66473571D02*
X169487142Y-66473571D01*
X169987142Y-67045000D01*
X169772857Y-67045000D01*
X169630000Y-67116428D01*
X169558571Y-67187857D01*
X169487142Y-67330714D01*
X169487142Y-67687857D01*
X169558571Y-67830714D01*
X169630000Y-67902142D01*
X169772857Y-67973571D01*
X170201428Y-67973571D01*
X170344285Y-67902142D01*
X170415714Y-67830714D01*
X168344285Y-67187857D02*
X168844285Y-67187857D01*
X168844285Y-67973571D02*
X168844285Y-66473571D01*
X168130000Y-66473571D01*
X167058571Y-67187857D02*
X167558571Y-67187857D01*
X167558571Y-67973571D02*
X167558571Y-66473571D01*
X166844285Y-66473571D01*
X165772857Y-67187857D02*
X166272857Y-67187857D01*
X166272857Y-67973571D02*
X166272857Y-66473571D01*
X165558571Y-66473571D01*
X163415714Y-68545000D02*
X163487142Y-68473571D01*
X163630000Y-68259285D01*
X163701428Y-68116428D01*
X163772857Y-67902142D01*
X163844285Y-67545000D01*
X163844285Y-67259285D01*
X163772857Y-66902142D01*
X163701428Y-66687857D01*
X163630000Y-66545000D01*
X163487142Y-66330714D01*
X163415714Y-66259285D01*
X162344285Y-67187857D02*
X162844285Y-67187857D01*
X162844285Y-67973571D02*
X162844285Y-66473571D01*
X162130000Y-66473571D01*
X160844285Y-67973571D02*
X161558571Y-67973571D01*
X161558571Y-66473571D01*
X160415714Y-67545000D02*
X159701428Y-67545000D01*
X160558571Y-67973571D02*
X160058571Y-66473571D01*
X159558571Y-67973571D01*
X159130000Y-67902142D02*
X158915714Y-67973571D01*
X158558571Y-67973571D01*
X158415714Y-67902142D01*
X158344285Y-67830714D01*
X158272857Y-67687857D01*
X158272857Y-67545000D01*
X158344285Y-67402142D01*
X158415714Y-67330714D01*
X158558571Y-67259285D01*
X158844285Y-67187857D01*
X158987142Y-67116428D01*
X159058571Y-67045000D01*
X159130000Y-66902142D01*
X159130000Y-66759285D01*
X159058571Y-66616428D01*
X158987142Y-66545000D01*
X158844285Y-66473571D01*
X158487142Y-66473571D01*
X158272857Y-66545000D01*
X157630000Y-67973571D02*
X157630000Y-66473571D01*
X157630000Y-67187857D02*
X156772857Y-67187857D01*
X156772857Y-67973571D02*
X156772857Y-66473571D01*
X154701428Y-67973571D02*
X154844285Y-67902142D01*
X154915714Y-67830714D01*
X154987142Y-67687857D01*
X154987142Y-67259285D01*
X154915714Y-67116428D01*
X154844285Y-67045000D01*
X154701428Y-66973571D01*
X154487142Y-66973571D01*
X154344285Y-67045000D01*
X154272857Y-67116428D01*
X154201428Y-67259285D01*
X154201428Y-67687857D01*
X154272857Y-67830714D01*
X154344285Y-67902142D01*
X154487142Y-67973571D01*
X154701428Y-67973571D01*
X153558571Y-67973571D02*
X153558571Y-66973571D01*
X153558571Y-67259285D02*
X153487142Y-67116428D01*
X153415714Y-67045000D01*
X153272857Y-66973571D01*
X153130000Y-66973571D01*
X150630000Y-67973571D02*
X151130000Y-67259285D01*
X151487142Y-67973571D02*
X151487142Y-66473571D01*
X150915714Y-66473571D01*
X150772857Y-66545000D01*
X150701428Y-66616428D01*
X150630000Y-66759285D01*
X150630000Y-66973571D01*
X150701428Y-67116428D01*
X150772857Y-67187857D01*
X150915714Y-67259285D01*
X151487142Y-67259285D01*
X150058571Y-67545000D02*
X149344285Y-67545000D01*
X150201428Y-67973571D02*
X149701428Y-66473571D01*
X149201428Y-67973571D01*
X148701428Y-67973571D02*
X148701428Y-66473571D01*
X148201428Y-67545000D01*
X147701428Y-66473571D01*
X147701428Y-67973571D01*
X147130000Y-68545000D02*
X147058571Y-68473571D01*
X146915714Y-68259285D01*
X146844285Y-68116428D01*
X146772857Y-67902142D01*
X146701428Y-67545000D01*
X146701428Y-67259285D01*
X146772857Y-66902142D01*
X146844285Y-66687857D01*
X146915714Y-66545000D01*
X147058571Y-66330714D01*
X147130000Y-66259285D01*
X186272857Y-69737857D02*
X186058571Y-69809285D01*
X185987142Y-69880714D01*
X185915714Y-70023571D01*
X185915714Y-70237857D01*
X185987142Y-70380714D01*
X186058571Y-70452142D01*
X186201428Y-70523571D01*
X186772857Y-70523571D01*
X186772857Y-69023571D01*
X186272857Y-69023571D01*
X186130000Y-69095000D01*
X186058571Y-69166428D01*
X185987142Y-69309285D01*
X185987142Y-69452142D01*
X186058571Y-69595000D01*
X186130000Y-69666428D01*
X186272857Y-69737857D01*
X186772857Y-69737857D01*
X184558571Y-70523571D02*
X185272857Y-70523571D01*
X185272857Y-69023571D01*
X184058571Y-70523571D02*
X184058571Y-69023571D01*
X183201428Y-70523571D02*
X183844285Y-69666428D01*
X183201428Y-69023571D02*
X184058571Y-69880714D01*
X182630000Y-69166428D02*
X182558571Y-69095000D01*
X182415714Y-69023571D01*
X182058571Y-69023571D01*
X181915714Y-69095000D01*
X181844285Y-69166428D01*
X181772857Y-69309285D01*
X181772857Y-69452142D01*
X181844285Y-69666428D01*
X182701428Y-70523571D01*
X181772857Y-70523571D01*
X181130000Y-70380714D02*
X181058571Y-70452142D01*
X181130000Y-70523571D01*
X181201428Y-70452142D01*
X181130000Y-70380714D01*
X181130000Y-70523571D01*
X181130000Y-69595000D02*
X181058571Y-69666428D01*
X181130000Y-69737857D01*
X181201428Y-69666428D01*
X181130000Y-69595000D01*
X181130000Y-69737857D01*
X179344285Y-70452142D02*
X179130000Y-70523571D01*
X178772857Y-70523571D01*
X178630000Y-70452142D01*
X178558571Y-70380714D01*
X178487142Y-70237857D01*
X178487142Y-70095000D01*
X178558571Y-69952142D01*
X178630000Y-69880714D01*
X178772857Y-69809285D01*
X179058571Y-69737857D01*
X179201428Y-69666428D01*
X179272857Y-69595000D01*
X179344285Y-69452142D01*
X179344285Y-69309285D01*
X179272857Y-69166428D01*
X179201428Y-69095000D01*
X179058571Y-69023571D01*
X178701428Y-69023571D01*
X178487142Y-69095000D01*
X178915714Y-68809285D02*
X178915714Y-70737857D01*
X177201428Y-69523571D02*
X177201428Y-70523571D01*
X177558571Y-68952142D02*
X177915714Y-70023571D01*
X176987142Y-70023571D01*
X176130000Y-69023571D02*
X175987142Y-69023571D01*
X175844285Y-69095000D01*
X175772857Y-69166428D01*
X175701428Y-69309285D01*
X175630000Y-69595000D01*
X175630000Y-69952142D01*
X175701428Y-70237857D01*
X175772857Y-70380714D01*
X175844285Y-70452142D01*
X175987142Y-70523571D01*
X176130000Y-70523571D01*
X176272857Y-70452142D01*
X176344285Y-70380714D01*
X176415714Y-70237857D01*
X176487142Y-69952142D01*
X176487142Y-69595000D01*
X176415714Y-69309285D01*
X176344285Y-69166428D01*
X176272857Y-69095000D01*
X176130000Y-69023571D01*
X174701428Y-69023571D02*
X174558571Y-69023571D01*
X174415714Y-69095000D01*
X174344285Y-69166428D01*
X174272857Y-69309285D01*
X174201428Y-69595000D01*
X174201428Y-69952142D01*
X174272857Y-70237857D01*
X174344285Y-70380714D01*
X174415714Y-70452142D01*
X174558571Y-70523571D01*
X174701428Y-70523571D01*
X174844285Y-70452142D01*
X174915714Y-70380714D01*
X174987142Y-70237857D01*
X175058571Y-69952142D01*
X175058571Y-69595000D01*
X174987142Y-69309285D01*
X174915714Y-69166428D01*
X174844285Y-69095000D01*
X174701428Y-69023571D01*
X173272857Y-69023571D02*
X173130000Y-69023571D01*
X172987142Y-69095000D01*
X172915714Y-69166428D01*
X172844285Y-69309285D01*
X172772857Y-69595000D01*
X172772857Y-69952142D01*
X172844285Y-70237857D01*
X172915714Y-70380714D01*
X172987142Y-70452142D01*
X173130000Y-70523571D01*
X173272857Y-70523571D01*
X173415714Y-70452142D01*
X173487142Y-70380714D01*
X173558571Y-70237857D01*
X173630000Y-69952142D01*
X173630000Y-69595000D01*
X173558571Y-69309285D01*
X173487142Y-69166428D01*
X173415714Y-69095000D01*
X173272857Y-69023571D01*
X172130000Y-69952142D02*
X170987142Y-69952142D01*
X169558571Y-69023571D02*
X170272857Y-69023571D01*
X170344285Y-69737857D01*
X170272857Y-69666428D01*
X170130000Y-69595000D01*
X169772857Y-69595000D01*
X169630000Y-69666428D01*
X169558571Y-69737857D01*
X169487142Y-69880714D01*
X169487142Y-70237857D01*
X169558571Y-70380714D01*
X169630000Y-70452142D01*
X169772857Y-70523571D01*
X170130000Y-70523571D01*
X170272857Y-70452142D01*
X170344285Y-70380714D01*
X168344285Y-69737857D02*
X168844285Y-69737857D01*
X168844285Y-70523571D02*
X168844285Y-69023571D01*
X168130000Y-69023571D01*
X167058571Y-69737857D02*
X167558571Y-69737857D01*
X167558571Y-70523571D02*
X167558571Y-69023571D01*
X166844285Y-69023571D01*
X165772857Y-69737857D02*
X166272857Y-69737857D01*
X166272857Y-70523571D02*
X166272857Y-69023571D01*
X165558571Y-69023571D01*
X163415714Y-71095000D02*
X163487142Y-71023571D01*
X163630000Y-70809285D01*
X163701428Y-70666428D01*
X163772857Y-70452142D01*
X163844285Y-70095000D01*
X163844285Y-69809285D01*
X163772857Y-69452142D01*
X163701428Y-69237857D01*
X163630000Y-69095000D01*
X163487142Y-68880714D01*
X163415714Y-68809285D01*
X162344285Y-69737857D02*
X162844285Y-69737857D01*
X162844285Y-70523571D02*
X162844285Y-69023571D01*
X162130000Y-69023571D01*
X160844285Y-70523571D02*
X161558571Y-70523571D01*
X161558571Y-69023571D01*
X160415714Y-70095000D02*
X159701428Y-70095000D01*
X160558571Y-70523571D02*
X160058571Y-69023571D01*
X159558571Y-70523571D01*
X159130000Y-70452142D02*
X158915714Y-70523571D01*
X158558571Y-70523571D01*
X158415714Y-70452142D01*
X158344285Y-70380714D01*
X158272857Y-70237857D01*
X158272857Y-70095000D01*
X158344285Y-69952142D01*
X158415714Y-69880714D01*
X158558571Y-69809285D01*
X158844285Y-69737857D01*
X158987142Y-69666428D01*
X159058571Y-69595000D01*
X159130000Y-69452142D01*
X159130000Y-69309285D01*
X159058571Y-69166428D01*
X158987142Y-69095000D01*
X158844285Y-69023571D01*
X158487142Y-69023571D01*
X158272857Y-69095000D01*
X157630000Y-70523571D02*
X157630000Y-69023571D01*
X157630000Y-69737857D02*
X156772857Y-69737857D01*
X156772857Y-70523571D02*
X156772857Y-69023571D01*
X154701428Y-70523571D02*
X154844285Y-70452142D01*
X154915714Y-70380714D01*
X154987142Y-70237857D01*
X154987142Y-69809285D01*
X154915714Y-69666428D01*
X154844285Y-69595000D01*
X154701428Y-69523571D01*
X154487142Y-69523571D01*
X154344285Y-69595000D01*
X154272857Y-69666428D01*
X154201428Y-69809285D01*
X154201428Y-70237857D01*
X154272857Y-70380714D01*
X154344285Y-70452142D01*
X154487142Y-70523571D01*
X154701428Y-70523571D01*
X153558571Y-70523571D02*
X153558571Y-69523571D01*
X153558571Y-69809285D02*
X153487142Y-69666428D01*
X153415714Y-69595000D01*
X153272857Y-69523571D01*
X153130000Y-69523571D01*
X150630000Y-70523571D02*
X151130000Y-69809285D01*
X151487142Y-70523571D02*
X151487142Y-69023571D01*
X150915714Y-69023571D01*
X150772857Y-69095000D01*
X150701428Y-69166428D01*
X150630000Y-69309285D01*
X150630000Y-69523571D01*
X150701428Y-69666428D01*
X150772857Y-69737857D01*
X150915714Y-69809285D01*
X151487142Y-69809285D01*
X150058571Y-70095000D02*
X149344285Y-70095000D01*
X150201428Y-70523571D02*
X149701428Y-69023571D01*
X149201428Y-70523571D01*
X148701428Y-70523571D02*
X148701428Y-69023571D01*
X148201428Y-70095000D01*
X147701428Y-69023571D01*
X147701428Y-70523571D01*
X147130000Y-71095000D02*
X147058571Y-71023571D01*
X146915714Y-70809285D01*
X146844285Y-70666428D01*
X146772857Y-70452142D01*
X146701428Y-70095000D01*
X146701428Y-69809285D01*
X146772857Y-69452142D01*
X146844285Y-69237857D01*
X146915714Y-69095000D01*
X147058571Y-68880714D01*
X147130000Y-68809285D01*
X186272857Y-72287857D02*
X186058571Y-72359285D01*
X185987142Y-72430714D01*
X185915714Y-72573571D01*
X185915714Y-72787857D01*
X185987142Y-72930714D01*
X186058571Y-73002142D01*
X186201428Y-73073571D01*
X186772857Y-73073571D01*
X186772857Y-71573571D01*
X186272857Y-71573571D01*
X186130000Y-71645000D01*
X186058571Y-71716428D01*
X185987142Y-71859285D01*
X185987142Y-72002142D01*
X186058571Y-72145000D01*
X186130000Y-72216428D01*
X186272857Y-72287857D01*
X186772857Y-72287857D01*
X184558571Y-73073571D02*
X185272857Y-73073571D01*
X185272857Y-71573571D01*
X184058571Y-73073571D02*
X184058571Y-71573571D01*
X183201428Y-73073571D02*
X183844285Y-72216428D01*
X183201428Y-71573571D02*
X184058571Y-72430714D01*
X182701428Y-71573571D02*
X181772857Y-71573571D01*
X182272857Y-72145000D01*
X182058571Y-72145000D01*
X181915714Y-72216428D01*
X181844285Y-72287857D01*
X181772857Y-72430714D01*
X181772857Y-72787857D01*
X181844285Y-72930714D01*
X181915714Y-73002142D01*
X182058571Y-73073571D01*
X182487142Y-73073571D01*
X182630000Y-73002142D01*
X182701428Y-72930714D01*
X181130000Y-72930714D02*
X181058571Y-73002142D01*
X181130000Y-73073571D01*
X181201428Y-73002142D01*
X181130000Y-72930714D01*
X181130000Y-73073571D01*
X181130000Y-72145000D02*
X181058571Y-72216428D01*
X181130000Y-72287857D01*
X181201428Y-72216428D01*
X181130000Y-72145000D01*
X181130000Y-72287857D01*
X179344285Y-73002142D02*
X179130000Y-73073571D01*
X178772857Y-73073571D01*
X178630000Y-73002142D01*
X178558571Y-72930714D01*
X178487142Y-72787857D01*
X178487142Y-72645000D01*
X178558571Y-72502142D01*
X178630000Y-72430714D01*
X178772857Y-72359285D01*
X179058571Y-72287857D01*
X179201428Y-72216428D01*
X179272857Y-72145000D01*
X179344285Y-72002142D01*
X179344285Y-71859285D01*
X179272857Y-71716428D01*
X179201428Y-71645000D01*
X179058571Y-71573571D01*
X178701428Y-71573571D01*
X178487142Y-71645000D01*
X178915714Y-71359285D02*
X178915714Y-73287857D01*
X177201428Y-71573571D02*
X177487142Y-71573571D01*
X177630000Y-71645000D01*
X177701428Y-71716428D01*
X177844285Y-71930714D01*
X177915714Y-72216428D01*
X177915714Y-72787857D01*
X177844285Y-72930714D01*
X177772857Y-73002142D01*
X177630000Y-73073571D01*
X177344285Y-73073571D01*
X177201428Y-73002142D01*
X177130000Y-72930714D01*
X177058571Y-72787857D01*
X177058571Y-72430714D01*
X177130000Y-72287857D01*
X177201428Y-72216428D01*
X177344285Y-72145000D01*
X177630000Y-72145000D01*
X177772857Y-72216428D01*
X177844285Y-72287857D01*
X177915714Y-72430714D01*
X176130000Y-71573571D02*
X175987142Y-71573571D01*
X175844285Y-71645000D01*
X175772857Y-71716428D01*
X175701428Y-71859285D01*
X175630000Y-72145000D01*
X175630000Y-72502142D01*
X175701428Y-72787857D01*
X175772857Y-72930714D01*
X175844285Y-73002142D01*
X175987142Y-73073571D01*
X176130000Y-73073571D01*
X176272857Y-73002142D01*
X176344285Y-72930714D01*
X176415714Y-72787857D01*
X176487142Y-72502142D01*
X176487142Y-72145000D01*
X176415714Y-71859285D01*
X176344285Y-71716428D01*
X176272857Y-71645000D01*
X176130000Y-71573571D01*
X174701428Y-71573571D02*
X174558571Y-71573571D01*
X174415714Y-71645000D01*
X174344285Y-71716428D01*
X174272857Y-71859285D01*
X174201428Y-72145000D01*
X174201428Y-72502142D01*
X174272857Y-72787857D01*
X174344285Y-72930714D01*
X174415714Y-73002142D01*
X174558571Y-73073571D01*
X174701428Y-73073571D01*
X174844285Y-73002142D01*
X174915714Y-72930714D01*
X174987142Y-72787857D01*
X175058571Y-72502142D01*
X175058571Y-72145000D01*
X174987142Y-71859285D01*
X174915714Y-71716428D01*
X174844285Y-71645000D01*
X174701428Y-71573571D01*
X173272857Y-71573571D02*
X173130000Y-71573571D01*
X172987142Y-71645000D01*
X172915714Y-71716428D01*
X172844285Y-71859285D01*
X172772857Y-72145000D01*
X172772857Y-72502142D01*
X172844285Y-72787857D01*
X172915714Y-72930714D01*
X172987142Y-73002142D01*
X173130000Y-73073571D01*
X173272857Y-73073571D01*
X173415714Y-73002142D01*
X173487142Y-72930714D01*
X173558571Y-72787857D01*
X173630000Y-72502142D01*
X173630000Y-72145000D01*
X173558571Y-71859285D01*
X173487142Y-71716428D01*
X173415714Y-71645000D01*
X173272857Y-71573571D01*
X172130000Y-72502142D02*
X170987142Y-72502142D01*
X170415714Y-71573571D02*
X169415714Y-71573571D01*
X170058571Y-73073571D01*
X168344285Y-72287857D02*
X168844285Y-72287857D01*
X168844285Y-73073571D02*
X168844285Y-71573571D01*
X168130000Y-71573571D01*
X167058571Y-72287857D02*
X167558571Y-72287857D01*
X167558571Y-73073571D02*
X167558571Y-71573571D01*
X166844285Y-71573571D01*
X165772857Y-72287857D02*
X166272857Y-72287857D01*
X166272857Y-73073571D02*
X166272857Y-71573571D01*
X165558571Y-71573571D01*
X163415714Y-73645000D02*
X163487142Y-73573571D01*
X163630000Y-73359285D01*
X163701428Y-73216428D01*
X163772857Y-73002142D01*
X163844285Y-72645000D01*
X163844285Y-72359285D01*
X163772857Y-72002142D01*
X163701428Y-71787857D01*
X163630000Y-71645000D01*
X163487142Y-71430714D01*
X163415714Y-71359285D01*
X162344285Y-72287857D02*
X162844285Y-72287857D01*
X162844285Y-73073571D02*
X162844285Y-71573571D01*
X162130000Y-71573571D01*
X160844285Y-73073571D02*
X161558571Y-73073571D01*
X161558571Y-71573571D01*
X160415714Y-72645000D02*
X159701428Y-72645000D01*
X160558571Y-73073571D02*
X160058571Y-71573571D01*
X159558571Y-73073571D01*
X159130000Y-73002142D02*
X158915714Y-73073571D01*
X158558571Y-73073571D01*
X158415714Y-73002142D01*
X158344285Y-72930714D01*
X158272857Y-72787857D01*
X158272857Y-72645000D01*
X158344285Y-72502142D01*
X158415714Y-72430714D01*
X158558571Y-72359285D01*
X158844285Y-72287857D01*
X158987142Y-72216428D01*
X159058571Y-72145000D01*
X159130000Y-72002142D01*
X159130000Y-71859285D01*
X159058571Y-71716428D01*
X158987142Y-71645000D01*
X158844285Y-71573571D01*
X158487142Y-71573571D01*
X158272857Y-71645000D01*
X157630000Y-73073571D02*
X157630000Y-71573571D01*
X157630000Y-72287857D02*
X156772857Y-72287857D01*
X156772857Y-73073571D02*
X156772857Y-71573571D01*
X154701428Y-73073571D02*
X154844285Y-73002142D01*
X154915714Y-72930714D01*
X154987142Y-72787857D01*
X154987142Y-72359285D01*
X154915714Y-72216428D01*
X154844285Y-72145000D01*
X154701428Y-72073571D01*
X154487142Y-72073571D01*
X154344285Y-72145000D01*
X154272857Y-72216428D01*
X154201428Y-72359285D01*
X154201428Y-72787857D01*
X154272857Y-72930714D01*
X154344285Y-73002142D01*
X154487142Y-73073571D01*
X154701428Y-73073571D01*
X153558571Y-73073571D02*
X153558571Y-72073571D01*
X153558571Y-72359285D02*
X153487142Y-72216428D01*
X153415714Y-72145000D01*
X153272857Y-72073571D01*
X153130000Y-72073571D01*
X150630000Y-73073571D02*
X151130000Y-72359285D01*
X151487142Y-73073571D02*
X151487142Y-71573571D01*
X150915714Y-71573571D01*
X150772857Y-71645000D01*
X150701428Y-71716428D01*
X150630000Y-71859285D01*
X150630000Y-72073571D01*
X150701428Y-72216428D01*
X150772857Y-72287857D01*
X150915714Y-72359285D01*
X151487142Y-72359285D01*
X150058571Y-72645000D02*
X149344285Y-72645000D01*
X150201428Y-73073571D02*
X149701428Y-71573571D01*
X149201428Y-73073571D01*
X148701428Y-73073571D02*
X148701428Y-71573571D01*
X148201428Y-72645000D01*
X147701428Y-71573571D01*
X147701428Y-73073571D01*
X147130000Y-73645000D02*
X147058571Y-73573571D01*
X146915714Y-73359285D01*
X146844285Y-73216428D01*
X146772857Y-73002142D01*
X146701428Y-72645000D01*
X146701428Y-72359285D01*
X146772857Y-72002142D01*
X146844285Y-71787857D01*
X146915714Y-71645000D01*
X147058571Y-71430714D01*
X147130000Y-71359285D01*
X186272857Y-74837857D02*
X186058571Y-74909285D01*
X185987142Y-74980714D01*
X185915714Y-75123571D01*
X185915714Y-75337857D01*
X185987142Y-75480714D01*
X186058571Y-75552142D01*
X186201428Y-75623571D01*
X186772857Y-75623571D01*
X186772857Y-74123571D01*
X186272857Y-74123571D01*
X186130000Y-74195000D01*
X186058571Y-74266428D01*
X185987142Y-74409285D01*
X185987142Y-74552142D01*
X186058571Y-74695000D01*
X186130000Y-74766428D01*
X186272857Y-74837857D01*
X186772857Y-74837857D01*
X184558571Y-75623571D02*
X185272857Y-75623571D01*
X185272857Y-74123571D01*
X184058571Y-75623571D02*
X184058571Y-74123571D01*
X183201428Y-75623571D02*
X183844285Y-74766428D01*
X183201428Y-74123571D02*
X184058571Y-74980714D01*
X181844285Y-74123571D02*
X182558571Y-74123571D01*
X182630000Y-74837857D01*
X182558571Y-74766428D01*
X182415714Y-74695000D01*
X182058571Y-74695000D01*
X181915714Y-74766428D01*
X181844285Y-74837857D01*
X181772857Y-74980714D01*
X181772857Y-75337857D01*
X181844285Y-75480714D01*
X181915714Y-75552142D01*
X182058571Y-75623571D01*
X182415714Y-75623571D01*
X182558571Y-75552142D01*
X182630000Y-75480714D01*
X181130000Y-75480714D02*
X181058571Y-75552142D01*
X181130000Y-75623571D01*
X181201428Y-75552142D01*
X181130000Y-75480714D01*
X181130000Y-75623571D01*
X181130000Y-74695000D02*
X181058571Y-74766428D01*
X181130000Y-74837857D01*
X181201428Y-74766428D01*
X181130000Y-74695000D01*
X181130000Y-74837857D01*
X179344285Y-75552142D02*
X179130000Y-75623571D01*
X178772857Y-75623571D01*
X178630000Y-75552142D01*
X178558571Y-75480714D01*
X178487142Y-75337857D01*
X178487142Y-75195000D01*
X178558571Y-75052142D01*
X178630000Y-74980714D01*
X178772857Y-74909285D01*
X179058571Y-74837857D01*
X179201428Y-74766428D01*
X179272857Y-74695000D01*
X179344285Y-74552142D01*
X179344285Y-74409285D01*
X179272857Y-74266428D01*
X179201428Y-74195000D01*
X179058571Y-74123571D01*
X178701428Y-74123571D01*
X178487142Y-74195000D01*
X178915714Y-73909285D02*
X178915714Y-75837857D01*
X177915714Y-75195000D02*
X177201428Y-75195000D01*
X178058571Y-75623571D02*
X177558571Y-74123571D01*
X177058571Y-75623571D01*
X176272857Y-74123571D02*
X176130000Y-74123571D01*
X175987142Y-74195000D01*
X175915714Y-74266428D01*
X175844285Y-74409285D01*
X175772857Y-74695000D01*
X175772857Y-75052142D01*
X175844285Y-75337857D01*
X175915714Y-75480714D01*
X175987142Y-75552142D01*
X176130000Y-75623571D01*
X176272857Y-75623571D01*
X176415714Y-75552142D01*
X176487142Y-75480714D01*
X176558571Y-75337857D01*
X176630000Y-75052142D01*
X176630000Y-74695000D01*
X176558571Y-74409285D01*
X176487142Y-74266428D01*
X176415714Y-74195000D01*
X176272857Y-74123571D01*
X174844285Y-74123571D02*
X174701428Y-74123571D01*
X174558571Y-74195000D01*
X174487142Y-74266428D01*
X174415714Y-74409285D01*
X174344285Y-74695000D01*
X174344285Y-75052142D01*
X174415714Y-75337857D01*
X174487142Y-75480714D01*
X174558571Y-75552142D01*
X174701428Y-75623571D01*
X174844285Y-75623571D01*
X174987142Y-75552142D01*
X175058571Y-75480714D01*
X175130000Y-75337857D01*
X175201428Y-75052142D01*
X175201428Y-74695000D01*
X175130000Y-74409285D01*
X175058571Y-74266428D01*
X174987142Y-74195000D01*
X174844285Y-74123571D01*
X173415714Y-74123571D02*
X173272857Y-74123571D01*
X173130000Y-74195000D01*
X173058571Y-74266428D01*
X172987142Y-74409285D01*
X172915714Y-74695000D01*
X172915714Y-75052142D01*
X172987142Y-75337857D01*
X173058571Y-75480714D01*
X173130000Y-75552142D01*
X173272857Y-75623571D01*
X173415714Y-75623571D01*
X173558571Y-75552142D01*
X173630000Y-75480714D01*
X173701428Y-75337857D01*
X173772857Y-75052142D01*
X173772857Y-74695000D01*
X173701428Y-74409285D01*
X173630000Y-74266428D01*
X173558571Y-74195000D01*
X173415714Y-74123571D01*
X172272857Y-75052142D02*
X171130000Y-75052142D01*
X169915714Y-74837857D02*
X169701428Y-74909285D01*
X169630000Y-74980714D01*
X169558571Y-75123571D01*
X169558571Y-75337857D01*
X169630000Y-75480714D01*
X169701428Y-75552142D01*
X169844285Y-75623571D01*
X170415714Y-75623571D01*
X170415714Y-74123571D01*
X169915714Y-74123571D01*
X169772857Y-74195000D01*
X169701428Y-74266428D01*
X169630000Y-74409285D01*
X169630000Y-74552142D01*
X169701428Y-74695000D01*
X169772857Y-74766428D01*
X169915714Y-74837857D01*
X170415714Y-74837857D01*
X168415714Y-74837857D02*
X168915714Y-74837857D01*
X168915714Y-75623571D02*
X168915714Y-74123571D01*
X168201428Y-74123571D01*
X167130000Y-74837857D02*
X167630000Y-74837857D01*
X167630000Y-75623571D02*
X167630000Y-74123571D01*
X166915714Y-74123571D01*
X165844285Y-74837857D02*
X166344285Y-74837857D01*
X166344285Y-75623571D02*
X166344285Y-74123571D01*
X165630000Y-74123571D01*
X163487142Y-76195000D02*
X163558571Y-76123571D01*
X163701428Y-75909285D01*
X163772857Y-75766428D01*
X163844285Y-75552142D01*
X163915714Y-75195000D01*
X163915714Y-74909285D01*
X163844285Y-74552142D01*
X163772857Y-74337857D01*
X163701428Y-74195000D01*
X163558571Y-73980714D01*
X163487142Y-73909285D01*
X162415714Y-74837857D02*
X162915714Y-74837857D01*
X162915714Y-75623571D02*
X162915714Y-74123571D01*
X162201428Y-74123571D01*
X160915714Y-75623571D02*
X161629999Y-75623571D01*
X161629999Y-74123571D01*
X160487142Y-75195000D02*
X159772857Y-75195000D01*
X160629999Y-75623571D02*
X160129999Y-74123571D01*
X159629999Y-75623571D01*
X159201428Y-75552142D02*
X158987142Y-75623571D01*
X158629999Y-75623571D01*
X158487142Y-75552142D01*
X158415714Y-75480714D01*
X158344285Y-75337857D01*
X158344285Y-75195000D01*
X158415714Y-75052142D01*
X158487142Y-74980714D01*
X158629999Y-74909285D01*
X158915714Y-74837857D01*
X159058571Y-74766428D01*
X159129999Y-74695000D01*
X159201428Y-74552142D01*
X159201428Y-74409285D01*
X159129999Y-74266428D01*
X159058571Y-74195000D01*
X158915714Y-74123571D01*
X158558571Y-74123571D01*
X158344285Y-74195000D01*
X157701428Y-75623571D02*
X157701428Y-74123571D01*
X157701428Y-74837857D02*
X156844285Y-74837857D01*
X156844285Y-75623571D02*
X156844285Y-74123571D01*
X154772857Y-75623571D02*
X154915714Y-75552142D01*
X154987142Y-75480714D01*
X155058571Y-75337857D01*
X155058571Y-74909285D01*
X154987142Y-74766428D01*
X154915714Y-74695000D01*
X154772857Y-74623571D01*
X154558571Y-74623571D01*
X154415714Y-74695000D01*
X154344285Y-74766428D01*
X154272857Y-74909285D01*
X154272857Y-75337857D01*
X154344285Y-75480714D01*
X154415714Y-75552142D01*
X154558571Y-75623571D01*
X154772857Y-75623571D01*
X153630000Y-75623571D02*
X153630000Y-74623571D01*
X153630000Y-74909285D02*
X153558571Y-74766428D01*
X153487142Y-74695000D01*
X153344285Y-74623571D01*
X153201428Y-74623571D01*
X151701428Y-74123571D02*
X150701428Y-75623571D01*
X150701428Y-74123571D02*
X151701428Y-75623571D01*
X149272857Y-75623571D02*
X149772857Y-74909285D01*
X150129999Y-75623571D02*
X150129999Y-74123571D01*
X149558571Y-74123571D01*
X149415714Y-74195000D01*
X149344285Y-74266428D01*
X149272857Y-74409285D01*
X149272857Y-74623571D01*
X149344285Y-74766428D01*
X149415714Y-74837857D01*
X149558571Y-74909285D01*
X150129999Y-74909285D01*
X148701428Y-75195000D02*
X147987142Y-75195000D01*
X148844285Y-75623571D02*
X148344285Y-74123571D01*
X147844285Y-75623571D01*
X147344285Y-75623571D02*
X147344285Y-74123571D01*
X146844285Y-75195000D01*
X146344285Y-74123571D01*
X146344285Y-75623571D01*
X145772857Y-76195000D02*
X145701428Y-76123571D01*
X145558571Y-75909285D01*
X145487142Y-75766428D01*
X145415714Y-75552142D01*
X145344285Y-75195000D01*
X145344285Y-74909285D01*
X145415714Y-74552142D01*
X145487142Y-74337857D01*
X145558571Y-74195000D01*
X145701428Y-73980714D01*
X145772857Y-73909285D01*
D15*
X104775000Y-64770000D02*
X104775000Y-58420000D01*
X161925000Y-64770000D02*
X104775000Y-64770000D01*
X161925000Y-58420000D02*
X161925000Y-64770000D01*
X104775000Y-58420000D02*
X161925000Y-58420000D01*
D12*
X160385714Y-61023571D02*
X160385714Y-59523571D01*
X160028571Y-59523571D01*
X159814285Y-59595000D01*
X159671428Y-59737857D01*
X159600000Y-59880714D01*
X159528571Y-60166428D01*
X159528571Y-60380714D01*
X159600000Y-60666428D01*
X159671428Y-60809285D01*
X159814285Y-60952142D01*
X160028571Y-61023571D01*
X160385714Y-61023571D01*
X158671428Y-61023571D02*
X158814285Y-60952142D01*
X158885714Y-60880714D01*
X158957142Y-60737857D01*
X158957142Y-60309285D01*
X158885714Y-60166428D01*
X158814285Y-60095000D01*
X158671428Y-60023571D01*
X158457142Y-60023571D01*
X158314285Y-60095000D01*
X158242857Y-60166428D01*
X158171428Y-60309285D01*
X158171428Y-60737857D01*
X158242857Y-60880714D01*
X158314285Y-60952142D01*
X158457142Y-61023571D01*
X158671428Y-61023571D01*
X156385714Y-60023571D02*
X156385714Y-61023571D01*
X156385714Y-60166428D02*
X156314285Y-60095000D01*
X156171428Y-60023571D01*
X155957142Y-60023571D01*
X155814285Y-60095000D01*
X155742857Y-60237857D01*
X155742857Y-61023571D01*
X154814285Y-61023571D02*
X154957142Y-60952142D01*
X155028571Y-60880714D01*
X155100000Y-60737857D01*
X155100000Y-60309285D01*
X155028571Y-60166428D01*
X154957142Y-60095000D01*
X154814285Y-60023571D01*
X154600000Y-60023571D01*
X154457142Y-60095000D01*
X154385714Y-60166428D01*
X154314285Y-60309285D01*
X154314285Y-60737857D01*
X154385714Y-60880714D01*
X154457142Y-60952142D01*
X154600000Y-61023571D01*
X154814285Y-61023571D01*
X153885714Y-60023571D02*
X153314285Y-60023571D01*
X153671428Y-59523571D02*
X153671428Y-60809285D01*
X153600000Y-60952142D01*
X153457142Y-61023571D01*
X153314285Y-61023571D01*
X151028571Y-60952142D02*
X151171428Y-61023571D01*
X151457142Y-61023571D01*
X151600000Y-60952142D01*
X151671428Y-60880714D01*
X151742857Y-60737857D01*
X151742857Y-60309285D01*
X151671428Y-60166428D01*
X151600000Y-60095000D01*
X151457142Y-60023571D01*
X151171428Y-60023571D01*
X151028571Y-60095000D01*
X150171428Y-61023571D02*
X150314285Y-60952142D01*
X150385714Y-60880714D01*
X150457142Y-60737857D01*
X150457142Y-60309285D01*
X150385714Y-60166428D01*
X150314285Y-60095000D01*
X150171428Y-60023571D01*
X149957142Y-60023571D01*
X149814285Y-60095000D01*
X149742857Y-60166428D01*
X149671428Y-60309285D01*
X149671428Y-60737857D01*
X149742857Y-60880714D01*
X149814285Y-60952142D01*
X149957142Y-61023571D01*
X150171428Y-61023571D01*
X149028571Y-60023571D02*
X149028571Y-61023571D01*
X149028571Y-60166428D02*
X148957142Y-60095000D01*
X148814285Y-60023571D01*
X148600000Y-60023571D01*
X148457142Y-60095000D01*
X148385714Y-60237857D01*
X148385714Y-61023571D01*
X147885714Y-60023571D02*
X147314285Y-60023571D01*
X147671428Y-61023571D02*
X147671428Y-59737857D01*
X147600000Y-59595000D01*
X147457142Y-59523571D01*
X147314285Y-59523571D01*
X146814285Y-61023571D02*
X146814285Y-60023571D01*
X146814285Y-59523571D02*
X146885714Y-59595000D01*
X146814285Y-59666428D01*
X146742857Y-59595000D01*
X146814285Y-59523571D01*
X146814285Y-59666428D01*
X145457142Y-60023571D02*
X145457142Y-61237857D01*
X145528571Y-61380714D01*
X145600000Y-61452142D01*
X145742857Y-61523571D01*
X145957142Y-61523571D01*
X146100000Y-61452142D01*
X145457142Y-60952142D02*
X145600000Y-61023571D01*
X145885714Y-61023571D01*
X146028571Y-60952142D01*
X146100000Y-60880714D01*
X146171428Y-60737857D01*
X146171428Y-60309285D01*
X146100000Y-60166428D01*
X146028571Y-60095000D01*
X145885714Y-60023571D01*
X145600000Y-60023571D01*
X145457142Y-60095000D01*
X142742857Y-61023571D02*
X143242857Y-60309285D01*
X143600000Y-61023571D02*
X143600000Y-59523571D01*
X143028571Y-59523571D01*
X142885714Y-59595000D01*
X142814285Y-59666428D01*
X142742857Y-59809285D01*
X142742857Y-60023571D01*
X142814285Y-60166428D01*
X142885714Y-60237857D01*
X143028571Y-60309285D01*
X143600000Y-60309285D01*
X142171428Y-60595000D02*
X141457142Y-60595000D01*
X142314285Y-61023571D02*
X141814285Y-59523571D01*
X141314285Y-61023571D01*
X140814285Y-61023571D02*
X140814285Y-59523571D01*
X140314285Y-60595000D01*
X139814285Y-59523571D01*
X139814285Y-61023571D01*
X137314285Y-61023571D02*
X137314285Y-60237857D01*
X137385714Y-60095000D01*
X137528571Y-60023571D01*
X137814285Y-60023571D01*
X137957142Y-60095000D01*
X137314285Y-60952142D02*
X137457142Y-61023571D01*
X137814285Y-61023571D01*
X137957142Y-60952142D01*
X138028571Y-60809285D01*
X138028571Y-60666428D01*
X137957142Y-60523571D01*
X137814285Y-60452142D01*
X137457142Y-60452142D01*
X137314285Y-60380714D01*
X136600000Y-60023571D02*
X136600000Y-61023571D01*
X136600000Y-60166428D02*
X136528571Y-60095000D01*
X136385714Y-60023571D01*
X136171428Y-60023571D01*
X136028571Y-60095000D01*
X135957142Y-60237857D01*
X135957142Y-61023571D01*
X134600000Y-61023571D02*
X134600000Y-59523571D01*
X134600000Y-60952142D02*
X134742857Y-61023571D01*
X135028571Y-61023571D01*
X135171428Y-60952142D01*
X135242857Y-60880714D01*
X135314285Y-60737857D01*
X135314285Y-60309285D01*
X135242857Y-60166428D01*
X135171428Y-60095000D01*
X135028571Y-60023571D01*
X134742857Y-60023571D01*
X134600000Y-60095000D01*
X132242857Y-60237857D02*
X132742857Y-60237857D01*
X132742857Y-61023571D02*
X132742857Y-59523571D01*
X132028571Y-59523571D01*
X130742857Y-61023571D02*
X131457142Y-61023571D01*
X131457142Y-59523571D01*
X130314285Y-60595000D02*
X129600000Y-60595000D01*
X130457142Y-61023571D02*
X129957142Y-59523571D01*
X129457142Y-61023571D01*
X129028571Y-60952142D02*
X128814285Y-61023571D01*
X128457142Y-61023571D01*
X128314285Y-60952142D01*
X128242857Y-60880714D01*
X128171428Y-60737857D01*
X128171428Y-60595000D01*
X128242857Y-60452142D01*
X128314285Y-60380714D01*
X128457142Y-60309285D01*
X128742857Y-60237857D01*
X128885714Y-60166428D01*
X128957142Y-60095000D01*
X129028571Y-59952142D01*
X129028571Y-59809285D01*
X128957142Y-59666428D01*
X128885714Y-59595000D01*
X128742857Y-59523571D01*
X128385714Y-59523571D01*
X128171428Y-59595000D01*
X127528571Y-61023571D02*
X127528571Y-59523571D01*
X127528571Y-60237857D02*
X126671428Y-60237857D01*
X126671428Y-61023571D02*
X126671428Y-59523571D01*
X125028571Y-60023571D02*
X124457142Y-60023571D01*
X124814285Y-59523571D02*
X124814285Y-60809285D01*
X124742857Y-60952142D01*
X124600000Y-61023571D01*
X124457142Y-61023571D01*
X123742857Y-61023571D02*
X123885714Y-60952142D01*
X123957142Y-60880714D01*
X124028571Y-60737857D01*
X124028571Y-60309285D01*
X123957142Y-60166428D01*
X123885714Y-60095000D01*
X123742857Y-60023571D01*
X123528571Y-60023571D01*
X123385714Y-60095000D01*
X123314285Y-60166428D01*
X123242857Y-60309285D01*
X123242857Y-60737857D01*
X123314285Y-60880714D01*
X123385714Y-60952142D01*
X123528571Y-61023571D01*
X123742857Y-61023571D01*
X121671428Y-60023571D02*
X121100000Y-60023571D01*
X121457142Y-59523571D02*
X121457142Y-60809285D01*
X121385714Y-60952142D01*
X121242857Y-61023571D01*
X121100000Y-61023571D01*
X120600000Y-61023571D02*
X120600000Y-59523571D01*
X119957142Y-61023571D02*
X119957142Y-60237857D01*
X120028571Y-60095000D01*
X120171428Y-60023571D01*
X120385714Y-60023571D01*
X120528571Y-60095000D01*
X120600000Y-60166428D01*
X118671428Y-60952142D02*
X118814285Y-61023571D01*
X119100000Y-61023571D01*
X119242857Y-60952142D01*
X119314285Y-60809285D01*
X119314285Y-60237857D01*
X119242857Y-60095000D01*
X119100000Y-60023571D01*
X118814285Y-60023571D01*
X118671428Y-60095000D01*
X118600000Y-60237857D01*
X118600000Y-60380714D01*
X119314285Y-60523571D01*
X116885714Y-60952142D02*
X116742857Y-61023571D01*
X116457142Y-61023571D01*
X116314285Y-60952142D01*
X116242857Y-60809285D01*
X116242857Y-60737857D01*
X116314285Y-60595000D01*
X116457142Y-60523571D01*
X116671428Y-60523571D01*
X116814285Y-60452142D01*
X116885714Y-60309285D01*
X116885714Y-60237857D01*
X116814285Y-60095000D01*
X116671428Y-60023571D01*
X116457142Y-60023571D01*
X116314285Y-60095000D01*
X114957142Y-61023571D02*
X114957142Y-60237857D01*
X115028571Y-60095000D01*
X115171428Y-60023571D01*
X115457142Y-60023571D01*
X115600000Y-60095000D01*
X114957142Y-60952142D02*
X115100000Y-61023571D01*
X115457142Y-61023571D01*
X115600000Y-60952142D01*
X115671428Y-60809285D01*
X115671428Y-60666428D01*
X115600000Y-60523571D01*
X115457142Y-60452142D01*
X115100000Y-60452142D01*
X114957142Y-60380714D01*
X114242857Y-61023571D02*
X114242857Y-60023571D01*
X114242857Y-60166428D02*
X114171428Y-60095000D01*
X114028571Y-60023571D01*
X113814285Y-60023571D01*
X113671428Y-60095000D01*
X113600000Y-60237857D01*
X113600000Y-61023571D01*
X113600000Y-60237857D02*
X113528571Y-60095000D01*
X113385714Y-60023571D01*
X113171428Y-60023571D01*
X113028571Y-60095000D01*
X112957142Y-60237857D01*
X112957142Y-61023571D01*
X111671428Y-60952142D02*
X111814285Y-61023571D01*
X112100000Y-61023571D01*
X112242857Y-60952142D01*
X112314285Y-60809285D01*
X112314285Y-60237857D01*
X112242857Y-60095000D01*
X112100000Y-60023571D01*
X111814285Y-60023571D01*
X111671428Y-60095000D01*
X111600000Y-60237857D01*
X111600000Y-60380714D01*
X112314285Y-60523571D01*
X109314285Y-60237857D02*
X109100000Y-60309285D01*
X109028571Y-60380714D01*
X108957142Y-60523571D01*
X108957142Y-60737857D01*
X109028571Y-60880714D01*
X109100000Y-60952142D01*
X109242857Y-61023571D01*
X109814285Y-61023571D01*
X109814285Y-59523571D01*
X109314285Y-59523571D01*
X109171428Y-59595000D01*
X109100000Y-59666428D01*
X109028571Y-59809285D01*
X109028571Y-59952142D01*
X109100000Y-60095000D01*
X109171428Y-60166428D01*
X109314285Y-60237857D01*
X109814285Y-60237857D01*
X107600000Y-61023571D02*
X108314285Y-61023571D01*
X108314285Y-59523571D01*
X107100000Y-61023571D02*
X107100000Y-59523571D01*
X106242857Y-61023571D02*
X106885714Y-60166428D01*
X106242857Y-59523571D02*
X107100000Y-60380714D01*
X160135714Y-63523571D02*
X160135714Y-62023571D01*
X159778571Y-62023571D01*
X159564285Y-62095000D01*
X159421428Y-62237857D01*
X159350000Y-62380714D01*
X159278571Y-62666428D01*
X159278571Y-62880714D01*
X159350000Y-63166428D01*
X159421428Y-63309285D01*
X159564285Y-63452142D01*
X159778571Y-63523571D01*
X160135714Y-63523571D01*
X158421428Y-63523571D02*
X158564285Y-63452142D01*
X158635714Y-63380714D01*
X158707142Y-63237857D01*
X158707142Y-62809285D01*
X158635714Y-62666428D01*
X158564285Y-62595000D01*
X158421428Y-62523571D01*
X158207142Y-62523571D01*
X158064285Y-62595000D01*
X157992857Y-62666428D01*
X157921428Y-62809285D01*
X157921428Y-63237857D01*
X157992857Y-63380714D01*
X158064285Y-63452142D01*
X158207142Y-63523571D01*
X158421428Y-63523571D01*
X156135714Y-62523571D02*
X156135714Y-63523571D01*
X156135714Y-62666428D02*
X156064285Y-62595000D01*
X155921428Y-62523571D01*
X155707142Y-62523571D01*
X155564285Y-62595000D01*
X155492857Y-62737857D01*
X155492857Y-63523571D01*
X154564285Y-63523571D02*
X154707142Y-63452142D01*
X154778571Y-63380714D01*
X154850000Y-63237857D01*
X154850000Y-62809285D01*
X154778571Y-62666428D01*
X154707142Y-62595000D01*
X154564285Y-62523571D01*
X154350000Y-62523571D01*
X154207142Y-62595000D01*
X154135714Y-62666428D01*
X154064285Y-62809285D01*
X154064285Y-63237857D01*
X154135714Y-63380714D01*
X154207142Y-63452142D01*
X154350000Y-63523571D01*
X154564285Y-63523571D01*
X153635714Y-62523571D02*
X153064285Y-62523571D01*
X153421428Y-62023571D02*
X153421428Y-63309285D01*
X153350000Y-63452142D01*
X153207142Y-63523571D01*
X153064285Y-63523571D01*
X150778571Y-63523571D02*
X150778571Y-62737857D01*
X150850000Y-62595000D01*
X150992857Y-62523571D01*
X151278571Y-62523571D01*
X151421428Y-62595000D01*
X150778571Y-63452142D02*
X150921428Y-63523571D01*
X151278571Y-63523571D01*
X151421428Y-63452142D01*
X151492857Y-63309285D01*
X151492857Y-63166428D01*
X151421428Y-63023571D01*
X151278571Y-62952142D01*
X150921428Y-62952142D01*
X150778571Y-62880714D01*
X150135714Y-63452142D02*
X149992857Y-63523571D01*
X149707142Y-63523571D01*
X149564285Y-63452142D01*
X149492857Y-63309285D01*
X149492857Y-63237857D01*
X149564285Y-63095000D01*
X149707142Y-63023571D01*
X149921428Y-63023571D01*
X150064285Y-62952142D01*
X150135714Y-62809285D01*
X150135714Y-62737857D01*
X150064285Y-62595000D01*
X149921428Y-62523571D01*
X149707142Y-62523571D01*
X149564285Y-62595000D01*
X148921428Y-63452142D02*
X148778571Y-63523571D01*
X148492857Y-63523571D01*
X148350000Y-63452142D01*
X148278571Y-63309285D01*
X148278571Y-63237857D01*
X148350000Y-63095000D01*
X148492857Y-63023571D01*
X148707142Y-63023571D01*
X148850000Y-62952142D01*
X148921428Y-62809285D01*
X148921428Y-62737857D01*
X148850000Y-62595000D01*
X148707142Y-62523571D01*
X148492857Y-62523571D01*
X148350000Y-62595000D01*
X147635714Y-63523571D02*
X147635714Y-62523571D01*
X147635714Y-62023571D02*
X147707142Y-62095000D01*
X147635714Y-62166428D01*
X147564285Y-62095000D01*
X147635714Y-62023571D01*
X147635714Y-62166428D01*
X146278571Y-62523571D02*
X146278571Y-63737857D01*
X146350000Y-63880714D01*
X146421428Y-63952142D01*
X146564285Y-64023571D01*
X146778571Y-64023571D01*
X146921428Y-63952142D01*
X146278571Y-63452142D02*
X146421428Y-63523571D01*
X146707142Y-63523571D01*
X146850000Y-63452142D01*
X146921428Y-63380714D01*
X146992857Y-63237857D01*
X146992857Y-62809285D01*
X146921428Y-62666428D01*
X146850000Y-62595000D01*
X146707142Y-62523571D01*
X146421428Y-62523571D01*
X146278571Y-62595000D01*
X145564285Y-62523571D02*
X145564285Y-63523571D01*
X145564285Y-62666428D02*
X145492857Y-62595000D01*
X145350000Y-62523571D01*
X145135714Y-62523571D01*
X144992857Y-62595000D01*
X144921428Y-62737857D01*
X144921428Y-63523571D01*
X143064285Y-63523571D02*
X143064285Y-62523571D01*
X143064285Y-62666428D02*
X142992857Y-62595000D01*
X142850000Y-62523571D01*
X142635714Y-62523571D01*
X142492857Y-62595000D01*
X142421428Y-62737857D01*
X142421428Y-63523571D01*
X142421428Y-62737857D02*
X142350000Y-62595000D01*
X142207142Y-62523571D01*
X141992857Y-62523571D01*
X141850000Y-62595000D01*
X141778571Y-62737857D01*
X141778571Y-63523571D01*
X140850000Y-63523571D02*
X140992857Y-63452142D01*
X141064285Y-63380714D01*
X141135714Y-63237857D01*
X141135714Y-62809285D01*
X141064285Y-62666428D01*
X140992857Y-62595000D01*
X140850000Y-62523571D01*
X140635714Y-62523571D01*
X140492857Y-62595000D01*
X140421428Y-62666428D01*
X140350000Y-62809285D01*
X140350000Y-63237857D01*
X140421428Y-63380714D01*
X140492857Y-63452142D01*
X140635714Y-63523571D01*
X140850000Y-63523571D01*
X139707142Y-63523571D02*
X139707142Y-62523571D01*
X139707142Y-62809285D02*
X139635714Y-62666428D01*
X139564285Y-62595000D01*
X139421428Y-62523571D01*
X139278571Y-62523571D01*
X138207142Y-63452142D02*
X138350000Y-63523571D01*
X138635714Y-63523571D01*
X138778571Y-63452142D01*
X138850000Y-63309285D01*
X138850000Y-62737857D01*
X138778571Y-62595000D01*
X138635714Y-62523571D01*
X138350000Y-62523571D01*
X138207142Y-62595000D01*
X138135714Y-62737857D01*
X138135714Y-62880714D01*
X138850000Y-63023571D01*
X136564285Y-62523571D02*
X135992857Y-62523571D01*
X136350000Y-62023571D02*
X136350000Y-63309285D01*
X136278571Y-63452142D01*
X136135714Y-63523571D01*
X135992857Y-63523571D01*
X135492857Y-63523571D02*
X135492857Y-62023571D01*
X134850000Y-63523571D02*
X134850000Y-62737857D01*
X134921428Y-62595000D01*
X135064285Y-62523571D01*
X135278571Y-62523571D01*
X135421428Y-62595000D01*
X135492857Y-62666428D01*
X133492857Y-63523571D02*
X133492857Y-62737857D01*
X133564285Y-62595000D01*
X133707142Y-62523571D01*
X133992857Y-62523571D01*
X134135714Y-62595000D01*
X133492857Y-63452142D02*
X133635714Y-63523571D01*
X133992857Y-63523571D01*
X134135714Y-63452142D01*
X134207142Y-63309285D01*
X134207142Y-63166428D01*
X134135714Y-63023571D01*
X133992857Y-62952142D01*
X133635714Y-62952142D01*
X133492857Y-62880714D01*
X132778571Y-62523571D02*
X132778571Y-63523571D01*
X132778571Y-62666428D02*
X132707142Y-62595000D01*
X132564285Y-62523571D01*
X132349999Y-62523571D01*
X132207142Y-62595000D01*
X132135714Y-62737857D01*
X132135714Y-63523571D01*
X130064285Y-63523571D02*
X130207142Y-63452142D01*
X130278571Y-63380714D01*
X130349999Y-63237857D01*
X130349999Y-62809285D01*
X130278571Y-62666428D01*
X130207142Y-62595000D01*
X130064285Y-62523571D01*
X129849999Y-62523571D01*
X129707142Y-62595000D01*
X129635714Y-62666428D01*
X129564285Y-62809285D01*
X129564285Y-63237857D01*
X129635714Y-63380714D01*
X129707142Y-63452142D01*
X129849999Y-63523571D01*
X130064285Y-63523571D01*
X128921428Y-62523571D02*
X128921428Y-63523571D01*
X128921428Y-62666428D02*
X128849999Y-62595000D01*
X128707142Y-62523571D01*
X128492857Y-62523571D01*
X128349999Y-62595000D01*
X128278571Y-62737857D01*
X128278571Y-63523571D01*
X126992857Y-63452142D02*
X127135714Y-63523571D01*
X127421428Y-63523571D01*
X127564285Y-63452142D01*
X127635714Y-63309285D01*
X127635714Y-62737857D01*
X127564285Y-62595000D01*
X127421428Y-62523571D01*
X127135714Y-62523571D01*
X126992857Y-62595000D01*
X126921428Y-62737857D01*
X126921428Y-62880714D01*
X127635714Y-63023571D01*
X124635714Y-62737857D02*
X124421428Y-62809285D01*
X124349999Y-62880714D01*
X124278571Y-63023571D01*
X124278571Y-63237857D01*
X124349999Y-63380714D01*
X124421428Y-63452142D01*
X124564285Y-63523571D01*
X125135714Y-63523571D01*
X125135714Y-62023571D01*
X124635714Y-62023571D01*
X124492857Y-62095000D01*
X124421428Y-62166428D01*
X124349999Y-62309285D01*
X124349999Y-62452142D01*
X124421428Y-62595000D01*
X124492857Y-62666428D01*
X124635714Y-62737857D01*
X125135714Y-62737857D01*
X122921428Y-63523571D02*
X123635714Y-63523571D01*
X123635714Y-62023571D01*
X122421428Y-63523571D02*
X122421428Y-62023571D01*
X121564285Y-63523571D02*
X122207142Y-62666428D01*
X121564285Y-62023571D02*
X122421428Y-62880714D01*
X119992857Y-62523571D02*
X119421428Y-62523571D01*
X119778571Y-62023571D02*
X119778571Y-63309285D01*
X119707142Y-63452142D01*
X119564285Y-63523571D01*
X119421428Y-63523571D01*
X118707142Y-63523571D02*
X118849999Y-63452142D01*
X118921428Y-63380714D01*
X118992857Y-63237857D01*
X118992857Y-62809285D01*
X118921428Y-62666428D01*
X118849999Y-62595000D01*
X118707142Y-62523571D01*
X118492857Y-62523571D01*
X118349999Y-62595000D01*
X118278571Y-62666428D01*
X118207142Y-62809285D01*
X118207142Y-63237857D01*
X118278571Y-63380714D01*
X118349999Y-63452142D01*
X118492857Y-63523571D01*
X118707142Y-63523571D01*
X116207142Y-63523571D02*
X116349999Y-63452142D01*
X116421428Y-63380714D01*
X116492857Y-63237857D01*
X116492857Y-62809285D01*
X116421428Y-62666428D01*
X116349999Y-62595000D01*
X116207142Y-62523571D01*
X115992857Y-62523571D01*
X115849999Y-62595000D01*
X115778571Y-62666428D01*
X115707142Y-62809285D01*
X115707142Y-63237857D01*
X115778571Y-63380714D01*
X115849999Y-63452142D01*
X115992857Y-63523571D01*
X116207142Y-63523571D01*
X115064285Y-62523571D02*
X115064285Y-63523571D01*
X115064285Y-62666428D02*
X114992857Y-62595000D01*
X114849999Y-62523571D01*
X114635714Y-62523571D01*
X114492857Y-62595000D01*
X114421428Y-62737857D01*
X114421428Y-63523571D01*
X113135714Y-63452142D02*
X113278571Y-63523571D01*
X113564285Y-63523571D01*
X113707142Y-63452142D01*
X113778571Y-63309285D01*
X113778571Y-62737857D01*
X113707142Y-62595000D01*
X113564285Y-62523571D01*
X113278571Y-62523571D01*
X113135714Y-62595000D01*
X113064285Y-62737857D01*
X113064285Y-62880714D01*
X113778571Y-63023571D01*
X110635714Y-63452142D02*
X110778571Y-63523571D01*
X111064285Y-63523571D01*
X111207142Y-63452142D01*
X111278571Y-63380714D01*
X111349999Y-63237857D01*
X111349999Y-62809285D01*
X111278571Y-62666428D01*
X111207142Y-62595000D01*
X111064285Y-62523571D01*
X110778571Y-62523571D01*
X110635714Y-62595000D01*
X109992857Y-63523571D02*
X109992857Y-62023571D01*
X109349999Y-63523571D02*
X109349999Y-62737857D01*
X109421428Y-62595000D01*
X109564285Y-62523571D01*
X109778571Y-62523571D01*
X109921428Y-62595000D01*
X109992857Y-62666428D01*
X108635714Y-63523571D02*
X108635714Y-62523571D01*
X108635714Y-62023571D02*
X108707142Y-62095000D01*
X108635714Y-62166428D01*
X108564285Y-62095000D01*
X108635714Y-62023571D01*
X108635714Y-62166428D01*
X107921428Y-62523571D02*
X107921428Y-64023571D01*
X107921428Y-62595000D02*
X107778571Y-62523571D01*
X107492857Y-62523571D01*
X107349999Y-62595000D01*
X107278571Y-62666428D01*
X107207142Y-62809285D01*
X107207142Y-63237857D01*
X107278571Y-63380714D01*
X107349999Y-63452142D01*
X107492857Y-63523571D01*
X107778571Y-63523571D01*
X107921428Y-63452142D01*
X106564285Y-63380714D02*
X106492857Y-63452142D01*
X106564285Y-63523571D01*
X106635714Y-63452142D01*
X106564285Y-63380714D01*
X106564285Y-63523571D01*
X106564285Y-62952142D02*
X106635714Y-62095000D01*
X106564285Y-62023571D01*
X106492857Y-62095000D01*
X106564285Y-62952142D01*
X106564285Y-62023571D01*
X184752214Y-58753571D02*
X184752214Y-59753571D01*
X185109357Y-58182142D02*
X185466500Y-59253571D01*
X184537928Y-59253571D01*
X183966500Y-59753571D02*
X183966500Y-58253571D01*
X183109357Y-59753571D02*
X183752214Y-58896428D01*
X183109357Y-58253571D02*
X183966500Y-59110714D01*
X181323642Y-58967857D02*
X180180785Y-58967857D01*
X180180785Y-59396428D02*
X181323642Y-59396428D01*
X178109357Y-59753571D02*
X178252214Y-59682142D01*
X178323642Y-59539285D01*
X178323642Y-58253571D01*
X177323642Y-59753571D02*
X177466500Y-59682142D01*
X177537928Y-59610714D01*
X177609357Y-59467857D01*
X177609357Y-59039285D01*
X177537928Y-58896428D01*
X177466500Y-58825000D01*
X177323642Y-58753571D01*
X177109357Y-58753571D01*
X176966500Y-58825000D01*
X176895071Y-58896428D01*
X176823642Y-59039285D01*
X176823642Y-59467857D01*
X176895071Y-59610714D01*
X176966500Y-59682142D01*
X177109357Y-59753571D01*
X177323642Y-59753571D01*
X176323642Y-58753571D02*
X176037928Y-59753571D01*
X175752214Y-59039285D01*
X175466500Y-59753571D01*
X175180785Y-58753571D01*
X174037928Y-59682142D02*
X174180785Y-59753571D01*
X174466500Y-59753571D01*
X174609357Y-59682142D01*
X174680785Y-59539285D01*
X174680785Y-58967857D01*
X174609357Y-58825000D01*
X174466500Y-58753571D01*
X174180785Y-58753571D01*
X174037928Y-58825000D01*
X173966500Y-58967857D01*
X173966500Y-59110714D01*
X174680785Y-59253571D01*
X173323642Y-59753571D02*
X173323642Y-58753571D01*
X173323642Y-59039285D02*
X173252214Y-58896428D01*
X173180785Y-58825000D01*
X173037928Y-58753571D01*
X172895071Y-58753571D01*
X170609357Y-58753571D02*
X170609357Y-59753571D01*
X170966500Y-58182142D02*
X171323642Y-59253571D01*
X170395071Y-59253571D01*
X169823642Y-59753571D02*
X169823642Y-58253571D01*
X168966500Y-59753571D02*
X169609357Y-58896428D01*
X168966500Y-58253571D02*
X169823642Y-59110714D01*
X167823642Y-58967857D02*
X167609357Y-59039285D01*
X167537928Y-59110714D01*
X167466500Y-59253571D01*
X167466500Y-59467857D01*
X167537928Y-59610714D01*
X167609357Y-59682142D01*
X167752214Y-59753571D01*
X168323642Y-59753571D01*
X168323642Y-58253571D01*
X167823642Y-58253571D01*
X167680785Y-58325000D01*
X167609357Y-58396428D01*
X167537928Y-58539285D01*
X167537928Y-58682142D01*
X167609357Y-58825000D01*
X167680785Y-58896428D01*
X167823642Y-58967857D01*
X168323642Y-58967857D01*
X186966500Y-62253571D02*
X187109357Y-62182142D01*
X187180785Y-62110714D01*
X187252214Y-61967857D01*
X187252214Y-61539285D01*
X187180785Y-61396428D01*
X187109357Y-61325000D01*
X186966500Y-61253571D01*
X186752214Y-61253571D01*
X186609357Y-61325000D01*
X186537928Y-61396428D01*
X186466500Y-61539285D01*
X186466500Y-61967857D01*
X186537928Y-62110714D01*
X186609357Y-62182142D01*
X186752214Y-62253571D01*
X186966500Y-62253571D01*
X186037928Y-61253571D02*
X185466500Y-61253571D01*
X185823642Y-62253571D02*
X185823642Y-60967857D01*
X185752214Y-60825000D01*
X185609357Y-60753571D01*
X185466500Y-60753571D01*
X183609357Y-61396428D02*
X183752214Y-61325000D01*
X183823642Y-61253571D01*
X183895071Y-61110714D01*
X183895071Y-61039285D01*
X183823642Y-60896428D01*
X183752214Y-60825000D01*
X183609357Y-60753571D01*
X183323642Y-60753571D01*
X183180785Y-60825000D01*
X183109357Y-60896428D01*
X183037928Y-61039285D01*
X183037928Y-61110714D01*
X183109357Y-61253571D01*
X183180785Y-61325000D01*
X183323642Y-61396428D01*
X183609357Y-61396428D01*
X183752214Y-61467857D01*
X183823642Y-61539285D01*
X183895071Y-61682142D01*
X183895071Y-61967857D01*
X183823642Y-62110714D01*
X183752214Y-62182142D01*
X183609357Y-62253571D01*
X183323642Y-62253571D01*
X183180785Y-62182142D01*
X183109357Y-62110714D01*
X183037928Y-61967857D01*
X183037928Y-61682142D01*
X183109357Y-61539285D01*
X183180785Y-61467857D01*
X183323642Y-61396428D01*
X182395071Y-62253571D02*
X182395071Y-60753571D01*
X181537928Y-62253571D02*
X182180785Y-61396428D01*
X181537928Y-60753571D02*
X182395071Y-61610714D01*
X180395071Y-61467857D02*
X180180785Y-61539285D01*
X180109357Y-61610714D01*
X180037928Y-61753571D01*
X180037928Y-61967857D01*
X180109357Y-62110714D01*
X180180785Y-62182142D01*
X180323642Y-62253571D01*
X180895071Y-62253571D01*
X180895071Y-60753571D01*
X180395071Y-60753571D01*
X180252214Y-60825000D01*
X180180785Y-60896428D01*
X180109357Y-61039285D01*
X180109357Y-61182142D01*
X180180785Y-61325000D01*
X180252214Y-61396428D01*
X180395071Y-61467857D01*
X180895071Y-61467857D01*
X178252214Y-62253571D02*
X178252214Y-60753571D01*
X178252214Y-61325000D02*
X178109357Y-61253571D01*
X177823642Y-61253571D01*
X177680785Y-61325000D01*
X177609357Y-61396428D01*
X177537928Y-61539285D01*
X177537928Y-61967857D01*
X177609357Y-62110714D01*
X177680785Y-62182142D01*
X177823642Y-62253571D01*
X178109357Y-62253571D01*
X178252214Y-62182142D01*
X176680785Y-62253571D02*
X176823642Y-62182142D01*
X176895071Y-62039285D01*
X176895071Y-60753571D01*
X175895071Y-62253571D02*
X176037928Y-62182142D01*
X176109357Y-62110714D01*
X176180785Y-61967857D01*
X176180785Y-61539285D01*
X176109357Y-61396428D01*
X176037928Y-61325000D01*
X175895071Y-61253571D01*
X175680785Y-61253571D01*
X175537928Y-61325000D01*
X175466500Y-61396428D01*
X175395071Y-61539285D01*
X175395071Y-61967857D01*
X175466500Y-62110714D01*
X175537928Y-62182142D01*
X175680785Y-62253571D01*
X175895071Y-62253571D01*
X174109357Y-62182142D02*
X174252214Y-62253571D01*
X174537928Y-62253571D01*
X174680785Y-62182142D01*
X174752214Y-62110714D01*
X174823642Y-61967857D01*
X174823642Y-61539285D01*
X174752214Y-61396428D01*
X174680785Y-61325000D01*
X174537928Y-61253571D01*
X174252214Y-61253571D01*
X174109357Y-61325000D01*
X173466500Y-62253571D02*
X173466500Y-60753571D01*
X173323642Y-61682142D02*
X172895071Y-62253571D01*
X172895071Y-61253571D02*
X173466500Y-61825000D01*
X172180785Y-62182142D02*
X172180785Y-62253571D01*
X172252214Y-62396428D01*
X172323642Y-62467857D01*
X170180785Y-62253571D02*
X170323642Y-62182142D01*
X170395071Y-62110714D01*
X170466500Y-61967857D01*
X170466500Y-61539285D01*
X170395071Y-61396428D01*
X170323642Y-61325000D01*
X170180785Y-61253571D01*
X169966500Y-61253571D01*
X169823642Y-61325000D01*
X169752214Y-61396428D01*
X169680785Y-61539285D01*
X169680785Y-61967857D01*
X169752214Y-62110714D01*
X169823642Y-62182142D01*
X169966500Y-62253571D01*
X170180785Y-62253571D01*
X169037928Y-61253571D02*
X169037928Y-62253571D01*
X169037928Y-61396428D02*
X168966500Y-61325000D01*
X168823642Y-61253571D01*
X168609357Y-61253571D01*
X168466500Y-61325000D01*
X168395071Y-61467857D01*
X168395071Y-62253571D01*
X167466500Y-62253571D02*
X167609357Y-62182142D01*
X167680785Y-62039285D01*
X167680785Y-60753571D01*
X167037928Y-61253571D02*
X166680785Y-62253571D01*
X166323642Y-61253571D02*
X166680785Y-62253571D01*
X166823642Y-62610714D01*
X166895071Y-62682142D01*
X167037928Y-62753571D01*
X165752214Y-62110714D02*
X165680785Y-62182142D01*
X165752214Y-62253571D01*
X165823642Y-62182142D01*
X165752214Y-62110714D01*
X165752214Y-62253571D01*
X165752214Y-61682142D02*
X165823642Y-60825000D01*
X165752214Y-60753571D01*
X165680785Y-60825000D01*
X165752214Y-61682142D01*
X165752214Y-60753571D01*
M02*
