M48
; DRILL file {KiCad (5.1.10)-1} date 08/09/22 12:22:42
; FORMAT={-:-/ absolute / inch / decimal}
; #@! TF.CreationDate,2022-08-09T12:22:42-04:00
; #@! TF.GenerationSoftware,Kicad,Pcbnew,(5.1.10)-1
; #@! TF.FileFunction,Plated,1,2,PTH
FMAT,2
INCH
T1C0.0138
T2C0.0157
T3C0.0315
T4C0.0394
%
G90
G05
T1
X3.7925Y-3.5275
X3.805Y-2.945
X3.8225Y-3.35
X3.83Y-2.97
X3.855Y-2.995
X3.88Y-3.02
X3.905Y-3.045
X3.915Y-3.485
X3.93Y-3.07
X3.95Y-3.485
X4.055Y-2.5875
X4.1998Y-4.1877
X4.25Y-3.465
X4.25Y-3.875
X4.2562Y-3.6587
X4.275Y-3.48
X4.2775Y-3.6375
X4.285Y-2.915
X4.295Y-3.555
X4.295Y-3.7125
X4.295Y-3.7575
X4.2975Y-3.6175
X4.305Y-3.495
X4.315Y-3.69
X4.315Y-3.735
X4.315Y-3.78
X4.325Y-2.6375
X4.3275Y-3.555
X4.345Y-3.49
X4.37Y-3.465
X4.465Y-2.6875
X4.5025Y-3.3725
X4.5275Y-3.35
X4.57Y-2.6725
X4.5775Y-3.6675
X4.605Y-3.645
X4.62Y-3.5
X4.6275Y-3.6225
X4.64Y-3.475
X4.65Y-3.6
X4.675Y-3.555
X4.68Y-2.6625
X4.745Y-4.3425
X4.7725Y-2.64
X4.89Y-2.94
X4.89Y-3.395
X4.8925Y-3.0025
X4.9025Y-3.4175
X4.9025Y-4.3425
X4.9125Y-3.44
X4.9225Y-3.4625
X4.9325Y-3.485
X4.94Y-3.935
X4.9425Y-3.5075
X4.9525Y-3.53
X4.96Y-4.1425
X4.9625Y-3.5525
X4.965Y-3.96
X4.9707Y-3.5762
X4.99Y-3.91
X5.015Y-3.885
X5.0268Y-3.1043
X5.0325Y-3.0375
X5.04Y-3.0675
X5.05Y-2.125
X5.055Y-4.3425
X5.1225Y-2.355
X5.1675Y-2.41
X5.175Y-4.175
X5.185Y-4.075
X5.2125Y-3.395
X5.2125Y-4.3425
X5.215Y-4.09
X5.225Y-2.5625
X5.24Y-4.105
X5.2575Y-3.3275
X5.28Y-3.35
X5.28Y-4.205
X5.285Y-4.165
X5.2975Y-2.395
X5.3025Y-3.3725
X5.3475Y-3.3025
X5.35Y-1.975
X5.35Y-4.19
X5.37Y-4.3425
X5.405Y-4.285
X5.4325Y-3.53
X5.4425Y-3.5525
X5.45Y-1.9975
X5.4508Y-3.5768
X5.46Y-3.6
X5.47Y-3.6225
X5.48Y-3.645
X5.49Y-3.6675
X5.5Y-3.69
X5.51Y-3.7125
X5.52Y-3.735
X5.53Y-3.7575
X5.53Y-3.875
X5.55Y-2.02
X5.55Y-2.955
X5.555Y-3.78
X5.6Y-2.065
X5.625Y-4.2825
X5.6475Y-2.685
X5.6475Y-2.9775
X5.6925Y-3.095
X5.7225Y-2.5625
X5.745Y-3.4175
X5.755Y-3.44
X5.765Y-3.4625
X5.775Y-3.485
X5.7775Y-3.095
X5.7925Y-2.7125
X5.7925Y-3.7125
X5.7925Y-4.025
X5.7975Y-3.6225
X5.815Y-3.735
X5.815Y-4.015
X5.8375Y-3.7575
X5.8375Y-4.025
X5.84Y-3.395
X5.85Y-3.735
X5.86Y-3.3725
X5.86Y-3.78
X5.86Y-4.015
X5.8625Y-2.955
X5.865Y-3.7125
X5.875Y-3.3025
X5.8788Y-3.1237
X5.8794Y-3.0981
X5.8825Y-3.35
X5.885Y-3.69
X5.9025Y-3.6675
X5.905Y-3.3275
X5.9175Y-2.9025
X5.9175Y-3.7575
X5.92Y-3.645
X5.9275Y-3.78
X5.9287Y-2.7512
X5.93Y-2.585
X5.9475Y-4.2075
X5.9625Y-2.78
X5.9875Y-4.335
X6.0Y-3.29
X6.015Y-3.1175
X6.038Y-3.303
X6.065Y-3.3025
X6.07Y-3.8725
X6.075Y-2.81
X6.075Y-2.8525
X6.105Y-3.3025
X6.1375Y-2.365
X6.1375Y-2.7775
X6.15Y-2.6875
X6.1575Y-3.36
X6.16Y-2.9425
X6.19Y-2.6375
X6.195Y-1.9175
X6.2175Y-2.6825
X6.22Y-4.25
X6.2325Y-3.6675
X6.2325Y-3.9875
X6.2425Y-3.29
X6.255Y-3.645
X6.255Y-3.975
X6.26Y-2.7325
X6.2675Y-3.305
X6.2775Y-3.6225
X6.2775Y-3.9875
X6.3Y-3.6
X6.3Y-3.975
X6.3Y-4.3475
X6.312Y-2.8375
X6.3175Y-3.0725
X6.3225Y-3.5075
X6.3316Y-3.1109
X6.345Y-3.53
X6.3675Y-3.5525
X6.38Y-2.735
X6.39Y-3.5762
X6.4075Y-3.17
X6.4225Y-2.66
X6.4325Y-3.17
X6.47Y-3.78
X6.4925Y-3.7575
X6.515Y-3.735
X6.5375Y-3.7125
X6.56Y-3.6675
X6.575Y-3.875
X6.5825Y-3.645
X6.605Y-3.6225
X6.6075Y-3.0875
X6.615Y-3.0475
X6.6275Y-3.6
X6.6448Y-2.5602
X6.695Y-3.17
X6.7Y-2.6525
X6.7339Y-3.9761
X6.7375Y-3.1375
X6.7436Y-2.5589
X6.785Y-3.305
X6.8125Y-3.0975
X6.8275Y-2.9225
X6.8436Y-2.5589
X6.8525Y-3.7375
X6.9448Y-2.5602
X6.96Y-3.0475
X7.0375Y-3.4625
X7.0525Y-3.2825
X7.06Y-3.195
X7.06Y-3.44
X7.06Y-3.485
X7.0775Y-3.1275
X7.0825Y-3.4175
X7.0825Y-3.5075
X7.092Y-3.195
X7.105Y-3.53
X7.1241Y-3.195
X7.1275Y-3.5525
X7.15Y-3.5762
X7.165Y-3.305
X7.1675Y-3.26
X7.1925Y-3.245
X7.2175Y-3.23
X7.265Y-3.305
X7.27Y-2.8725
X7.27Y-3.1125
X7.3675Y-2.405
X7.4075Y-2.9975
T2
X3.79Y-4.3
X3.835Y-4.125
X4.01Y-3.4
X4.01Y-3.6
X4.105Y-3.6
X4.2Y-3.4
X4.21Y-3.92
X4.325Y-2.495
X4.425Y-2.495
X4.525Y-2.495
X4.525Y-3.415
X4.625Y-2.495
X4.715Y-4.195
X4.725Y-2.495
X4.7475Y-3.1925
X4.825Y-2.495
X4.9Y-2.8776
X4.925Y-2.495
X5.01Y-2.495
X5.045Y-3.85
X5.13Y-4.02
X5.4175Y-2.705
X5.6125Y-2.8675
X5.6125Y-3.1125
X5.65Y-2.495
X5.75Y-2.495
X5.7775Y-2.8675
X5.8375Y-3.1725
X5.85Y-2.495
X5.9Y-2.475
X5.9Y-2.71
X5.95Y-2.495
X5.985Y-2.9425
X6.103Y-2.495
X6.1075Y-2.715
X6.135Y-3.125
X6.1437Y-2.8937
X6.2575Y-3.1375
X6.275Y-2.495
X6.29Y-2.9425
X6.375Y-2.495
X6.3832Y-2.9107
X6.475Y-2.495
X6.575Y-2.495
X6.675Y-2.495
X6.775Y-2.495
X6.7861Y-3.9114
X6.8575Y-2.7225
X6.8675Y-2.685
X6.875Y-2.495
X6.91Y-3.1475
X6.975Y-2.495
X7.18Y-2.685
X7.26Y-4.3
X7.2875Y-2.7225
X7.322Y-4.275
X7.37Y-3.22
T3
X3.975Y-4.0122
X3.975Y-4.15
X4.425Y-1.9
X4.425Y-2.2
X4.525Y-1.9
X4.525Y-2.2
X4.625Y-1.9
X4.625Y-2.2
X4.725Y-1.9
X4.725Y-2.2
X4.825Y-1.9
X4.825Y-2.2
X4.925Y-1.9
X4.925Y-2.2
X5.25Y-1.9
X5.25Y-2.2
X5.35Y-1.9
X5.35Y-2.2
X5.45Y-1.9
X5.45Y-2.2
X5.55Y-1.9
X5.55Y-2.2
X5.65Y-1.9
X5.65Y-2.2
X5.75Y-1.9
X5.75Y-2.2
X5.85Y-1.9
X5.85Y-2.2
X5.95Y-1.9
X5.95Y-2.2
X6.275Y-1.9
X6.275Y-2.2
X6.375Y-1.9
X6.375Y-2.2
X6.475Y-1.9
X6.475Y-2.2
X6.575Y-1.9
X6.575Y-2.2
X6.675Y-1.9
X6.675Y-2.2
X6.775Y-1.9
X6.775Y-2.2
X6.875Y-1.9
X6.875Y-2.2
X6.975Y-1.9
X6.975Y-2.2
T4
X3.725Y-3.05
X3.725Y-3.15
X3.725Y-3.25
X3.725Y-3.35
X3.725Y-3.45
X3.725Y-3.55
X3.725Y-3.65
X3.725Y-3.75
X3.834Y-1.9428
X3.834Y-2.12
X4.0899Y-1.9428
X4.0899Y-2.12
X7.22Y-2.1425
X7.32Y-2.1425
X7.42Y-2.1425
T0
M30
